<svg width="124" height="27" viewBox="0 0 124 27" fill="none" xmlns="http://www.w3.org/2000/svg">
<mask id="mask0_141_66" style="mask-type:luminance" maskUnits="userSpaceOnUse" x="103" y="0" width="21" height="27">
<path d="M103.907 0H123.204V26.12H103.907V0Z" fill="white"/>
</mask>
<g mask="url(#mask0_141_66)">
<path d="M104.072 -0.000732422C104.14 0.0669399 104.209 0.135348 104.277 0.20302C108.822 4.409 113.367 8.61571 117.914 12.8224C117.914 8.81872 117.914 4.74809 117.914 0.745869C119.677 0.745869 121.441 0.745869 123.205 0.745869C123.205 9.22623 123.205 17.6389 123.205 26.12C118.592 21.8456 113.979 17.5028 109.297 13.2292C109.297 17.2329 109.297 21.2351 109.297 25.2381C107.532 25.2381 105.836 25.2381 104.072 25.2381C104.072 16.8923 104.072 8.41196 104.072 -0.000732422Z" fill="black"/>
</g>
<mask id="mask1_141_66" style="mask-type:luminance" maskUnits="userSpaceOnUse" x="0" y="0" width="21" height="27">
<path d="M0.338867 0.188354H20.1109V26.1201H0.338867V0.188354Z" fill="white"/>
</mask>
<g mask="url(#mask1_141_66)">
<path d="M2.17043 3.93456C3.59523 1.83084 6.10572 0.678204 8.5478 0.406779C12.2793 0.0669474 16.35 0.678204 19.2672 3.25563C18.0462 4.409 16.7575 5.4947 15.5357 6.64807C14.1793 5.42703 12.3477 4.81651 10.5154 4.81651C9.15832 4.7481 7.73353 5.22328 6.98766 6.37665C6.44482 7.19092 6.64857 8.41196 7.39443 9.02248C8.61548 10.0405 10.1756 10.5149 11.6688 11.0578C13.8395 11.7367 16.0109 12.4826 17.7748 13.9751C20.2169 15.9434 20.7597 19.9457 18.8605 22.4562C17.2319 24.6275 14.5861 25.7809 11.9402 25.9832C9.56509 26.0509 7.19068 25.9832 4.95161 25.1704C3.25613 24.6275 1.76366 23.6772 0.338867 22.6584C1.55991 21.5058 2.84862 20.3524 4.0704 19.1991C6.17339 20.8276 8.8869 21.7096 11.5335 21.3705C12.6861 21.1674 13.9079 20.5562 14.3147 19.4028C14.5861 18.3855 13.9756 17.3675 13.0936 16.8923C10.3801 15.3314 7.19068 14.9938 4.54484 13.2969C3.12005 12.4149 1.89901 11.0578 1.42383 9.42999C0.881716 7.53002 1.08473 5.4947 2.17043 3.93456Z" fill="black"/>
</g>
<path d="M29.0371 0.813477C30.801 0.813477 32.5649 0.813477 34.3288 0.813477C34.3288 4.06983 34.3288 7.25852 34.3288 10.5149C37.925 10.5149 41.4528 10.5149 45.0482 10.5149C45.0482 7.25852 45.0482 4.06983 45.0482 0.813477C46.8128 0.813477 48.6437 0.813477 50.4083 0.813477C50.4083 9.02241 50.4083 17.1637 50.4083 25.3726C48.6437 25.3726 46.8128 25.3726 45.0482 25.3726C45.0482 21.7779 45.0482 18.1133 45.0482 14.5186C41.4528 14.5186 37.925 14.5186 34.3288 14.5186C34.3288 18.1133 34.3288 21.7779 34.3288 25.3726C32.5649 25.3726 30.801 25.3726 29.0371 25.3726C29.0371 17.2328 29.0371 9.02241 29.0371 0.813477Z" fill="black"/>
<path d="M60.7878 0.813477C66.8261 0.813477 72.7967 0.813477 78.835 0.813477C78.835 2.10219 78.835 3.45931 78.835 4.74803C74.5606 4.74803 70.2862 4.74803 66.0126 4.74803C66.0126 6.71567 66.0126 8.61564 66.0126 10.5833C70.2178 10.5833 74.4253 10.5833 78.6312 10.5833C78.6312 11.872 78.6312 13.1607 78.6312 14.4502C74.4253 14.4502 70.2178 14.4502 66.0126 14.4502C66.0126 16.6892 66.0126 18.9283 66.0126 21.1674C70.2862 21.1674 74.5606 21.1674 78.835 21.1674C78.835 22.5914 78.835 23.9485 78.835 25.3726C72.7967 25.3726 66.8261 25.3726 60.7878 25.3726C60.7878 17.2328 60.7878 9.02241 60.7878 0.813477Z" fill="black"/>
<path d="M88.2649 0.813477C90.0288 0.813477 91.7934 0.813477 93.5573 0.813477C93.5573 9.02241 93.5573 17.1637 93.5573 25.3726C91.7934 25.3726 90.0288 25.3726 88.2649 25.3726C88.2649 17.2328 88.2649 9.02241 88.2649 0.813477Z" fill="black"/>
</svg>
