<svg width="252" height="252" viewBox="0 0 252 252" fill="none" xmlns="http://www.w3.org/2000/svg">
<g clip-path="url(#clip0_2398_364)">
<rect width="252" height="252" fill="white"/>
<mask id="mask0_2398_364" style="mask-type:luminance" maskUnits="userSpaceOnUse" x="0" y="0" width="252" height="252">
<path d="M252 0H0V252H252V0Z" fill="white"/>
</mask>
<g mask="url(#mask0_2398_364)">
<path d="M214.707 166.572H171.919C168.965 166.572 166.57 168.966 166.57 171.92C166.57 174.874 168.965 177.268 171.919 177.268H203.753C185.997 203.74 156.247 220.026 123.969 220.057C70.7464 220.108 27.5602 177.005 27.5086 123.783C27.504 118.7 27.9095 113.624 28.721 108.606C29.1996 105.692 27.2259 102.942 24.3127 102.463C21.3988 101.984 18.6488 103.957 18.1702 106.871C17.2633 112.463 16.8089 118.119 16.8115 123.783C16.8808 182.832 64.7328 230.685 123.782 230.754C157.755 230.768 189.305 214.638 209.358 187.981V214.714C209.36 217.666 211.754 220.058 214.707 220.057H214.713C217.665 220.055 220.057 217.661 220.055 214.708V171.914C220.053 168.961 217.659 166.569 214.707 166.572ZM174.457 29.6116C127.207 4.16629 69.4493 17.96 38.2056 59.6324V32.8584C38.2056 29.9047 35.8108 27.5099 32.8571 27.5099C29.9034 27.5099 27.5086 29.9047 27.5086 32.8584V75.6532C27.5105 78.6048 29.9047 80.9969 32.8571 80.9951H75.6453C78.5988 80.9951 80.9937 78.6002 80.9937 75.6468C80.9937 72.6929 78.5988 70.2979 75.6453 70.2979H43.8107C61.5668 43.8264 91.3165 27.5406 123.595 27.5099C176.817 27.4584 220.004 70.5614 220.055 123.783C220.06 128.867 219.655 133.943 218.844 138.962L218.84 138.987C218.369 141.895 220.345 144.633 223.253 145.104C223.542 145.154 223.836 145.179 224.129 145.177C226.745 145.174 228.973 143.277 229.394 140.695C230.3 135.104 230.755 129.448 230.752 123.783C230.721 84.4319 209.104 48.2699 174.457 29.6116Z" fill="#1043FA"/>
<path d="M130.199 158.516V166.808C130.2 168.545 128.715 171 125.908 171C123.1 171 121.617 168.545 121.616 166.808V158.516L130.199 158.516ZM130.199 158.516H133.773C143.963 158.516 152.223 150.256 152.223 140.067C152.223 129.877 143.963 121.617 133.773 121.617H118.042C112.593 121.617 108.176 117.2 108.176 111.751C108.176 106.302 112.593 101.885 118.042 101.885H125.908H147.931C150.301 101.885 152.223 99.9629 152.223 97.5928C152.223 95.223 150.301 93.3014 147.931 93.3014H130.199V85.0083C130.199 82.6382 128.278 80.7166 125.908 80.7166C123.537 80.7166 121.616 82.6382 121.616 85.0083V93.3014H118.042C107.853 93.3014 99.5928 101.562 99.5928 111.751C99.5928 121.94 107.853 130.2 118.042 130.2H133.773C139.222 130.2 143.639 134.618 143.639 140.067C143.639 145.515 139.222 149.933 133.773 149.933H103.884C101.514 149.933 99.5928 151.854 99.5928 154.224C99.5928 156.594 101.514 158.516 103.884 158.516H115H123.1H130.199Z" fill="#1043FA"/>
</g>
</g>
<defs>
<clipPath id="clip0_2398_364">
<rect width="252" height="252" fill="white"/>
</clipPath>
</defs>
</svg>
