<svg width="100" height="75" viewBox="0 0 100 75" fill="none" xmlns="http://www.w3.org/2000/svg">
<path d="M24.6334 32.8975L22.0316 35.4993L21.9015 35.6294L21.0754 36.4555L20.464 37.0735L19.6379 37.8995L19.5078 38.0231L19.15 38.3874L19.0199 38.511L17.8036 39.7273L17.6735 39.8509C17.318 40.2059 16.9153 40.5101 16.4766 40.755C16.2673 40.8721 16.0499 40.9743 15.8262 41.0608C15.3223 41.256 14.7914 41.3723 14.2521 41.4055C13.9253 41.4347 13.5966 41.4347 13.2699 41.4055C12.5564 41.3279 11.8661 41.1067 11.2404 40.755C10.9571 40.6084 10.6947 40.4247 10.4599 40.2087L10.3103 40.0591L5.56845 35.2717L5.47088 35.1741C5.38642 35.0828 5.31226 34.9824 5.24972 34.8749C5.08701 34.5991 5.00163 34.2845 5.00255 33.9643C4.99915 33.9144 4.99915 33.8645 5.00255 33.8147C5.00255 33.7366 5.00255 33.6585 5.00255 33.587V33.5024C5.06613 33.266 5.17674 33.0447 5.32778 32.852C5.36769 32.8012 5.41116 32.7534 5.45787 32.7089L5.54243 32.6243L10.6485 27.5833L13.7057 24.5326C14.031 24.2068 14.468 24.0168 14.9281 24.0011C15.3883 23.9854 15.8372 24.1451 16.1839 24.4481L24.6334 32.8975Z" fill="#005BAA"/>
<path d="M15.4424 44.2415C15.031 44.24 14.6248 44.149 14.2521 43.9748L13.2829 43.0122L13.0422 42.778L13.0032 42.7325L12.5544 42.2836L10.2973 40.0005L10.4469 40.1501C10.6833 40.3689 10.948 40.5549 11.234 40.703C11.8596 41.0547 12.5499 41.2759 13.2634 41.3535C13.5901 41.3827 13.9188 41.3827 14.2456 41.3535C14.7849 41.3203 15.3159 41.204 15.8197 41.0087C16.0434 40.9223 16.2608 40.8201 16.4702 40.703C16.9088 40.4581 17.3115 40.1539 17.667 39.7989L17.7971 39.6753L19.0134 38.4589L19.1435 38.3354L19.5013 37.9711L19.6314 37.8475L20.4575 37.0214L21.0689 36.4035L21.9145 35.6229L22.0446 35.4929L27.2808 30.2892L29.4273 27.902L29.5444 27.7914C29.8613 27.4756 30.2905 27.2983 30.738 27.2983C31.1854 27.2983 31.6146 27.4756 31.9316 27.7914L33.1154 28.9753H33.1544C32.8888 28.9642 32.6236 29.0075 32.3753 29.1026C32.127 29.1976 31.9007 29.3425 31.7104 29.5281L27.7101 33.4309L27.6711 33.4764L20.7242 40.3973L18.1548 42.9146L17.9987 43.0772C17.6491 43.4166 17.2472 43.6977 16.8084 43.9098C16.5644 44.0282 16.3065 44.1156 16.0409 44.17C15.8887 44.2019 15.7343 44.2214 15.579 44.2285L15.4424 44.2415Z" fill="#ED1C24"/>
<path d="M39.5289 37.7694L39.3988 37.8995L33.7333 43.6495L27.7686 49.6923C27.5833 49.8794 27.3831 50.0512 27.1702 50.2061L27.0856 50.2647C26.0487 51.0056 24.7861 51.3622 23.5147 51.2732C22.2434 51.1841 21.0428 50.6551 20.1192 49.7768L19.9631 49.6858L18.9419 48.6646L16.0604 45.783L15.0977 44.8138L14.9676 44.6772C15.1224 44.7032 15.279 44.7162 15.4359 44.7163H15.5725C15.7564 44.7085 15.9392 44.6845 16.1189 44.6447C16.4236 44.5843 16.7189 44.4837 16.997 44.3455C17.4763 44.1076 17.9153 43.7959 18.2979 43.4219L18.4736 43.2332L20.6851 41.0607L28.289 33.5804L28.328 33.5284L32.0616 29.9118C32.3042 29.6793 32.6188 29.5365 32.9535 29.507C33.2881 29.4774 33.6229 29.5628 33.9024 29.7492L34.7741 30.6273L39.5224 35.3822C39.5648 35.4224 39.6039 35.4659 39.6395 35.5123C39.904 35.8353 40.0392 36.2451 40.0188 36.6621C39.9983 37.0792 39.8238 37.4737 39.5289 37.7694Z" fill="#ED1C24"/>
<path d="M21.1729 31.4729C21.1056 31.5351 21.0174 31.5696 20.9258 31.5696C20.8341 31.5696 20.7459 31.5351 20.6786 31.4729C20.1443 30.9352 19.5093 30.508 18.8099 30.2157C18.1105 29.9234 17.3604 29.7717 16.6023 29.7692C15.0714 29.7644 13.6013 30.3678 12.5153 31.4469C11.4294 32.526 10.8165 33.9922 10.8117 35.5231C10.8068 37.054 11.4102 38.5242 12.4893 39.6102L14.2455 41.3794C14.2474 41.3923 14.2474 41.4055 14.2455 41.4184C13.9275 41.4478 13.6074 41.4478 13.2894 41.4184L11.9885 40.1175C10.7809 38.9013 10.1059 37.2552 10.112 35.5413C10.1181 33.8274 10.8048 32.1862 12.021 30.9786C13.2372 29.771 14.8833 29.096 16.5972 29.1021C18.3111 29.1082 19.9523 29.7949 21.1599 31.0111C21.2189 31.0728 21.2528 31.1542 21.2552 31.2395C21.2576 31.3248 21.2283 31.408 21.1729 31.4729Z" fill="#009EDB"/>
<path d="M23.8659 33.6845L23.378 34.1658L22.5259 33.3072C22.4939 33.2752 22.4684 33.2372 22.4511 33.1953C22.4337 33.1535 22.4248 33.1086 22.4248 33.0633C22.4248 33.018 22.4337 32.9731 22.4511 32.9313C22.4684 32.8894 22.4939 32.8514 22.5259 32.8194C22.5579 32.7873 22.596 32.7619 22.6378 32.7445C22.6797 32.7272 22.7245 32.7183 22.7699 32.7183C22.8152 32.7183 22.86 32.7272 22.9019 32.7445C22.9437 32.7619 22.9818 32.7873 23.0138 32.8194L23.8659 33.6845Z" fill="#009EDB"/>
<path d="M16.5027 40.742C16.2936 40.8578 16.0761 40.9578 15.8522 41.0412L13.4585 38.6476C12.7327 37.9165 12.2849 36.955 12.1922 35.929C12.0996 34.903 12.368 33.8768 12.9511 33.0276C13.0037 32.9527 13.0834 32.9013 13.1733 32.8843C13.2632 32.8673 13.3562 32.886 13.4325 32.9365C13.4697 32.9625 13.5015 32.9956 13.5259 33.0339C13.5503 33.0722 13.5669 33.1149 13.5748 33.1596C13.5827 33.2043 13.5816 33.2502 13.5717 33.2945C13.5618 33.3388 13.5432 33.3807 13.517 33.4179C13.0255 34.1347 12.7994 35.0005 12.8778 35.8661C12.9562 36.7317 13.3341 37.5429 13.9464 38.1597L16.5027 40.742Z" fill="#009EDB"/>
<path d="M22.4088 35.1222L22.051 35.4799L21.934 35.597L19.2476 32.8846C18.756 32.3908 18.136 32.0444 17.4578 31.8846C16.7796 31.7249 16.0702 31.758 15.4099 31.9804C15.3658 32.0009 15.3178 32.0117 15.2692 32.0123C15.2206 32.0129 15.1725 32.0032 15.1279 31.9838C15.0833 31.9645 15.0433 31.9359 15.0105 31.9001C14.9778 31.8642 14.9529 31.8218 14.9377 31.7756C14.9225 31.7295 14.9172 31.6806 14.9222 31.6323C14.9271 31.5839 14.9423 31.5372 14.9666 31.4951C14.9909 31.453 15.0239 31.4166 15.0633 31.3881C15.1027 31.3596 15.1476 31.3398 15.1952 31.33C15.9738 31.0747 16.8082 31.0417 17.6046 31.2348C18.4009 31.4279 19.1276 31.8393 19.7029 32.4228L22.4088 35.1222Z" fill="#009EDB"/>
<path d="M20.9713 36.5662L20.4834 37.054L17.784 34.3351C17.4589 34.0686 17.0461 33.9327 16.6261 33.954C16.2062 33.9754 15.8093 34.1524 15.5128 34.4505C15.2163 34.7486 15.0415 35.1465 15.0225 35.5665C15.0034 35.9865 15.1416 36.3986 15.4099 36.7223L17.1466 38.472C17.2113 38.5367 17.2476 38.6245 17.2476 38.716C17.2476 38.8074 17.2113 38.8952 17.1466 38.9599C17.0819 39.0246 16.9942 39.0609 16.9027 39.0609C16.8112 39.0609 16.7234 39.0246 16.6588 38.9599L14.8895 37.2101C14.4767 36.7546 14.2555 36.1573 14.2721 35.5427C14.2887 34.9281 14.5418 34.3437 14.9786 33.911C15.4154 33.4784 16.0023 33.231 16.617 33.2203C17.2317 33.2097 17.8268 33.4366 18.2784 33.8538L20.9713 36.5662Z" fill="#009EDB"/>
<path d="M19.5273 38.0035L19.1695 38.3678L19.0525 38.4784L16.34 35.7725C16.2754 35.7078 16.239 35.62 16.239 35.5286C16.239 35.4371 16.2754 35.3493 16.34 35.2846C16.4047 35.2199 16.4925 35.1836 16.584 35.1836C16.6755 35.1836 16.7632 35.2199 16.8279 35.2846L19.5273 38.0035Z" fill="#009EDB"/>
<path fill-rule="evenodd" clip-rule="evenodd" d="M87.4026 37.8541L83.3828 32.091L82.9795 31.7203H86.9603L89.6467 36.0718L89.8614 35.8962L91.481 33.483C91.684 33.2194 91.7746 32.8863 91.7332 32.5561C91.6918 32.226 91.5216 31.9256 91.2598 31.7203H95L90.6744 37.8476V42.2967L91.4355 43.2074H86.7652L87.4156 42.3097C87.4156 40.8332 87.3636 39.3306 87.4156 37.8541H87.4026ZM76.4944 31.7203C76.7522 31.9872 76.9126 32.3332 76.9497 32.7025C76.9753 32.9229 76.9463 33.1463 76.8652 33.3529L73.8796 42.017C73.6822 42.4523 73.3912 42.8388 73.0275 43.1488H76.2798C76.0409 42.953 75.8795 42.6787 75.8245 42.3748C75.7657 42.1619 75.7657 41.9372 75.8245 41.7243L76.4749 39.6689H80.2671L80.859 41.256C80.9187 41.4148 80.9559 41.5812 80.9696 41.7503C81.0082 42.0204 80.9722 42.2958 80.8656 42.5469C80.759 42.798 80.5858 43.0151 80.3647 43.1748H85.4708C84.9673 42.7697 84.5532 42.2648 84.2544 41.6918L80.5208 31.6877L76.4944 31.7203ZM79.7467 38.2249H77.0343L78.3352 34.4782L79.7337 38.2249H79.7467ZM66.1456 31.7268H71.8371C72.6629 31.7285 73.4544 32.0573 74.0384 32.6412C74.6223 33.2252 74.9511 34.0167 74.9528 34.8425V35.2262C74.9426 36.0441 74.6119 36.8254 74.0316 37.402C73.4514 37.9785 72.6681 38.3044 71.8501 38.3094L70.4256 38.3549C70.9591 38.0639 71.3883 37.6134 71.653 37.0664C71.9178 36.5194 72.0049 35.9033 71.9022 35.3043C71.7916 34.3416 71.2973 33.418 70.4712 33.3985H69.9508V41.926C69.9484 42.063 69.9894 42.1973 70.0679 42.3097C70.2239 42.5543 70.3978 42.7869 70.5883 43.0057L70.7379 43.1879H66.3148L66.5034 42.9342C66.642 42.7516 66.7577 42.5529 66.8481 42.3423C66.9053 42.2202 66.9342 42.0868 66.9327 41.952V32.774C66.9132 32.2927 66.4383 32.0195 66.1456 31.7268Z" fill="#005BAA"/>
<path fill-rule="evenodd" clip-rule="evenodd" d="M42.1763 31.6682H45.7473L48.7459 40.2608L51.2892 33.1448C51.3356 32.9373 51.2982 32.7199 51.1851 32.5398C51.0485 32.2471 50.8989 31.9674 50.7558 31.6812H53.4227C53.2666 32.2601 53.0324 32.8976 52.8308 33.483L49.3834 43.5131C48.3483 43.3475 47.3799 42.897 46.5864 42.2121C46.0534 41.6386 45.6673 40.9445 45.4611 40.1892L42.5796 32.5203C42.465 32.2273 42.3303 31.9426 42.1763 31.6682ZM56.4343 35.7076V41.8479C56.4343 42.0951 56.4929 42.1406 56.649 42.3422L57.3515 43.2594H53.9886L54.5545 42.3943C54.6933 42.2261 54.7671 42.0138 54.7626 41.7959V33.2033L53.8195 31.6682H57.3059L62.9454 38.9599V33.1708C62.9516 32.9517 62.8802 32.7374 62.7438 32.5658C62.5551 32.2731 62.3535 31.9934 62.1649 31.7072H65.4952L64.8448 32.5984C64.6886 32.7935 64.6301 32.839 64.6301 33.0927V43.5131C63.9488 43.4778 63.2831 43.2962 62.6781 42.9809C62.0732 42.6655 61.5432 42.2236 61.1241 41.6853L56.4343 35.7076Z" fill="#ED1C24"/>
<path d="M45.7473 47.1294C45.7473 47.5848 45.9424 47.8254 46.4433 47.8254C46.6388 47.8254 46.8327 47.7902 47.0157 47.7214C47.1068 47.6823 47.1328 47.7214 47.1328 47.8059V47.858C47.1328 47.936 47.1328 47.9685 47.0157 48.0141C46.8356 48.0847 46.6431 48.1179 46.4498 48.1116C45.7603 48.1116 45.4351 47.8059 45.4351 47.1294V46.479C45.4158 46.3418 45.4285 46.202 45.4722 46.0705C45.516 45.9391 45.5896 45.8195 45.6872 45.7213C45.7849 45.623 45.9039 45.5486 46.0351 45.504C46.1663 45.4595 46.306 45.4458 46.4433 45.4643C46.6323 45.4655 46.8196 45.5007 46.9962 45.5683C47.0872 45.6009 47.1068 45.6399 47.1068 45.7179V45.77C47.1068 45.8676 47.0677 45.8936 46.9832 45.861C46.8085 45.7863 46.6202 45.7487 46.4303 45.7505C45.9489 45.7505 45.7798 45.9846 45.7798 46.492L45.7473 47.1294Z" fill="#009EDB"/>
<path d="M46.4498 48.1183C45.7538 48.1183 45.4286 47.7996 45.4286 47.1296V46.4792C45.409 46.3414 45.4218 46.2009 45.4659 46.0689C45.51 45.9369 45.5842 45.8169 45.6826 45.7185C45.781 45.6201 45.901 45.5459 46.033 45.5018C46.165 45.4577 46.3055 45.4449 46.4433 45.4644C46.6323 45.4657 46.8196 45.5009 46.9962 45.5685C47.0937 45.6075 47.1132 45.6466 47.1132 45.7246V45.7767C47.1132 45.8287 47.1132 45.8612 47.1132 45.8742C47.1132 45.8872 47.0612 45.8742 47.0157 45.8742C46.8396 45.8049 46.652 45.7696 46.4628 45.7702C45.9945 45.7702 45.8123 45.9978 45.8123 46.5052V47.1556C45.8123 47.6305 46.0205 47.8451 46.5018 47.8451C46.6954 47.8477 46.8877 47.8124 47.0677 47.7411C47.1198 47.7411 47.1458 47.7411 47.1653 47.7411C47.1848 47.7411 47.1653 47.7866 47.1653 47.8386V47.8907C47.1653 47.9752 47.1653 48.0077 47.0482 48.0468C46.8571 48.1171 46.6521 48.1416 46.4498 48.1183ZM46.4498 45.471C46.3116 45.4509 46.1706 45.4636 46.0382 45.508C45.9058 45.5525 45.7857 45.6274 45.6876 45.7268C45.5895 45.8261 45.5161 45.9472 45.4734 46.0801C45.4306 46.2131 45.4197 46.3542 45.4416 46.4922V47.1426C45.4416 47.7931 45.7668 48.1183 46.4563 48.1183C46.6478 48.1292 46.8392 48.0958 47.0157 48.0208C47.1132 47.9817 47.1328 47.9492 47.1328 47.8711V47.8061C47.1328 47.7541 47.1328 47.728 47.1328 47.715C47.1328 47.702 47.0937 47.715 47.0482 47.715C46.8659 47.7864 46.6715 47.8217 46.4758 47.8191C45.9945 47.8191 45.7733 47.6045 45.7733 47.1231V46.4727C45.7733 45.9588 45.988 45.7311 46.4628 45.7311C46.6543 45.728 46.8446 45.7634 47.0222 45.8352C47.0612 45.8352 47.0872 45.8352 47.1067 45.8352C47.1132 45.8209 47.1166 45.8054 47.1166 45.7897C47.1166 45.774 47.1132 45.7585 47.1067 45.7441V45.6921C47.1067 45.6206 47.1067 45.5815 46.9897 45.5425C46.8139 45.4831 46.6287 45.4567 46.4433 45.4644L46.4498 45.471Z" fill="#009EDB"/>
<path d="M47.5555 45.4643C47.5555 45.3537 47.5555 45.3342 47.6791 45.3342H47.7247C47.8287 45.3342 47.8483 45.3342 47.8483 45.4643V46.3815C47.9237 46.2838 48.0235 46.2077 48.1377 46.1609C48.2519 46.1141 48.3764 46.0982 48.4987 46.1148C48.9605 46.1148 49.2337 46.3099 49.2337 46.7652V47.9361C49.2337 48.0401 49.2337 48.0597 49.1101 48.0597H49.0581C48.954 48.0597 48.9345 48.0597 48.9345 47.9361V46.8108C48.9345 46.4985 48.7979 46.362 48.4272 46.362C48.0564 46.362 47.8808 46.5116 47.8808 46.8758V47.9491C47.8808 48.0531 47.8808 48.0727 47.7572 48.0727H47.7117C47.6141 48.0727 47.5881 48.0727 47.5881 47.9491L47.5555 45.4643Z" fill="#009EDB"/>
<path d="M49.0777 48.0663H49.0256C48.9215 48.0663 48.902 48.0663 48.902 47.9362V46.8109C48.902 46.4922 48.7524 46.3686 48.3947 46.3686C48.0369 46.3686 47.8548 46.5182 47.8548 46.876V47.9492C47.8548 48.0533 47.8548 48.0793 47.7247 48.0793H47.6792C47.5751 48.0793 47.5491 48.0793 47.5491 47.9492V45.4645C47.5491 45.3474 47.5491 45.3279 47.6792 45.3279H47.7247C47.8288 45.3279 47.8548 45.3279 47.8548 45.4645V46.3686C47.931 46.2721 48.0311 46.1973 48.1453 46.1517C48.2594 46.106 48.3835 46.0911 48.5053 46.1084C48.9931 46.1084 49.2403 46.3426 49.2403 46.8109V47.9818C49.2338 48.0663 49.1882 48.0663 49.0777 48.0663ZM48.3947 46.3426C48.7589 46.3426 48.9085 46.4792 48.9085 46.7979V47.9362C48.9085 48.0403 48.9085 48.0533 49.0256 48.0533H49.0777C49.1817 48.0533 49.2012 48.0533 49.2012 47.9362V46.7654C49.2012 46.3036 48.9541 46.0759 48.4727 46.0759C48.3502 46.0534 48.2237 46.0665 48.1084 46.1138C47.9931 46.1611 47.8938 46.2405 47.8223 46.3426V45.4645C47.8223 45.3604 47.8223 45.3409 47.7052 45.3409H47.6597C47.5621 45.3409 47.5361 45.3409 47.5361 45.4645V47.9818C47.5361 48.0858 47.5361 48.0988 47.6597 48.0988H47.7052C47.8093 48.0988 47.8223 48.0988 47.8223 47.9818V46.876C47.8418 46.5117 48.0109 46.3556 48.3947 46.3556V46.3426Z" fill="#009EDB"/>
<path d="M49.624 47.2791V46.9149C49.624 46.362 49.9167 46.0823 50.4956 46.0823C51.0745 46.0823 51.3607 46.3685 51.3607 46.9149V47.2791C51.3607 47.8385 51.0745 48.1117 50.4956 48.1117C49.9167 48.1117 49.624 47.8255 49.624 47.2791ZM51.0615 46.9149C51.0615 46.5311 50.9249 46.362 50.4956 46.362C50.0663 46.362 49.9232 46.5311 49.9232 46.9149V47.2791C49.9232 47.6629 50.0663 47.832 50.4956 47.832C50.9249 47.832 51.0615 47.6629 51.0615 47.2791V46.9149Z" fill="#009EDB"/>
<path d="M50.4956 48.1183C49.8972 48.1183 49.624 47.8516 49.624 47.2792V46.9149C49.6128 46.7976 49.6262 46.6792 49.6631 46.5672C49.7 46.4552 49.7598 46.3521 49.8387 46.2645C50.0216 46.1157 50.2538 46.0414 50.4891 46.0563C51.081 46.0563 51.3542 46.323 51.3542 46.8954V47.2597C51.3718 47.3765 51.3618 47.4958 51.3249 47.608C51.2879 47.7202 51.2252 47.8222 51.1417 47.9057C51.0581 47.9893 50.9562 48.052 50.844 48.0889C50.7317 48.1258 50.6124 48.1359 50.4956 48.1183ZM50.4956 46.0889C50.261 46.0701 50.0281 46.1423 49.8452 46.2905C49.765 46.3773 49.7043 46.4802 49.6672 46.5924C49.6302 46.7046 49.6177 46.8235 49.6305 46.941V47.3052C49.6305 47.8711 49.9037 48.1313 50.4956 48.1313C50.7305 48.1521 50.9642 48.0797 51.1461 47.9297C51.2263 47.8429 51.287 47.7399 51.324 47.6277C51.361 47.5155 51.3736 47.3967 51.3607 47.2792V46.9149C51.3542 46.349 51.081 46.1149 50.4956 46.1149V46.0889ZM50.4956 47.8386C50.0793 47.8386 49.9167 47.6825 49.9167 47.2792V46.9149C49.9167 46.5117 50.0728 46.3555 50.4956 46.3555C50.9184 46.3555 51.068 46.5117 51.068 46.9149V47.2792C51.068 47.689 50.9119 47.8386 50.4956 47.8386ZM50.4956 46.3686C50.0793 46.3686 49.9297 46.5117 49.9297 46.9149V47.2792C49.9297 47.676 50.0858 47.8256 50.4956 47.8256C50.9054 47.8256 51.0615 47.6825 51.0615 47.2792V46.9149C51.0615 46.5117 50.9054 46.3686 50.4956 46.3686Z" fill="#009EDB"/>
<path d="M52.7983 46.9019C52.7983 46.3815 53.078 46.0823 53.6829 46.0823C53.8 46.0785 53.9169 46.0961 54.0276 46.1343C54.1252 46.1343 54.1512 46.1929 54.1512 46.2839V46.323C54.1512 46.4205 54.1512 46.4531 54.0276 46.4205C53.9195 46.3801 53.8048 46.3602 53.6894 46.362C53.2471 46.362 53.0975 46.5376 53.0975 46.9084V47.2921C53.0975 47.6889 53.2731 47.832 53.7479 47.832C53.8672 47.8363 53.9863 47.8187 54.0992 47.78C54.1903 47.7475 54.2163 47.78 54.2163 47.8776V47.9166C54.2163 48.0011 54.2163 48.0337 54.0927 48.0597C53.9729 48.0979 53.8476 48.1154 53.7219 48.1117C53.117 48.1117 52.8308 47.8515 52.8308 47.2921L52.7983 46.9019Z" fill="#009EDB"/>
<path d="M53.6894 48.1183C53.4553 48.132 53.2242 48.0603 53.0389 47.9166C52.9572 47.8307 52.8951 47.728 52.8569 47.6157C52.8187 47.5034 52.8054 47.3842 52.8178 47.2662V46.8759C52.8107 46.7653 52.8267 46.6543 52.8648 46.5502C52.9029 46.4461 52.9622 46.351 53.0389 46.271C53.2182 46.1146 53.4519 46.0351 53.6894 46.0498C53.8063 46.0487 53.9227 46.0663 54.0341 46.1019C54.1382 46.1019 54.1577 46.1669 54.1577 46.258V46.297C54.1577 46.3555 54.1577 46.3881 54.1577 46.4011C54.1427 46.4091 54.126 46.4132 54.1089 46.4132C54.0919 46.4132 54.0752 46.4091 54.0602 46.4011C53.9507 46.3665 53.8367 46.3489 53.7219 46.349C53.2991 46.349 53.13 46.5052 53.13 46.8889V47.2727C53.13 47.663 53.2991 47.8061 53.7805 47.8061C53.8998 47.811 54.0189 47.7933 54.1317 47.754C54.1772 47.754 54.2033 47.754 54.2228 47.754C54.2423 47.754 54.2553 47.7996 54.2553 47.8581V47.8971C54.2553 47.9882 54.2553 48.0207 54.1252 48.0467C53.9854 48.0964 53.8378 48.1207 53.6894 48.1183ZM53.6894 46.0889C53.1105 46.0889 52.8113 46.3686 52.8113 46.9019V47.2922C52.8113 47.8516 53.091 48.1053 53.6959 48.1053C53.821 48.108 53.9459 48.0927 54.0667 48.0598C54.1642 48.0598 54.1903 48.0012 54.1903 47.9166V47.8776C54.1903 47.8256 54.1903 47.7931 54.1903 47.7801C54.1903 47.767 54.1447 47.7801 54.1057 47.7801C53.9898 47.8156 53.8692 47.8332 53.7479 47.8321C53.2991 47.8321 53.0975 47.676 53.0975 47.2857V46.9019C53.0975 46.5117 53.2731 46.349 53.6959 46.349C53.8113 46.3479 53.9259 46.3677 54.0341 46.4076C54.0797 46.4076 54.1057 46.4076 54.1252 46.4076C54.1447 46.4076 54.1252 46.3621 54.1252 46.31V46.271C54.1252 46.1864 54.1252 46.1539 54.0081 46.1214C53.9006 46.1036 53.791 46.1014 53.6829 46.1149L53.6894 46.0889Z" fill="#009EDB"/>
<path d="M54.7626 47.3702C54.7626 47.6824 54.8927 47.832 55.2895 47.832C55.6863 47.832 55.8164 47.6889 55.8164 47.3702V46.2449C55.8164 46.1474 55.8164 46.1213 55.9464 46.1213H55.9855C56.096 46.1213 56.1156 46.1213 56.1156 46.2449V47.3702C56.1156 47.8516 55.8749 48.1117 55.2895 48.1117C54.7041 48.1117 54.4374 47.8646 54.4374 47.3702V46.2449C54.4374 46.1474 54.4374 46.1213 54.5675 46.1213H54.6065C54.7171 46.1213 54.7366 46.1213 54.7366 46.2449L54.7626 47.3702Z" fill="#009EDB"/>
<path d="M55.2895 48.1182C54.7431 48.1182 54.4634 47.8645 54.4634 47.3701V46.2448C54.4634 46.1473 54.4634 46.1147 54.587 46.1147H54.6326C54.7431 46.1147 54.7627 46.1147 54.7627 46.2448V47.3701C54.7627 47.7019 54.9123 47.8255 55.2895 47.8255C55.6668 47.8255 55.8099 47.7019 55.8099 47.3701V46.2448C55.8099 46.1473 55.8099 46.1147 55.9465 46.1147H55.9855C56.1026 46.1147 56.1156 46.1147 56.1156 46.2448V47.3701C56.1248 47.4704 56.1128 47.5714 56.0803 47.6667C56.0478 47.762 55.9955 47.8493 55.927 47.923C55.7471 48.0669 55.5191 48.1367 55.2895 48.1182ZM54.587 46.1147C54.496 46.1147 54.4699 46.1147 54.4699 46.2318V47.3571C54.4611 47.4584 54.4746 47.5604 54.5095 47.6559C54.5443 47.7514 54.5996 47.8382 54.6716 47.91C54.8564 48.0531 55.0898 48.1184 55.322 48.0921C55.4375 48.105 55.5544 48.0949 55.666 48.0625C55.7777 48.0302 55.8818 47.9761 55.9725 47.9035C56.0413 47.8313 56.0937 47.7451 56.1262 47.6508C56.1588 47.5566 56.1707 47.4564 56.1611 47.3571V46.2448C56.1611 46.1538 56.1611 46.1278 56.0375 46.1278H55.9985C55.901 46.1278 55.8749 46.1278 55.8749 46.2448V47.3701C55.8749 47.7084 55.7253 47.8385 55.3416 47.8385C54.9578 47.8385 54.8082 47.7084 54.8082 47.3701V46.2448C54.8082 46.1538 54.8082 46.1278 54.6846 46.1278L54.587 46.1147Z" fill="#009EDB"/>
<path d="M56.5124 47.279V46.9148C56.5124 46.3619 56.7986 46.0822 57.384 46.0822C57.9694 46.0822 58.2426 46.3684 58.2426 46.9148V47.279C58.2426 47.8384 57.9564 48.1116 57.384 48.1116C56.8116 48.1116 56.5124 47.8254 56.5124 47.279ZM57.9499 46.9148C57.9499 46.531 57.8133 46.3619 57.384 46.3619C56.9547 46.3619 56.8051 46.531 56.8051 46.9148V47.279C56.8051 47.6628 56.9547 47.8319 57.384 47.8319C57.8133 47.8319 57.9499 47.6628 57.9499 47.279V46.9148ZM57.1043 45.5618C57.1954 45.4187 57.2539 45.3667 57.384 45.3667C57.5141 45.3667 57.5661 45.4057 57.6637 45.5618L57.8133 45.796C57.8588 45.8676 57.8133 45.8871 57.7613 45.8871C57.7279 45.8925 57.6936 45.8865 57.664 45.87C57.6345 45.8534 57.6115 45.8273 57.5987 45.796L57.5076 45.6399C57.449 45.5293 57.384 45.5293 57.319 45.6399L57.2344 45.796C57.2207 45.8266 57.1975 45.8521 57.1682 45.8685C57.1389 45.8849 57.1051 45.8914 57.0718 45.8871H57.0328C56.9547 45.8871 56.9417 45.8871 56.9872 45.796L57.1043 45.5618ZM57.2474 48.4629C57.2749 48.4361 57.3097 48.4181 57.3474 48.411C57.3851 48.4039 57.4241 48.408 57.4594 48.423C57.4947 48.4379 57.5249 48.4629 57.5461 48.4949C57.5673 48.5268 57.5786 48.5644 57.5786 48.6027C57.5786 48.6411 57.5673 48.6786 57.5461 48.7106C57.5249 48.7426 57.4947 48.7676 57.4594 48.7825C57.4241 48.7974 57.3851 48.8016 57.3474 48.7945C57.3097 48.7874 57.2749 48.7693 57.2474 48.7426C57.2287 48.7244 57.2139 48.7027 57.2037 48.6786C57.1936 48.6546 57.1884 48.6288 57.1884 48.6027C57.1884 48.5767 57.1936 48.5509 57.2037 48.5268C57.2139 48.5028 57.2287 48.4811 57.2474 48.4629Z" fill="#009EDB"/>
<path d="M57.384 48.8012C57.3327 48.7996 57.2841 48.7785 57.2478 48.7423C57.2116 48.706 57.1905 48.6573 57.1888 48.6061C57.1879 48.5794 57.1927 48.5529 57.2028 48.5282C57.2129 48.5036 57.2281 48.4813 57.2474 48.463C57.2645 48.4438 57.2856 48.4287 57.3092 48.4185C57.3328 48.4084 57.3583 48.4036 57.384 48.4044C57.4375 48.4044 57.4888 48.4257 57.5266 48.4635C57.5644 48.5013 57.5856 48.5526 57.5856 48.6061C57.5864 48.6317 57.5816 48.6573 57.5715 48.6809C57.5614 48.7045 57.5462 48.7256 57.5271 48.7427C57.5083 48.7614 57.4859 48.7762 57.4614 48.7862C57.4368 48.7962 57.4105 48.8013 57.384 48.8012ZM57.384 48.4109C57.3584 48.4109 57.3332 48.4161 57.3097 48.4262C57.2862 48.4362 57.265 48.451 57.2474 48.4695C57.213 48.5065 57.1943 48.5555 57.1953 48.6061C57.1956 48.6564 57.2145 48.7045 57.2478 48.7423C57.285 48.7765 57.3334 48.796 57.384 48.796C57.4346 48.796 57.4833 48.777 57.5206 48.7427C57.5391 48.725 57.5538 48.7039 57.5639 48.6804C57.5739 48.6569 57.5791 48.6316 57.5791 48.6061C57.5775 48.5548 57.5564 48.5061 57.5202 48.4699C57.4839 48.4336 57.4352 48.4126 57.384 48.4109ZM57.384 48.1182C56.7856 48.1182 56.5059 47.8515 56.5059 47.2791V46.9149C56.4956 46.797 56.5099 46.6784 56.548 46.5664C56.5861 46.4544 56.647 46.3516 56.727 46.2644C56.9093 46.1145 57.142 46.04 57.3775 46.0563C57.9694 46.0563 58.2426 46.323 58.2426 46.8954V47.2596C58.2602 47.3764 58.2501 47.4957 58.2132 47.6079C58.1763 47.7202 58.1136 47.8221 58.03 47.9057C57.9465 47.9892 57.8445 48.0519 57.7323 48.0889C57.6201 48.1258 57.5008 48.1358 57.384 48.1182ZM57.384 46.0888C57.1492 46.0687 56.9158 46.141 56.7335 46.2904C56.6533 46.3772 56.5926 46.4802 56.5556 46.5924C56.5186 46.7046 56.506 46.8234 56.5189 46.9409V47.3052C56.5189 47.8711 56.7921 48.1312 57.384 48.1312C57.6187 48.1507 57.8519 48.0784 58.0344 47.9296C58.1147 47.8428 58.1753 47.7399 58.2124 47.6277C58.2494 47.5154 58.2619 47.3966 58.2491 47.2791V46.9149C58.2426 46.349 57.9694 46.1148 57.384 46.1148V46.0888ZM57.384 47.8385C56.9677 47.8385 56.8051 47.6824 56.8051 47.2791V46.9149C56.8051 46.5116 56.9612 46.3555 57.384 46.3555C57.8068 46.3555 57.9499 46.5116 57.9499 46.9149V47.2791C57.9499 47.6889 57.8003 47.8385 57.384 47.8385ZM57.384 46.3685C56.9677 46.3685 56.8116 46.5116 56.8116 46.9149V47.2791C56.8116 47.6759 56.9742 47.8255 57.384 47.8255C57.7938 47.8255 57.9434 47.6824 57.9434 47.2791V46.9149C57.9434 46.5116 57.7938 46.3685 57.384 46.3685ZM57.7612 45.8937C57.727 45.8987 57.6922 45.8917 57.6625 45.8739C57.6329 45.8561 57.6103 45.8286 57.5986 45.7961L57.5076 45.6465C57.5076 45.5879 57.4425 45.5619 57.4165 45.5619C57.4165 45.5619 57.3515 45.5619 57.3254 45.6465L57.2344 45.7961C57.2227 45.8286 57.2001 45.8561 57.1705 45.8739C57.1409 45.8917 57.106 45.8987 57.0718 45.8937H57.0327C56.9872 45.8937 56.9677 45.8937 56.9612 45.8937C56.9547 45.8937 56.9612 45.8546 56.9612 45.8221L57.1108 45.5879C57.2084 45.4448 57.2604 45.3928 57.397 45.3928C57.5336 45.3928 57.5791 45.4318 57.6767 45.5879L57.8263 45.8221C57.8263 45.8546 57.8653 45.8806 57.8263 45.8937C57.7873 45.9067 57.8068 45.8937 57.7612 45.8937ZM57.384 45.5554C57.384 45.5554 57.449 45.5554 57.4816 45.64L57.5726 45.7961C57.5842 45.8269 57.606 45.8528 57.6345 45.8694C57.6629 45.886 57.6962 45.8922 57.7287 45.8872C57.7743 45.8872 57.7938 45.8872 57.8003 45.8872C57.8068 45.8872 57.8003 45.8872 57.8003 45.8221L57.6897 45.5684C57.5986 45.4123 57.5401 45.3733 57.4165 45.3733C57.2929 45.3733 57.2344 45.4188 57.1368 45.5684L56.9872 45.8026C56.9872 45.8026 56.9872 45.8546 56.9872 45.8676C56.9872 45.8806 56.9872 45.8676 57.0522 45.8676H57.0392C57.0715 45.8705 57.1038 45.8633 57.1318 45.847C57.1598 45.8307 57.182 45.8061 57.1953 45.7766L57.2864 45.6205C57.3189 45.5814 57.3515 45.5554 57.384 45.5554Z" fill="#009EDB"/>
<path d="M58.6263 46.9019C58.6263 46.3815 58.906 46.0823 59.511 46.0823C59.6281 46.0785 59.7449 46.0961 59.8557 46.1343C59.9533 46.1343 59.9793 46.1929 59.9793 46.2839V46.323C59.9793 46.4205 59.9793 46.4531 59.8557 46.4205C59.7478 46.3794 59.6329 46.3596 59.5175 46.362C59.0752 46.362 58.9256 46.5376 58.9256 46.9084V47.2921C58.9256 47.6889 59.1012 47.832 59.5435 47.832C59.6649 47.8358 59.786 47.8182 59.9012 47.78C59.9923 47.7475 60.0183 47.78 60.0183 47.8776V47.9166C60.0183 48.0011 60.0183 48.0337 59.8882 48.0597C59.7707 48.0979 59.6475 48.1155 59.524 48.1117C58.9125 48.1117 58.6263 47.8515 58.6263 47.2921V46.9019Z" fill="#009EDB"/>
<path d="M59.524 48.1183C59.2896 48.1344 59.0577 48.0625 58.8735 47.9166C58.7903 47.8317 58.7272 47.7292 58.6889 47.6166C58.6506 47.504 58.6382 47.3843 58.6524 47.2662V46.8759C58.6445 46.7657 58.6594 46.6551 58.6964 46.551C58.7333 46.4469 58.7914 46.3515 58.867 46.271C59.0463 46.1146 59.28 46.0351 59.5175 46.0498C59.6365 46.0492 59.755 46.0668 59.8687 46.1019C59.9663 46.1019 59.9858 46.1669 59.9858 46.258V46.297C59.9858 46.3555 59.9858 46.3881 59.9858 46.4011C59.9708 46.4091 59.954 46.4132 59.937 46.4132C59.92 46.4132 59.9033 46.4091 59.8882 46.4011C59.7788 46.3665 59.6648 46.3489 59.55 46.349C59.1337 46.349 58.9581 46.5052 58.9581 46.8889V47.2727C58.9581 47.663 59.1272 47.8061 59.576 47.8061C59.6953 47.811 59.8145 47.7933 59.9273 47.754C59.9427 47.7474 59.9593 47.744 59.9761 47.744C59.9928 47.744 60.0094 47.7474 60.0248 47.754C60.0248 47.754 60.0248 47.7996 60.0248 47.8581V47.8971C60.0248 47.9882 60.0248 48.0207 59.9013 48.0467C59.7797 48.0891 59.6526 48.1132 59.524 48.1183ZM59.524 46.0889C58.9516 46.0889 58.6459 46.3686 58.6459 46.9019V47.2922C58.6459 47.8516 58.9256 48.1053 59.537 48.1053C59.66 48.1074 59.7826 48.0921 59.9013 48.0598C59.9988 48.0598 60.0248 48.0012 60.0248 47.9166V47.8776C60.0248 47.8256 60.0248 47.7931 60.0248 47.7801C60.0248 47.767 59.9793 47.7801 59.9403 47.7801C59.8244 47.8156 59.7037 47.8332 59.5825 47.8321C59.1337 47.8321 58.9321 47.676 58.9321 47.2857V46.9019C58.9321 46.5117 59.1077 46.349 59.5305 46.349C59.648 46.3478 59.7648 46.3676 59.8752 46.4076C59.9208 46.4076 59.9468 46.4076 59.9598 46.4076C59.9728 46.4076 59.9598 46.3621 59.9598 46.31V46.271C59.9598 46.1864 59.9598 46.1539 59.8427 46.1214C59.7331 46.1025 59.6213 46.1004 59.511 46.1149L59.524 46.0889Z" fill="#009EDB"/>
<path d="M61.3257 47.858C61.3257 47.7604 61.3257 47.7344 61.4558 47.7539C61.6439 47.8089 61.8388 47.8374 62.0347 47.8385C62.3405 47.8385 62.464 47.7799 62.464 47.6108C62.464 47.4417 62.399 47.4157 62.2104 47.3246L61.729 47.097C61.4754 46.9734 61.3583 46.8563 61.3583 46.5831C61.3583 46.3099 61.5924 46.1148 62.0608 46.1148C62.2282 46.1138 62.3948 46.1379 62.5551 46.1863C62.6462 46.1863 62.6722 46.2449 62.6722 46.3359V46.375C62.6722 46.4725 62.6722 46.492 62.5486 46.466C62.3887 46.4159 62.2218 46.3917 62.0543 46.3945C61.7616 46.3945 61.651 46.453 61.651 46.6156C61.651 46.7782 61.7225 46.8108 61.8591 46.8758L62.3665 47.1035C62.6332 47.2336 62.7633 47.3506 62.7633 47.6368C62.7633 47.923 62.5226 48.1442 62.0152 48.1442C61.8263 48.1465 61.6381 48.1224 61.4558 48.0727C61.3518 48.0401 61.3257 48.0076 61.3257 47.923V47.858Z" fill="#009EDB"/>
<path d="M62.0152 48.1181C61.8239 48.1187 61.6334 48.0924 61.4493 48.0401C61.3518 48.0401 61.3257 47.9815 61.3257 47.8905C61.3257 47.8384 61.3257 47.8059 61.3257 47.7929C61.3257 47.7799 61.3778 47.7929 61.4298 47.7929C61.6184 47.8448 61.8131 47.8711 62.0087 47.871C62.3209 47.871 62.438 47.8124 62.438 47.6498C62.438 47.4872 62.3795 47.4612 62.1844 47.3701L61.6965 47.136C61.4558 47.0189 61.3257 46.9018 61.3257 46.6221C61.3257 46.3424 61.5534 46.1147 62.0347 46.1147C62.2028 46.1115 62.3702 46.1379 62.5291 46.1928C62.6267 46.1928 62.6527 46.2513 62.6527 46.3424V46.3814C62.6647 46.4128 62.6647 46.4476 62.6527 46.479C62.6193 46.4927 62.5819 46.4927 62.5486 46.479C62.3917 46.4253 62.2266 46.3989 62.0608 46.4009C61.7746 46.4009 61.664 46.466 61.664 46.6221C61.6671 46.6801 61.6882 46.7356 61.7243 46.7811C61.7605 46.8266 61.8098 46.8596 61.8656 46.8758L62.373 47.1099C62.6332 47.227 62.7698 47.3506 62.7698 47.6433C62.7698 47.936 62.5226 48.1181 62.0152 48.1181ZM61.3648 47.7539H61.3257C61.3257 47.7539 61.3257 47.7994 61.3257 47.845C61.3257 47.9295 61.3257 47.962 61.4493 47.9881C61.6313 48.0389 61.8198 48.063 62.0087 48.0596C62.5226 48.0596 62.7503 47.91 62.7503 47.5587C62.7503 47.2075 62.6137 47.149 62.36 47.0319L61.8526 46.7977C61.7939 46.7827 61.7415 46.7494 61.7029 46.7026C61.6643 46.6558 61.6416 46.598 61.638 46.5375C61.638 46.3749 61.755 46.3099 62.0478 46.3099C62.2157 46.3083 62.3828 46.3347 62.5421 46.3879C62.5876 46.3879 62.6137 46.3879 62.6332 46.3879C62.6393 46.3735 62.6424 46.358 62.6424 46.3424C62.6424 46.3267 62.6393 46.3113 62.6332 46.2969V46.2578C62.6332 46.1668 62.6332 46.1473 62.5161 46.1147C62.3565 46.0632 62.1894 46.039 62.0217 46.0432C61.5469 46.0432 61.3257 46.1993 61.3257 46.5375C61.3257 46.8758 61.4493 46.9278 61.69 47.0449L62.1713 47.2791C62.3665 47.3701 62.4315 47.4417 62.4315 47.5653C62.4315 47.6888 62.3144 47.7929 61.9957 47.7929C61.798 47.7926 61.6012 47.7663 61.4103 47.7149L61.3648 47.7539Z" fill="#009EDB"/>
<path d="M63.1406 47.2791V46.9148C63.1406 46.3619 63.4333 46.0822 64.0122 46.0822C64.5911 46.0822 64.8773 46.3684 64.8773 46.9148V47.2791C64.8773 47.8385 64.5911 48.1117 64.0122 48.1117C63.4333 48.1117 63.1406 47.8255 63.1406 47.2791ZM64.5781 46.9148C64.5781 46.5311 64.448 46.3619 64.0122 46.3619C63.5764 46.3619 63.4398 46.5311 63.4398 46.9148V47.2791C63.4398 47.6629 63.5829 47.832 64.0122 47.832C64.4415 47.832 64.5781 47.6629 64.5781 47.2791V46.9148ZM63.7325 45.5619C63.8301 45.4188 63.8821 45.3667 64.0122 45.3667C64.1423 45.3667 64.2008 45.4058 64.2919 45.5619L64.448 45.796C64.4935 45.8676 64.448 45.8871 64.3959 45.8871C64.3625 45.8926 64.3283 45.8865 64.2987 45.87C64.2692 45.8534 64.2461 45.8274 64.2333 45.796L64.1423 45.6399C64.0772 45.5293 64.0122 45.5293 63.9536 45.6399L63.8626 45.796C63.8235 45.8741 63.7845 45.8871 63.7 45.8871C63.6154 45.8871 63.6024 45.8871 63.6479 45.796L63.7325 45.5619ZM64.7407 45.3277C64.7244 45.3577 64.6997 45.3822 64.6697 45.3984C64.6397 45.4146 64.6056 45.4217 64.5716 45.4188H64.5325C64.4415 45.4188 64.4285 45.4188 64.474 45.3212L64.6366 45.0025C64.6512 44.9625 64.6794 44.9288 64.7163 44.9074C64.7531 44.886 64.7963 44.8782 64.8383 44.8854H64.8773C64.9814 44.8854 65.0009 44.8854 64.9423 44.996L64.7407 45.3277Z" fill="#009EDB"/>
<path d="M64.0122 48.1182C63.4203 48.1182 63.1406 47.8515 63.1406 47.2791V46.9148C63.1294 46.7974 63.1427 46.679 63.1796 46.5671C63.2166 46.4551 63.2764 46.352 63.3552 46.2644C63.5387 46.1167 63.7705 46.0425 64.0057 46.0562C64.5976 46.0562 64.8773 46.3229 64.8773 46.8953V47.2596C64.8838 47.8385 64.5911 48.1182 64.0122 48.1182ZM64.0122 46.0887C63.7775 46.07 63.5446 46.1422 63.3617 46.2904C63.2815 46.3771 63.2208 46.4801 63.1838 46.5923C63.1468 46.7045 63.1342 46.8234 63.1471 46.9408V47.3051C63.1471 47.871 63.4203 48.1312 64.0122 48.1312C64.2471 48.152 64.4807 48.0796 64.6626 47.9295C64.7428 47.8428 64.8035 47.7398 64.8405 47.6276C64.8776 47.5154 64.8901 47.3965 64.8773 47.2791V46.9148C64.8448 46.3489 64.5976 46.1147 64.0122 46.1147V46.0887ZM64.0122 47.8385C63.5959 47.8385 63.4333 47.6824 63.4333 47.2791V46.9148C63.4333 46.5115 63.5894 46.3554 64.0122 46.3554C64.435 46.3554 64.5846 46.5115 64.5846 46.9148V47.2791C64.5846 47.6889 64.4285 47.8385 64.0122 47.8385ZM64.0122 46.3684C63.5959 46.3684 63.4463 46.5115 63.4463 46.9148V47.2791C63.4463 47.6758 63.6024 47.8255 64.0122 47.8255C64.422 47.8255 64.5781 47.6824 64.5781 47.2791V46.9148C64.5781 46.5115 64.422 46.3684 64.0122 46.3684ZM64.3959 45.8936C64.3609 45.899 64.325 45.8922 64.2942 45.8745C64.2635 45.8568 64.2397 45.8291 64.2268 45.796L64.1358 45.6464C64.0772 45.5358 64.0187 45.5358 63.9536 45.6464L63.8691 45.796C63.8562 45.8291 63.8324 45.8568 63.8016 45.8745C63.7709 45.8922 63.735 45.899 63.6999 45.8936C63.6544 45.8936 63.6284 45.8936 63.6219 45.8936C63.6154 45.8936 63.6219 45.8546 63.6219 45.822L63.7715 45.5879C63.8626 45.4448 63.9211 45.3927 64.0512 45.3927C64.1813 45.3927 64.2398 45.4318 64.3374 45.5879L64.487 45.822C64.487 45.8546 64.487 45.8806 64.487 45.8936C64.487 45.9066 64.4415 45.8936 64.3959 45.8936ZM64.0122 45.5554C64.0122 45.5554 64.0772 45.5554 64.1097 45.6399L64.2008 45.796C64.2145 45.8267 64.2377 45.8521 64.267 45.8685C64.2963 45.8849 64.3301 45.8914 64.3634 45.8871C64.4024 45.8871 64.4285 45.8871 64.435 45.8871C64.4415 45.8871 64.435 45.8871 64.435 45.822L64.2854 45.5879C64.1878 45.4318 64.1358 45.3927 64.0057 45.3927C63.8756 45.3927 63.8235 45.4383 63.7325 45.5879L63.5829 45.822C63.5829 45.822 63.5829 45.8741 63.5829 45.8871C63.5829 45.9001 63.5829 45.8871 63.6544 45.8871C63.6876 45.8904 63.721 45.8835 63.7501 45.8672C63.7791 45.8509 63.8025 45.826 63.817 45.796L63.9016 45.6399C63.9471 45.5814 63.9796 45.5554 64.0122 45.5554ZM64.5716 45.4253H64.5325C64.4805 45.4253 64.4545 45.4253 64.448 45.4253C64.4374 45.3981 64.4374 45.3679 64.448 45.3407L64.6171 45.022C64.6216 44.9971 64.6312 44.9734 64.6454 44.9524C64.6596 44.9315 64.678 44.9137 64.6994 44.9002C64.7208 44.8868 64.7448 44.8779 64.7698 44.8743C64.7948 44.8706 64.8204 44.8721 64.8448 44.8789H64.8838C64.9423 44.8789 64.9748 44.8789 64.9813 44.8789C64.9879 44.8789 64.9813 44.9244 64.9813 44.9764L64.7862 45.3017C64.7693 45.3432 64.739 45.3779 64.7001 45.4003C64.6612 45.4227 64.616 45.4315 64.5716 45.4253ZM64.8382 44.8854C64.7973 44.8798 64.7556 44.8884 64.7201 44.9097C64.6847 44.931 64.6575 44.9637 64.6431 45.0025L64.474 45.3212C64.474 45.3667 64.474 45.3862 64.474 45.3992C64.474 45.4123 64.474 45.3992 64.552 45.3992H64.5911C64.6255 45.4 64.6594 45.3912 64.6892 45.374C64.7191 45.3568 64.7436 45.3318 64.7602 45.3017L64.9553 44.9764C64.9553 44.9309 64.9944 44.9049 64.9553 44.8919C64.9163 44.8789 64.9163 44.8919 64.8643 44.8919L64.8382 44.8854Z" fill="#009EDB"/>
<path d="M65.5928 47.9491C65.5928 48.0532 65.5928 48.0727 65.4692 48.0727H65.4237C65.3261 48.0727 65.2936 48.0727 65.2936 47.9491V46.8238C65.2936 46.3294 65.5733 46.0823 66.1262 46.0823C66.6791 46.0823 66.9457 46.3425 66.9457 46.8238V47.9491C66.9457 48.0532 66.9457 48.0727 66.8222 48.0727H66.7961C66.6856 48.0727 66.666 48.0727 66.666 47.9491V46.8238C66.666 46.5051 66.5425 46.362 66.1457 46.362C65.7489 46.362 65.6123 46.5116 65.6123 46.8238L65.5928 47.9491Z" fill="#009EDB"/>
<path d="M66.7961 48.0661C66.6855 48.0661 66.6595 48.0661 66.6595 47.936V46.8237C66.6595 46.492 66.5229 46.3684 66.1457 46.3684C65.7684 46.3684 65.6188 46.492 65.6188 46.8237V47.949C65.6188 48.0531 65.6188 48.0791 65.4887 48.0791H65.4432C65.3456 48.0791 65.3131 48.0791 65.3131 47.949V46.8237C65.3131 46.3294 65.5928 46.0757 66.1457 46.0757C66.2616 46.0638 66.3787 46.0749 66.4904 46.1084C66.602 46.1418 66.7059 46.1971 66.7961 46.2708C66.8655 46.3442 66.9187 46.4313 66.9523 46.5266C66.986 46.6218 66.9992 46.723 66.9913 46.8237V47.949C66.9522 48.0661 66.9327 48.0661 66.7961 48.0661ZM66.1457 46.3554C66.5294 46.3554 66.6725 46.4855 66.6725 46.8237V47.949C66.6725 48.0531 66.6725 48.0661 66.7961 48.0661C66.9002 48.0661 66.9197 48.0661 66.9197 47.949V46.8237C66.928 46.724 66.9148 46.6237 66.8812 46.5294C66.8475 46.4352 66.7941 46.3493 66.7246 46.2773C66.5573 46.1556 66.3519 46.098 66.1457 46.1147C65.9134 46.0884 65.68 46.1538 65.4952 46.2968C65.4228 46.3686 65.3667 46.4552 65.3308 46.5506C65.2949 46.646 65.28 46.748 65.2871 46.8497V47.975C65.2871 48.0791 65.2871 48.0921 65.4106 48.0921H65.4952C65.5993 48.0921 65.6188 48.0921 65.6188 47.975V46.8237C65.5928 46.4855 65.7424 46.3554 66.1457 46.3554Z" fill="#009EDB"/>
<path d="M69.0012 46.8173C69.0012 47.2726 68.7345 47.5067 68.1816 47.5067C68.0433 47.4916 67.9037 47.4916 67.7653 47.5067C67.7366 47.5115 67.7107 47.5268 67.6927 47.5497C67.6746 47.5725 67.6657 47.6013 67.6677 47.6303C67.6677 47.6824 67.6678 47.7214 67.7718 47.7409C67.9082 47.7515 68.0452 47.7515 68.1816 47.7409C68.4055 47.7253 68.6295 47.7679 68.8321 47.8645C68.8996 47.9109 68.9534 47.9746 68.9878 48.0491C69.0221 48.1235 69.0357 48.2058 69.0272 48.2873C69.0361 48.3754 69.023 48.4644 68.9889 48.5461C68.9548 48.6279 68.9009 48.6999 68.8321 48.7556C68.6323 48.861 68.4069 48.9083 68.1816 48.8922C67.9564 48.9063 67.7317 48.8591 67.5312 48.7556C67.4672 48.7077 67.4164 48.6444 67.3835 48.5717C67.3505 48.4989 67.3364 48.419 67.3425 48.3393C67.3381 48.2548 67.3569 48.1706 67.3971 48.096C67.4372 48.0214 67.4971 47.9594 67.5702 47.9165C67.519 47.896 67.4757 47.8597 67.4464 47.813C67.4172 47.7662 67.4036 47.7113 67.4076 47.6563C67.4076 47.4807 67.5116 47.3766 67.7263 47.3441C67.6167 47.2972 67.5251 47.2162 67.4654 47.113C67.4056 47.0099 67.3807 46.8901 67.3946 46.7717V46.7652C67.3946 46.3359 67.7003 46.1148 68.2141 46.1148C68.3547 46.1117 68.4943 46.1383 68.6239 46.1928L68.8516 45.9912C68.9166 45.9326 68.9492 45.9326 69.0142 45.9912C69.0792 46.0497 69.0792 46.0822 69.0142 46.1473L68.8386 46.3294C68.8957 46.3875 68.9402 46.4568 68.9693 46.5329C68.9984 46.609 69.0115 46.6903 69.0077 46.7717L69.0012 46.8173ZM67.7978 48.0271C67.7383 48.0572 67.6888 48.104 67.6553 48.1617C67.6218 48.2195 67.6058 48.2857 67.6092 48.3523C67.6092 48.6125 67.7588 48.6776 68.1816 48.6776C68.6044 48.6776 68.754 48.6125 68.754 48.3458C68.754 48.0791 68.6109 48.0531 68.1816 48.0531C68.0532 48.0539 67.9249 48.0452 67.7978 48.0271ZM68.702 46.7652C68.702 46.4855 68.5264 46.3489 68.1816 46.3489C67.8369 46.3489 67.6547 46.4855 67.6547 46.7652V46.8173C67.6547 47.097 67.7848 47.2401 68.1816 47.2401C68.5784 47.2401 68.702 47.097 68.702 46.8173V46.7652Z" fill="#009EDB"/>
<path d="M68.1816 48.9378C67.9569 48.9549 67.7319 48.9099 67.5311 48.8077C67.4676 48.758 67.4171 48.6935 67.3843 48.6198C67.3514 48.5461 67.337 48.4654 67.3425 48.3849C67.3374 48.3017 67.3546 48.2187 67.3924 48.1443C67.4301 48.07 67.487 48.0071 67.5571 47.9621C67.5078 47.9397 67.4664 47.9029 67.4385 47.8564C67.4106 47.8099 67.3975 47.756 67.401 47.7019C67.401 47.5285 67.5051 47.4244 67.7133 47.3897C67.6055 47.3409 67.516 47.2593 67.4575 47.1564C67.3991 47.0536 67.3748 46.9348 67.388 46.8173V46.7653C67.3853 46.6696 67.4037 46.5746 67.442 46.4869C67.4802 46.3992 67.5373 46.321 67.6092 46.2579C67.7839 46.1295 67.9975 46.0651 68.2141 46.0758C68.3547 46.0728 68.4943 46.0993 68.6239 46.1538L68.8516 45.9587C68.9166 45.8937 68.9491 45.8937 69.0142 45.9587C69.0532 45.9912 69.0662 46.0107 69.0662 46.0368C69.0662 46.0628 69.0662 46.0823 69.0142 46.1213L68.8385 46.2969C68.8978 46.3537 68.9442 46.4227 68.9745 46.499C69.0048 46.5753 69.0183 46.6572 69.0142 46.7392V46.7913C69.0142 47.2466 68.7345 47.4808 68.1881 47.4808C68.0498 47.4649 67.9101 47.4649 67.7718 47.4808C67.7454 47.4868 67.722 47.5017 67.7054 47.5231C67.6888 47.5444 67.6801 47.5708 67.6807 47.5979C67.6807 47.6499 67.7133 47.6824 67.7783 47.7019C67.9146 47.7137 68.0517 47.7137 68.1881 47.7019C68.4227 47.6805 68.6588 47.7232 68.8711 47.8255C68.9385 47.8717 68.9918 47.9356 69.0251 48.0103C69.0584 48.0849 69.0704 48.1673 69.0597 48.2483C69.071 48.3376 69.059 48.4282 69.0248 48.5115C68.9906 48.5947 68.9354 48.6676 68.8646 48.7231C68.6615 48.8572 68.4248 48.9315 68.1816 48.9378ZM68.1816 46.0888C67.6742 46.0888 67.3685 46.3425 67.3685 46.7392V46.7913C67.3552 46.9088 67.3796 47.0276 67.438 47.1304C67.4964 47.2332 67.586 47.3149 67.6937 47.3637C67.4791 47.3962 67.375 47.4938 67.375 47.6694C67.3738 47.7239 67.3886 47.7776 67.4175 47.8238C67.4464 47.87 67.4881 47.9068 67.5376 47.9296C67.4663 47.9722 67.408 48.0335 67.369 48.1069C67.33 48.1803 67.3118 48.2629 67.3165 48.3459C67.3113 48.4248 67.3252 48.5038 67.3569 48.5762C67.3886 48.6486 67.4372 48.7124 67.4986 48.7622C67.7005 48.861 67.9246 48.9058 68.1491 48.8923C68.3737 48.909 68.5986 48.864 68.7995 48.7622C68.8684 48.7065 68.9223 48.6345 68.9563 48.5527C68.9904 48.4709 69.0036 48.382 68.9947 48.2938C69.0041 48.2139 68.9915 48.1328 68.9583 48.0594C68.925 47.9861 68.8724 47.9232 68.806 47.8776C68.6035 47.7809 68.3794 47.7384 68.1556 47.754C68.0172 47.7688 67.8776 47.7688 67.7393 47.754C67.7128 47.7495 67.6887 47.7361 67.6709 47.716C67.6531 47.6958 67.6428 47.6702 67.6417 47.6434C67.6397 47.6143 67.6486 47.5856 67.6666 47.5627C67.6846 47.5399 67.7106 47.5246 67.7393 47.5198C67.8776 47.5035 68.0173 47.5035 68.1556 47.5198C68.3856 47.5428 68.6163 47.4828 68.806 47.3507C68.8753 47.2851 68.9292 47.205 68.9641 47.1162C68.9989 47.0274 69.0138 46.932 69.0077 46.8368V46.7653C69.0122 46.6842 68.9988 46.6031 68.9685 46.5278C68.9381 46.4525 68.8915 46.3847 68.832 46.3295L69.0077 46.1473C69.0467 46.1473 69.0597 46.0888 69.0597 46.0693C69.0576 46.0548 69.0524 46.041 69.0446 46.0287C69.0367 46.0163 69.0264 46.0058 69.0142 45.9977H68.9817C68.9231 45.9392 68.8906 45.9392 68.8255 45.9977L68.5979 46.1994C68.4668 46.1417 68.3248 46.1129 68.1816 46.1148V46.0888ZM68.1816 48.6906C67.7393 48.6906 67.6092 48.6126 67.6092 48.3589C67.6021 48.2917 67.6165 48.224 67.6504 48.1655C67.6843 48.107 67.736 48.0609 67.7978 48.0337C67.9256 48.0417 68.0538 48.0417 68.1816 48.0337C68.6109 48.0337 68.7605 48.0792 68.7605 48.3329C68.7605 48.5866 68.6174 48.7166 68.1816 48.7166V48.6906ZM67.7978 48.0402C67.7389 48.0688 67.69 48.1145 67.6575 48.1714C67.625 48.2282 67.6104 48.2936 67.6157 48.3589C67.6157 48.6061 67.7458 48.6841 68.1816 48.6841C68.6174 48.6841 68.7475 48.6061 68.7475 48.3524C68.7475 48.0987 68.6109 48.0597 68.1816 48.0597C68.0539 48.0699 67.9257 48.0721 67.7978 48.0662V48.0402ZM68.1816 47.2531C67.8043 47.2531 67.6547 47.1295 67.6547 46.8238V46.7653C67.6547 46.4791 67.8238 46.3425 68.1816 46.3425C68.5393 46.3425 68.7085 46.4856 68.7085 46.7653V46.8173C68.7085 47.123 68.5589 47.2466 68.1816 47.2466V47.2531ZM68.1816 46.3555C67.8303 46.3555 67.6612 46.4921 67.6612 46.7718V46.8238C67.6612 47.123 67.8108 47.2466 68.1816 47.2466C68.5523 47.2466 68.702 47.123 68.702 46.8238V46.7653C68.702 46.4921 68.5263 46.349 68.1816 46.349V46.3555Z" fill="#009EDB"/>
<path d="M72.5007 45.7896C72.5007 45.8741 72.5007 45.9001 72.3901 45.9001H72.1559V47.2856C72.1559 47.8385 71.8632 48.1117 71.2843 48.1117C70.7054 48.1117 70.4192 47.8385 70.4192 47.2856V46.9148C70.4074 46.8052 70.4207 46.6943 70.458 46.5905C70.4953 46.4867 70.5557 46.3928 70.6347 46.3157C70.7136 46.2387 70.809 46.1806 70.9136 46.1458C71.0183 46.111 71.1294 46.1004 71.2388 46.1148C71.3633 46.0943 71.4911 46.1104 71.6066 46.1612C71.722 46.212 71.8203 46.2953 71.8892 46.401V45.9327H71.3494C71.2583 45.9327 71.2388 45.9327 71.2388 45.8221C71.2388 45.7375 71.2388 45.7115 71.3494 45.7115H71.8892V45.4643C71.8892 45.3537 71.8892 45.3342 72.0128 45.3342H71.9998C72.0974 45.3342 72.1299 45.3342 72.1299 45.4643V45.679H72.3641C72.4486 45.679 72.4747 45.679 72.4747 45.7896H72.5007ZM70.6989 47.2791C70.6989 47.6629 70.829 47.832 71.2648 47.832C71.7006 47.832 71.8372 47.6629 71.8372 47.2791V46.9148C71.8372 46.5311 71.7006 46.362 71.2648 46.362C70.829 46.362 70.6989 46.5311 70.6989 46.9148V47.2791Z" fill="#009EDB"/>
<path d="M71.2843 48.1183C71.0488 48.1353 70.8158 48.0607 70.6338 47.9102C70.5536 47.8234 70.4929 47.7205 70.4559 47.6083C70.4189 47.4961 70.4064 47.3772 70.4192 47.2597V46.889C70.4071 46.7721 70.4194 46.6539 70.4552 46.542C70.4911 46.43 70.5497 46.3267 70.6273 46.2385C70.7139 46.1579 70.8168 46.097 70.9291 46.06C71.0413 46.0229 71.1603 46.0106 71.2778 46.0239C71.3955 46.0104 71.5147 46.0293 71.6224 46.0786C71.7302 46.1279 71.8225 46.2057 71.8892 46.3036V45.8548H71.3493C71.2583 45.8548 71.2323 45.8548 71.2323 45.7377C71.2323 45.6466 71.2323 45.6206 71.3493 45.6206H71.8827V45.4645C71.8827 45.3539 71.8827 45.3279 72.0128 45.3279H71.9998C72.0974 45.3279 72.1299 45.3279 72.1299 45.4645V45.6726H72.3641C72.4486 45.6726 72.4811 45.6726 72.4811 45.7897C72.4811 45.8743 72.4811 45.9068 72.3641 45.9068H72.1299V47.2858C72.1559 47.8387 71.8632 48.1183 71.2843 48.1183ZM71.2388 46.1149C71.1285 46.1059 71.0176 46.1191 70.9126 46.1537C70.8076 46.1884 70.7106 46.2438 70.6273 46.3166C70.5518 46.4059 70.495 46.5095 70.4604 46.6213C70.4257 46.7331 70.4139 46.8506 70.4257 46.967V47.3378C70.4107 47.4548 70.4216 47.5738 70.4575 47.6861C70.4935 47.7985 70.5537 47.9017 70.6338 47.9883C70.8158 48.1383 71.0494 48.2107 71.2843 48.1899C71.519 48.2087 71.7518 48.1365 71.9348 47.9883C72.0153 47.9017 72.0762 47.7988 72.1133 47.6865C72.1503 47.5742 72.1627 47.4553 72.1494 47.3378V45.8938H72.3901C72.4681 45.8938 72.5007 45.8938 72.5007 45.7897C72.5007 45.7117 72.5007 45.6856 72.3901 45.6856H72.1494V45.4645C72.1494 45.3539 72.1494 45.3409 72.0258 45.3409H71.9998C71.8957 45.3409 71.8827 45.3409 71.8827 45.4645V45.6856H71.3493C71.2583 45.6856 71.2453 45.6856 71.2453 45.7897C71.2453 45.8678 71.2453 45.8938 71.3493 45.8938H71.8957V46.3881C71.8246 46.2837 71.7246 46.2023 71.6079 46.1537C71.4912 46.1052 71.363 46.0917 71.2388 46.1149ZM71.2843 47.8647C70.868 47.8647 70.7119 47.7151 70.7119 47.3053V46.941C70.7119 46.5377 70.8745 46.3816 71.2843 46.3816C71.6941 46.3816 71.8632 46.5377 71.8632 46.941V47.3053C71.8632 47.6825 71.7006 47.8387 71.2843 47.8387V47.8647ZM71.2843 46.3946C70.881 46.3946 70.7184 46.5442 70.7184 46.941V47.3053C70.7184 47.7086 70.8745 47.8517 71.2843 47.8517C71.6941 47.8517 71.8502 47.7086 71.8502 47.3053V46.941C71.8502 46.5117 71.7006 46.3686 71.2843 46.3686V46.3946Z" fill="#009EDB"/>
<path d="M72.5527 47.2791V46.9149C72.5527 46.362 72.8389 46.0823 73.4243 46.0823C73.8601 46.0823 74.1138 46.2319 74.2244 46.5116C74.2829 46.5116 74.3414 46.4075 74.3414 46.1994C74.3414 46.1408 74.3414 46.1213 74.4325 46.1213H74.4975C74.5691 46.1213 74.5821 46.1213 74.5821 46.1994C74.5821 46.5181 74.4585 46.6742 74.2699 46.7262C74.2768 46.7889 74.2768 46.8522 74.2699 46.9149V47.2791C74.2699 47.8385 73.9837 48.1117 73.4113 48.1117C72.8389 48.1117 72.5527 47.8255 72.5527 47.2791ZM73.9902 46.9149C73.9902 46.5311 73.8536 46.362 73.4243 46.362C72.995 46.362 72.8454 46.5311 72.8454 46.9149V47.2791C72.8454 47.6629 72.995 47.832 73.4243 47.832C73.8536 47.832 73.9902 47.6629 73.9902 47.2791V46.9149Z" fill="#009EDB"/>
<path d="M73.4243 48.1184C72.8259 48.1184 72.5462 47.8517 72.5462 47.2793V46.915C72.5359 46.7972 72.5502 46.6785 72.5883 46.5665C72.6264 46.4545 72.6874 46.3517 72.7674 46.2645C72.9496 46.1146 73.1824 46.0401 73.4178 46.0564C73.8471 46.0564 74.0683 46.193 74.2179 46.4857C74.2959 46.4532 74.3285 46.3491 74.3285 46.18C74.3285 46.1149 74.3285 46.0954 74.426 46.0954H74.4911C74.5626 46.0954 74.5821 46.0954 74.5821 46.18C74.5821 46.4662 74.4781 46.6483 74.2699 46.7134C74.2734 46.774 74.2734 46.8348 74.2699 46.8955V47.2597C74.2871 47.3753 74.2771 47.4933 74.2409 47.6044C74.2047 47.7154 74.1431 47.8166 74.0611 47.8998C73.9792 47.9831 73.879 48.0461 73.7685 48.084C73.6579 48.122 73.5401 48.1337 73.4243 48.1184ZM73.4243 46.0889C73.1895 46.0688 72.9561 46.1411 72.7739 46.2906C72.6937 46.3773 72.633 46.4803 72.596 46.5925C72.5589 46.7047 72.5464 46.8236 72.5592 46.941V47.3053C72.5592 47.8712 72.8324 48.1314 73.4243 48.1314C73.6591 48.1508 73.8922 48.0785 74.0748 47.9297C74.155 47.843 74.2157 47.74 74.2527 47.6278C74.2897 47.5156 74.3023 47.3967 74.2894 47.2793V46.915C74.2931 46.8522 74.2931 46.7892 74.2894 46.7264C74.4976 46.6613 74.6017 46.4857 74.6017 46.1995C74.6017 46.141 74.6017 46.1279 74.5171 46.1279H74.4521C74.387 46.1279 74.3675 46.1279 74.3675 46.1995C74.3675 46.3751 74.3285 46.4792 74.2439 46.5182C74.1008 46.2255 73.8536 46.1149 73.4243 46.1149V46.0889ZM73.4243 47.8387C73.008 47.8387 72.8454 47.6825 72.8454 47.2793V46.915C72.8454 46.5117 73.0015 46.3556 73.4243 46.3556C73.8471 46.3556 73.9902 46.5117 73.9902 46.915V47.2793C73.9902 47.689 73.8406 47.8387 73.4243 47.8387ZM73.4243 46.3686C73.008 46.3686 72.8519 46.5117 72.8519 46.915V47.2793C72.8519 47.676 73.0145 47.8256 73.4243 47.8256C73.8341 47.8256 73.9837 47.6825 73.9837 47.2793V46.915C73.9837 46.5117 73.8341 46.3686 73.4243 46.3686Z" fill="#009EDB"/>
<path d="M75.0049 47.9491C75.0049 48.0532 75.0049 48.0727 74.8748 48.0727H74.8293C74.7317 48.0727 74.7057 48.0727 74.7057 47.9491V46.8238C74.7057 46.3294 74.9854 46.0823 75.5318 46.0823C76.0782 46.0823 76.3578 46.3425 76.3578 46.8238V47.9491C76.3578 48.0532 76.3579 48.0727 76.2278 48.0727H76.1822C76.0716 48.0727 76.0521 48.0727 76.0521 47.9491V46.8238C76.0521 46.5051 75.9351 46.362 75.5318 46.362C75.1285 46.362 75.0049 46.5116 75.0049 46.8238V47.9491Z" fill="#009EDB"/>
<path d="M76.2277 48.0661H76.1822C76.0716 48.0661 76.0521 48.0661 76.0521 47.936V46.8237C76.0521 46.492 75.909 46.3684 75.5318 46.3684C75.1545 46.3684 75.0049 46.492 75.0049 46.8237V47.949C75.0049 48.0531 75.0049 48.0791 74.8748 48.0791H74.8293C74.7317 48.0791 74.6992 48.0791 74.6992 47.949V46.8237C74.6992 46.3294 74.9789 46.0757 75.5318 46.0757C75.6477 46.0638 75.7648 46.0749 75.8765 46.1084C75.9881 46.1418 76.092 46.1971 76.1822 46.2708C76.2526 46.3435 76.3065 46.4305 76.3402 46.5259C76.3739 46.6214 76.3866 46.7229 76.3774 46.8237V47.949C76.3578 48.0661 76.3383 48.0661 76.2277 48.0661ZM75.5318 46.3424C75.9155 46.3424 76.0586 46.4725 76.0586 46.8107V47.936C76.0586 48.0401 76.0586 48.0531 76.1822 48.0531H76.2277C76.3318 48.0531 76.3513 48.0531 76.3513 47.936V46.8237C76.3592 46.7246 76.3465 46.6248 76.3141 46.5308C76.2816 46.4368 76.2301 46.3505 76.1627 46.2773C76.072 46.2047 75.9678 46.1507 75.8562 46.1183C75.7446 46.0859 75.6277 46.0759 75.5122 46.0887C75.28 46.0624 75.0466 46.1277 74.8618 46.2708C74.7894 46.3426 74.7333 46.4291 74.6974 46.5246C74.6615 46.62 74.6465 46.722 74.6536 46.8237V47.949C74.6536 48.0531 74.6536 48.0661 74.7772 48.0661H74.8228C74.9268 48.0661 74.9463 48.0661 74.9463 47.949V46.8237C74.9984 46.4855 75.148 46.3554 75.5318 46.3554V46.3424Z" fill="#009EDB"/>
<path d="M79.4671 46.8173C79.4671 47.2726 79.2004 47.5067 78.654 47.5067C78.5135 47.4914 78.3717 47.4914 78.2312 47.5067C78.2025 47.5115 78.1766 47.5268 78.1585 47.5497C78.1405 47.5725 78.1316 47.6013 78.1336 47.6303C78.1336 47.6824 78.1336 47.7214 78.2377 47.7409C78.3762 47.7516 78.5154 47.7516 78.654 47.7409C78.8778 47.7253 79.1019 47.7679 79.3044 47.8645C79.3703 47.9121 79.4224 47.9763 79.4556 48.0505C79.4887 48.1248 79.5016 48.2064 79.4931 48.2873C79.502 48.3754 79.4888 48.4644 79.4548 48.5461C79.4207 48.6279 79.3668 48.6999 79.2979 48.7556C79.0984 48.8617 78.8728 48.909 78.6475 48.8922C78.4094 48.9129 78.1702 48.8655 77.958 48.7556C77.8961 48.7062 77.8472 48.6425 77.8155 48.57C77.7838 48.4974 77.7702 48.4183 77.7759 48.3393C77.7707 48.2554 77.7886 48.1717 77.8276 48.0972C77.8666 48.0226 77.9252 47.9602 77.997 47.9165C77.9458 47.896 77.9025 47.8597 77.8733 47.813C77.844 47.7662 77.8304 47.7113 77.8344 47.6563C77.8344 47.4807 77.9385 47.3766 78.1531 47.3441C78.0435 47.2972 77.952 47.2162 77.8922 47.113C77.8324 47.0099 77.8076 46.8901 77.8214 46.7717V46.7652C77.8214 46.3359 78.1271 46.1148 78.6475 46.1148C78.7859 46.1123 78.9233 46.1388 79.0508 46.1928L79.2784 45.9912C79.3435 45.9326 79.376 45.9326 79.441 45.9912C79.5061 46.0497 79.5061 46.0822 79.441 46.1473L79.2654 46.3294C79.3225 46.3875 79.367 46.4568 79.3961 46.5329C79.4252 46.609 79.4383 46.6903 79.4345 46.7717L79.4671 46.8173ZM78.2637 48.0271C78.2042 48.0572 78.1546 48.104 78.1212 48.1617C78.0877 48.2195 78.0717 48.2857 78.0751 48.3523C78.0751 48.6125 78.2247 48.6776 78.654 48.6776C79.0833 48.6776 79.2199 48.6125 79.2199 48.3458C79.2199 48.0791 79.0768 48.0531 78.654 48.0531C78.5234 48.0543 78.393 48.0456 78.2637 48.0271ZM79.1548 46.7652C79.1548 46.4855 78.9857 46.3489 78.641 46.3489C78.2962 46.3489 78.1141 46.4855 78.1141 46.7652V46.8173C78.1141 47.097 78.2377 47.2401 78.641 47.2401C79.0443 47.2401 79.1548 47.097 79.1548 46.8173V46.7652Z" fill="#009EDB"/>
<path d="M78.654 48.9378C78.4165 48.9608 78.1773 48.9157 77.9645 48.8077C77.9009 48.758 77.8505 48.6935 77.8176 48.6198C77.7847 48.5461 77.7704 48.4654 77.7759 48.3849C77.7707 48.301 77.7886 48.2172 77.8276 48.1427C77.8666 48.0682 77.9251 48.0058 77.997 47.9621C77.9458 47.9416 77.9025 47.9053 77.8733 47.8585C77.844 47.8118 77.8304 47.7569 77.8344 47.7019C77.8344 47.5285 77.9385 47.4244 78.1466 47.3897C78.0388 47.3409 77.9493 47.2593 77.8909 47.1564C77.8324 47.0536 77.8081 46.9348 77.8214 46.8173V46.7653C77.8187 46.6696 77.8371 46.5746 77.8753 46.4869C77.9135 46.3992 77.9706 46.321 78.0425 46.2579C78.2193 46.1285 78.4353 46.0642 78.654 46.0758C78.7924 46.0733 78.9298 46.0999 79.0573 46.1538L79.2849 45.9587C79.35 45.8937 79.3825 45.8937 79.4475 45.9587C79.4866 45.9912 79.4996 46.0107 79.4996 46.0368C79.4996 46.0628 79.4996 46.0823 79.4475 46.1213L79.2784 46.2969C79.3355 46.3551 79.38 46.4243 79.4091 46.5004C79.4382 46.5766 79.4513 46.6579 79.4475 46.7392V46.7913C79.4475 47.2466 79.1678 47.4808 78.628 47.4808C78.4875 47.4646 78.3456 47.4646 78.2052 47.4808C78.1788 47.4868 78.1553 47.5017 78.1387 47.5231C78.1221 47.5444 78.1134 47.5708 78.1141 47.5979C78.1141 47.6499 78.1141 47.6824 78.2117 47.7019C78.3502 47.7139 78.4894 47.7139 78.628 47.7019C78.8518 47.6863 79.0759 47.7289 79.2784 47.8255C79.3465 47.8714 79.4007 47.9351 79.4351 48.0096C79.4695 48.0842 79.4828 48.1667 79.4735 48.2483C79.4835 48.3381 79.4701 48.4289 79.4348 48.5121C79.3995 48.5952 79.3434 48.6679 79.2719 48.7231C79.0876 48.8462 78.8749 48.92 78.654 48.9378ZM78.654 46.0888C78.1401 46.0888 77.8344 46.3425 77.8344 46.7392V46.7913C77.8211 46.9088 77.8455 47.0276 77.9039 47.1304C77.9623 47.2332 78.0519 47.3149 78.1596 47.3637C77.945 47.3962 77.8474 47.4938 77.8474 47.6694C77.8448 47.7233 77.8582 47.7769 77.886 47.8232C77.9138 47.8695 77.9547 47.9065 78.0035 47.9296C77.9322 47.9722 77.8739 48.0335 77.8349 48.1069C77.7959 48.1803 77.7777 48.2629 77.7824 48.3459C77.7768 48.4255 77.7912 48.5052 77.8241 48.5778C77.857 48.6505 77.9075 48.7139 77.971 48.7622C78.4052 48.9359 78.8897 48.9359 79.3239 48.7622C79.3921 48.7061 79.4451 48.6339 79.478 48.5521C79.511 48.4702 79.5229 48.3815 79.5126 48.2938C79.522 48.2139 79.5094 48.1328 79.4762 48.0594C79.443 47.9861 79.3903 47.9232 79.3239 47.8776C79.1222 47.7786 78.8975 47.7359 78.6735 47.754C78.5352 47.7694 78.3955 47.7694 78.2572 47.754C78.1856 47.754 78.1531 47.6954 78.1531 47.6434C78.1511 47.6143 78.16 47.5856 78.178 47.5627C78.1961 47.5399 78.222 47.5246 78.2507 47.5198C78.3911 47.5033 78.533 47.5033 78.6735 47.5198C78.8906 47.5341 79.1061 47.4745 79.2849 47.3507C79.3541 47.2851 79.4081 47.205 79.443 47.1162C79.4778 47.0274 79.4927 46.932 79.4866 46.8368V46.7653C79.4911 46.6842 79.4777 46.6031 79.4473 46.5278C79.417 46.4525 79.3704 46.3847 79.3109 46.3295L79.4931 46.1473C79.5175 46.128 79.5338 46.1001 79.5386 46.0693C79.5365 46.0548 79.5313 46.041 79.5234 46.0287C79.5156 46.0163 79.5052 46.0058 79.4931 45.9977C79.428 45.9327 79.402 45.9392 79.3304 45.9977L79.1028 46.1994C78.9618 46.1365 78.8081 46.1076 78.654 46.1148V46.0888ZM78.654 48.6906C78.2052 48.6906 78.0751 48.6126 78.0751 48.3589C78.068 48.2917 78.0824 48.224 78.1163 48.1655C78.1502 48.107 78.2018 48.0609 78.2637 48.0337C78.3937 48.0419 78.524 48.0419 78.654 48.0337C79.0768 48.0337 79.2264 48.0792 79.2264 48.3329C79.2264 48.5866 79.0312 48.7166 78.654 48.7166V48.6906ZM78.2637 48.0402C78.2048 48.0688 78.1559 48.1145 78.1234 48.1714C78.0909 48.2282 78.0763 48.2936 78.0816 48.3589C78.0816 48.6061 78.2117 48.6841 78.654 48.6841C79.0963 48.6841 79.2134 48.6061 79.2134 48.3524C79.2134 48.0987 79.0768 48.0597 78.654 48.0597C78.5241 48.0701 78.3938 48.0722 78.2637 48.0662V48.0402ZM78.654 47.2531C78.2767 47.2531 78.1206 47.1295 78.1206 46.8238V46.7653C78.1206 46.4791 78.2962 46.3425 78.654 46.3425C79.0117 46.3425 79.1743 46.4856 79.1743 46.7653V46.8173C79.1548 47.123 79.0247 47.2466 78.654 47.2466V47.2531ZM78.654 46.3555C78.2962 46.3555 78.1271 46.4921 78.1271 46.7718V46.8238C78.1271 47.123 78.2767 47.2466 78.654 47.2466C79.0312 47.2466 79.1678 47.123 79.1678 46.8238V46.7653C79.1548 46.4921 78.9922 46.349 78.654 46.349V46.3555Z" fill="#009EDB"/>
<path d="M80.2606 45.5098C80.2615 45.5351 80.2573 45.5604 80.2482 45.584C80.2391 45.6077 80.2253 45.6292 80.2077 45.6474C80.1901 45.6657 80.169 45.6801 80.1457 45.69C80.1224 45.6999 80.0973 45.705 80.072 45.705C80.0458 45.7058 80.0198 45.7014 79.9953 45.692C79.9709 45.6826 79.9486 45.6684 79.9298 45.6502C79.911 45.632 79.896 45.6102 79.8858 45.586C79.8756 45.5619 79.8703 45.536 79.8704 45.5098C79.8721 45.4575 79.894 45.4079 79.9317 45.3714C79.9693 45.335 80.0196 45.3147 80.072 45.3147C80.1226 45.3164 80.1706 45.3377 80.2058 45.3741C80.241 45.4105 80.2607 45.4592 80.2606 45.5098ZM79.9224 46.2449C79.9224 46.1473 79.9224 46.1213 80.046 46.1213H80.0915C80.1891 46.1213 80.2151 46.1213 80.2151 46.2449V47.9491C80.2151 48.0531 80.2151 48.0726 80.0915 48.0726H80.046C79.9354 48.0726 79.9224 48.0726 79.9224 47.9491V46.2449Z" fill="#009EDB"/>
<path d="M80.0915 48.0662H80.046C79.9354 48.0662 79.9159 48.0662 79.9159 47.9361V46.2449C79.9159 46.1474 79.9159 46.1148 80.046 46.1148H80.0915C80.1891 46.1148 80.2216 46.1148 80.2216 46.2449V47.9491C80.2216 48.0662 80.1891 48.0662 80.0915 48.0662ZM80.046 46.1148C79.9419 46.1148 79.9224 46.1148 79.9224 46.2319V47.9361C79.9224 48.0402 79.9224 48.0532 80.046 48.0532H80.0915C80.1826 48.0532 80.2086 48.0532 80.2086 47.9361V46.2449C80.2086 46.1539 80.2086 46.1278 80.0915 46.1278L80.046 46.1148ZM80.046 45.692C79.9942 45.692 79.9446 45.6715 79.908 45.6349C79.8714 45.5983 79.8508 45.5486 79.8508 45.4969C79.8508 45.4451 79.8714 45.3955 79.908 45.3589C79.9446 45.3223 79.9942 45.3018 80.046 45.3018C80.0977 45.3018 80.1474 45.3223 80.1839 45.3589C80.2205 45.3955 80.2411 45.4451 80.2411 45.4969C80.2411 45.5486 80.2205 45.5983 80.1839 45.6349C80.1474 45.6715 80.0977 45.692 80.046 45.692ZM80.046 45.3083C80.0212 45.3083 79.9967 45.3131 79.9738 45.3226C79.9509 45.3321 79.9301 45.346 79.9126 45.3635C79.8951 45.381 79.8812 45.4018 79.8717 45.4247C79.8622 45.4476 79.8573 45.4721 79.8573 45.4969C79.8573 45.5217 79.8622 45.5462 79.8717 45.5691C79.8812 45.592 79.8951 45.6128 79.9126 45.6303C79.9301 45.6478 79.9509 45.6617 79.9738 45.6712C79.9967 45.6806 80.0212 45.6855 80.046 45.6855C80.096 45.6855 80.144 45.6657 80.1793 45.6303C80.2147 45.5949 80.2346 45.5469 80.2346 45.4969C80.2346 45.4469 80.2147 45.3989 80.1793 45.3635C80.144 45.3281 80.096 45.3083 80.046 45.3083Z" fill="#009EDB"/>
<path d="M82.212 47.4872C82.212 47.9295 81.9583 48.1377 81.3859 48.1377C80.9306 48.1377 80.6444 47.9555 80.6444 47.5458C80.6444 47.136 80.9111 46.9668 81.451 46.9668H81.9193V46.7002C81.9193 46.4335 81.7307 46.3424 81.3989 46.3424C81.2524 46.3415 81.1063 46.3568 80.9631 46.3879C80.8656 46.3879 80.833 46.3879 80.833 46.2904V46.2578C80.833 46.1668 80.833 46.1408 80.9566 46.1212C81.0981 46.0942 81.2419 46.0811 81.3859 46.0822C81.9388 46.0822 82.212 46.2904 82.212 46.7002V47.4872ZM81.9193 47.175H81.451C81.0997 47.175 80.9371 47.2726 80.9371 47.5197C80.9371 47.7669 81.0867 47.858 81.3859 47.858C81.6851 47.858 81.9193 47.7734 81.9193 47.4742V47.175ZM81.451 45.8741C81.3794 45.8741 81.3729 45.8741 81.3599 45.796C81.3469 45.718 81.4185 45.6399 81.5355 45.5163C81.5633 45.4932 81.5818 45.4609 81.5876 45.4253C81.5876 45.3537 81.5876 45.3212 81.516 45.3212C81.4583 45.3074 81.3981 45.3074 81.3404 45.3212C81.2949 45.3212 81.2623 45.3212 81.2363 45.2822V45.2496C81.2363 45.1911 81.2363 45.1651 81.2949 45.1456C81.3687 45.1135 81.4486 45.098 81.529 45.1C81.5677 45.0968 81.6066 45.1023 81.6429 45.116C81.6792 45.1298 81.712 45.1515 81.7388 45.1796C81.7656 45.2076 81.7858 45.2413 81.7979 45.2782C81.81 45.3151 81.8137 45.3542 81.8087 45.3927C81.8087 45.5619 81.5746 45.6334 81.5681 45.7635C81.5654 45.7833 81.5563 45.8016 81.5422 45.8157C81.5281 45.8298 81.5098 45.8389 81.49 45.8415L81.451 45.8741Z" fill="#009EDB"/>
<path d="M81.3859 48.1182C80.8981 48.1182 80.6379 47.9101 80.6379 47.5198C80.6379 47.1295 80.8851 46.9344 81.451 46.9344H81.9128V46.7002C81.9128 46.453 81.7567 46.349 81.3989 46.349C81.2527 46.3469 81.1066 46.36 80.9631 46.388C80.9111 46.388 80.8786 46.388 80.859 46.388C80.8395 46.388 80.859 46.3425 80.859 46.2969V46.2644C80.859 46.1733 80.859 46.1473 80.9826 46.1213C81.124 46.0936 81.2679 46.0805 81.4119 46.0823C81.9648 46.0823 82.2445 46.2969 82.2445 46.7327V47.5198C82.2185 47.9231 81.9583 48.1182 81.3859 48.1182ZM81.451 46.9474C80.8916 46.9474 80.6444 47.123 80.6444 47.5198C80.6444 47.9166 80.8981 48.1052 81.3859 48.1052C81.6125 48.1291 81.8407 48.0789 82.0364 47.9621C82.1069 47.9061 82.1624 47.8333 82.1976 47.7503C82.2328 47.6674 82.2467 47.577 82.238 47.4873V46.7002C82.2432 46.6122 82.2269 46.5241 82.1907 46.4437C82.1544 46.3633 82.0993 46.2928 82.0299 46.2384C81.8439 46.1269 81.6283 46.0747 81.4119 46.0888C81.2679 46.087 81.124 46.1001 80.9826 46.1278C80.8851 46.1278 80.8655 46.1668 80.8655 46.2579V46.2904C80.8655 46.336 80.8655 46.362 80.8655 46.375C80.8655 46.388 80.9111 46.375 80.9631 46.375C81.1063 46.3442 81.2524 46.3289 81.3989 46.3295C81.7632 46.3295 81.9193 46.44 81.9193 46.6937V46.9409L81.451 46.9474ZM81.3859 47.858C81.0802 47.858 80.9371 47.7475 80.9371 47.5198C80.9371 47.2921 81.0932 47.1685 81.451 47.1685H81.9193V47.4743C81.9193 47.793 81.7176 47.858 81.3859 47.858ZM81.451 47.2076C81.0932 47.2076 80.9436 47.3051 80.9436 47.5458C80.9436 47.7865 81.0867 47.8775 81.3859 47.8775C81.6851 47.8775 81.9128 47.7735 81.9128 47.5003V47.2076H81.451ZM81.451 45.9067C81.3729 45.9067 81.3664 45.9067 81.3534 45.8286C81.3404 45.7505 81.3924 45.6855 81.477 45.5944L81.5355 45.5359C81.5484 45.5255 81.559 45.5127 81.5668 45.4982C81.5746 45.4837 81.5795 45.4678 81.581 45.4513C81.581 45.3798 81.581 45.3538 81.516 45.3473C81.4638 45.3488 81.4127 45.3621 81.3664 45.3863C81.3144 45.3863 81.2818 45.3863 81.2493 45.3408V45.3082C81.2493 45.2432 81.2493 45.2237 81.3079 45.2042C81.3817 45.1721 81.4616 45.1566 81.542 45.1586C81.6178 45.1564 81.6918 45.1819 81.7502 45.2302C81.7766 45.2602 81.7965 45.2953 81.8088 45.3333C81.8211 45.3714 81.8255 45.4115 81.8217 45.4513C81.8158 45.495 81.8013 45.537 81.7789 45.575C81.7566 45.613 81.7269 45.6461 81.6916 45.6725C81.6376 45.707 81.5982 45.7603 81.581 45.8221C81.5795 45.8423 81.5708 45.8613 81.5565 45.8756C81.5422 45.8899 81.5232 45.8986 81.503 45.9001L81.451 45.9067ZM81.4965 45.3408C81.5355 45.3408 81.5745 45.3408 81.5745 45.4513C81.5688 45.487 81.5503 45.5193 81.5225 45.5424L81.464 45.6009C81.3794 45.6855 81.3339 45.731 81.3404 45.8221C81.3469 45.9132 81.3404 45.8936 81.4314 45.8936C81.4495 45.891 81.4662 45.8826 81.4791 45.8698C81.492 45.8569 81.5004 45.8401 81.503 45.8221C81.5198 45.7584 81.5591 45.703 81.6136 45.666C81.6501 45.6442 81.6818 45.615 81.7064 45.5803C81.7311 45.5456 81.7482 45.5061 81.7567 45.4643C81.76 45.4256 81.7553 45.3866 81.743 45.3496C81.7307 45.3127 81.711 45.2787 81.6851 45.2497C81.63 45.2001 81.5575 45.1743 81.4835 45.1781C81.403 45.1761 81.3231 45.1916 81.2493 45.2237C81.2038 45.2237 81.1778 45.2627 81.1973 45.3212C81.1973 45.3798 81.2558 45.3798 81.3013 45.3668C81.3625 45.3393 81.4303 45.3303 81.4965 45.3408Z" fill="#009EDB"/>
<path d="M82.934 47.9491C82.934 48.0532 82.934 48.0727 82.8039 48.0727H82.7584C82.6608 48.0727 82.6348 48.0727 82.6348 47.9491V46.8238C82.6348 46.3294 82.9145 46.0823 83.4609 46.0823C84.0072 46.0823 84.2869 46.3425 84.2869 46.8238V47.9491C84.2869 48.0532 84.2869 48.0727 84.1568 48.0727H84.1113C84.0007 48.0727 83.9812 48.0727 83.9812 47.9491V46.8238C83.9812 46.5051 83.8641 46.362 83.4609 46.362C83.0576 46.362 82.934 46.5116 82.934 46.8238V47.9491Z" fill="#009EDB"/>
<path d="M84.1568 48.0661H84.1113C84.0007 48.0661 83.9812 48.0661 83.9812 47.936V46.8237C83.9812 46.492 83.8381 46.3684 83.4608 46.3684C83.0836 46.3684 82.934 46.492 82.934 46.8237V47.949C82.934 48.0531 82.934 48.0791 82.8039 48.0791H82.7583C82.6608 48.0791 82.6282 48.0791 82.6282 47.949V46.8237C82.6282 46.3294 82.9079 46.0757 83.4608 46.0757C83.5768 46.0638 83.6939 46.0749 83.8055 46.1084C83.9172 46.1418 84.0211 46.1971 84.1113 46.2708C84.1817 46.3435 84.2356 46.4305 84.2693 46.5259C84.303 46.6214 84.3156 46.7229 84.3064 46.8237V47.949C84.2869 48.0661 84.2674 48.0661 84.1568 48.0661ZM83.4608 46.3424C83.8446 46.3424 83.9877 46.4725 83.9877 46.8107V47.936C83.9877 48.0401 83.9877 48.0531 84.1113 48.0531H84.1568C84.2609 48.0531 84.2804 48.0531 84.2804 47.936V46.8237C84.2883 46.7246 84.2756 46.6248 84.2432 46.5308C84.2107 46.4368 84.1592 46.3505 84.0918 46.2773C84.0011 46.2047 83.8969 46.1507 83.7853 46.1183C83.6737 46.0859 83.5568 46.0759 83.4413 46.0887C83.2091 46.0624 82.9757 46.1277 82.7909 46.2708C82.7185 46.3426 82.6624 46.4291 82.6265 46.5246C82.5905 46.62 82.5756 46.722 82.5827 46.8237V47.949C82.5827 48.0531 82.6152 48.0661 82.7063 48.0661H82.7518C82.8559 48.0661 82.8754 48.0661 82.8754 47.949V46.8237C82.9275 46.4855 83.0576 46.3554 83.4608 46.3554V46.3424Z" fill="#009EDB"/>
<path d="M85.8416 45.4643C85.8416 45.3537 85.8416 45.3342 85.9716 45.3342H86.0172C86.1213 45.3342 86.1408 45.3342 86.1408 45.4643V46.3815C86.2158 46.2833 86.3155 46.2068 86.4298 46.16C86.5442 46.1131 86.6689 46.0975 86.7912 46.1148C87.2726 46.1148 87.5197 46.3424 87.5197 46.8108V47.9816C87.5197 48.0857 87.5197 48.1052 87.3961 48.1052H87.3441C87.24 48.1052 87.2205 48.1052 87.2205 47.9816V46.8108C87.2205 46.4985 87.0774 46.362 86.7132 46.362C86.3489 46.362 86.1668 46.5116 86.1668 46.8758V47.9491C86.1668 48.0531 86.1668 48.0727 86.0432 48.0727H85.9977C85.8936 48.0727 85.8676 48.0727 85.8676 47.9491L85.8416 45.4643Z" fill="#009EDB"/>
<path d="M87.3701 48.0663H87.3181C87.214 48.0663 87.188 48.0663 87.188 47.9362V46.8109C87.188 46.4922 87.0449 46.3686 86.6872 46.3686C86.3294 46.3686 86.1473 46.5182 86.1473 46.876V47.9492C86.1473 48.0533 86.1473 48.0793 86.0172 48.0793H85.9716C85.8741 48.0793 85.8416 48.0793 85.8416 47.9492V45.4645C85.8416 45.3474 85.8416 45.3279 85.9716 45.3279H86.0172C86.1213 45.3279 86.1473 45.3279 86.1473 45.4645V46.3686C86.2234 46.2721 86.3236 46.1973 86.4378 46.1517C86.5519 46.106 86.676 46.0911 86.7977 46.1084C87.2856 46.1084 87.5327 46.3426 87.5327 46.8109V47.9818C87.5002 48.0663 87.4742 48.0663 87.3701 48.0663ZM86.7197 46.3426C87.0839 46.3426 87.2335 46.4792 87.2335 46.7979V47.9362C87.2335 48.0403 87.2335 48.0533 87.3506 48.0533H87.4027C87.5067 48.0533 87.5197 48.0533 87.5197 47.9362V46.7654C87.5197 46.3036 87.2791 46.0759 86.7977 46.0759C86.6754 46.0586 86.5507 46.0742 86.4364 46.1211C86.322 46.168 86.2223 46.2444 86.1473 46.3426V45.4645C86.1473 45.3604 86.1473 45.3409 86.0302 45.3409H85.9847C85.8871 45.3409 85.8611 45.3409 85.8611 45.4645V47.9818C85.8611 48.0858 85.8611 48.0988 85.9847 48.0988H86.0302C86.1278 48.0988 86.1473 48.0988 86.1473 47.9818V46.876C86.1343 46.5117 86.3099 46.3556 86.6872 46.3556L86.7197 46.3426Z" fill="#009EDB"/>
<path d="M87.9165 47.2792V46.915C87.9165 46.3621 88.2027 46.0824 88.7881 46.0824C88.9499 46.0585 89.1151 46.0873 89.2592 46.1647C89.4033 46.242 89.5186 46.3637 89.5882 46.5117C89.6467 46.5117 89.7053 46.4076 89.7053 46.1995C89.7053 46.1409 89.7053 46.1214 89.7963 46.1214H89.8614C89.9329 46.1214 89.9459 46.1214 89.9459 46.1995C89.9459 46.5182 89.8158 46.6743 89.6337 46.7263C89.6406 46.789 89.6406 46.8523 89.6337 46.915V47.2792C89.6337 47.8386 89.3475 48.1118 88.7751 48.1118C88.2027 48.1118 87.9165 47.8256 87.9165 47.2792ZM89.354 46.915C89.354 46.5312 89.2174 46.3621 88.7881 46.3621C88.3588 46.3621 88.2092 46.5312 88.2092 46.915V47.2792C88.2092 47.663 88.3523 47.8321 88.7881 47.8321C89.2239 47.8321 89.354 47.663 89.354 47.2792V46.915Z" fill="#009EDB"/>
<path d="M88.7882 48.1184C88.1897 48.1184 87.91 47.8517 87.91 47.2793V46.915C87.8997 46.7972 87.9141 46.6785 87.9522 46.5665C87.9902 46.4545 88.0512 46.3517 88.1312 46.2645C88.3135 46.1146 88.5462 46.0401 88.7817 46.0564C89.211 46.0564 89.4646 46.193 89.5817 46.4857C89.6598 46.4532 89.6923 46.3491 89.6923 46.18C89.6923 46.1149 89.6923 46.0954 89.7899 46.0954H89.8549C89.9265 46.0954 89.946 46.0954 89.946 46.18C89.946 46.4662 89.8419 46.6483 89.6338 46.7134C89.6372 46.774 89.6372 46.8348 89.6338 46.8955V47.2597C89.6509 47.3753 89.6409 47.4933 89.6047 47.6044C89.5685 47.7154 89.5069 47.8166 89.425 47.8998C89.343 47.9831 89.2428 48.0461 89.1323 48.084C89.0218 48.122 88.904 48.1337 88.7882 48.1184ZM88.7882 46.0889C88.5533 46.0688 88.3199 46.1411 88.1377 46.2906C88.0575 46.3773 87.9968 46.4803 87.9598 46.5925C87.9227 46.7047 87.9102 46.8236 87.923 46.941V47.3053C87.923 47.8712 88.1962 48.1314 88.7882 48.1314C89.0229 48.1508 89.256 48.0785 89.4386 47.9297C89.5188 47.843 89.5795 47.74 89.6165 47.6278C89.6536 47.5156 89.6661 47.3967 89.6533 47.2793V46.915C89.6567 46.8522 89.6567 46.7892 89.6533 46.7264C89.8614 46.6613 89.959 46.4857 89.959 46.1995C89.959 46.141 89.959 46.1279 89.8809 46.1279H89.8159C89.7508 46.1279 89.7313 46.1279 89.7313 46.1995C89.7313 46.3751 89.6923 46.4792 89.6077 46.5182C89.4646 46.2255 89.2175 46.1149 88.7882 46.1149V46.0889ZM88.7882 47.8387C88.3719 47.8387 88.2092 47.6825 88.2092 47.2793V46.915C88.2092 46.5117 88.3654 46.3556 88.7882 46.3556C89.211 46.3556 89.3541 46.5117 89.3541 46.915V47.2793C89.3541 47.689 89.2044 47.8387 88.7882 47.8387ZM88.7882 46.3686C88.3719 46.3686 88.2158 46.5117 88.2158 46.915V47.2793C88.2158 47.676 88.3784 47.8256 88.7882 47.8256C89.1979 47.8256 89.3476 47.6825 89.3476 47.2793V46.915C89.3476 46.5117 89.1979 46.3686 88.7882 46.3686Z" fill="#009EDB"/>
<path d="M90.3688 47.9491C90.3688 48.0532 90.3687 48.0727 90.2387 48.0727H90.2126C90.1151 48.0727 90.0891 48.0727 90.0891 47.9491V46.8238C90.0891 46.3294 90.3622 46.0823 90.9151 46.0823C91.468 46.0823 91.7412 46.3425 91.7412 46.8238V47.9491C91.7412 48.0532 91.7412 48.0727 91.6111 48.0727H91.5656C91.455 48.0727 91.4355 48.0727 91.4355 47.9491V46.8238C91.4355 46.5051 91.3184 46.362 90.9151 46.362C90.5119 46.362 90.3883 46.5116 90.3883 46.8238L90.3688 47.9491Z" fill="#009EDB"/>
<path d="M91.5916 48.0661H91.546C91.4355 48.0661 91.416 48.0661 91.416 47.936V46.8237C91.416 46.492 91.2729 46.3684 90.8956 46.3684C90.5183 46.3684 90.3687 46.492 90.3687 46.8237V47.949C90.3687 48.0531 90.3687 48.0791 90.2386 48.0791H90.2126C90.115 48.0791 90.0825 48.0791 90.0825 47.949V46.8237C90.0825 46.3294 90.3622 46.0757 90.9151 46.0757C91.031 46.0638 91.1482 46.0749 91.2598 46.1084C91.3714 46.1418 91.4753 46.1971 91.5656 46.2708C91.636 46.3435 91.6899 46.4305 91.7236 46.5259C91.7573 46.6214 91.7699 46.7229 91.7607 46.8237V47.949C91.7217 48.0661 91.7022 48.0661 91.5916 48.0661ZM90.8956 46.3424C91.2794 46.3424 91.4225 46.4725 91.4225 46.8107V47.936C91.4225 48.0401 91.4225 48.0531 91.546 48.0531H91.5916C91.6956 48.0531 91.7152 48.0531 91.7152 47.936V46.8237C91.7231 46.7246 91.7104 46.6248 91.6779 46.5308C91.6455 46.4368 91.5939 46.3505 91.5265 46.2773C91.4358 46.2047 91.3317 46.1507 91.2201 46.1183C91.1085 46.0859 90.9916 46.0759 90.8761 46.0887C90.6438 46.0624 90.4105 46.1277 90.2256 46.2708C90.1532 46.3426 90.0971 46.4291 90.0612 46.5246C90.0253 46.62 90.0104 46.722 90.0175 46.8237V47.949C90.0175 48.0531 90.05 48.0661 90.1411 48.0661H90.2126C90.3167 48.0661 90.3362 48.0661 90.3362 47.949V46.8237C90.3622 46.4855 90.5118 46.3554 90.8956 46.3554V46.3424Z" fill="#009EDB"/>
</svg>
