<svg width="137" height="42" viewBox="0 0 137 42" fill="none" xmlns="http://www.w3.org/2000/svg">
<path d="M20.4457 0.700439C9.15381 0.700439 -0.000488281 9.85449 -0.000488281 21.1464C-0.000488281 32.4387 9.15381 41.592 20.4457 41.592C31.7388 41.592 40.8921 32.4387 40.8921 21.1464C40.8921 9.85523 31.7388 0.701416 20.4454 0.701416L20.4457 0.700439ZM29.8221 30.1893C29.4559 30.7899 28.6697 30.9804 28.0691 30.6117C23.2686 27.6794 17.2253 27.0153 10.1082 28.6414C9.42238 28.7977 8.73875 28.3679 8.58249 27.6819C8.4255 26.9958 8.8535 26.3122 9.54104 26.1559C17.3295 24.3765 24.0103 25.1427 29.3998 28.4363C30.0004 28.805 30.1908 29.5887 29.8221 30.1893ZM32.3247 24.6221C31.8633 25.3722 30.8818 25.609 30.1322 25.1476C24.6363 21.7694 16.2587 20.7911 9.75809 22.7644C8.91503 23.019 8.0246 22.5439 7.76872 21.7023C7.5148 20.8592 7.99017 19.9705 8.83177 19.7142C16.2572 17.4611 25.4884 18.5525 31.7998 22.4309C32.5493 22.8923 32.7862 23.8736 32.3247 24.6221ZM32.5396 18.8249C25.9499 14.9109 15.0777 14.551 8.78611 16.4606C7.77581 16.767 6.70739 16.1966 6.40122 15.1863C6.09505 14.1755 6.66491 13.1078 7.67595 12.8007C14.8983 10.6082 26.9045 11.0318 34.4913 15.5357C35.402 16.075 35.6999 17.2487 35.1603 18.1562C34.6232 19.065 33.4464 19.3645 32.5405 18.8249H32.5396ZM55.6267 19.575C52.0963 18.7331 51.4688 18.1423 51.4688 16.9008C51.4688 15.7279 52.5724 14.9385 54.2155 14.9385C55.8074 14.9385 57.3846 15.5379 59.04 16.7719C59.0888 16.8092 59.1523 16.8241 59.2134 16.8143C59.2768 16.8051 59.3306 16.7711 59.3672 16.7201L61.0909 14.2903C61.1617 14.1902 61.1422 14.0522 61.047 13.9758C59.0766 12.3954 56.8597 11.6271 54.2668 11.6271C50.4556 11.6271 47.7919 13.9145 47.7919 17.1874C47.7919 20.6971 50.0893 21.9399 54.0593 22.8991C57.4359 23.6773 58.0072 24.3291 58.0072 25.4943C58.0072 26.7858 56.8548 27.5891 54.9993 27.5891C52.9386 27.5891 51.2564 26.8933 49.3764 25.2672C49.33 25.2257 49.2665 25.2086 49.2079 25.211C49.1445 25.2159 49.0883 25.2452 49.0492 25.2916L47.1155 27.5915C47.035 27.6892 47.0447 27.8308 47.1375 27.9138C49.3251 29.867 52.0157 30.8974 54.9211 30.8974C59.0278 30.8974 61.6818 28.6536 61.6818 25.1793C61.6891 22.2477 59.9336 20.6241 55.6341 19.5782L55.6267 19.575ZM70.9742 16.0934C69.1944 16.0934 67.7343 16.7946 66.5282 18.2314V16.6141C66.5282 16.4864 66.4257 16.3824 66.2987 16.3824H63.1369C63.01 16.3824 62.9074 16.4864 62.9074 16.6141V34.5841C62.9074 34.7111 63.01 34.816 63.1369 34.816H66.2987C66.4257 34.816 66.5282 34.7111 66.5282 34.5841V28.9124C67.7343 30.2626 69.1944 30.9242 70.9742 30.9242C74.2825 30.9242 77.6323 28.3777 77.6323 23.5095C77.6372 18.6404 74.2874 16.0931 70.9767 16.0931L70.9742 16.0934ZM73.9554 23.5095C73.9554 25.9874 72.4294 27.7185 70.2418 27.7185C68.081 27.7185 66.4501 25.9093 66.4501 23.5095C66.4501 21.1095 68.081 19.3008 70.2418 19.3008C72.3928 19.3006 73.9554 21.0704 73.9554 23.5095ZM86.2143 16.0934C81.9538 16.0934 78.6163 19.3738 78.6163 23.5625C78.6163 27.7063 81.9319 30.9511 86.163 30.9511C90.4382 30.9511 93.7855 27.6819 93.7855 23.5095C93.7855 19.3513 90.4601 16.0938 86.2143 16.0938V16.0934ZM86.2143 27.7429C83.9486 27.7429 82.2395 25.9215 82.2395 23.5083C82.2395 21.0841 83.89 19.325 86.163 19.325C88.4434 19.325 90.1623 21.1456 90.1623 23.5613C90.1623 25.985 88.502 27.7429 86.2143 27.7429ZM102.883 16.3824H99.4035V12.8261C99.4035 12.6986 99.301 12.5946 99.174 12.5946H96.0122C95.8852 12.5946 95.7802 12.6986 95.7802 12.8261V16.3824H94.2616C94.1347 16.3824 94.0321 16.4864 94.0321 16.6141V19.3308C94.0321 19.4583 94.1347 19.5625 94.2616 19.5625H95.7802V26.5929C95.7802 29.4325 97.1939 30.873 99.9846 30.873C101.117 30.873 102.057 30.6386 102.944 30.1356C103.017 30.0965 103.061 30.0184 103.061 29.9354V27.3474C103.061 27.2692 103.019 27.1936 102.951 27.1521C102.883 27.1081 102.797 27.1057 102.726 27.1423C102.118 27.4475 101.53 27.5891 100.871 27.5891C99.8576 27.5891 99.4035 27.1276 99.4035 26.0973V19.5638H102.883C103.01 19.5638 103.112 19.4597 103.112 19.3321V16.6156C103.117 16.4879 103.015 16.3839 102.885 16.3839L102.883 16.3824ZM115.002 16.3964V15.9596C115.002 14.6746 115.496 14.1015 116.599 14.1015C117.258 14.1015 117.788 14.2324 118.382 14.4302C118.455 14.4531 118.53 14.4417 118.589 14.398C118.65 14.3542 118.684 14.2842 118.684 14.21V11.5462C118.684 11.4444 118.621 11.3543 118.521 11.3243C117.896 11.138 117.095 10.9468 115.894 10.9468C112.976 10.9468 111.43 12.591 111.43 15.6998V16.3688H109.912C109.785 16.3688 109.68 16.4728 109.68 16.6002V19.3308C109.68 19.4583 109.785 19.5625 109.912 19.5625H111.43V30.4042C111.43 30.5336 111.535 30.6361 111.662 30.6361H114.822C114.951 30.6361 115.054 30.5336 115.054 30.4042V19.5633H118.006L122.527 30.4042C122.015 31.5419 121.509 31.769 120.821 31.769C120.264 31.769 119.676 31.603 119.077 31.2734C119.021 31.2441 118.953 31.2392 118.894 31.2563C118.833 31.2783 118.782 31.3222 118.758 31.3808L117.686 33.732C117.634 33.8443 117.678 33.9737 117.786 34.0323C118.904 34.6378 119.912 34.8966 121.16 34.8966C123.494 34.8966 124.786 33.8077 125.921 30.8827L131.405 16.7128C131.434 16.6415 131.424 16.5609 131.38 16.4977C131.339 16.4349 131.268 16.3971 131.192 16.3971H127.901C127.801 16.3971 127.713 16.4598 127.681 16.5524L124.31 26.1803L120.618 16.546C120.584 16.4564 120.498 16.3971 120.403 16.3971H115.002V16.3964ZM107.976 16.3824H104.814C104.687 16.3824 104.582 16.4864 104.582 16.6141V30.4042C104.582 30.5336 104.687 30.6361 104.814 30.6361H107.976C108.103 30.6361 108.208 30.5336 108.208 30.4042V16.6151C108.208 16.4874 108.105 16.3834 107.976 16.3834V16.3824ZM106.413 10.103C105.161 10.103 104.145 11.1168 104.145 12.369C104.145 13.622 105.161 14.637 106.413 14.637C107.666 14.637 108.679 13.622 108.679 12.369C108.679 11.117 107.663 10.103 106.413 10.103ZM134.105 20.8165C132.855 20.8165 131.881 19.8118 131.881 18.5918C131.881 17.3717 132.867 16.3556 134.117 16.3556C135.367 16.3556 136.341 17.36 136.341 18.5791C136.341 19.7991 135.355 20.8165 134.105 20.8165ZM134.117 16.5768C132.977 16.5768 132.115 17.4826 132.115 18.5918C132.115 19.7005 132.972 20.5941 134.105 20.5941C135.245 20.5941 136.107 19.689 136.107 18.5791C136.107 17.4704 135.25 16.5768 134.117 16.5768ZM134.61 18.8079L135.24 19.6888H134.708L134.142 18.8806H133.656V19.6888H133.211V17.3537H134.252C134.796 17.3537 135.152 17.6313 135.152 18.0986C135.155 18.4814 134.933 18.7153 134.613 18.8079H134.61ZM134.234 17.7543H133.656V18.4929H134.234C134.523 18.4929 134.696 18.3515 134.696 18.1232C134.696 17.883 134.523 17.7543 134.234 17.7543Z" fill="#1ED760"/>
</svg>
