<svg width="100" height="75" viewBox="0 0 100 75" fill="none" xmlns="http://www.w3.org/2000/svg">
<path d="M74.8343 7.03552C74.8343 22.2011 74.8343 37.3311 74.8343 52.4966C74.8343 52.8873 74.7278 53.0294 74.195 52.9939C73.7333 52.9584 73.2716 52.9584 72.8099 52.9939C72.4547 53.0294 72.3481 52.8873 72.3837 52.6742C72.3837 52.6387 72.3837 52.5677 72.3837 52.5322C72.3837 37.3666 72.3837 22.2366 72.3837 7.07104C73.2005 7.03552 74.0174 7.03552 74.8343 7.03552Z" fill="black"/>
<path d="M31.3621 7.03552C31.3621 18.3653 31.3621 29.7306 31.3621 41.0603C31.3621 41.3445 31.2556 41.4865 30.7228 41.451C30.2966 41.4155 29.8349 41.4155 29.4087 41.451C28.9825 41.4865 28.876 41.38 28.947 41.1669C28.947 41.1314 28.947 41.0958 28.947 41.0603C28.947 29.7306 28.947 18.4008 28.947 7.07104C29.7284 7.03552 30.5452 7.03552 31.3621 7.03552Z" fill="black"/>
<path d="M34.6296 7.03552C34.6296 18.3653 34.6296 29.7306 34.6296 41.0603C34.6296 41.3445 34.5586 41.4865 33.9903 41.451C33.5286 41.4155 33.0313 41.451 32.5696 41.451C32.25 41.451 32.179 41.38 32.179 41.2379C32.179 41.1669 32.179 41.0958 32.179 40.9893C32.179 29.6595 32.179 18.3653 32.179 7.03552C32.9958 7.03552 33.8127 7.03552 34.6296 7.03552Z" fill="black"/>
<path d="M37.7906 7.03552C37.7906 18.3653 37.7906 29.7306 37.7906 41.0603C37.7906 41.3445 37.684 41.4865 37.1513 41.451C36.7251 41.4155 36.2989 41.4155 35.8727 41.451C35.411 41.4865 35.2689 41.38 35.3399 41.1314C35.3399 41.0958 35.3399 41.0603 35.3399 41.0248C35.3399 29.6951 35.3399 18.3653 35.3399 7.03552C36.1568 7.03552 36.9737 7.03552 37.7906 7.03552Z" fill="black"/>
<path d="M66.8075 7.03552C66.8075 18.3653 66.8075 29.7306 66.8075 41.0603C66.8075 41.3445 66.7009 41.4865 66.1682 41.451C65.742 41.4155 65.2803 41.4155 64.8541 41.451C64.4279 41.4865 64.3213 41.38 64.3924 41.1669C64.3924 41.1314 64.3924 41.0603 64.3924 41.0248C64.3924 29.6951 64.3924 18.3653 64.3924 7.03552C65.2092 7.03552 65.9906 7.03552 66.8075 7.03552Z" fill="black"/>
<path d="M60.379 7.03552C60.379 18.3653 60.379 29.7306 60.379 41.0603C60.379 41.3445 60.3079 41.4865 59.7397 41.451C59.278 41.4155 58.8163 41.4155 58.3545 41.451C57.9994 41.451 57.8928 41.38 57.9283 41.2024C57.9283 41.1669 57.9283 41.0958 57.9283 41.0603C57.9283 29.7306 57.9283 18.4008 57.9283 7.07104C58.7452 7.03552 59.5621 7.03552 60.379 7.03552Z" fill="black"/>
<path d="M57.1115 7.03552C57.1115 18.3653 57.1115 29.7306 57.1115 41.0603C57.1115 41.3445 57.005 41.4865 56.4722 41.451C56.0105 41.4155 55.5488 41.4155 55.0871 41.451C54.7319 41.451 54.6254 41.38 54.6609 41.2024C54.6609 41.1669 54.6609 41.1314 54.6609 41.0958C54.6609 29.7661 54.6609 18.4008 54.6609 7.07104C55.4778 7.03552 56.2946 7.03552 57.1115 7.03552Z" fill="black"/>
<path d="M52.2457 7.03552C52.2457 18.3653 52.2457 29.7306 52.2457 41.0603C52.2457 41.3445 52.1747 41.4865 51.6064 41.451C51.1802 41.4155 50.754 41.4155 50.3278 41.451C49.9726 41.451 49.8661 41.38 49.9016 41.2024C49.9016 41.1314 49.9016 41.0603 49.9016 40.9538C49.9016 29.6595 49.9016 18.3298 49.9016 7.03552C50.7185 7.03552 51.4643 7.03552 52.2457 7.03552Z" fill="black"/>
<path d="M47.4866 7.03552C47.4866 18.4008 47.4866 29.7306 47.4866 41.0958C47.4866 41.2024 47.6997 41.4155 47.167 41.451C46.7052 41.451 46.6342 41.38 46.6342 41.1314C46.6342 37.2245 46.6342 33.2822 46.6342 29.3754C46.6342 21.9169 46.6342 14.494 46.6342 7.03552C46.9539 7.03552 47.2025 7.03552 47.4866 7.03552Z" fill="black"/>
<path d="M53.9507 7.03552C53.9507 18.4008 53.9507 29.7306 53.9507 41.0958C53.9507 41.2024 54.1638 41.4155 53.631 41.451C53.2403 41.451 53.0983 41.4155 53.0983 41.1669C53.0983 38.1835 53.0983 35.2356 53.0983 32.2522C53.0983 23.8348 53.0983 15.4529 53.0983 7.03552C53.3824 7.03552 53.6665 7.03552 53.9507 7.03552Z" fill="black"/>
<path d="M42.6564 7.03552C42.6564 18.4008 42.6564 29.7306 42.6564 41.0958C42.6564 41.2024 42.8695 41.4155 42.3368 41.451C41.9461 41.451 41.804 41.4155 41.804 41.1669C41.8395 38.7873 41.804 36.3722 41.804 33.9925C41.804 25.0069 41.804 16.0212 41.804 7.07104C42.0881 7.03552 42.3723 7.03552 42.6564 7.03552Z" fill="black"/>
<path d="M61.9418 7.03552C61.9418 18.4008 61.9418 29.7306 61.9418 41.0958C61.9418 41.2024 62.1549 41.4155 61.6222 41.451C61.2315 41.451 61.0894 41.4155 61.0894 41.1669C61.0894 38.3611 61.0894 35.5553 61.0894 32.7495C61.0894 24.19 61.0894 15.6305 61.0894 7.07104C61.4091 7.03552 61.6932 7.03552 61.9418 7.03552Z" fill="black"/>
<path d="M41.0581 7.03552C41.0581 18.4008 41.0581 29.7306 41.0581 41.0958C41.0581 41.2024 41.2712 41.4155 40.7384 41.451C40.3478 41.451 40.2057 41.4155 40.2057 41.1669C40.2412 39.178 40.2057 37.2245 40.2057 35.2356C40.2057 25.8593 40.2057 16.4474 40.2057 7.07104C40.4898 7.03552 40.774 7.03552 41.0581 7.03552Z" fill="black"/>
<path d="M68.4059 7.03552C68.4059 18.4008 68.4059 29.7306 68.4059 41.0958C68.4059 41.2379 68.5834 41.451 68.0507 41.451C67.6245 41.451 67.5535 41.38 67.5535 41.1669C67.5535 39.7107 67.5535 38.2545 67.5535 36.7983C67.5535 26.8892 67.5535 16.9446 67.5535 7.03552C67.8376 7.03552 68.1217 7.03552 68.4059 7.03552Z" fill="black"/>
<path d="M28.2012 7.03552C28.2012 18.4008 28.2012 29.7306 28.2012 41.0958C28.2012 41.2024 28.4143 41.4155 27.8815 41.451C27.4908 41.451 27.3488 41.4155 27.3488 41.1669C27.3488 38.3611 27.3488 35.5553 27.3488 32.7495C27.3488 24.19 27.3488 15.6305 27.3488 7.07104C27.6329 7.03552 27.917 7.03552 28.2012 7.03552Z" fill="black"/>
<path d="M26.6029 7.03552C26.6029 22.2011 26.6029 37.3666 26.6029 52.5322C26.6029 52.7097 26.816 52.9939 26.2832 52.9939C25.8926 52.9939 25.7505 52.9584 25.7505 52.6032C25.786 49.4067 25.7505 46.2102 25.7505 43.0137C25.7505 31.0092 25.7505 19.0401 25.7505 7.03552C26.0346 7.03552 26.3188 7.03552 26.6029 7.03552Z" fill="black"/>
<path d="M71.5668 7.03552C71.5668 18.4008 71.5668 29.7306 71.5668 41.0958C71.5668 41.2024 71.7444 41.38 71.3537 41.4155C70.963 41.451 70.8209 41.38 70.8209 41.1314C70.8209 37.5087 70.8209 33.8505 70.8209 30.2278C70.8209 22.4852 70.8209 14.7426 70.8209 7C71.0695 7.03552 71.3182 7.03552 71.5668 7.03552Z" fill="black"/>
<path d="M69.9684 7.03552C69.9684 18.4008 69.9684 29.7306 69.9684 41.0958C69.9684 41.2024 70.146 41.38 69.7553 41.4155C69.4356 41.451 69.1515 41.4155 69.2225 41.1669C69.2581 41.0958 69.2225 41.0248 69.2225 40.9538C69.2225 29.624 69.2225 18.3298 69.2225 7C69.4712 7.03552 69.7198 7.03552 69.9684 7.03552Z" fill="black"/>
<path d="M44.2191 7.03552C44.2191 18.4008 44.2191 29.7306 44.2191 41.0958C44.2191 41.2024 44.3967 41.38 44.006 41.4155C43.6864 41.451 43.4378 41.451 43.4733 41.1669C43.5088 40.6341 43.4733 40.0659 43.4733 39.5331C43.4733 28.7006 43.4733 17.868 43.4733 7C43.7219 7.03552 43.9705 7.03552 44.2191 7.03552Z" fill="black"/>
<path d="M45.8173 7.03552C45.8173 18.4008 45.8173 29.7306 45.8173 41.0958C45.8173 41.2024 45.9948 41.38 45.6042 41.4155C45.2135 41.451 45.0714 41.38 45.0714 41.1314C45.1069 38.4676 45.0714 35.8039 45.0714 33.1401C45.0714 24.4386 45.0714 15.7015 45.0714 7C45.32 7.03552 45.5686 7.03552 45.8173 7.03552Z" fill="black"/>
<path d="M32.9782 52.9783V43.6993H36.2223C36.8686 43.6993 37.4018 43.8111 37.8216 44.0346C38.2415 44.2551 38.5541 44.5526 38.7595 44.9271C38.9649 45.2987 39.0676 45.7109 39.0676 46.164C39.0676 46.5627 38.9966 46.892 38.8546 47.1517C38.7157 47.4115 38.5314 47.6169 38.3019 47.7679C38.0753 47.9189 37.8292 48.0307 37.5634 48.1032V48.1938C37.8473 48.2119 38.1327 48.3116 38.4197 48.4928C38.7066 48.6741 38.9467 48.9338 39.1401 49.2721C39.3334 49.6104 39.43 50.0242 39.43 50.5135C39.43 50.9787 39.3243 51.397 39.1129 51.7686C38.9014 52.1401 38.5677 52.4346 38.1116 52.6521C37.6555 52.8695 37.062 52.9783 36.331 52.9783H32.9782ZM34.1019 51.9815H36.331C37.065 51.9815 37.586 51.8395 37.8941 51.5556C38.2052 51.2687 38.3608 50.9213 38.3608 50.5135C38.3608 50.1994 38.2807 49.9094 38.1206 49.6436C37.9606 49.3748 37.7325 49.1604 37.4365 49.0003C37.1405 48.8372 36.7901 48.7556 36.3854 48.7556H34.1019V51.9815ZM34.1019 47.777H36.186C36.5243 47.777 36.8294 47.7105 37.1012 47.5776C37.3761 47.4447 37.5936 47.2574 37.7537 47.0158C37.9168 46.7742 37.9983 46.4902 37.9983 46.164C37.9983 45.7563 37.8563 45.4104 37.5724 45.1265C37.2885 44.8395 36.8384 44.6961 36.2223 44.6961H34.1019V47.777ZM43.9585 53.1233C43.3302 53.1233 42.779 52.9737 42.3048 52.6747C41.8336 52.3757 41.4651 51.9573 41.1993 51.4197C40.9365 50.882 40.8051 50.2538 40.8051 49.5349C40.8051 48.81 40.9365 48.1772 41.1993 47.6365C41.4651 47.0958 41.8336 46.676 42.3048 46.377C42.779 46.0779 43.3302 45.9284 43.9585 45.9284C44.5868 45.9284 45.1365 46.0779 45.6077 46.377C46.0819 46.676 46.4504 47.0958 46.7132 47.6365C46.979 48.1772 47.1119 48.81 47.1119 49.5349C47.1119 50.2538 46.979 50.882 46.7132 51.4197C46.4504 51.9573 46.0819 52.3757 45.6077 52.6747C45.1365 52.9737 44.5868 53.1233 43.9585 53.1233ZM43.9585 52.1627C44.4358 52.1627 44.8284 52.0404 45.1365 51.7957C45.4446 51.5511 45.6726 51.2294 45.8207 50.8307C45.9687 50.432 46.0427 50.0001 46.0427 49.5349C46.0427 49.0697 45.9687 48.6363 45.8207 48.2346C45.6726 47.8328 45.4446 47.5081 45.1365 47.2605C44.8284 47.0128 44.4358 46.8889 43.9585 46.8889C43.4813 46.8889 43.0886 47.0128 42.7805 47.2605C42.4724 47.5081 42.2444 47.8328 42.0964 48.2346C41.9484 48.6363 41.8744 49.0697 41.8744 49.5349C41.8744 50.0001 41.9484 50.432 42.0964 50.8307C42.2444 51.2294 42.4724 51.5511 42.7805 51.7957C43.0886 52.0404 43.4813 52.1627 43.9585 52.1627ZM49.8134 43.6993V52.9783H48.7441V43.6993H49.8134ZM54.6896 53.1233C54.019 53.1233 53.4406 52.9753 52.9543 52.6792C52.471 52.3802 52.098 51.9634 51.8352 51.4288C51.5755 50.8911 51.4456 50.2659 51.4456 49.553C51.4456 48.8402 51.5755 48.2119 51.8352 47.6682C52.098 47.1215 52.4635 46.6956 52.9317 46.3906C53.4029 46.0825 53.9526 45.9284 54.5809 45.9284C54.9433 45.9284 55.3012 45.9888 55.6546 46.1097C56.008 46.2305 56.3297 46.4268 56.6197 46.6987C56.9097 46.9675 57.1407 47.3239 57.3129 47.7679C57.4851 48.2119 57.5711 48.7586 57.5711 49.408V49.8611H52.2067V48.9368H56.4838C56.4838 48.5442 56.4052 48.1938 56.2482 47.8857C56.0941 47.5776 55.8736 47.3345 55.5867 47.1563C55.3028 46.978 54.9675 46.8889 54.5809 46.8889C54.155 46.8889 53.7865 46.9947 53.4754 47.2061C53.1673 47.4145 52.9302 47.6864 52.764 48.0216C52.5979 48.3569 52.5148 48.7163 52.5148 49.0999V49.7161C52.5148 50.2417 52.6054 50.6872 52.7867 51.0527C52.9709 51.4152 53.2262 51.6915 53.5524 51.8818C53.8786 52.0691 54.2577 52.1627 54.6896 52.1627C54.9705 52.1627 55.2242 52.1235 55.4508 52.0449C55.6803 51.9634 55.8782 51.8426 56.0443 51.6825C56.2104 51.5194 56.3388 51.317 56.4294 51.0754L57.4624 51.3653C57.3537 51.7157 57.1709 52.0238 56.9142 52.2896C56.6574 52.5524 56.3403 52.7578 55.9627 52.9058C55.5852 53.0508 55.1608 53.1233 54.6896 53.1233ZM62.2242 46.019V46.9252H58.6178V46.019H62.2242ZM59.6689 44.3517H60.7381V50.9847C60.7381 51.2868 60.7819 51.5133 60.8695 51.6644C60.9602 51.8124 61.0749 51.912 61.2139 51.9634C61.3558 52.0117 61.5054 52.0359 61.6624 52.0359C61.7802 52.0359 61.8769 52.0298 61.9524 52.0178C62.0279 52.0026 62.0883 51.9906 62.1336 51.9815L62.3511 52.942C62.2786 52.9692 62.1774 52.9964 62.0475 53.0236C61.9176 53.0538 61.753 53.0689 61.5537 53.0689C61.2516 53.0689 60.9556 53.0039 60.6657 52.8741C60.3787 52.7442 60.1401 52.5463 59.9498 52.2805C59.7625 52.0147 59.6689 51.6795 59.6689 51.2747V44.3517ZM66.5851 53.1233C65.9568 53.1233 65.4056 52.9737 64.9314 52.6747C64.4602 52.3757 64.0917 51.9573 63.8259 51.4197C63.5631 50.882 63.4317 50.2538 63.4317 49.5349C63.4317 48.81 63.5631 48.1772 63.8259 47.6365C64.0917 47.0958 64.4602 46.676 64.9314 46.377C65.4056 46.0779 65.9568 45.9284 66.5851 45.9284C67.2133 45.9284 67.7631 46.0779 68.2343 46.377C68.7085 46.676 69.077 47.0958 69.3398 47.6365C69.6056 48.1772 69.7385 48.81 69.7385 49.5349C69.7385 50.2538 69.6056 50.882 69.3398 51.4197C69.077 51.9573 68.7085 52.3757 68.2343 52.6747C67.7631 52.9737 67.2133 53.1233 66.5851 53.1233ZM66.5851 52.1627C67.0623 52.1627 67.455 52.0404 67.7631 51.7957C68.0712 51.5511 68.2992 51.2294 68.4472 50.8307C68.5952 50.432 68.6692 50.0001 68.6692 49.5349C68.6692 49.0697 68.5952 48.6363 68.4472 48.2346C68.2992 47.8328 68.0712 47.5081 67.7631 47.2605C67.455 47.0128 67.0623 46.8889 66.5851 46.8889C66.1078 46.8889 65.7152 47.0128 65.4071 47.2605C65.099 47.5081 64.8709 47.8328 64.7229 48.2346C64.5749 48.6363 64.5009 49.0697 64.5009 49.5349C64.5009 50.0001 64.5749 50.432 64.7229 50.8307C64.8709 51.2294 65.099 51.5511 65.4071 51.7957C65.7152 52.0404 66.1078 52.1627 66.5851 52.1627Z" fill="#010000"/>
<path d="M26.1236 64.6633V55.3844H29.3676C30.014 55.3844 30.5471 55.4961 30.967 55.7196C31.3868 55.9401 31.6995 56.2376 31.9049 56.6122C32.1103 56.9837 32.213 57.396 32.213 57.8491C32.213 58.2478 32.142 58.577 32 58.8368C31.8611 59.0965 31.6768 59.3019 31.4473 59.453C31.2207 59.604 30.9745 59.7158 30.7087 59.7882V59.8789C30.9927 59.897 31.2781 59.9967 31.5651 60.1779C31.852 60.3591 32.0921 60.6189 32.2854 60.9572C32.4788 61.2955 32.5754 61.7093 32.5754 62.1986C32.5754 62.6638 32.4697 63.0821 32.2583 63.4536C32.0468 63.8251 31.7131 64.1196 31.257 64.3371C30.8009 64.5546 30.2073 64.6633 29.4764 64.6633H26.1236ZM27.2473 63.6666H29.4764C30.2104 63.6666 30.7314 63.5246 31.0395 63.2407C31.3506 62.9537 31.5062 62.6064 31.5062 62.1986C31.5062 61.8845 31.4261 61.5945 31.266 61.3287C31.1059 61.0599 30.8779 60.8454 30.5819 60.6853C30.2859 60.5222 29.9355 60.4407 29.5308 60.4407H27.2473V63.6666ZM27.2473 59.462H29.3314C29.6697 59.462 29.9748 59.3956 30.2466 59.2627C30.5215 59.1298 30.7389 58.9425 30.899 58.7009C31.0621 58.4592 31.1437 58.1753 31.1437 57.8491C31.1437 57.4413 31.0017 57.0955 30.7178 56.8115C30.4339 56.5246 29.9838 56.3811 29.3676 56.3811H27.2473V59.462ZM36.3246 64.8264C35.8836 64.8264 35.4834 64.7434 35.124 64.5772C34.7645 64.4081 34.4791 64.1649 34.2676 63.8478C34.0562 63.5276 33.9505 63.141 33.9505 62.6879C33.9505 62.2892 34.029 61.966 34.1861 61.7183C34.3432 61.4676 34.5531 61.2713 34.8159 61.1293C35.0787 60.9874 35.3686 60.8817 35.6858 60.8122C36.0059 60.7397 36.3276 60.6823 36.6508 60.64C37.0737 60.5857 37.4165 60.5449 37.6793 60.5177C37.9451 60.4875 38.1384 60.4377 38.2592 60.3682C38.3831 60.2987 38.445 60.1779 38.445 60.0057V59.9695C38.445 59.5224 38.3227 59.1751 38.078 58.9274C37.8364 58.6797 37.4694 58.5559 36.977 58.5559C36.4666 58.5559 36.0664 58.6676 35.7764 58.8912C35.4864 59.1147 35.2825 59.3533 35.1647 59.607L34.1498 59.2446C34.3311 58.8217 34.5727 58.4924 34.8748 58.2568C35.1798 58.0182 35.5121 57.8521 35.8715 57.7585C36.234 57.6618 36.5904 57.6135 36.9408 57.6135C37.1643 57.6135 37.4211 57.6407 37.711 57.695C38.004 57.7464 38.2864 57.8536 38.5583 58.0167C38.8331 58.1798 39.0612 58.426 39.2424 58.7552C39.4236 59.0845 39.5143 59.5255 39.5143 60.0782V64.6633H38.445V63.7209H38.3906C38.3181 63.872 38.1973 64.0336 38.0282 64.2057C37.859 64.3779 37.634 64.5244 37.3531 64.6452C37.0722 64.766 36.7294 64.8264 36.3246 64.8264ZM36.4877 63.8659C36.9106 63.8659 37.267 63.7829 37.557 63.6167C37.85 63.4506 38.0705 63.2361 38.2185 62.9734C38.3695 62.7106 38.445 62.4342 38.445 62.1442V61.1656C38.3997 61.22 38.3 61.2698 38.146 61.3151C37.9949 61.3574 37.8198 61.3951 37.6204 61.4284C37.4241 61.4586 37.2323 61.4858 37.045 61.5099C36.8607 61.5311 36.7112 61.5492 36.5965 61.5643C36.3186 61.6005 36.0588 61.6594 35.8172 61.741C35.5785 61.8195 35.3852 61.9388 35.2372 62.0989C35.0922 62.256 35.0198 62.4704 35.0198 62.7423C35.0198 63.1138 35.1572 63.3947 35.4321 63.585C35.7099 63.7723 36.0618 63.8659 36.4877 63.8659ZM42.5351 60.4769V64.6633H41.4659V57.7041H42.4989V58.7915H42.5895C42.7526 58.4381 43.0003 58.1542 43.3325 57.9397C43.6648 57.7222 44.0937 57.6135 44.6193 57.6135C45.0905 57.6135 45.5028 57.7101 45.8562 57.9035C46.2096 58.0937 46.4844 58.3837 46.6808 58.7734C46.8771 59.16 46.9753 59.6493 46.9753 60.2413V64.6633H45.906V60.3138C45.906 59.7671 45.764 59.3412 45.4801 59.0361C45.1962 58.728 44.8066 58.574 44.3112 58.574C43.9699 58.574 43.6648 58.648 43.396 58.796C43.1302 58.944 42.9202 59.16 42.7662 59.4439C42.6122 59.7278 42.5351 60.0722 42.5351 60.4769ZM51.7563 64.8083C51.1039 64.8083 50.5421 64.6543 50.0709 64.3462C49.5997 64.0381 49.2372 63.6137 48.9835 63.073C48.7298 62.5324 48.6029 61.9147 48.6029 61.22C48.6029 60.5132 48.7328 59.8894 48.9926 59.3488C49.2554 58.8051 49.6209 58.3807 50.089 58.0756C50.5602 57.7675 51.11 57.6135 51.7382 57.6135C52.2275 57.6135 52.6685 57.7041 53.0612 57.8853C53.4539 58.0666 53.7755 58.3203 54.0262 58.6465C54.277 58.9727 54.4325 59.3533 54.4929 59.7882H53.4237C53.3421 59.4711 53.1609 59.1902 52.88 58.9455C52.6021 58.6978 52.2275 58.574 51.7563 58.574C51.3395 58.574 50.974 58.6827 50.6599 58.9002C50.3488 59.1147 50.1056 59.4182 49.9305 59.8109C49.7583 60.2005 49.6722 60.6581 49.6722 61.1837C49.6722 61.7214 49.7568 62.1895 49.9259 62.5882C50.0981 62.987 50.3397 63.2966 50.6508 63.5171C50.965 63.7375 51.3335 63.8478 51.7563 63.8478C52.0342 63.8478 52.2864 63.7995 52.513 63.7028C52.7395 63.6062 52.9313 63.4672 53.0884 63.286C53.2455 63.1048 53.3572 62.8873 53.4237 62.6336H54.4929C54.4325 63.0443 54.283 63.4144 54.0444 63.7436C53.8088 64.0698 53.4962 64.3296 53.1065 64.5229C52.7199 64.7132 52.2698 64.8083 51.7563 64.8083ZM58.1039 64.8264C57.6629 64.8264 57.2627 64.7434 56.9033 64.5772C56.5438 64.4081 56.2584 64.1649 56.047 63.8478C55.8355 63.5276 55.7298 63.141 55.7298 62.6879C55.7298 62.2892 55.8083 61.966 55.9654 61.7183C56.1225 61.4676 56.3324 61.2713 56.5952 61.1293C56.858 60.9874 57.1479 60.8817 57.4651 60.8122C57.7853 60.7397 58.1069 60.6823 58.4301 60.64C58.853 60.5857 59.1958 60.5449 59.4586 60.5177C59.7244 60.4875 59.9177 60.4377 60.0386 60.3682C60.1624 60.2987 60.2243 60.1779 60.2243 60.0057V59.9695C60.2243 59.5224 60.102 59.1751 59.8573 58.9274C59.6157 58.6797 59.2487 58.5559 58.7564 58.5559C58.2459 58.5559 57.8457 58.6676 57.5557 58.8912C57.2657 59.1147 57.0619 59.3533 56.9441 59.607L55.9292 59.2446C56.1104 58.8217 56.352 58.4924 56.6541 58.2568C56.9592 58.0182 57.2914 57.8521 57.6508 57.7585C58.0133 57.6618 58.3697 57.6135 58.7201 57.6135C58.9436 57.6135 59.2004 57.6407 59.4903 57.695C59.7833 57.7464 60.0657 57.8536 60.3376 58.0167C60.6124 58.1798 60.8405 58.426 61.0217 58.7552C61.203 59.0845 61.2936 59.5255 61.2936 60.0782V64.6633H60.2243V63.7209H60.1699C60.0975 63.872 59.9766 64.0336 59.8075 64.2057C59.6383 64.3779 59.4133 64.5244 59.1324 64.6452C58.8515 64.766 58.5087 64.8264 58.1039 64.8264ZM58.267 63.8659C58.6899 63.8659 59.0463 63.7829 59.3363 63.6167C59.6293 63.4506 59.8498 63.2361 59.9978 62.9734C60.1488 62.7106 60.2243 62.4342 60.2243 62.1442V61.1656C60.179 61.22 60.0793 61.2698 59.9253 61.3151C59.7743 61.3574 59.5991 61.3951 59.3997 61.4284C59.2034 61.4586 59.0116 61.4858 58.8243 61.5099C58.6401 61.5311 58.4905 61.5492 58.3758 61.5643C58.0979 61.6005 57.8381 61.6594 57.5965 61.741C57.3579 61.8195 57.1645 61.9388 57.0165 62.0989C56.8716 62.256 56.7991 62.4704 56.7991 62.7423C56.7991 63.1138 56.9365 63.3947 57.2114 63.585C57.4893 63.7723 57.8411 63.8659 58.267 63.8659ZM58.3033 56.7617L59.4088 54.6594H60.6593L59.2457 56.7617H58.3033ZM63.2452 64.6633V57.7041H64.2782V58.7552H64.3507C64.4776 58.4109 64.7071 58.1315 65.0394 57.917C65.3716 57.7026 65.7462 57.5954 66.163 57.5954C66.2415 57.5954 66.3397 57.5969 66.4575 57.5999C66.5753 57.6029 66.6644 57.6074 66.7248 57.6135V58.7009C66.6886 58.6918 66.6055 58.6782 66.4756 58.6601C66.3488 58.6389 66.2143 58.6284 66.0724 58.6284C65.7341 58.6284 65.432 58.6994 65.1662 58.8413C64.9034 58.9803 64.695 59.1736 64.541 59.4213C64.39 59.6659 64.3145 59.9453 64.3145 60.2594V64.6633H63.2452ZM67.9923 64.6633V57.7041H69.0615V64.6633H67.9923ZM68.536 56.5442C68.3276 56.5442 68.1478 56.4732 67.9968 56.3313C67.8488 56.1893 67.7748 56.0187 67.7748 55.8193C67.7748 55.62 67.8488 55.4493 67.9968 55.3073C68.1478 55.1654 68.3276 55.0944 68.536 55.0944C68.7444 55.0944 68.9226 55.1654 69.0706 55.3073C69.2216 55.4493 69.2971 55.62 69.2971 55.8193C69.2971 56.0187 69.2216 56.1893 69.0706 56.3313C68.9226 56.4732 68.7444 56.5442 68.536 56.5442ZM73.8471 64.8083C73.2189 64.8083 72.6676 64.6588 72.1934 64.3598C71.7222 64.0607 71.3537 63.6424 71.0879 63.1048C70.8251 62.5671 70.6937 61.9388 70.6937 61.22C70.6937 60.495 70.8251 59.8622 71.0879 59.3216C71.3537 58.7809 71.7222 58.3611 72.1934 58.062C72.6676 57.763 73.2189 57.6135 73.8471 57.6135C74.4754 57.6135 75.0251 57.763 75.4963 58.062C75.9706 58.3611 76.3391 58.7809 76.6018 59.3216C76.8676 59.8622 77.0005 60.495 77.0005 61.22C77.0005 61.9388 76.8676 62.5671 76.6018 63.1048C76.3391 63.6424 75.9706 64.0607 75.4963 64.3598C75.0251 64.6588 74.4754 64.8083 73.8471 64.8083ZM73.8471 63.8478C74.3244 63.8478 74.7171 63.7255 75.0251 63.4808C75.3332 63.2361 75.5613 62.9145 75.7093 62.5158C75.8573 62.117 75.9313 61.6851 75.9313 61.22C75.9313 60.7548 75.8573 60.3214 75.7093 59.9196C75.5613 59.5179 75.3332 59.1932 75.0251 58.9455C74.7171 58.6978 74.3244 58.574 73.8471 58.574C73.3699 58.574 72.9772 58.6978 72.6692 58.9455C72.3611 59.1932 72.133 59.5179 71.985 59.9196C71.837 60.3214 71.763 60.7548 71.763 61.22C71.763 61.6851 71.837 62.117 71.985 62.5158C72.133 62.9145 72.3611 63.2361 72.6692 63.4808C72.9772 63.7255 73.3699 63.8478 73.8471 63.8478Z" fill="#010000"/>
</svg>
