<svg width="100" height="75" viewBox="0 0 100 75" fill="none" xmlns="http://www.w3.org/2000/svg">
<g clip-path="url(#clip0_577_2)">
<mask id="mask0_577_2" style="mask-type:luminance" maskUnits="userSpaceOnUse" x="5" y="26" width="90" height="24">
<path d="M95 26H5V49.2972H95V26Z" fill="white"/>
</mask>
<g mask="url(#mask0_577_2)">
<path d="M33.6609 42.9097C33.564 43.3955 33.3814 43.8677 33.1152 44.3281C32.9935 44.5714 32.8482 44.7956 32.6783 45.0011C32.5088 45.2074 32.3026 45.3832 32.061 45.5283C31.5515 45.8918 30.9569 46.0863 30.2786 46.1107C30.1811 46.1351 30.036 46.1471 29.8424 46.1471C29.2116 46.1471 28.7084 46.0615 28.3332 45.8918C27.9567 45.7228 27.6725 45.5168 27.4789 45.2743C27.26 45.0319 27.1149 44.7712 27.0422 44.4917C26.9694 44.2136 26.9331 43.9529 26.9331 43.7097C26.9331 43.5645 26.945 43.4555 26.9694 43.3828C26.9931 43.1648 27.0422 42.9641 27.1149 42.7827C27.1874 42.6009 27.2848 42.4377 27.4055 42.2922C27.7206 41.8799 28.1818 41.5769 28.7875 41.3824C29.0545 41.2862 29.3451 41.2191 29.6601 41.1825C29.9752 41.1463 30.3021 41.1282 30.6426 41.1282C31.0538 41.1282 31.4607 41.1529 31.8602 41.201C32.2608 41.2498 32.6177 41.2981 32.9336 41.3462C33.1026 41.395 33.2479 41.4314 33.3696 41.4558C33.4912 41.4798 33.6003 41.5039 33.6973 41.5286C33.7209 41.5286 33.7392 41.5349 33.7517 41.5467C33.7636 41.5588 33.7818 41.565 33.8061 41.565C33.8061 41.977 33.7573 42.4256 33.6609 42.9097ZM33.4422 32.3821C32.5206 31.9822 31.5025 31.7825 30.3875 31.7825H30.0787C29.9935 31.7825 29.8908 31.7947 29.7699 31.8189C28.6058 31.8914 27.5333 32.1639 26.5508 32.637C25.5691 33.1096 24.7149 33.7337 23.9874 34.5093L23.9148 34.6187L23.9874 34.7644C24.2054 35.1521 24.4605 35.4314 24.7512 35.6008C25.0662 35.7463 25.3933 35.8188 25.7327 35.8188C26.0478 35.8188 26.3748 35.777 26.7153 35.6916C27.0541 35.6071 27.3935 35.5041 27.7331 35.3825C28.0719 35.2614 28.4115 35.1584 28.7513 35.0734C29.0909 34.9888 29.4296 34.9343 29.7699 34.9099H30.1696C30.5337 34.9099 30.8541 34.9406 31.1331 35.0007C31.4117 35.0613 31.6724 35.1521 31.9149 35.2734C32.545 35.6134 33.0179 36.1584 33.3333 36.9098C33.5755 37.4916 33.7336 38.1588 33.8061 38.9096C32.6666 38.5465 31.4662 38.3642 30.2059 38.3642C29.3089 38.3642 28.4481 38.4676 27.6242 38.6739C26.7998 38.8797 26.0605 39.1884 25.4058 39.6009C24.702 40.0621 24.181 40.6068 23.8419 41.2373C23.4535 41.8682 23.2599 42.6553 23.2599 43.601V43.8196C23.2836 44.8376 23.5262 45.6984 23.9874 46.401C24.3025 46.9596 24.6902 47.4137 25.1516 47.765C25.6113 48.1166 26.1204 48.4017 26.6787 48.6195C27.2111 48.8619 27.7568 49.0255 28.3151 49.1107C28.8727 49.1953 29.4059 49.2378 29.9152 49.2378H30.3875C30.5337 49.2378 30.6788 49.2256 30.8243 49.2015C31.9149 49.0801 32.9028 48.7776 33.7879 48.2918C34.6724 47.8079 35.4299 47.1774 36.061 46.401C37.346 44.8256 37.9879 42.7771 37.9879 40.2554V39.9649C37.9398 37.516 37.2242 35.5403 35.8429 34.0373C35.1638 33.3342 34.3637 32.7823 33.4422 32.3821Z" fill="#2967EB"/>
<path d="M48.1653 31.7708C47.2435 31.7708 46.3163 31.8741 45.383 32.0804C44.4503 32.2865 43.6076 32.68 42.8566 33.2616C42.1049 33.8438 41.4929 34.6501 41.0198 35.6802C40.5474 36.7113 40.3112 38.0382 40.3112 39.6625V45.2016C40.3112 46.6562 40.7111 47.6923 41.511 48.3107C42.3108 48.9291 43.4504 49.2379 44.9288 49.2379C44.9044 49.0927 44.8798 48.8746 44.8561 48.5832C44.8317 48.3172 44.8136 47.9594 44.8017 47.5107C44.7892 47.0622 44.7836 46.4746 44.7836 45.7473V39.6625C44.7836 38.6439 44.8863 37.8319 45.0924 37.2256C45.2985 36.6201 45.5592 36.153 45.8743 35.8261C46.1895 35.4983 46.547 35.2685 46.9466 35.1348C47.3472 35.002 47.753 34.9107 48.1653 34.8621C48.7954 34.7891 49.2502 34.5838 49.529 34.2439C49.8069 33.9046 49.9712 33.5532 50.0195 33.1891C50.0928 32.7532 50.0683 32.2799 49.947 31.7708H48.1653Z" fill="#2967EB"/>
<path d="M55.8384 36.9461C56.129 36.4132 56.4504 36.0004 56.8016 35.7098C57.1531 35.4186 57.5108 35.2184 57.8743 35.1095C58.2383 35.0004 58.5527 34.9342 58.8203 34.9096C59.8137 34.8615 60.5712 35.0551 61.0932 35.4916C61.6134 35.9278 61.8507 36.4498 61.8016 37.0555C61.7533 37.8553 61.4566 38.4248 60.9106 38.7645C60.3657 39.1042 59.7348 39.3099 59.0202 39.3828C58.3045 39.4553 57.5893 39.4372 56.8745 39.3281C56.159 39.2193 55.6077 39.1042 55.2198 38.9824C55.3407 38.1585 55.5467 37.4795 55.8384 36.9461ZM58.8928 42.2921C59.4741 42.2921 60.1591 42.2248 60.9469 42.0915C61.7352 41.9589 62.4808 41.7165 63.1835 41.364C63.8866 41.0134 64.493 40.528 65.0022 39.9094C65.511 39.2918 65.7659 38.4854 65.7659 37.4913C65.7659 36.4732 65.5354 35.6005 65.075 34.8734C64.6138 34.1459 64.0327 33.5583 63.3297 33.1094C62.6261 32.6613 61.8688 32.334 61.0568 32.1274C60.2443 31.9221 59.4987 31.8186 58.8203 31.8186C57.5837 31.8186 56.4622 32.0491 55.4559 32.5097C54.45 32.97 53.5955 33.5883 52.8925 34.3639C52.1889 35.164 51.6496 36.0916 51.2744 37.1463C50.8975 38.2007 50.7106 39.3347 50.7106 40.5461C50.7106 41.759 50.9221 42.8915 51.3471 43.9464C51.7711 45.0008 52.3468 45.9161 53.0743 46.6917C53.8251 47.4917 54.6922 48.1165 55.6741 48.565C56.6563 49.0136 57.7044 49.2378 58.8203 49.2378C60.1044 49.2378 61.2987 48.989 62.4017 48.4922C63.505 47.9956 64.4568 47.3101 65.2566 46.4375L65.3657 46.3284L65.2566 46.2196C64.99 45.8072 64.7108 45.5166 64.4202 45.347C64.1532 45.1769 63.8501 45.0919 63.5113 45.0919C63.1954 45.0919 62.8748 45.1525 62.5472 45.274C62.2203 45.3951 61.8748 45.5166 61.5109 45.6377C61.1478 45.7591 60.7345 45.868 60.2743 45.9645C59.8137 46.0616 59.329 46.1106 58.8203 46.1106C58.529 46.1106 58.2021 46.0559 57.8377 45.9464C57.4746 45.8372 57.1106 45.6258 56.7473 45.3104C56.3831 44.9954 56.056 44.565 55.7659 44.0194C55.4742 43.4735 55.2801 42.7643 55.1836 41.8916C55.4252 41.9408 55.8802 42.0188 56.5474 42.1277C57.2139 42.2377 57.9958 42.2921 58.8928 42.2921Z" fill="#2967EB"/>
<path d="M78.1253 45.674C77.9077 45.7465 77.6759 45.8192 77.4344 45.8917C76.9976 46.0135 76.5619 46.0743 76.1251 46.0743C75.0824 46.0743 74.2345 45.6622 73.5797 44.8376C73.2646 44.401 73.0158 43.8378 72.8344 43.1467C72.6525 42.4556 72.561 41.6015 72.561 40.5824L72.5981 35.4187H73.9794C75.0942 35.4187 75.955 35.0915 76.5619 34.4367C77.1675 33.7825 77.4708 32.9094 77.4708 31.8187H72.5981L72.561 29.5277C72.561 28.8005 72.5673 28.2128 72.58 27.7639C72.5918 27.3158 72.61 26.9579 72.6343 26.6909C72.658 26.4003 72.6824 26.1699 72.707 26C71.228 26 70.1001 26.3156 69.3245 26.9458C68.5484 27.5761 68.1612 28.6188 68.1612 30.0731L68.1249 40.5824C68.1249 42.0373 68.3123 43.3046 68.6881 44.3827C69.0641 45.4623 69.567 46.3649 70.1971 47.0921C70.8276 47.8196 71.5303 48.3653 72.3066 48.7284C73.0823 49.0928 73.8703 49.2742 74.6703 49.2742C75.6403 49.2742 76.4645 49.0318 77.1438 48.547C77.4825 48.3045 77.7488 48.0076 77.9439 47.6559C78.1373 47.3046 78.2346 46.9107 78.2346 46.4738C78.2346 46.305 78.2098 46.1225 78.1617 45.9284C78.1373 45.8319 78.1253 45.7465 78.1253 45.674Z" fill="#2967EB"/>
<path d="M90.0757 43.3828C89.8087 44.1103 89.4817 44.6804 89.0941 45.0918C88.7061 45.5049 88.2996 45.7829 87.8761 45.9282C87.4515 46.0742 87.0819 46.1469 86.7669 46.1469C86.4515 46.1469 86.0812 46.0742 85.6579 45.9282C85.2329 45.7829 84.8271 45.5049 84.4392 45.0918C84.0515 44.6804 83.7238 44.1103 83.4577 43.3828C83.1907 42.6554 83.0574 41.7103 83.0574 40.546C83.0574 39.3827 83.1907 38.4313 83.4577 37.6916C83.7238 36.9526 84.0515 36.3826 84.4392 35.982C84.8271 35.5826 85.2329 35.3098 85.6579 35.1641C86.0812 35.0188 86.4515 34.9461 86.7669 34.9461C87.0819 34.9461 87.4515 35.0188 87.8761 35.1641C88.2996 35.3098 88.7061 35.5826 89.0941 35.982C89.4817 36.3826 89.8087 36.9526 90.0757 37.6916C90.3425 38.4313 90.4763 39.3827 90.4763 40.546C90.4763 41.7103 90.3425 42.6554 90.0757 43.3828ZM94.8977 40.2159C94.8625 39.1293 94.6607 38.1033 94.2763 37.1464C93.8513 36.0918 93.2639 35.1768 92.5126 34.4004C91.7854 33.6004 90.9311 32.9701 89.9486 32.5099C89.605 32.3486 89.2478 32.2266 88.8847 32.1227C88.8706 32.1184 88.8565 32.1133 88.8415 32.1091C88.7 32.0691 88.5562 32.0353 88.4126 32.0029C88.1504 31.9443 87.8831 31.8983 87.6111 31.8675C87.3353 31.8354 87.0533 31.8188 86.7669 31.8188C85.9998 31.8188 85.2826 31.9183 84.6042 32.0952C84.189 32.2041 83.7846 32.335 83.4031 32.5099C82.3961 32.9701 81.5418 33.6004 80.8389 34.4004C80.1359 35.1768 79.5965 36.0918 79.2206 37.1464C78.8979 38.0532 78.7224 39.0216 78.6768 40.0455C78.6695 40.2121 78.6569 40.3764 78.6569 40.546C78.6569 40.7918 78.6719 41.0318 78.6893 41.2712C78.7406 41.978 78.8653 42.657 79.0675 43.3078C79.1337 43.5204 79.2074 43.7295 79.2894 43.9348C79.291 43.939 79.2919 43.9428 79.2936 43.9466C79.363 44.1198 79.4424 44.2824 79.5208 44.4474C79.9171 45.2917 80.4132 46.0436 81.0211 46.6918C81.4691 47.1689 81.9635 47.5787 82.4932 47.9349C82.8457 48.1717 83.2104 48.3872 83.5983 48.5716C83.6061 48.5745 83.6133 48.5792 83.6213 48.5834C84.545 49.0159 85.5307 49.2379 86.5724 49.2639C86.6379 49.2654 86.7013 49.2741 86.7669 49.2741C88.0033 49.2741 89.1241 49.0436 90.13 48.5834C91.1363 48.1227 91.9909 47.4919 92.6943 46.6918C93.3974 45.9162 93.9432 45.001 94.3307 43.9466C94.4311 43.6734 94.5171 43.3939 94.5921 43.1102C94.736 42.5624 94.8276 41.9936 94.8747 41.4068C94.897 41.1241 94.9129 40.8384 94.9129 40.546C94.9129 40.435 94.9017 40.3268 94.8977 40.2159Z" fill="#2967EB"/>
<path d="M4.97977 44.7842L4.97959 44.7837L4.97559 45.7055C4.97559 45.9341 4.99109 46.1469 5.01462 46.3516C5.01793 46.379 5.07717 46.8885 5.20577 47.2392C5.62589 48.3855 6.53634 49.1818 8.99814 49.2243C8.99814 49.2243 8.84445 48.3006 8.8753 46.3412L8.8746 43.8196L8.85578 43.8156C7.56511 43.5183 6.51787 43.2782 5.00625 42.6248L4.97977 44.7842Z" fill="#01AC8C"/>
<path d="M16.4283 37.8548C15.5836 38.6479 14.4945 39.0431 13.1598 39.0431H13.1594C12.5542 39.0431 11.9966 38.9922 11.4859 38.8871C10.9743 38.7831 10.5209 38.6787 10.125 38.5747C9.66658 38.4494 9.24977 38.3037 8.87461 38.1366V32.6317C8.87461 32.3609 8.92096 32.0898 9.01488 31.8183C9.10881 31.5479 9.27539 31.3022 9.5155 31.0835C9.7551 30.8646 10.0729 30.6766 10.469 30.5205C10.8649 30.3637 11.3758 30.2542 12.0022 30.1922C12.3458 30.1607 12.6872 30.1502 13.0261 30.1607C13.3654 30.1711 13.702 30.2023 14.0355 30.2542C14.7022 30.3588 15.2914 30.5672 15.803 30.8798C16.313 31.1929 16.73 31.6306 17.0539 32.1933C17.3763 32.757 17.5594 33.4554 17.6012 34.2895C17.6631 35.8745 17.2724 37.0625 16.4283 37.8548ZM21.542 34.2895C21.4816 32.8838 21.1442 31.7183 20.5363 30.7906C20.5222 30.7686 20.5096 30.7449 20.495 30.7237C20.4533 30.6623 20.4059 30.609 20.3632 30.5496C19.7492 29.6959 19.0099 29.0044 18.1323 28.4874C17.1943 27.9352 16.1821 27.5541 15.0985 27.3457C14.0143 27.1376 12.982 27.0639 12.0022 27.1266C11.0015 27.1894 10.0783 27.3094 9.23426 27.4863C8.3902 27.6638 7.65521 27.9554 7.02983 28.3622C6.4041 28.7682 5.91376 29.306 5.55934 29.9732C5.20369 30.6402 5.02788 31.4743 5.02788 32.4752C5.02788 32.4752 5.00784 40.5521 5.00592 40.8786H5.00627C6.51771 41.5317 7.56513 41.772 8.85579 42.0696C8.85945 42.0705 8.86311 42.0712 8.86695 42.0722C11.2883 42.6305 14.4126 42.9374 17.5069 41.3738C18.5019 40.8708 19.3104 40.2638 19.9159 39.5128C20.5204 38.7616 20.9531 37.923 21.2136 36.9947C21.4746 36.067 21.5839 35.1651 21.542 34.2895Z" fill="#2967EB"/>
</g>
</g>
<defs>
<clipPath id="clip0_577_2">
<rect width="90" height="23.2972" fill="white" transform="translate(5 26)"/>
</clipPath>
</defs>
</svg>
