<svg width="252" height="252" viewBox="0 0 252 252" fill="none" xmlns="http://www.w3.org/2000/svg">
<g clip-path="url(#clip0_2395_243)">
<mask id="mask0_2395_243" style="mask-type:luminance" maskUnits="userSpaceOnUse" x="0" y="0" width="252" height="252">
<path d="M252 0H0V252H252V0Z" fill="white"/>
</mask>
<g mask="url(#mask0_2395_243)">
<path d="M252 0H0V252H252V0Z" fill="white"/>
<path d="M225.752 178.5H68.2518C59.5536 178.5 52.5018 171.448 52.5018 162.75C52.5018 154.051 59.5536 147 68.2518 147H183.373C196.667 147.043 208.283 138.028 211.54 125.139L230.838 48.5315C231.552 45.7282 229.858 42.8763 227.055 42.1618C226.629 42.0535 226.191 41.999 225.752 41.9996H67.1063L66.8268 40.8819C63.9151 29.188 53.4067 20.9855 41.3559 20.9997H26.2519C23.3527 20.9997 21.002 23.3504 21.002 26.2496C21.002 29.1489 23.3527 31.4996 26.2519 31.4996H41.3559C48.5848 31.4894 54.8894 36.41 56.6341 43.4249L79.9006 136.5H68.2518C53.7544 136.5 42.0019 148.252 42.0019 162.75C42.0019 177.248 53.7544 189 68.2518 189H78.8825C75.4118 193.519 73.5213 199.052 73.5021 204.75C73.5021 219.247 85.2544 231 99.7518 231C114.25 231 126.002 219.247 126.002 204.75C125.983 199.052 124.092 193.519 120.621 189H162.883C159.412 193.519 157.521 199.052 157.502 204.75C157.502 219.247 169.254 231 183.752 231C198.25 231 210.002 219.247 210.002 204.75C209.983 199.052 208.092 193.519 204.621 189H225.752C228.651 189 231.002 186.649 231.002 183.75C231.002 180.85 228.651 178.5 225.752 178.5ZM69.7386 52.4998H219.015L201.358 122.575C199.272 130.796 191.855 136.54 183.373 136.5H90.8924L69.7386 52.4998ZM99.7518 220.5C91.0536 220.5 84.0018 213.448 84.0018 204.75C84.0018 196.051 91.0536 189 99.7518 189C108.45 189 115.502 196.051 115.502 204.75C115.492 213.444 108.447 220.49 99.7518 220.5ZM183.752 220.5C175.053 220.5 168.002 213.448 168.002 204.75C168.002 196.051 175.053 189 183.752 189C192.451 189 199.502 196.051 199.502 204.75C199.492 213.444 192.447 220.49 183.752 220.5Z" fill="#1043FA"/>
<path d="M134.361 101.989L164.472 70.7167C166.382 68.692 169.51 68.6595 171.459 70.643C173.408 72.626 173.439 75.8754 171.53 77.8996L137.854 112.874C136.928 113.837 135.672 114.378 134.361 114.378C133.051 114.378 131.794 113.837 130.868 112.874L115.059 96.4459C113.15 94.4217 113.181 91.1732 115.13 89.1892C117.051 87.2337 120.125 87.2337 122.046 89.1892L134.361 101.989Z" fill="#1043FA"/>
<path d="M134.361 101.989L164.472 70.7167C166.382 68.692 169.51 68.6595 171.459 70.643C173.408 72.626 173.439 75.8754 171.53 77.8996L137.854 112.874C136.928 113.837 135.672 114.378 134.361 114.378C133.051 114.378 131.794 113.837 130.868 112.874L115.059 96.4459C113.15 94.4217 113.181 91.1732 115.13 89.1892C117.051 87.2337 120.125 87.2337 122.046 89.1892L134.361 101.989Z" stroke="#1043FA"/>
</g>
</g>
<defs>
<clipPath id="clip0_2395_243">
<rect width="252" height="252" fill="white"/>
</clipPath>
</defs>
</svg>
