<svg width="252" height="252" viewBox="0 0 252 252" fill="none" xmlns="http://www.w3.org/2000/svg">
<path d="M199.059 87.1695C199.059 56.7003 174.359 32 143.89 32C126.54 32 111.253 40.1692 101.139 52.6909C97.2431 51.2854 93.0999 50.3898 88.7203 50.3898C68.4079 50.3898 51.9407 66.8556 51.9407 87.1695C31.6282 87.1695 17 103.635 17 123.949C17 144.262 33.4672 160.729 53.7797 160.729H197.22C217.533 160.729 234 144.262 234 123.949C234 103.635 219.372 87.1695 199.059 87.1695Z" stroke="#1043FA" stroke-width="13.5202" stroke-miterlimit="10" stroke-linecap="round" stroke-linejoin="round"/>
<path d="M125.498 234.288V160.729" stroke="#1043FA" stroke-width="13.5202" stroke-miterlimit="10" stroke-linecap="round" stroke-linejoin="round"/>
<path d="M88.7191 160.729V215.898H51.9395" stroke="#1043FA" stroke-width="13.5202" stroke-miterlimit="10" stroke-linecap="round" stroke-linejoin="round"/>
<path d="M162.278 160.729V215.898H199.058" stroke="#1043FA" stroke-width="13.5202" stroke-miterlimit="10" stroke-linecap="round" stroke-linejoin="round"/>
</svg>
