<svg width="252" height="252" viewBox="0 0 252 252" fill="none" xmlns="http://www.w3.org/2000/svg">
<path d="M192.573 111.98C217.773 111.98 238.254 91.4989 238.254 66.2989C238.254 41.0989 217.773 20.6182 192.573 20.6182H59.4258C34.2258 20.6182 13.7451 41.0989 13.7451 66.2989C13.7451 91.4989 34.2258 111.98 59.4258 111.98H94.1102V152.071L91.132 149.551C87.4666 146.481 82.7931 144.923 78.1197 144.923C72.8506 144.923 67.5815 146.893 63.6869 150.742C60.0215 154.407 58.1429 159.218 58.3262 164.258C58.5553 169.298 60.8462 173.926 64.8324 177.225L94.0644 201.737V225.517C94.0644 228.724 96.676 231.336 99.8833 231.336H179.378C182.585 231.336 185.197 228.724 185.197 225.517V151.063C185.197 141.441 178.003 133.331 168.473 132.14L132.185 127.604V111.888H192.528L192.573 111.98ZM173.605 219.79H105.748V204.945H173.605V219.79ZM167.099 143.777C170.81 144.236 173.605 147.397 173.605 151.154V193.261H102.037L72.3466 168.336C70.9262 167.145 70.0557 165.495 70.0098 163.754C69.964 162.013 70.6055 160.318 71.9342 158.989C74.9124 156.011 80.4106 155.782 83.6637 158.485L96.2178 169.023C97.9589 170.489 100.341 170.81 102.403 169.848C104.465 168.886 105.748 166.87 105.748 164.579V79.8611C105.748 75.7833 109.093 72.4385 113.171 72.4385C117.248 72.4385 120.593 75.7833 120.593 79.8611V132.873C120.593 135.805 122.792 138.279 125.679 138.646L167.053 143.823L167.099 143.777ZM113.171 60.8007C102.678 60.8007 94.1102 69.3687 94.1102 79.8611V100.342H59.4258C40.6404 100.342 25.3829 85.0843 25.3829 66.2989C25.3829 47.5134 40.6404 32.256 59.4258 32.256H192.528C211.313 32.256 226.571 47.5134 226.571 66.2989C226.571 85.0843 211.313 100.342 192.528 100.342H132.185V79.8611C132.185 69.3687 123.617 60.8007 113.125 60.8007H113.171Z" fill="#1043FA"/>
<path d="M165.724 71.2014L156.607 62.0835C155.507 60.9839 154.041 60.3883 152.483 60.3883C150.925 60.3883 149.459 60.9839 148.359 62.0835C147.26 63.1832 146.664 64.6494 146.664 66.2072C146.664 67.765 147.26 69.2312 148.359 70.3308L161.601 83.5723C163.8 85.7715 167.649 85.7715 169.848 83.5723L196.331 57.0894C198.622 54.7984 198.622 51.133 196.331 48.8421C194.132 46.6428 190.283 46.6428 188.084 48.8421L165.679 71.2472L165.724 71.2014Z" fill="#1043FA"/>
</svg>
