<svg width="100" height="75" viewBox="0 0 100 75" fill="none" xmlns="http://www.w3.org/2000/svg">
<path d="M42.0896 48.5501C41.6972 48.5501 41.6972 48.1576 41.6972 48.1576V31.2827C41.6972 27.7507 44.4443 25.0037 47.9762 25.0037H53.0779C56.6099 25.0037 59.357 27.7507 59.357 31.2827V35.5995C59.357 39.1315 56.6099 41.8786 53.0779 41.8786H44.8367C44.4443 41.8786 44.4443 41.4862 44.4443 41.4862C44.4443 41.0937 44.8367 41.0937 44.8367 41.0937H53.0779C56.2175 41.0937 58.5721 38.7391 58.5721 35.5995V31.2827C58.5721 28.5356 56.2175 25.7885 53.0779 25.7885H47.9762C44.8367 25.7885 42.4821 28.1432 42.4821 31.2827V48.1576L42.0896 48.5501Z" fill="#98989C"/>
<path d="M65.2436 41.8784C64.8512 41.8784 64.8512 41.486 64.8512 41.486V27.7506C64.8512 26.5733 64.0663 25.7884 62.889 25.7884H60.5343C60.1419 25.7884 60.1419 25.3959 60.1419 25.3959L60.5343 25.0035H62.889C64.4587 24.6111 65.636 26.1808 65.636 27.7506V41.486C65.636 41.8784 65.2436 41.8784 65.2436 41.8784Z" fill="#98989C"/>
<path d="M64.4587 23.4339L63.2814 22.2565C62.889 21.8641 62.889 21.4717 63.2814 21.4717L64.4587 20.2943C64.8512 19.9019 65.2436 19.9019 65.2436 20.2943L66.4209 21.4717C66.8134 21.8641 66.8134 22.2565 66.4209 22.2565L65.6361 23.4339C65.2436 23.8263 64.8512 23.8263 64.4587 23.4339Z" fill="#4BB8A9"/>
<path d="M71.5227 41.8783H69.5605C69.168 41.8783 69.168 41.4859 69.168 41.4859C69.168 41.0935 69.5605 41.0935 69.5605 41.0935H71.9151C73.0924 41.0935 73.8773 40.701 74.6622 39.9161L79.7639 34.8144C80.1564 34.422 80.9412 34.0295 81.3337 34.0295C82.1186 34.0295 82.511 34.422 82.9034 34.8144L88.0052 39.9161C88.79 40.701 89.5749 41.0935 90.7522 41.0935H92.7144C93.1069 41.0935 93.1069 41.4859 93.1069 41.4859C93.1069 41.8783 92.7144 41.8783 92.7144 41.8783H90.7522C89.5749 41.8783 88.3976 41.4859 87.2203 40.3086L82.1186 35.2069C81.7261 35.2069 81.3337 35.2069 81.3337 35.2069C80.9412 35.2069 80.5488 35.2069 80.5488 35.5993L75.4471 40.701C74.2698 41.4859 73.0924 41.8783 71.5227 41.8783Z" fill="#98989C"/>
<path d="M71.5227 24.6115H69.5605C69.168 24.6115 69.168 25.0039 69.168 25.0039L69.5605 25.3963H71.9151C73.0924 25.3963 73.8773 25.7888 74.6622 26.5737L79.7639 31.6754C80.1564 32.0678 80.9412 32.4603 81.3337 32.4603C82.1186 32.4603 82.511 32.0678 82.9034 31.6754L88.0052 26.5737C88.79 25.7888 89.5749 25.3963 90.7522 25.3963H92.7144C93.1069 25.3963 93.1069 25.0039 93.1069 25.0039C93.1069 24.6115 92.7144 24.6115 92.7144 24.6115H90.7522C89.5749 24.6115 88.3976 25.0039 87.2203 26.1812L82.1186 31.2829C81.7261 31.6754 81.3337 31.6754 81.3337 31.6754C80.9412 31.6754 80.5488 31.6754 80.5488 31.2829L75.4471 26.1812C74.2698 25.3963 73.0924 24.6115 71.5227 24.6115Z" fill="#98989C"/>
<path d="M13.4415 43.8406C14.6188 43.8406 15.7961 43.4482 16.581 42.6633L20.8978 38.3465C21.2903 37.954 21.6827 37.954 22.0752 38.3465L26.392 42.6633C27.1769 43.4482 28.3542 43.8406 29.5315 43.8406H30.3164L24.8223 49.3348C23.2525 50.9045 20.5054 50.9045 18.5432 49.3348L13.049 43.8406H13.4415Z" fill="#4BB8A9"/>
<path d="M29.1391 28.5354C27.9618 28.5354 26.7845 28.9278 25.9996 29.7127L21.6827 34.0295C21.2903 34.422 20.8978 34.422 20.5054 34.0295L16.1886 29.7127C15.4037 28.9278 14.6188 28.5354 13.4415 28.5354H12.6566L18.1508 23.0412C19.7205 21.4715 22.4676 21.4715 24.4298 23.0412L29.924 28.5354H29.1391Z" fill="#4BB8A9"/>
<path d="M8.33977 33.2447L11.4793 30.1052H13.4415C14.2264 30.1052 15.0113 30.4977 15.4037 30.8901L19.7205 35.2069C20.113 35.5994 20.5054 35.5994 21.2903 35.5994C21.6827 35.5994 22.0752 35.5994 22.4676 35.2069L26.7845 30.8901C27.1769 30.4977 27.9618 30.1052 28.7467 30.1052H30.7089L34.2408 33.2447C35.8106 34.8145 35.8106 37.5616 34.2408 39.5238L31.1013 42.6633H29.1391C28.3542 42.6633 27.5693 42.2709 27.1769 41.8784L22.4676 37.5616C21.6827 36.7767 20.5054 36.7767 19.7205 37.5616L15.4037 41.8784C15.0113 42.2709 14.2264 42.6633 13.4415 42.6633H11.4793L8.33977 39.5238C6.37757 37.5616 6.37757 34.8145 8.33977 33.2447Z" fill="#4BB8A9"/>
</svg>
