<svg width="100" height="75" viewBox="0 0 100 75" fill="none" xmlns="http://www.w3.org/2000/svg">
<path fill-rule="evenodd" clip-rule="evenodd" d="M8 19.6441C8 18.2018 9.20628 17 10.6538 17H90.2081C91.6556 17 92.8619 18.2018 92.8619 19.6441V53.3559C92.8619 54.7981 91.6556 56 90.2081 56H10.6538C9.20628 56 8 54.7981 8 53.3559V19.6441Z" fill="#EEA414"/>
<path fill-rule="evenodd" clip-rule="evenodd" d="M8 20.8459H92.8619V52.1541H8V20.8459Z" fill="white"/>
<path fill-rule="evenodd" clip-rule="evenodd" d="M79.9547 29.0184C76.0946 29.0184 72.8979 32.1432 72.8979 36.0492C72.8979 39.8952 76.0343 43.0801 79.9547 43.0801C83.8148 43.0801 87.0114 39.9553 87.0114 36.0492C87.0114 32.1432 83.8148 29.0184 79.9547 29.0184Z" fill="#E00817"/>
<path fill-rule="evenodd" clip-rule="evenodd" d="M21.8722 29.0184C18.0121 29.0184 14.8155 32.1432 14.8155 36.0492C14.8155 39.8952 17.9518 43.0801 21.8722 43.0801C25.7323 43.0801 28.929 39.9553 28.929 36.0492C28.8687 32.1432 25.7323 29.0184 21.8722 29.0184Z" fill="#E00817"/>
<path fill-rule="evenodd" clip-rule="evenodd" d="M79.4119 22.829C72.898 22.7088 69.8219 26.8552 65.3587 31.963L61.1367 36.8305L67.7713 44.7627C69.3394 47.2265 66.3237 49.6302 64.454 47.4068L58.3019 40.0755L52.3309 46.9861C50.4611 49.2096 47.4454 46.7458 49.0739 44.3421L55.5878 36.8305L51.3055 31.7226L54.0196 28.3575L58.3623 33.5254L62.1017 29.1988C63.9112 27.0955 65.7809 24.2712 68.2538 22.829H8V50.2311H22.0532C28.5671 50.2311 31.5225 46.3251 35.8651 41.0971L39.9665 36.1695L33.151 28.3575C31.5225 25.9538 34.4779 23.49 36.4079 25.6533L42.7409 32.8043L48.5914 25.7735C50.4008 23.5501 53.4768 25.9538 51.9086 28.3575L45.5757 36.0493L49.9786 41.037L47.2042 44.282L42.8615 39.4145L39.1824 43.8012C37.373 45.9646 35.5635 48.7288 33.2113 50.2311H92.8619V22.829H79.4119ZM32.97 36.0493C32.97 42.1787 27.964 47.1664 21.8119 47.1664C15.6599 47.1664 10.6538 42.1787 10.6538 36.0493C10.6538 29.9199 15.6599 24.9322 21.8119 24.9322C27.964 24.9322 32.97 29.9199 32.97 36.0493ZM79.9547 47.1063C73.8027 47.1063 68.7966 42.1186 68.7966 35.9892C68.7966 29.8598 73.8027 24.8721 79.9547 24.8721C86.1067 24.8721 91.1128 29.8598 91.1128 35.9892C91.0525 42.1186 86.0464 47.1063 79.9547 47.1063Z" fill="#E00817"/>
</svg>
