<svg width="103" height="43" viewBox="0 0 103 43" fill="none" xmlns="http://www.w3.org/2000/svg">
<path d="M83.8566 35.3887C83.7843 35.3887 83.7149 35.36 83.6637 35.3088C83.6126 35.2577 83.5838 35.1883 83.5838 35.116V2.24578C83.5838 2.11677 83.6748 2.0049 83.8009 1.97872L89.4987 0.792425C89.5384 0.784137 89.5795 0.784821 89.6189 0.794428C89.6584 0.804034 89.6952 0.822321 89.7266 0.847954C89.7581 0.873588 89.7834 0.905922 89.8008 0.942598C89.8182 0.979275 89.8272 1.01937 89.8271 1.05996V35.116C89.8271 35.1883 89.7984 35.2577 89.7472 35.3088C89.6961 35.36 89.6267 35.3887 89.5544 35.3887H83.8566ZM12.2399 36.0842C9.96396 36.0842 7.93174 35.5273 6.14325 34.4143C4.35476 33.3008 2.94044 31.7784 1.89981 29.8467C0.859181 27.9149 0.338867 25.7213 0.338867 23.2654C0.338867 20.81 0.859181 18.6326 1.89981 16.7336C2.94044 14.8014 4.35476 13.2957 6.14325 12.215C7.93174 11.1016 9.96396 10.5451 12.2399 10.5451C14.0613 10.5451 15.6546 10.8888 17.0199 11.5767C18.1147 12.1274 19.0426 12.8572 19.8028 13.7665C19.9751 13.9726 20.3369 13.856 20.3369 13.587V1.65454C20.3369 1.52553 20.4274 1.41413 20.554 1.38795L26.2517 0.201182C26.2914 0.19291 26.3324 0.193575 26.3718 0.203128C26.4111 0.212681 26.4479 0.230883 26.4793 0.25641C26.5108 0.281938 26.5362 0.314151 26.5536 0.35071C26.5711 0.387269 26.5801 0.427255 26.5802 0.467765V35.2212C26.5802 35.2935 26.5515 35.3629 26.5003 35.414C26.4492 35.4652 26.3798 35.4939 26.3074 35.4939H21.2442C21.181 35.4939 21.1198 35.4719 21.071 35.4317C21.0222 35.3915 20.9889 35.3356 20.9767 35.2735L20.4578 32.6244C20.4117 32.3897 20.1041 32.3202 19.9518 32.5039C19.2249 33.3813 18.3128 34.1653 17.215 34.8556C15.9469 35.6744 14.2888 36.0838 12.2404 36.0838L12.2399 36.0842ZM13.5571 30.5831C15.5732 30.5831 17.215 29.9119 18.4832 28.5694C19.7838 27.1946 20.4345 25.4428 20.4345 23.3144C20.4345 21.186 19.7838 19.4509 18.4832 18.1084C17.215 16.7336 15.5732 16.0457 13.5571 16.0457C11.5735 16.0457 9.93159 16.717 8.63057 18.0594C7.32954 19.4018 6.67975 21.137 6.67975 23.2654C6.67975 25.3938 7.33002 27.1451 8.63057 28.5209C9.93159 29.8952 11.5735 30.5831 13.5571 30.5831ZM41.8035 36.0876C39.3648 36.0876 37.2026 35.5639 35.3165 34.5161C33.4304 33.4684 31.9509 31.995 30.8779 30.0961C29.8049 28.1967 29.2684 26.0031 29.2684 23.5148C29.2684 20.9937 29.7887 18.7506 30.8294 16.7865C31.9024 14.8218 33.3657 13.299 35.2189 12.2188C37.105 11.1054 39.3162 10.5489 41.8526 10.5489C44.2266 10.5489 46.3236 11.0725 48.1444 12.1203C49.9658 13.1681 51.3801 14.6091 52.3879 16.4428C53.4285 18.2432 53.9488 20.2568 53.9488 22.4837C53.9488 22.8436 53.9326 23.2202 53.9003 23.6129C53.9003 23.9276 53.8898 24.2527 53.8688 24.5888C53.8643 24.6574 53.8339 24.7216 53.7836 24.7685C53.7334 24.8154 53.6672 24.8414 53.5984 24.8411H35.755C35.7177 24.8408 35.6808 24.8483 35.6466 24.8632C35.6124 24.878 35.5817 24.8999 35.5565 24.9273C35.5313 24.9548 35.5121 24.9872 35.5002 25.0226C35.4883 25.0579 35.484 25.0953 35.4874 25.1324C35.6617 26.8928 36.3038 28.2852 37.414 29.3102C38.6169 30.3908 40.0641 30.9311 41.7555 30.9311C43.0232 30.9311 44.08 30.6526 44.9254 30.0961C45.7528 29.5406 46.3774 28.8403 46.801 27.9939C46.8486 27.8987 46.9448 27.8368 47.051 27.8368H52.852C52.8942 27.8364 52.936 27.8461 52.9737 27.865C53.0115 27.8839 53.0442 27.9115 53.0692 27.9455C53.0942 27.9795 53.1108 28.019 53.1176 28.0607C53.1243 28.1024 53.1211 28.1451 53.1081 28.1853C52.644 29.5886 51.9161 30.8806 50.925 32.0603C49.8844 33.3046 48.5833 34.2867 47.0229 35.0069C45.4948 35.7277 43.7548 36.0876 41.8035 36.0876ZM41.8526 15.6568C40.3245 15.6568 38.9749 16.0986 37.8043 16.9826C36.7056 17.7814 35.9792 18.9843 35.6255 20.591C35.6172 20.6299 35.6178 20.6702 35.6272 20.7089C35.6366 20.7476 35.6546 20.7837 35.6798 20.8145C35.705 20.8453 35.7369 20.8701 35.7729 20.8869C35.809 20.9038 35.8484 20.9123 35.8883 20.9118H47.318C47.4751 20.9118 47.6008 20.779 47.5846 20.6229C47.437 19.1533 46.8601 17.9728 45.8518 17.0811C44.7788 16.1314 43.4459 15.6568 41.8526 15.6568ZM68.9636 36.088C66.5249 36.088 64.3627 35.5644 62.4766 34.5166C60.5905 33.4689 59.111 31.9955 58.038 30.0966C56.965 28.1977 56.4285 26.0036 56.4285 23.5153C56.4285 20.9942 56.9488 18.7511 57.989 16.7869C59.0624 14.8223 60.5253 13.2995 62.379 12.2193C64.2651 11.1059 66.4759 10.5494 69.0122 10.5494C71.3862 10.5494 73.4837 11.073 75.3045 12.1208C77.1254 13.1685 78.5397 14.6095 79.548 16.4432C80.5886 18.2436 81.1089 20.2573 81.1089 22.4842C81.1089 22.8441 81.0927 23.2206 81.0599 23.6134C81.0599 23.928 81.0494 24.2536 81.0289 24.5893C81.0243 24.6578 80.9938 24.722 80.9436 24.7689C80.8934 24.8157 80.8272 24.8417 80.7585 24.8416H62.9151C62.8778 24.8413 62.8408 24.8488 62.8066 24.8637C62.7724 24.8785 62.7417 24.9004 62.7165 24.9278C62.6912 24.9552 62.672 24.9877 62.66 25.023C62.6481 25.0583 62.6437 25.0958 62.647 25.1329C62.8213 26.8933 63.4639 28.2857 64.5741 29.3106C65.777 30.3912 67.2242 30.9316 68.9146 30.9316C70.1828 30.9316 71.2396 30.6531 72.0855 30.0966C72.9124 29.541 73.5375 28.8408 73.9607 27.9944C74.0083 27.8992 74.1044 27.8373 74.2111 27.8373H80.0116C80.1944 27.8373 80.3253 28.0125 80.2677 28.1858C79.8041 29.5891 79.0762 30.8811 78.0846 32.0607C77.044 33.3051 75.7434 34.2876 74.1825 35.0074C72.6544 35.7282 70.9145 36.088 68.9636 36.088ZM69.0122 15.6573C67.4841 15.6573 66.1345 16.0991 64.9639 16.9831C63.8657 17.7823 63.1393 18.9848 62.7851 20.5915C62.7768 20.6304 62.7774 20.6707 62.7868 20.7094C62.7962 20.7481 62.8142 20.7842 62.8394 20.815C62.8646 20.8458 62.8965 20.8706 62.9326 20.8874C62.9686 20.9042 63.0081 20.9128 63.0479 20.9123H74.4781C74.6352 20.9123 74.7604 20.7795 74.7447 20.6234C74.5976 19.1538 74.0197 17.9732 73.0119 17.0816C71.9389 16.1319 70.606 15.6573 69.0122 15.6573Z" fill="#01090F"/>
<path d="M98.0084 35.3959C100.33 35.3959 102.212 33.5008 102.212 31.1634C102.212 28.826 100.33 26.9309 98.0084 26.9309C95.6872 26.9309 93.8054 28.8256 93.8054 31.1629C93.8054 33.5003 95.6872 35.3954 98.0084 35.3954V35.3959Z" fill="#2C71F0"/>
</svg>
