<svg width="142" height="33" viewBox="0 0 142 33" fill="none" xmlns="http://www.w3.org/2000/svg">
<path d="M142 14.658V11.9983H138.899V7.8634L138.794 7.89764L135.881 8.84683L135.824 8.86541V11.9984H131.226V10.2531C131.226 9.44037 131.397 8.81845 131.733 8.40369C132.067 7.9939 132.545 7.78557 133.154 7.78557C133.592 7.78557 134.045 7.89544 134.502 8.11211L134.616 8.16654V5.36548L134.562 5.34442C134.137 5.18144 133.558 5.09937 132.84 5.09937C131.935 5.09937 131.114 5.30901 130.397 5.7245C129.68 6.14058 129.115 6.73456 128.72 7.48975C128.326 8.24408 128.127 9.11529 128.127 10.0794V11.9983H125.967V14.658H128.127V25.8629H131.226V14.658H135.824V21.7785C135.824 24.7111 137.123 26.1972 139.684 26.1972C140.105 26.1972 140.548 26.1447 141 26.0419C141.461 25.9362 141.774 25.8308 141.959 25.7181L142 25.6924V23.008L141.874 23.0969C141.705 23.2162 141.496 23.3138 141.25 23.3864C141.004 23.4603 140.798 23.4973 140.638 23.4973C140.038 23.4973 139.594 23.3251 139.319 22.9852C139.04 22.6423 138.899 22.0426 138.899 21.2037V14.658H142ZM119.045 23.4977C117.919 23.4977 117.032 23.1004 116.407 22.3177C115.778 21.531 115.459 20.4095 115.459 18.9845C115.459 17.5144 115.778 16.3637 116.407 15.5632C117.033 14.7679 117.912 14.3642 119.019 14.3642C120.094 14.3642 120.95 14.7497 121.563 15.5106C122.179 16.2755 122.491 17.4169 122.491 18.9042C122.491 20.4098 122.197 21.5663 121.618 22.3399C121.042 23.1077 120.176 23.4977 119.045 23.4977ZM119.182 11.6643C117.036 11.6643 115.331 12.3342 114.115 13.6554C112.9 14.9768 112.284 16.8054 112.284 19.0909C112.284 21.2617 112.886 23.0078 114.072 24.2798C115.258 25.5523 116.872 26.1969 118.868 26.1969C120.949 26.1969 122.62 25.5177 123.835 24.1782C125.05 22.8401 125.666 21.0288 125.666 18.7967C125.666 16.5919 125.088 14.8328 123.949 13.5692C122.808 12.3051 121.204 11.6643 119.182 11.6643ZM107.286 11.6643C105.826 11.6643 104.618 12.0621 103.696 12.8464C102.767 13.6354 102.296 14.6701 102.296 15.9223C102.296 16.5732 102.398 17.1514 102.598 17.6418C102.799 18.1338 103.111 18.567 103.524 18.9305C103.935 19.2912 104.569 19.6689 105.409 20.0532C106.115 20.3627 106.641 20.6244 106.976 20.8307C107.303 21.0329 107.535 21.2361 107.666 21.434C107.793 21.6277 107.858 21.8928 107.858 22.2199C107.858 23.1514 107.203 23.6047 105.855 23.6047C105.355 23.6047 104.785 23.4935 104.16 23.2743C103.54 23.0585 102.955 22.7424 102.425 22.3371L102.296 22.2388V25.4175L102.343 25.4409C102.782 25.6565 103.335 25.8384 103.987 25.9814C104.637 26.1247 105.228 26.1975 105.742 26.1975C107.326 26.1975 108.602 25.7978 109.533 25.0088C110.47 24.2144 110.945 23.1552 110.945 21.8597C110.945 20.9252 110.69 20.1238 110.186 19.4774C109.685 18.8363 108.817 18.2478 107.605 17.7275C106.64 17.3149 106.022 16.9725 105.767 16.7096C105.521 16.4556 105.396 16.0964 105.396 15.6416C105.396 15.2384 105.55 14.9153 105.867 14.6538C106.185 14.3909 106.629 14.2571 107.186 14.2571C107.702 14.2571 108.231 14.344 108.756 14.5143C109.281 14.6846 109.743 14.9127 110.128 15.1917L110.254 15.2839V12.2686L110.206 12.2464C109.851 12.0841 109.382 11.9453 108.813 11.8327C108.247 11.7207 107.733 11.6643 107.286 11.6643ZM94.215 23.4977C93.0902 23.4977 92.2028 23.1004 91.5778 22.3177C90.9486 21.531 90.6305 20.4098 90.6305 18.9845C90.6305 17.5144 90.949 16.3637 91.5785 15.5632C92.2035 14.7679 93.0819 14.3642 94.1902 14.3642C95.2646 14.3642 96.1203 14.7497 96.7333 15.5106C97.3494 16.2755 97.6619 17.4169 97.6619 18.9042C97.6619 20.4098 97.3678 21.5663 96.7882 22.3399C96.2125 23.1077 95.3472 23.4977 94.215 23.4977ZM94.3532 11.6643C92.2061 11.6643 90.501 12.3342 89.286 13.6554C88.0711 14.9768 87.4548 16.8054 87.4548 19.0909C87.4548 21.2625 88.0564 23.0078 89.2424 24.2798C90.4284 25.5523 92.0423 26.1969 94.0392 26.1969C96.1197 26.1969 97.7912 25.5177 99.0063 24.1782C100.221 22.8401 100.837 21.0288 100.837 18.7967C100.837 16.5919 100.259 14.8328 99.1191 13.5692C97.9786 12.3051 96.375 11.6643 94.3532 11.6643ZM82.7492 14.3993V11.9983H79.687V25.8626H82.7492V18.7705C82.7492 17.5645 83.0059 16.5738 83.5125 15.8255C84.0127 15.0861 84.6792 14.7114 85.4929 14.7114C85.7687 14.7114 86.0784 14.7598 86.4137 14.8556C86.7455 14.9509 86.9859 15.0543 87.1277 15.1632L87.2564 15.2625V11.9746L87.2068 11.9519C86.9216 11.8229 86.5182 11.7578 86.0078 11.7578C85.2382 11.7578 84.5496 12.0211 83.9598 12.5396C83.4421 12.9953 83.0679 13.6201 82.7817 14.3993H82.7492ZM74.2033 11.6643C72.7985 11.6643 71.5454 11.9851 70.4796 12.6176C69.4116 13.2515 68.5856 14.1565 68.0237 15.3073C67.4642 16.4553 67.1801 17.7963 67.1801 19.2917C67.1801 20.6017 67.4555 21.8039 67.9999 22.8634C68.5446 23.9246 69.3155 24.7549 70.2913 25.3307C71.2658 25.9058 72.392 26.1974 73.639 26.1974C75.0943 26.1974 76.3367 25.8875 77.3329 25.2764L77.3731 25.2518V22.264L77.2444 22.364C76.7932 22.7141 76.2889 22.9936 75.7463 23.1949C75.2051 23.396 74.7117 23.4977 74.279 23.4977C73.0775 23.4977 72.1129 23.0973 71.4127 22.3079C70.7111 21.5174 70.3553 20.4074 70.3553 19.0107C70.3553 17.6052 70.7263 16.4667 71.4575 15.6266C72.1865 14.7891 73.1529 14.3642 74.3295 14.3642C75.336 14.3642 76.3168 14.7272 77.2447 15.4441L77.3731 15.5434V12.3952L77.3316 12.3703C76.9825 12.1621 76.5062 11.9902 75.915 11.8599C75.3263 11.7298 74.7504 11.6643 74.2033 11.6643ZM65.0712 11.9984H62.009V25.8626H65.0712V11.9984ZM63.5714 6.09215C63.0674 6.09215 62.6278 6.27488 62.2667 6.63697C61.9041 7.00009 61.7201 7.45728 61.7201 7.99683C61.7201 8.5279 61.9019 8.97674 62.2611 9.3302C62.618 9.68264 63.0589 9.86127 63.5715 9.86127C64.084 9.86127 64.5266 9.68264 64.8878 9.33079C65.2512 8.97674 65.4356 8.52804 65.4356 7.99683C65.4356 7.47615 65.2562 7.02364 64.9027 6.6516C64.5496 6.2803 64.1015 6.09215 63.5714 6.09215ZM55.9312 10.9755V25.8626H59.0562V6.51657H54.731L49.2334 20.8863L43.8983 6.51657H39.397V25.8625H42.3337V10.974H42.4345L48.0683 25.8626H50.2845L55.8303 10.9755H55.9312Z" fill="#706D6E"/>
<path d="M14.4047 15.3938H-0.000488281V0.0516357H14.4047V15.3938Z" fill="#F1511B"/>
<path d="M30.3094 15.3938H15.9045V0.0516357H30.3094V15.3938Z" fill="#80CC28"/>
<path d="M14.4043 32.3392H-0.000488281V16.9972H14.4043V32.3392Z" fill="#00ADEF"/>
<path d="M30.3094 32.3392H15.9045V16.9972H30.3094V32.3392Z" fill="#FBBC09"/>
</svg>
