<svg width="134" height="44" viewBox="0 0 134 44" fill="none" xmlns="http://www.w3.org/2000/svg">
<path d="M28.9039 8.57794C28.8779 8.37279 28.713 8.25898 28.576 8.24659C28.4402 8.2342 25.778 8.19025 25.778 8.19025C25.778 8.19025 23.5516 5.84147 23.3316 5.60253C23.1117 5.3636 22.6822 5.43573 22.5152 5.48982C22.5131 5.49095 22.0971 5.63071 21.3968 5.86626C21.2796 5.45376 21.1073 4.94658 20.8614 4.43716C20.0688 2.79392 18.9079 1.92496 17.5052 1.92271C17.5031 1.92271 17.5021 1.92271 17.5 1.92271C17.4025 1.92271 17.306 1.93286 17.2085 1.94187C17.167 1.88777 17.1255 1.8348 17.0819 1.78295C16.4708 1.07291 15.6876 0.726909 14.7487 0.757339C12.9372 0.813692 11.1331 2.2349 9.67028 4.7595C8.6411 6.53573 7.85779 8.76732 7.63579 10.4951C5.55565 11.195 4.10111 11.6841 4.06895 11.6954C3.01903 12.0537 2.98584 12.0887 2.84889 13.1639C2.74722 13.9765 0 37.054 0 37.054L23.0225 41.3796L33.0008 38.6848C33.0008 38.6848 28.9298 8.78309 28.9039 8.57794ZM20.2441 6.25396C19.714 6.43204 19.1112 6.63491 18.4576 6.85469C18.4441 5.85837 18.3352 4.4721 17.9078 3.27404C19.2824 3.55693 19.9588 5.24638 20.2441 6.25396ZM17.2531 7.26042C16.0465 7.66613 14.73 8.10907 13.4093 8.55316C13.7807 7.00796 14.4852 5.46954 15.3504 4.46083C15.672 4.08552 16.1223 3.66738 16.6555 3.42845C17.1566 4.56451 17.2656 6.17282 17.2531 7.26042ZM14.7849 2.06697C15.2103 2.05683 15.5682 2.15827 15.8743 2.37691C15.3846 2.65304 14.9115 3.04976 14.4675 3.56708C13.3169 4.90827 12.4351 6.98993 12.0834 8.99834C10.9868 9.36686 9.91403 9.72869 8.92636 10.06C9.54992 6.89864 11.989 2.15488 14.7849 2.06697Z" fill="#95BF47"/>
<path d="M28.5772 8.2478C28.4414 8.23541 25.7792 8.19147 25.7792 8.19147C25.7792 8.19147 23.5528 5.84268 23.3329 5.60375C23.2509 5.51471 23.1399 5.4685 23.0237 5.44934L23.0247 41.3786L33.0021 38.685C33.0021 38.685 28.9311 8.78431 28.9051 8.57916C28.8792 8.37401 28.7132 8.26019 28.5772 8.2478Z" fill="#5E8E3E"/>
<path d="M17.4928 13.8211L16.334 18.531C16.334 18.531 15.0413 17.8919 13.5089 17.9968C11.2617 18.1512 11.2379 19.6907 11.2607 20.0773C11.3832 22.1837 16.4844 22.6436 16.7707 27.5778C16.9959 31.4594 14.8752 34.1147 11.8199 34.3243C8.15246 34.5757 6.13354 32.2258 6.13354 32.2258L6.91062 28.635C6.91062 28.635 8.94299 30.3008 10.5697 30.1892C11.6321 30.116 12.0118 29.1771 11.9734 28.5133C11.8137 25.7655 7.65965 25.9278 7.3972 21.4128C7.17619 17.6136 9.47319 13.7636 14.5412 13.4164C16.4937 13.2801 17.4928 13.8211 17.4928 13.8211Z" fill="white"/>
<path d="M46.1407 23.6836C44.9934 23.0073 44.4037 22.4372 44.4037 21.6535C44.4037 20.6564 45.2228 20.0158 46.5019 20.0158C47.9909 20.0158 49.3203 20.6922 49.3203 20.6922L50.3689 17.2022C50.3689 17.2022 49.4047 16.3828 46.5667 16.3828C42.6174 16.3828 39.8802 18.8398 39.8802 22.294C39.8802 24.2525 41.1583 25.7482 42.8633 26.8158C44.2401 27.6698 44.732 28.2757 44.732 29.1655C44.732 30.0912 44.0436 30.839 42.7656 30.839C40.8608 30.839 39.0621 29.7703 39.0621 29.7703L37.9478 33.2602C37.9478 33.2602 39.6096 34.4709 42.4054 34.4709C46.47 34.4709 49.3873 32.2989 49.3873 28.3819C49.3862 26.2826 47.9117 24.7869 46.1407 23.6836Z" fill="black"/>
<path d="M62.3335 16.3482C60.334 16.3482 58.7606 17.3811 57.5485 18.9473L57.4826 18.9114L59.2195 9.04858H54.696L50.3042 34.1513H54.8277L56.3352 25.5706C56.9248 22.3299 58.4653 20.3367 59.908 20.3367C60.9236 20.3367 61.3177 21.0846 61.3177 22.1533C61.3177 22.8296 61.2518 23.649 61.1211 24.3253L59.4171 34.1524H63.9409L65.7103 24.0044C65.9072 22.9357 66.0387 21.6547 66.0387 20.7995C66.0369 18.0216 64.6931 16.3482 62.3335 16.3482Z" fill="black"/>
<path d="M76.2632 16.3481C70.8216 16.3481 67.2173 21.6893 67.2173 27.6352C67.2173 31.4449 69.38 34.5067 73.4448 34.5067C78.7874 34.5067 82.3929 29.3087 82.3929 23.2197C82.3929 19.695 80.4913 16.3481 76.2632 16.3481ZM74.0344 30.7339C72.4938 30.7339 71.8381 29.3098 71.8381 27.529C71.8381 24.7164 73.1824 20.1232 75.6406 20.1232C77.2467 20.1232 77.7702 21.6189 77.7702 23.0788C77.7702 26.1048 76.4277 30.7339 74.0344 30.7339Z" fill="black"/>
<path d="M93.9629 16.3481C90.9096 16.3481 89.177 19.268 89.177 19.268H89.1122L89.3746 16.6332H85.3758C85.1794 18.4139 84.8179 21.1192 84.4583 23.1492L81.3115 41.13H85.8351L87.0797 33.8662H87.1788C87.1788 33.8662 88.1069 34.5067 89.8339 34.5067C95.1434 34.5067 98.6174 28.5966 98.6174 22.6138C98.6174 19.3038 97.273 16.3481 93.9629 16.3481ZM89.6363 30.8043C88.4621 30.8043 87.7672 30.0922 87.7672 30.0922L88.5213 25.499C89.0461 22.4372 90.5207 20.4071 92.0944 20.4071C93.4712 20.4071 93.8969 21.7955 93.8969 23.1135C93.8969 26.2826 92.1599 30.8043 89.6363 30.8043Z" fill="black"/>
<path d="M105.074 9.29785C103.633 9.29785 102.485 10.5443 102.485 12.1461C102.485 13.6061 103.337 14.6032 104.616 14.6032H104.681C106.091 14.6032 107.303 13.5703 107.336 11.7549C107.336 10.3307 106.451 9.29785 105.074 9.29785Z" fill="black"/>
<path d="M98.7488 34.1512H103.271L106.353 16.7405H101.796L98.7488 34.1512Z" fill="black"/>
<path d="M117.858 16.7048H114.711L114.874 15.8854C115.137 14.212 116.055 12.7163 117.563 12.7163C118.367 12.7163 119.004 12.9656 119.004 12.9656L119.889 9.12014C119.889 9.12014 119.103 8.69312 117.43 8.69312C115.824 8.69312 114.219 9.19164 113.006 10.3307C111.465 11.755 110.744 13.8196 110.384 15.8854L110.254 16.7048H108.155L107.499 20.4083H109.598L107.205 34.1524H111.729L114.122 20.4083H117.235L117.858 16.7048Z" fill="black"/>
<path d="M128.739 16.7405C128.739 16.7405 125.912 24.4794 124.642 28.7039H124.576C124.49 27.3434 123.461 16.7405 123.461 16.7405H118.709L121.43 32.727C121.496 33.0825 121.463 33.2972 121.332 33.5464C120.806 34.6498 119.922 35.7184 118.873 36.5021C118.021 37.1783 117.071 37.6054 116.317 37.8904L117.562 42.0567C118.48 41.8432 120.381 41.0238 121.987 39.3861C124.052 37.2856 125.953 34.045 127.919 29.6294L133.458 16.7394H128.739V16.7405Z" fill="black"/>
</svg>
