<svg width="100" height="75" viewBox="0 0 100 75" fill="none" xmlns="http://www.w3.org/2000/svg">
<path d="M84 4H17V71H84V4Z" fill="white"/>
<path d="M82.7 5.60001H18.6V69.7H82.7V5.60001Z" fill="#FCC500"/>
<path d="M19.6 37.6C19.6 31 33.6 25.4 50.6 25.4C67.8 25.4 81.6 30.7 81.6 37.6C81.6 44.2 67.6 49.8 50.6 49.8C33.4 49.8 19.6 44.3 19.6 37.6Z" fill="#00638D"/>
<path d="M19.6 37.6C19.6 31 33.6 25.4 50.6 25.4C67.8 25.4 81.6 30.7 81.6 37.6C81.6 44.2 67.6 49.8 50.6 49.8C33.4 49.8 19.6 44.3 19.6 37.6Z" stroke="#00638D" stroke-width="0.0918705" stroke-miterlimit="3.8636"/>
<path fill-rule="evenodd" clip-rule="evenodd" d="M31 43.5L34.2 31.5H39.2V38.4L42.7 31.5H48L44.5 43.5H41.4L43.5 35.8H43.2L39.2 43.5H36.6V35.8L34.5 43.5H31Z" fill="white"/>
<path fill-rule="evenodd" clip-rule="evenodd" d="M48.8 43.7L49.3 42.1H53L52.5 43.7H48.8Z" fill="#E53328"/>
<path fill-rule="evenodd" clip-rule="evenodd" d="M49.3 41.6L51.2 34.5H48L48.8 31.5H59.1L58.3 34.5H54.9L53 41.6H49.3Z" fill="#FCC500"/>
<path fill-rule="evenodd" clip-rule="evenodd" d="M56.7 43.5L59.9 31.5H63.6L65.2 37.9L67.1 31.5H70.5L67.1 43.5H63.6L62 36.8L60.2 43.5H56.7Z" fill="white"/>
</svg>
