<svg width="167" height="128" viewBox="0 0 167 128" fill="none" xmlns="http://www.w3.org/2000/svg">
<path d="M79.869 76.9965C79.2445 77.4337 77.9649 77.8082 76.5749 77.8082C74.0232 77.8082 72.8755 75.8657 72.9231 73.6062C72.9633 71.7334 74.1402 69.6113 77.327 69.6113L79.8694 69.61L79.869 76.9965ZM77.2456 56.2271C74.2179 56.2271 71.4928 57.0759 68.6925 58.4546L67.9778 58.8199L69.6826 62.592L70.6437 62.1414C72.6268 61.2614 74.7393 60.6715 76.6387 60.7504C78.938 60.8453 79.8787 61.8902 79.8787 64.0715V65.3511H76.1191C70.076 65.3511 66.3156 68.5274 66.2069 73.459C66.2069 78.1455 70.1477 82.1797 75.6264 82.1797C80.0474 82.1797 83.7931 80.7575 86.317 78.2509V64.8781C86.317 58.3661 81.6283 56.2271 77.2456 56.2271ZM167 77.7917V81.7466C167 81.7466 165.66 82.0001 164.575 82.0001C159.51 82.0001 156.486 79.6342 156.486 74.109V50.8068L162.847 49.7325V74.5173C162.847 76.4322 163.401 77.5781 166.043 77.782C166.404 77.8082 167 77.7912 167 77.7912L167 77.7917ZM139.101 66.0258C139.208 63.5989 140.227 61.1042 142.732 61.1042C145.552 61.1042 145.968 64.137 145.968 66.0258H139.101ZM144.104 77.7628C142.365 77.7628 141.191 77.1972 140.422 76.374C139.28 75.1517 138.774 72.6382 138.911 69.9661H152.591V69.3427C152.469 60.4639 149.416 56.4191 142.733 56.4191C135.273 56.4191 132.368 63.2231 132.314 69.6159C132.267 73.6602 133.806 77.7321 136.619 80.0517C138.332 81.4625 140.707 82.2444 143.46 82.2444C144.96 82.2444 146.528 82.023 147.958 81.5844C150.703 80.741 152.728 79.2845 152.728 79.2845L150.939 75.6338C150.617 75.8749 147.877 77.7628 144.104 77.7628ZM130.083 77.8146V81.7127C130.083 81.7127 128.909 81.9437 127.664 81.9437C122.483 81.9437 119.392 79.4632 119.392 74.219V50.8027L125.896 49.7669V56.6854H130.081V61.3095H125.896V74.4852C125.896 76.2104 126.433 77.7009 129.16 77.7958C129.529 77.8086 130.014 77.8082 130.083 77.8146ZM91.0676 57.6983L97.413 56.6717V81.726H91.0676V57.6983ZM94.3053 46.6603C95.4092 46.6603 96.4303 47.0865 97.1805 47.8593C97.5457 48.2332 97.8313 48.6761 98.0203 49.1617C98.2092 49.6473 98.2976 50.1656 98.2802 50.6858C98.2802 52.9142 96.5098 54.6669 94.2489 54.6669C91.9921 54.6669 90.2189 52.9092 90.2189 50.6597C90.2189 48.456 92.0527 46.6603 94.3053 46.6603ZM117.682 57.0521L115.891 61.0322C115.891 61.0322 114.869 60.7077 113.294 60.771C111.591 60.8384 109.8 61.5529 108.957 62.3683V81.7439H102.483L102.487 61.1615C106.342 57.0988 110.619 56.2894 113.406 56.2894C115.33 56.2894 116.986 56.712 117.682 57.0521ZM36.7232 37V37.0697H36.1615V37.1393H35.5292V37.209H34.9675V37.2787H34.4757V37.3479H34.1244V37.4175H33.7735V37.4872H33.4222V37.5569H33.0713V37.6265H32.72V37.6962H32.3692V37.7659H32.1588V37.8355H31.8778V37.9052H31.5967V37.9749H31.3161V38.0441H31.1054V38.1138H30.8248V38.1834H30.5437V38.2531H30.2627V38.3227H30.0523V38.3924H29.8415V38.4621H29.6307V38.5317H29.4204V38.6014H29.2096V38.6711H28.9988V38.7403H28.7881V38.81H28.5777V38.8796H28.3669V38.9493H28.1561V39.019H27.9458V39.0886H27.7355V39.1583H27.5247V39.228H27.3144V39.2976H27.1738V39.3673H26.9631V39.4365H26.8225V39.5062H26.6122V39.5758H26.4717V39.6455H26.2609V39.7152H26.0501V39.7848H25.91V39.8545H25.6992V39.9242H25.5587V39.9938H25.3479V40.0635H25.2079V40.1327H24.9971V40.2024H24.8565V40.272H24.716V40.3417H24.576V40.4114H24.3652V40.481H24.2246V40.5507H24.0841V40.6204H23.9436V40.69H23.8035V40.7597H23.5927V40.8289H23.4522V40.8986H23.3117V40.9682H23.1716V41.0379H23.0311V41.1076H22.8203V41.1773H22.6798V41.2469H22.5392V41.3166H22.3992V41.3862H22.2587V41.4559H22.1181V41.5251H21.9776V41.5948H21.8375V41.6645H21.697V41.7341H21.5565V41.8038H21.416V41.8735H21.2754V41.9431H21.1354V42.0128H20.9948V42.0825H20.8543V42.1521H20.7138V42.2213H20.5733V42.291H20.503V42.3607H20.3629V42.4303H20.2224V42.5H20.0819V42.5697H19.9414V42.6393H19.8008V42.709H19.6608V42.7787H19.5905V42.8479H19.45V42.9175H19.3094V42.9872H19.1689V43.0569H19.0987V43.1265H18.9586V43.1962H18.8181V43.2659H18.6775V43.3355H18.6073V43.4052H18.4668V43.4749H18.3267V43.5441H18.1862V43.6137H18.0456V43.6834H17.9754V43.7531H17.8348V43.8227H17.6943V43.8924H17.5543V43.9621H17.484V44.0317H17.3435V44.1014H17.2732V44.1711H17.1327V44.2403H17.0624V44.31H16.9223V44.3796H16.7818V44.4493H16.7116V44.519H16.571V44.5886H16.5008V44.6583H16.3602V44.728H16.2202V44.7976H16.1499V44.8673H16.0094V44.9365H15.9391V45.0062H15.7986V45.0758H15.7283V45.1455H15.5883V45.2152H15.4477V45.2848H15.3775V45.3545H15.237V45.4242H15.1667V45.4938H15.0262V45.5635H14.9559V45.6327H14.8158V45.7024H14.7456V45.772H14.6753V45.8417H14.5348V45.9114H14.4645V45.981H14.324V46.0507H14.2537V46.1204H14.1137V46.19H14.0434V46.2597H13.9731V46.3289H13.8326V46.3986H13.7623V46.4683H13.6218V46.5379H13.5516V46.6076H13.4115V46.6773H13.3412V46.7469H13.271V46.8166H13.1304V46.8862H13.0602V46.9559H12.9197V47.0251H12.8494V47.0948H12.7796V47.1645H12.6391V47.2341H12.5688V47.3038H12.4985V47.3735H12.358V47.4431H12.2877V47.5128H12.2175V47.5825H12.1472V47.6521H12.0072V47.7213H11.9369V47.791H11.8666V47.8607H11.7261V47.9303H11.6558V48H11.5856V48.0697H11.5153V48.1393H11.3752V48.209H11.305V48.2787H11.2347V48.3479H11.0942V48.4175H11.0239V48.4872H10.9537V48.5569H10.8131V48.6265H10.7433V48.6962H10.6731V48.7659H10.6028V48.8355H10.5326V48.9052H10.4623V48.9749H10.3218V49.0441H10.2515V49.1137H10.1812V49.1834H10.111V49.2531H10.0412V49.3227H9.97091V49.3924H9.83038V49.4621H9.76012V49.5317H9.68986V49.6014H9.61959V49.6711H9.54933V49.7403H9.47907V49.81H9.339V49.8796H9.26874V49.9493H9.19848V50.019H9.12821V50.0886H9.05795V50.1583H8.98769V50.228H8.84716V50.2976H8.7769V50.3673H8.70663V50.4365H8.63683V50.5062H8.56657V50.5758H8.4963V50.6455H8.42604V50.7152H8.35578V50.7848H8.28551V50.8545H8.21525V50.9242H8.14499V50.9938H8.07473V51.0635H8.00446V51.1327H7.93466V51.2024H7.8644V51.272H7.79413V51.3417H7.72387V51.4114H7.65361V51.481H7.58335V51.5507H7.51308V51.6204H7.44282V51.69H7.30229V51.7597H7.23249V51.8289H7.16223V51.8986H7.09196V51.9682H7.0217V52.0379H6.95144V52.1076H6.88117V52.1772H6.81091V52.2469H6.74065V52.3166H6.67039V52.3862H6.60012V52.5251H6.53032V52.5948H6.46006V52.6645H6.38979V52.7341H6.31953V52.8038H6.24927V52.8735H6.179V52.9431H6.10874V53.0128H6.03848V53.0825H5.96822V53.1521H5.89795V53.291H5.82815V53.3607H5.75789V53.4303H5.68762V53.5H5.61736V53.5697H5.5471V53.6393H5.47683V53.709H5.40657V53.7787H5.33631V53.8479H5.26604V53.9872H5.19624V54.0569H5.12598V54.1265H5.05572V54.1962H4.98545V54.2659H4.91519V54.3355H4.84493V54.4749H4.77466V54.5441H4.7044V54.6138H4.63414V54.7531H4.56387V54.8228H4.49407V54.8924H4.42381V54.9621H4.35355V55.1014H4.28328V55.1711H4.21302V55.2403H4.14276V55.3796H4.07249V55.4493H4.00223V55.519H3.93197V55.5886H3.8617V55.728H3.7919V55.7976H3.72118V55.8673H3.65091V56.0062H3.58065V56.0758H3.51039V56.1455H3.44013V56.2848H3.36986V56.3545H3.30052V56.4938H3.23026V56.5635H3.16V56.6327H3.0902V56.772H3.01993V56.8417H2.94921V56.981H2.87894V57.0507H2.80868V57.19H2.73842V57.3289H2.66815V57.3986H2.59789V57.5379H2.52763V57.6076H2.45736V57.7469H2.38756V57.8863H2.3173V57.9559H2.24657V58.0948H2.17631V58.1645H2.10605V58.3038H2.03578V58.4431H1.96552V58.5825H1.89526V58.7213H1.82592V58.791H1.75566V58.9303H1.68586V59.0697H1.61559V59.209H1.54533V59.3479H1.4746V59.4872H1.40434V59.6265H1.33408V59.7659H1.26381V59.9052H1.19355V60.0441H1.12329V60.2531H1.05302V60.3924H0.983223V60.5317H0.91296V60.7403H0.842697V60.8796H0.771971V61.0886H0.701708V61.2976H0.631445V61.4365H0.561181V61.7152H0.490918V61.9242H0.421117V62.1327H0.351316V62.4114H0.281053V62.7597H0.21079V63.0379H0.140526V63.5251H0.0702632V64.3607H0V65.1265H0.0702632V65.8232H0.140526V66.1711H0.21079V66.4493H0.281053V66.728H0.350854V66.9365H0.421117V67.1455H0.49138V67.3545H0.561644V67.4938H0.631907V67.6327H0.70217V67.772H0.772433V67.9114H0.842697V68.0507H0.91296V68.19H0.983223V68.3289H1.05302V68.3986H1.12329V68.5379H1.19355V68.6076H1.26381V68.7469H1.33408V68.8166H1.40434V68.9559H1.4746V69.0251H1.54487V69.0948H1.61513V69.1645H1.68539V69.2341H1.75519V69.3038H1.82546V69.3735H1.89572V69.4431H1.96598V69.5128H2.03625V69.5825H2.10651V69.6521H2.17677V69.7213H2.24704V69.791H2.3173V69.8607H2.38756V69.9303H2.45736V70H2.52763V70.0697H2.59789V70.1393H2.66815V70.209H2.73842V70.2787H2.87894V70.3479H2.94921V70.4175H3.08973V70.4872H3.15953V70.5569H3.30006V70.6265H3.37032V70.6962H3.51085V70.7659H3.58111V70.8355H3.72164V70.9052H3.7919V70.9749H3.93197V71.0441H4.00223V71.1137H4.14276V71.1834H4.28328V71.2531H4.49407V71.3228H4.63414V71.3924H4.77466V71.4621H4.98545V71.5318H5.12598V71.6014H5.26604V71.6711H5.5471V71.7403H5.89841V71.81H6.24927V71.8796H6.60058V71.9493H8.35578V71.8796H8.84716V71.81H9.26874V71.7403H9.54933V71.6711H9.83038V71.6014H10.0412V71.5318H10.2515V71.4621H10.5326V71.3924H10.7433V71.3228H10.8834V71.2531H11.0942V71.1834H11.2347V71.1137H11.3752V71.0441H11.5856V70.9749H11.7261V70.9052H11.8666V70.8355H12.0072V70.7659H12.1472V70.6962H12.2877V70.6265H12.4283V70.5569H12.5688V70.4872H12.7093V70.4175H12.8494V70.3479H12.9899V70.2787H13.1304V70.209H13.271V70.1393H13.3412V70.0697H13.4818V70H13.5516V69.9303H13.6921V69.8607H13.8326V69.791H13.9029V69.7213H14.0434V69.6521H14.1839V69.5825H14.2537V69.5128H14.3943V69.4431H14.4645V69.3735H14.605V69.3038H14.6753V69.2341H14.8158V69.1645H14.8861V69.0948H15.0262V69.0251H15.0964V68.9559H15.237V68.8862H15.3072V68.8166H15.4477V68.7469H15.518V68.6772H15.6581V68.6076H15.7283V68.5379H15.7986V68.4682H15.9391V68.3986H16.0094V68.3289H16.0796V68.2597H16.2202V68.19H16.2904V68.1204H16.4305V68.0507H16.5008V67.981H16.571V67.9114H16.7116V67.8417H16.7818V67.772H16.8521V67.7024H16.9921V67.6327H17.0624V67.5635H17.1327V67.4938H17.2732V67.4242H17.3435V67.3545H17.4137V67.2848H17.5543V67.2152H17.6245V67.1455H17.6943V67.0758H17.8348V67.0062H17.9051V66.9365H17.9754V66.8673H18.0456V66.7976H18.1862V66.728H18.2564V66.6583H18.3267V66.5886H18.4668V66.519H18.537V66.4493H18.6073V66.3796H18.7478V66.31H18.8181V66.2403H18.8883V66.1711H18.9586V66.1014H19.0987V66.0317H19.1689V65.9621H19.2392V65.8924H19.3797V65.8227H19.45V65.7531H19.5202V65.6834H19.6608V65.6137H19.731V65.5441H19.8008V65.4749H19.9414V65.4052H20.0116V65.3355H20.0819V65.2659H20.2224V65.1962H20.2927V65.1265H20.3629V65.0569H20.503V64.9872H20.5733V64.9175H20.7138V64.8479H20.7841V64.7787H20.8543V64.709H20.9948V64.6393H21.0651V64.5697H21.2052V64.5H21.2754V64.4303H21.416V64.3607H21.4862V64.291H21.6267V64.2213H21.697V64.1521H21.8375V64.0825H21.9073V64.0128H21.9776V63.9431H22.1181V63.8735H22.1884V63.8038H22.3289V63.7341H22.3992V63.6645H22.5392V63.5948H22.6095V63.5251H22.75V63.4559H22.8203V63.3862H22.9608V63.3166H23.0311V63.2469H23.1716V63.1772H23.2414V63.1076H23.3819V63.0379H23.4522V62.9682H23.5927V62.8986H23.663V62.8289H23.8035V62.7597H23.8738V62.69H23.9436V62.6204H24.0841V62.5507H24.1544V62.481H24.2949V62.4114H24.3652V62.3417H24.5057V62.272H24.576V62.2024H24.716V62.1327H24.7863V62.0635H24.9268V61.9938H24.9971V61.9242H25.1376V61.8545H25.2079V61.7848H25.3479V61.7152H25.4182V61.6455H25.5587V61.5758H25.629V61.5062H25.7695V61.4365H25.8398V61.3673H25.9803V61.2976H26.0501V61.228H26.1906V61.1583H26.2609V61.0886H26.4014V61.019H26.4717V60.9493H26.6122V60.8796H26.6825V60.81H26.8225V60.7403H26.8928V60.6711H27.0333V60.6014H27.1036V60.5317H27.2441V60.4621H27.3144V60.3924H27.4544V60.3227H27.5247V60.2531H27.6652V60.1834H27.7355V60.1137H27.876V60.0441H28.0165V59.9749H28.0863V59.9052H28.2269V59.8355H28.2971V59.7659H28.4377V59.6962H28.5079V59.6265H28.6484V59.5569H28.7187V59.4872H28.8588V59.4175H28.929V59.3479H29.0696V59.2787H29.2101V59.209H29.2804V59.1393H29.4209V59.0697H29.4907V59H29.6312V58.9303H29.7717V58.8607H29.842V58.791H29.9825V58.7213H30.0528V58.6521H30.1929V58.5825H30.2631V58.5128H30.4036V58.4431H30.5442V58.3735H30.6144V58.3038H30.755V58.2341H30.895V58.1645H30.9653V58.0948H31.1058V58.0251H31.2463V57.9559H31.3166V57.8863H31.4571V57.8166H31.5972V57.7469H31.6675V57.6772H31.808V57.6076H31.9485V57.5379H32.0188V57.4683H32.1593V57.3986H32.2994V57.3289H32.3696V57.2597H32.5102V57.19H32.6507V57.1204H32.7912V57.0507H32.8615V56.981H33.0015V56.9114H33.1421V56.8417H33.2826V56.772H33.3528V56.7024H33.4934V56.6327H33.6334V56.5635H33.774V56.4938H33.9145V56.4242H33.9848V56.3545H34.1253V56.2848H34.2658V56.2152H34.4059V56.1455H34.5464V56.0758H34.6869V56.0062H34.8275V55.9365H34.968V55.8673H35.108V55.7976H35.2486V55.728H35.3891V55.6583H35.5296V55.5886H35.6702V55.519H35.74V55.4493H35.9507V55.3796H36.0913V55.31H36.2318V55.2403H36.3723V55.1711H36.5124V55.1014H36.7232V55.0317H36.8637V54.9621H37.0042V54.8924H37.1443V54.8228H37.2848V54.7531H37.4956V54.6834H37.6361V54.6138H37.8465V54.5441H37.987V54.4749H38.1978V54.4052H38.4086V54.3355H38.5486V54.2659H38.7594V54.1962H38.8999V54.1265H39.1107V54.0569H39.3913V53.9872H39.6021V53.9175H39.8827V53.8479H40.0935V53.7787H40.3746V53.709H40.6551V53.6393H41.0065V53.5697H41.4276V53.5H41.7789V53.4303H42.9724V53.3607H43.113V53.4303H43.7449V53.5H44.3065V53.5697H44.5173V53.6393H44.7276V53.709H44.9384V53.7787H45.079V53.8479H45.2897V53.9175H45.4298V53.9872H45.5703V54.0569H45.6406V54.1265H45.7811V54.1962H45.9217V54.2659H45.9919V54.3355H46.132V54.4052H46.2022V54.4749H46.3428V54.5441H46.413V54.6138H46.4833V54.6834H46.5536V54.7531H46.6238V54.8228H46.6941V54.8924H46.7643V54.9621H46.8341V55.0317H46.9044V55.1014H46.9747V55.1711H47.0449V55.2403H47.1152V55.3796H47.1855V55.4493H47.2557V55.519H47.326V55.6583H47.3963V55.728H47.4665V55.8673H47.5363V55.9365H47.6066V56.0758H47.6768V56.2152H47.7471V56.2848H47.8174V56.4242H47.8876V56.5635H47.9579V56.7024H48.0282V56.8417H48.0984V57.0507H48.1687V57.19H48.2385V57.3986H48.3087V57.5379H48.379V57.7469H48.4493V57.9559H48.5195V58.2341H48.5898V58.4431H48.6601V58.7213H48.7303V59.1393H48.8006V59.4877H48.8709V60.2531H48.9407V61.9938H48.8709V62.5507H48.8006V63.1772H48.7303V63.5256H48.6601V63.8735H48.5898V64.1521H48.5195V64.5H48.4493V64.7787H48.379V65.0569H48.3087V65.2659H48.2385V65.4749H48.1687V65.6834H48.0984V65.9621H48.0282V66.1711H47.9579V66.3796H47.8876V66.5886H47.8174V66.728H47.7471V66.9365H47.6768V67.0758H47.6066V67.2848H47.5363V67.4242H47.4665V67.6327H47.3963V67.772H47.326V67.981H47.2557V68.1204H47.1855V68.2597H47.1152V68.3986H47.0449V68.5379H46.9747V68.7469H46.9044V68.8862H46.8341V69.0251H46.7643V69.1645H46.6941V69.3038H46.6238V69.3735H46.5536V69.5128H46.4833V69.6521H46.413V69.791H46.3428V69.9303H46.2725V70H46.2022V70.1393H46.132V70.2787H46.0622V70.3479H45.9919V70.4872H45.9217V70.6265H45.8514V70.6962H45.7811V70.8355H45.7109V70.9749H45.6406V71.0441H45.5703V71.1834H45.5001V71.2531H45.4298V71.3924H45.36V71.4621H45.2897V71.6014H45.2195V71.6711H45.1492V71.81H45.079V71.8796H45.0087V72.019H44.9384V72.0886H44.8682V72.228H44.7979V72.2976H44.7276V72.3673H44.6578V72.5062H44.5876V72.5758H44.5173V72.6455H44.447V72.7848H44.3768V72.8545H44.3065V72.9242H44.2363V73.0635H44.166V73.1327H44.0957V73.272H44.0259V73.3417H43.9557V73.4114H43.8854V73.481H43.8151V73.6204H43.7449V73.69H43.6746V73.7597H43.6044V73.8289H43.5341V73.9682H43.4638V74.0379H43.3936V74.1076H43.3238V74.1772H43.2535V74.3166H43.1832V74.3862H43.113V74.4559H43.0427V74.5251H42.9724V74.5948H42.9022V74.7341H42.8319V74.8038H42.7616V74.8735H42.6914V74.9431H42.6216V75.0128H42.5513V75.1521H42.4811V75.2213H42.4108V75.291H42.3405V75.3607H42.2703V75.4303H42.2V75.5H42.1297V75.5697H42.0595V75.6393H41.9892V75.7787H41.9194V75.8479H41.8492V75.9175H41.7789V75.9872H41.7086V76.0569H41.6384V76.1265H41.5681V76.1962H41.4978V76.2659H41.4276V76.3355H41.3573V76.4749H41.287V76.5441H41.2172V76.6137H41.147V76.6834H41.0767V76.7531H41.0065V76.8227H40.9362V76.8924H40.8659V76.9621H40.7957V77.0317H40.7254V77.1014H40.6551V77.1711H40.5849V77.2403H40.5151V77.31H40.4448V77.3796H40.3746V77.4493H40.3043V77.519H40.234V77.5886H40.1638V77.6583H40.0935V77.728H40.0232V77.7976H39.953V77.8673H39.8827V77.9365H39.8129V78.0062H39.7426V78.0758H39.6724V78.1455H39.6021V78.2152H39.5319V78.2848H39.4616V78.3545H39.3913V78.4242H39.3211V78.4938H39.2508V78.5635H39.1805V78.6327H39.1107V78.7024H39.0405V78.772H38.9702V78.8417H38.8999V78.9114H38.8297V78.981H38.7594V79.0507H38.6892V79.1204H38.6189V79.19H38.5486V79.2597H38.4788V79.3289H38.4086V79.3986H38.268V79.4682H38.1978V79.5379H38.1275V79.6076H38.0573V79.6772H37.987V79.7469H37.9167V79.8166H37.8465V79.8862H37.7767V79.9559H37.7064V80.0251H37.6361V80.0948H37.4956V80.1645H37.4253V80.2341H37.3551V80.3038H37.2848V80.3735H37.2146V80.4431H37.1443V80.5128H37.0745V80.5825H37.0042V80.6521H36.8637V80.7213H36.7934V80.791H36.7232V80.8607H36.6529V80.9303H36.5826V81H36.5124V81.0697H36.4421V81.1393H36.3021V81.209H36.2318V81.2787H36.1615V81.3479H36.0913V81.4175H36.021V81.4872H35.8805V81.5569H35.8102V81.6265H35.74V81.6962H35.6702V81.7659H35.5999V81.8355H35.4594V81.9052H35.3891V81.9749H35.3188V82.0441H35.2486V82.1137H35.1783V82.1834H35.0378V82.2531H34.968V82.3227H34.8977V82.3924H34.8275V82.4621H34.6869V82.5318H34.6167V82.6014H34.5464V82.6711H34.4761V82.7403H34.3356V82.81H34.2658V82.8796H34.1955V82.9493H34.1253V83.019H33.9848V83.0886H33.9145V83.1583H33.8442V83.228H33.774V83.2976H33.6334V83.3673H33.5636V83.4365H33.4934V83.5062H33.3528V83.5758H33.2826V83.6455H33.2123V83.7152H33.0718V83.7848H33.0015V83.8545H32.9317V83.9242H32.7912V83.9938H32.7209V84.0635H32.6507V84.1327H32.5102V84.2024H32.4399V84.272H32.3696V84.3417H32.2296V84.4114H32.1593V84.481H32.089V84.5507H31.9485V84.6204H31.8782V84.69H31.7377V84.7597H31.6675V84.8289H31.5972V84.8986H31.4571V84.9682H31.3869V85.0379H31.2463V85.1076H31.1761V85.1772H31.0356V85.2469H30.9653V85.3166H30.895V85.3862H30.755V85.4559H30.6847V85.5251H30.5442V85.5948H30.4739V85.6645H30.3334V85.7341H30.2631V85.8038H30.1231V85.8735H30.0528V85.9431H29.9123V86.0128H29.842V86.0825H29.7015V86.1521H29.6312V86.2213H29.4907V86.291H29.4209V86.3607H29.2804V86.4303H29.1398V86.5H29.0696V86.5697H28.929V86.6393H28.8588V86.709H28.7187V86.7787H28.5782V86.8479H28.5079V86.9175H28.3674V86.9872H28.2971V87.0569H28.1566V87.1265H28.0165V87.1962H27.876V87.2659H27.8058V87.3355H27.6652V87.4052H27.5247V87.4749H27.4544V87.5441H27.3144V87.6137H27.1738V87.6834H27.0333V87.7531H26.9631V87.8228H26.8225V87.8924H26.6825V87.9621H26.5419V88.0318H26.4014V88.1014H26.2609V88.1711H26.1906V88.2403H26.0501V88.31H25.91V88.3796H25.7695V88.4493H25.629V88.519H25.4885V88.5886H25.3479V88.6583H25.2079V88.728H25.0673V88.7976H24.8565V88.8673H24.716V88.9365H24.576V89.0062H24.4354V89.0758H24.2949V89.1455H24.0841V89.2152H23.9436V89.2848H23.7333V89.3545H23.5927V89.4242H23.3819V89.4938H23.1716V89.5635H23.0311V89.6327H22.75V89.7024H22.5392V89.772H22.3289V89.8417H22.0479V89.9114H21.6965V89.981H21.2052V90.0507H20.503V89.981H20.2224V89.9114H20.0116V89.8417H19.8711V89.772H19.731V89.7024H19.6608V89.6327H19.5905V89.5635H19.5202V89.4938H19.45V89.3545H19.3797V89.2152H19.3094V89.0758H19.2392V88.8673H19.1689V88.1706H19.2392V87.8228H19.3094V87.6137H19.3797V87.4052H19.45V87.2659H19.5202V87.1265H19.5905V86.9872H19.6608V86.8479H19.731V86.709H19.8008V86.5697H19.8711V86.5H19.9414V86.3607H20.0116V86.2213H20.0819V86.1521H20.1521V86.0128H20.2224V85.9431H20.2927V85.8038H20.3629V85.7341H20.4332V85.5948H20.503V85.5251H20.5733V85.4559H20.6435V85.3166H20.7138V85.2469H20.7841V85.1772H20.8543V85.0379H20.9246V84.9682H20.9948V84.8986H21.0651V84.7597H21.1354V84.69H21.2052V84.6204H21.2754V84.5507H21.3457V84.481H21.416V84.3417H21.4862V84.272H21.5565V84.2024H21.6267V84.1327H21.697V84.0635H21.7673V83.9938H21.8375V83.8545H21.9073V83.7848H21.9776V83.7152H22.0479V83.6455H22.1181V83.5758H22.1884V83.5062H22.2587V83.4365H22.3289V83.3673H22.3992V83.2976H22.4694V83.228H22.5392V83.0886H22.6095V83.019H22.6798V82.9493H22.75V82.8796H22.8203V82.81H22.8906V82.7403H22.9608V82.6711H23.0311V82.6014H23.1014V82.5318H23.1716V82.4621H23.2414V82.3924H23.3117V82.3227H23.3819V82.2531H23.4522V82.1834H23.5225V82.1137H23.5927V82.0441H23.663V81.9749H23.7333V81.9052H23.8035V81.8355H23.8738V81.7659H23.9436V81.6962H24.0139V81.6265H24.0841V81.5569H24.1544V81.4872H24.2246V81.4175H24.2949V81.3479H24.3652V81.2787H24.4354V81.209H24.5057V81.1393H24.576V81.0697H24.6458V81H24.716V80.9303H24.7863V80.8607H24.8565V80.791H24.9268V80.7213H24.9971V80.6521H25.0673V80.5825H25.1376V80.5128H25.2079V80.4431H25.2781V80.3735H25.3479V80.3038H25.4182V80.2341H25.4885V80.1645H25.5587V80.0948H25.629V80.0251H25.6992V79.9559H25.7695V79.8862H25.8398V79.8166H25.91V79.7469H25.9803V79.6772H26.0501V79.6076H26.1204V79.5379H26.1906V79.4682H26.2609V79.3986H26.4014V79.3289H26.4717V79.19H26.5419V79.1204H26.6122V79.0507H26.6825V78.981H26.7523V78.9114H26.8225V78.8417H26.8928V78.772H26.9631V78.7024H27.0333V78.6327H27.1036V78.5635H27.1738V78.4938H27.2441V78.3545H27.3144V78.2848H27.3846V78.2152H27.4544V78.1455H27.5247V78.0758H27.595V78.0062H27.6652V77.8673H27.7355V77.7976H27.8058V77.728H27.876V77.5886H27.9463V77.519H28.0165V77.4493H28.0863V77.3796H28.1566V77.2403H28.2269V77.1711H28.2971V77.0317H28.3674V76.9621H28.4377V76.8227H28.5079V76.6834H28.5782V76.6137H28.6484V76.4749H28.7187V76.3355H28.7885V76.2659H28.8588V76.0569H28.929V75.8479H28.9993V75.6393H29.0696V75.5H29.1398V74.4559H29.0696V74.1772H28.9993V73.9682H28.929V73.8986H28.8588V73.7597H28.7885V73.69H28.7187V73.5507H28.6484V73.481H28.5782V73.4114H28.5079V73.3417H28.4377V73.272H28.3674V73.2024H28.2971V73.1327H28.2269V73.0635H28.1566V72.9938H28.0165V72.9242H27.9463V72.8545H27.8058V72.7848H27.7355V72.7152H27.595V72.6455H27.4544V72.5758H27.3144V72.5062H27.1738V72.4365H26.9631V72.3673H26.7523V72.2976H26.6122V72.228H26.4014V72.1583H26.0501V72.0886H25.7695V72.019H25.3479V71.9493H24.716V71.8796H24.6458V71.9493H23.3819V72.019H22.9608V72.0886H22.6095V72.1583H22.3992V72.228H22.1884V72.2976H21.9073V72.3673H21.697V72.4365H21.5565V72.5062H21.416V72.5758H21.2754V72.6455H21.0651V72.7152H20.9246V72.7848H20.7841V72.8545H20.6435V72.9242H20.503V72.9938H20.4332V73.0635H20.2927V73.1327H20.2224V73.2024H20.0819V73.272H20.0116V73.3417H19.8711V73.4114H19.8008V73.481H19.731V73.5507H19.5905V73.6204H19.5202V73.69H19.3797V73.7597H19.3094V73.8289H19.2392V73.8986H19.1689V73.9682H19.0987V74.0379H19.0289V74.1076H18.8883V74.1772H18.8181V74.2469H18.7478V74.3166H18.6775V74.3862H18.6073V74.4559H18.537V74.5251H18.4668V74.5948H18.3965V74.6645H18.3267V74.7341H18.2564V74.8038H18.1862V74.8735H18.1159V74.9431H18.0456V75.0128H17.9754V75.0825H17.9051V75.1521H17.8348V75.291H17.7646V75.3607H17.6943V75.4303H17.6245V75.5H17.5543V75.5697H17.484V75.709H17.4137V75.7787H17.3435V75.8479H17.2732V75.9175H17.2029V75.9872H17.1327V76.0569H17.0624V76.1962H16.9921V76.2659H16.9223V76.4052H16.8521V76.4749H16.7818V76.6137H16.7116V76.6834H16.6413V76.8227H16.571V76.8924H16.5008V77.0317H16.4305V77.1014H16.3602V77.2403H16.2904V77.31H16.2202V77.4493H16.1499V77.519H16.0796V77.6583H16.0094V77.728H15.9391V77.8673H15.8689V78.0062H15.7986V78.1455H15.7283V78.2848H15.6581V78.4242H15.5883V78.5635H15.518V78.7024H15.4477V78.772H15.3775V78.9114H15.3072V79.0507H15.237V79.19H15.1667V79.3289H15.0964V79.4682H15.0262V79.6076H14.9559V79.7469H14.8861V79.8862H14.8158V80.0251H14.7456V80.2341H14.6753V80.3735H14.605V80.5128H14.5348V80.7213H14.4645V80.8607H14.3943V81H14.324V81.209H14.2537V81.3479H14.1839V81.4872H14.1137V81.6962H14.0434V81.8355H13.9731V82.0441H13.9029V82.2531H13.8326V82.4621H13.7623V82.6711H13.6921V82.9493H13.6218V83.1583H13.5516V83.3673H13.4818V83.6455H13.4115V84.1327H13.3412V84.6204H13.271V85.1772H13.2007V85.2469H13.271V86.6393H13.3412V86.9175H13.4115V87.1962H13.4818V87.5445H13.5516V87.8228H13.6218V87.9621H13.6921V88.1014H13.7623V88.31H13.8326V88.4493H13.9029V88.5886H13.9731V88.728H14.0434V88.8673H14.1137V89.0062H14.1839V89.0758H14.2537V89.2152H14.324V89.2848H14.3943V89.4242H14.4645V89.4938H14.5348V89.5635H14.605V89.7024H14.6753V89.772H14.7456V89.8417H14.8158V89.981H14.9559V90.0507H15.0262V90.1204H15.0964V90.19H15.1667V90.2597H15.237V90.3289H15.3072V90.3986H15.3775V90.4682H15.4477V90.5379H15.518V90.6076H15.5883V90.6772H15.6581V90.7469H15.7986V90.8166H15.8689V90.8862H16.0094V90.9559H16.0796V91.0251H16.2202V91.0948H16.2904V91.1645H16.4305V91.2341H16.5008V91.3038H16.6413V91.3735H16.7818V91.4431H16.9223V91.5128H17.0624V91.5825H17.2732V91.6521H17.484V91.7213H17.6943V91.791H18.0456V91.8607H18.4668V91.9303H19.1694V92H20.2927V91.9303H21.1354V91.8607H21.6267V91.791H22.0479V91.7213H22.3992V91.6521H22.7505V91.5825H23.0311V91.5128H23.3117V91.4431H23.5927V91.3735H23.8035V91.3038H24.0139V91.2341H24.2949V91.1645H24.5057V91.0948H24.716V91.0251H24.9268V90.9559H25.1376V90.8862H25.2781V90.8166H25.4885V90.7469H25.6992V90.6772H25.8398V90.6076H26.0501V90.5379H26.1906V90.4682H26.4014V90.3986H26.5419V90.3289H26.7523V90.2597H26.8928V90.19H27.0333V90.1204H27.1738V90.0507H27.3846V89.981H27.5247V89.9114H27.6652V89.8417H27.8058V89.772H27.9463V89.7024H28.0863V89.6327H28.2269V89.5635H28.4377V89.4938H28.5782V89.4242H28.7187V89.3545H28.8588V89.2848H28.9993V89.2152H29.0696V89.1455H29.2101V89.0758H29.3506V89.0062H29.4907V88.9365H29.6312V88.8673H29.7717V88.7976H29.9123V88.728H30.0528V88.6583H30.1231V88.5886H30.2631V88.519H30.4036V88.4493H30.5442V88.3796H30.6847V88.31H30.755V88.2403H30.895V88.1711H31.0356V88.1014H31.1761V88.0318H31.2463V87.9621H31.3869V87.8924H31.5274V87.8228H31.5972V87.7531H31.7377V87.6834H31.8782V87.6137H31.9485V87.5441H32.089V87.4749H32.2296V87.4052H32.2994V87.3355H32.4399V87.2659H32.5102V87.1962H32.6507V87.1265H32.7912V87.0569H32.8615V86.9872H33.0015V86.9175H33.0718V86.8479H33.2123V86.7787H33.3528V86.709H33.4231V86.6393H33.5636V86.5697H33.6334V86.5H33.774V86.4303H33.8442V86.3607H33.9848V86.291H34.055V86.2213H34.1955V86.1521H34.2658V86.0825H34.4059V86.0128H34.4761V85.9431H34.6167V85.8735H34.6869V85.8038H34.8275V85.7341H34.8977V85.6645H34.968V85.5948H35.108V85.5251H35.1783V85.4559H35.3188V85.3862H35.3891V85.3166H35.5296V85.2469H35.5999V85.1772H35.74V85.1076H35.8102V85.0379H35.8805V84.9682H36.021V84.8986H36.0913V84.8289H36.1615V84.7597H36.3021V84.69H36.3723V84.6204H36.5124V84.5507H36.5826V84.481H36.6529V84.4114H36.7934V84.3417H36.8637V84.272H36.934V84.2024H37.0745V84.1327H37.1443V84.0635H37.2848V83.9938H37.3551V83.9242H37.4253V83.8545H37.5659V83.7848H37.6361V83.7152H37.7064V83.6455H37.8465V83.5758H37.9167V83.5062H37.987V83.4365H38.0573V83.3673H38.1978V83.2976H38.268V83.228H38.3383V83.1583H38.4788V83.0886H38.5486V83.019H38.6189V82.9493H38.7594V82.8796H38.8297V82.81H38.8999V82.7403H38.9702V82.6711H39.1107V82.6014H39.1805V82.5318H39.2508V82.4621H39.3913V82.3924H39.4616V82.3227H39.5319V82.2531H39.6021V82.1834H39.7426V82.1137H39.8129V82.0441H39.8827V81.9749H39.953V81.9052H40.0935V81.8355H40.1638V81.7659H40.234V81.6962H40.3043V81.6265H40.4448V81.5569H40.5151V81.4872H40.5849V81.4175H40.6551V81.3479H40.7254V81.2787H40.8659V81.209H40.9362V81.1393H41.0065V81.0697H41.0767V81H41.2172V80.9303H41.287V80.8607H41.3573V80.791H41.4276V80.7213H41.4978V80.6521H41.6384V80.5825H41.7086V80.5128H41.7789V80.4431H41.8492V80.3735H41.9194V80.3038H42.0595V80.2341H42.1297V80.1645H42.2V80.0948H42.2703V80.0251H42.3405V79.9559H42.4108V79.8862H42.5513V79.8166H42.6216V79.7469H42.6914V79.6772H42.7616V79.6076H42.8319V79.5379H42.9022V79.4682H43.0427V79.3986H43.113V79.3289H43.1832V79.2597H43.2535V79.19H43.3238V79.1204H43.3936V79.0507H43.4638V78.981H43.6044V78.9114H43.6746V78.8417H43.7449V78.772H43.8151V78.7024H43.8854V78.6327H43.9557V78.5635H44.0259V78.4938H44.0957V78.4242H44.166V78.3545H44.3065V78.2848H44.3768V78.2152H44.447V78.1455H44.5173V78.0758H44.5876V78.0062H44.6578V77.9365H44.7276V77.8673H44.7979V77.7976H44.8682V77.728H44.9384V77.6583H45.0087V77.5886H45.079V77.519H45.1492V77.4493H45.2195V77.3796H45.2897V77.31H45.36V77.2403H45.4298V77.1711H45.5001V77.1014H45.5703V77.0317H45.6406V76.9621H45.7109V76.8924H45.7811V76.8227H45.8514V76.7531H45.9217V76.6834H45.9919V76.6137H46.0622V76.5441H46.132V76.4749H46.2022V76.4052H46.2725V76.3355H46.3428V76.2659H46.413V76.1962H46.4833V76.1265H46.5536V76.0569H46.6238V75.9872H46.6941V75.9175H46.7643V75.8479H46.8341V75.709H46.9044V75.6393H46.9747V75.5697H47.0449V75.5H47.1152V75.4303H47.1855V75.3607H47.2557V75.291H47.326V75.2213H47.3963V75.1521H47.4665V75.0825H47.5363V74.9431H47.6066V74.8735H47.6768V74.8038H47.7471V74.7341H47.8174V74.6645H47.8876V74.5948H47.9579V74.4559H48.0282V74.3862H48.0984V74.3166H48.1687V74.2469H48.2385V74.1772H48.3087V74.1076H48.379V73.9682H48.4493V73.8986H48.5195V73.8289H48.5898V73.7597H48.6601V73.69H48.7303V73.5507H48.8006V73.481H48.8709V73.4114H48.9407V73.272H49.0109V73.2024H49.0812V73.1327H49.1515V73.0635H49.2217V72.9242H49.292V72.8545H49.3622V72.7848H49.4325V72.7152H49.5028V72.5758H49.573V72.5062H49.6428V72.4365H49.7131V72.2976H49.7834V72.228H49.8536V72.1583H49.9239V72.019H49.9941V71.9493H50.0644V71.8796H50.1347V71.7403H50.2049V71.6711H50.2747V71.5318H50.345V71.4621H50.4153V71.3924H50.4855V71.2531H50.5558V71.1834H50.6261V71.0441H50.6963V70.9749H50.7666V70.9052H50.8368V70.7659H50.9071V70.6962H50.9769V70.5569H51.0472V70.4872H51.1174V70.3479H51.1877V70.2787H51.258V70.1393H51.3282V70.0697H51.3985V69.9303H51.4687V69.8607H51.539V69.7213H51.6093V69.6521H51.6791V69.5128H51.7493V69.3735H51.8196V69.3038H51.8899V69.1645H51.9601V69.0948H52.0304V68.9559H52.1007V68.8166H52.1709V68.7469H52.2412V68.6076H52.3114V68.4682H52.3812V68.3986H52.4515V68.2597H52.5218V68.1204H52.592V68.0507H52.6623V67.9114H52.7326V67.772H52.8028V67.6327H52.8731V67.5635H52.9433V67.4242H53.0136V67.2848H53.0834V67.1455H53.1537V67.0062H53.2239V66.8673H53.2942V66.728H53.3645V66.6583H53.4347V66.519H53.505V66.3796H53.5753V66.2403H53.6455V66.1014H53.7158V65.9621H53.7856V65.8227H53.8558V65.6834H53.9261V65.5441H53.9964V65.4052H54.0666V65.1962H54.1369V65.0569H54.2072V64.9175H54.2774V64.7787H54.3477V64.6393H54.418V64.5H54.4878V64.3607H54.558V64.1521H54.6283V64.0128H54.6985V63.8038H54.7688V63.6645H54.8391V63.4559H54.9093V63.3166H54.9796V63.1076H55.0499V62.9682H55.1201V62.7597H55.1899V62.6204H55.2602V62.4114H55.3305V62.2024H55.4007V61.9938H55.471V61.7848H55.5412V61.5758H55.6115V61.3673H55.6818V61.1583H55.752V60.9493H55.8218V60.7403H55.8921V60.4621H55.9624V60.1834H56.0326V59.9749H56.1029V59.6962H56.1731V59.4175H56.2434V59.1393H56.3137V58.791H56.3839V58.4427H56.4542V58.0948H56.524V57.7465H56.5943V57.3294H56.6645V56.772H56.7348V56.2152H56.8051V55.31H56.8753V53.1521H56.8051V51.8289H56.7348V51.2725H56.6645V50.855H56.5943V50.437H56.524V50.0199H56.4542V49.6019H56.3839V49.2535H56.3137V49.0445H56.2434V48.836H56.1731V48.5573H56.1029V48.3483H56.0326V48.1398H55.9624V47.8611H55.8921V47.6526H55.8218V47.4436H55.752V47.2346H55.6818V47.0952H55.6115V46.9564H55.5412V46.7474H55.471V46.608H55.4007V46.4687H55.3305V46.3294H55.2602V46.1208H55.1899V45.9815H55.1201V45.8422H55.0499V45.7028H54.9796V45.564H54.9093V45.4246H54.8391V45.2853H54.7688V45.2156H54.6985V45.0763H54.6283V45.0066H54.558V44.8678H54.4878V44.7284H54.418V44.6587H54.3477V44.5194H54.2774V44.3801H54.2072V44.3104H54.1369V44.1715H54.0666V44.1019H53.9964V43.9625H53.9261V43.8929H53.8558V43.8232H53.7856V43.6839H53.7158V43.6142H53.6455V43.5445H53.5753V43.4753H53.505V43.336H53.4347V43.2663H53.3645V43.1967H53.2942V43.127H53.2239V42.9877H53.1537V42.918H53.0834V42.8483H53.0136V42.7791H52.9433V42.7095H52.8731V42.5701H52.8028V42.5H52.7326V42.4303H52.6623V42.3607H52.592V42.291H52.5218V42.2213H52.4515V42.1521H52.3114V42.0825H52.2412V42.0128H52.1709V41.9431H52.1007V41.8735H52.0304V41.8038H51.9601V41.7341H51.8899V41.6645H51.8196V41.5948H51.7493V41.5251H51.6791V41.4559H51.6093V41.3862H51.539V41.3166H51.4687V41.2469H51.3282V41.1773H51.258V41.1076H51.1877V41.0379H51.0472V40.9682H50.9769V40.8986H50.9071V40.8289H50.7666V40.7597H50.6963V40.6896H50.6261V40.6199H50.4855V40.5502H50.4153V40.4806H50.345V40.4109H50.2747V40.3412H50.1347V40.2725H49.9941V40.2028H49.9239V40.1332H49.7834V40.064H49.6428V39.9943H49.573V39.9242H49.4325V39.8545H49.3622V39.7848H49.2217V39.7152H49.0812V39.6455H49.0109V39.5758H48.8709V39.5062H48.7303V39.4365H48.5898V39.3673H48.4493V39.2976H48.3087V39.2275H48.1687V39.1578H48.0282V39.0882H47.8876V39.0185H47.7471V38.9488H47.6066V38.8792H47.4665V38.8104H47.326V38.7407H47.1152V38.6715H46.9747V38.6019H46.7643V38.5322H46.6238V38.4621H46.413V38.3924H46.2022V38.3227H46.0622V38.2531H45.8514V38.1834H45.6406V38.1138H45.4298V38.0441H45.2195V37.9749H44.9384V37.9052H44.7276V37.8355H44.5173V37.7654H44.2363V37.6957H43.9557V37.6261H43.6746V37.5564H43.3233V37.4867H43.0427V37.4175H42.6914V37.3483H42.2703V37.2787H41.8492V37.209H41.4276V37.1393H40.7957V37.0697H40.1638V37H36.7232Z" fill="#E20010"/>
</svg>
