<svg width="100" height="75" viewBox="0 0 100 75" fill="none" xmlns="http://www.w3.org/2000/svg">
<path d="M45.7522 43.8305C46.2604 42.6871 46.7686 41.5754 47.245 40.4637C47.3403 40.2731 47.4356 40.1779 47.6262 40.1779C48.3567 40.1779 49.119 40.1779 49.8496 40.2414C50.326 40.2731 50.453 40.6543 50.2942 41.0672C50.0084 41.766 49.7543 42.4648 49.4049 43.1635C49.119 43.7035 48.5473 43.8305 47.9756 43.8623C47.245 43.8941 46.5463 43.8623 45.7522 43.8305Z" fill="#FCFCFC"/>
<path d="M26.4725 43.5766C26.9807 42.4014 27.4572 41.3215 27.9336 40.2416C28.0289 40.0192 28.2195 39.9557 28.4418 39.9557C29.0771 39.9557 29.7441 39.9557 30.3793 39.9875C30.8875 40.0192 31.1416 40.3051 30.9828 40.7815C30.6969 41.5121 30.4111 42.2426 30.0617 42.9731C29.8076 43.4813 29.2359 43.6084 28.6959 43.6084C27.9971 43.6401 27.3301 43.6084 26.4725 43.5766Z" fill="#FCFCFC"/>
<path d="M62.5231 40.4004C62.0466 41.5756 61.602 42.6873 61.1255 43.799C61.062 43.9578 60.9349 44.0849 60.7126 44.0531C59.9821 44.0213 59.2515 44.0531 58.521 44.0213C57.9175 43.9896 57.8857 43.5449 58.0128 43.1638C58.2986 42.4332 58.6163 41.7027 59.0292 41.0357C59.3151 40.5275 59.8868 40.4004 60.4903 40.3687C61.1573 40.3687 61.7925 40.3687 62.5231 40.4004Z" fill="#FCFCFC"/>
<path d="M14.9426 43.4498C12.9415 43.418 12.878 43.3227 13.6721 41.6075C14.4344 39.9876 15.5143 39.4477 17.3248 39.8288C17.7377 39.9241 17.7059 40.0829 17.5789 40.3688C17.1977 41.2899 16.8166 42.1793 16.4354 43.1004C16.086 43.8309 15.3555 43.2909 14.9426 43.4498Z" fill="#FCFCFC"/>
<path d="M65.7944 18.0713C63.3487 18.8019 61.2841 20.1041 59.696 21.9781C56.7104 25.4402 58.6161 30.2999 63.1899 31.1257C66.2073 31.6657 68.8754 30.9034 71.3846 29.2835C71.6387 29.1247 71.9563 28.6482 72.2422 28.9659C72.5281 29.2517 72.0199 29.5376 71.7975 29.7599C68.9389 32.9679 65.2227 34.7466 60.9348 35.4454C58.6161 35.8266 56.3292 35.6995 54.0105 35.096C49.6908 33.9843 47.7216 29.887 49.7861 26.012C51.6601 22.4863 54.8364 20.4218 58.5843 19.0877C60.903 18.2619 63.3169 17.8172 65.7944 18.0713Z" fill="#252552"/>
<path d="M65.0004 29.5057C64.111 29.5057 63.2852 29.3787 62.4912 29.0293C60.3948 28.1082 59.6325 26.1707 60.5854 24.1379C62.2053 20.6758 67.5096 18.5159 71.1623 19.977C73.3857 20.8664 74.3703 22.8356 72.941 25.2496C71.2576 28.1717 68.399 29.3469 65.0004 29.5057Z" fill="#E41F21"/>
<path d="M45.4346 40.2732C46.1333 39.6697 45.7839 38.8439 46.2604 38.2087C46.451 37.9546 46.6098 37.8275 46.8956 37.8275C49.9448 37.8593 52.9623 37.891 56.0115 37.9546C56.3291 37.9546 56.6467 38.0499 56.9643 38.1451C58.2983 38.5263 58.6477 39.1933 58.1395 40.432C57.5361 41.8931 57.0279 43.4177 56.202 44.7835C55.4397 46.054 54.0422 46.6892 52.4541 46.6892C51.2471 46.6892 50.0401 46.6892 48.8331 46.6575C48.3567 46.6575 48.1661 46.7845 47.9755 47.1974C47.6262 48.055 47.245 48.8809 46.8321 49.7384C46.6733 50.0561 46.5145 50.0878 46.2604 50.0878C45.3393 50.0878 44.4182 50.0561 43.5288 50.0561C43.1477 50.0561 43.0206 49.9925 43.1794 49.5796C43.7511 47.8327 44.6723 46.2128 45.371 44.5294C45.7839 43.5448 46.2286 42.5601 46.6415 41.5755C47.0862 40.5591 47.0227 40.4638 45.911 40.3685C45.8157 40.3367 45.6887 40.305 45.4346 40.2732ZM49.3731 44.0847C50.1672 44.0847 50.8659 44.1165 51.5965 44.1165C52.1682 44.0847 52.7399 43.9894 53.0258 43.4177C53.3434 42.7507 53.6293 42.0202 53.9151 41.3214C54.0739 40.9085 53.9787 40.5591 53.4705 40.4956C52.7399 40.432 52.0094 40.4638 51.2471 40.432C51.0565 40.432 50.9612 40.5273 50.8659 40.7179C50.3895 41.8296 49.8813 42.9413 49.3731 44.0847Z" fill="#252552"/>
<path d="M31.4908 46.4035C30.5697 46.4988 29.585 46.0859 28.9815 46.5624C28.4416 46.9753 28.2192 47.8646 27.9969 48.5952C27.711 49.548 27.1711 49.9927 26.0911 49.8021C25.5512 49.7068 24.9795 49.7386 24.4077 49.7704C23.7407 49.8021 23.7407 49.4845 23.9313 49.0398C24.9159 46.8165 25.8688 44.5931 26.8852 42.3697C27.1393 41.8297 27.1711 41.258 27.5205 40.7498C27.7746 40.3369 27.2664 40.1463 26.8534 40.1463C26.3452 40.1146 26.1229 40.1146 26.377 39.4793C27.0758 37.6053 27.044 37.5736 29.0451 37.6053C31.5861 37.6371 34.1271 37.6689 36.6681 37.7006C36.8269 37.7006 36.9539 37.7006 37.1127 37.7324C39.0502 38.05 39.622 39.257 38.5103 40.9086C38.0021 41.6709 37.7162 42.5285 37.4303 43.3861C36.7951 45.2601 35.3658 46.4035 33.2695 46.4353C32.6342 46.4353 31.999 46.4035 31.4908 46.4035ZM30.0615 43.8308C30.919 43.8308 31.5861 43.8625 32.2848 43.8625C32.8248 43.8308 33.3965 43.7355 33.6506 43.2273C34 42.5285 34.2859 41.798 34.5717 41.0357C34.7623 40.5592 34.5082 40.2734 33.9682 40.2416C33.333 40.2099 32.666 40.2099 32.0307 40.2099C31.8084 40.2099 31.6178 40.2734 31.5225 40.4957C31.0779 41.5756 30.6014 42.6556 30.0615 43.8308Z" fill="#E41F21"/>
<path d="M81.8028 37.9865C80.5005 38.8441 80.5005 38.9711 81.5487 40.0193C82.8827 41.3533 82.7239 41.9568 81.2311 43.1638C80.2782 43.9261 79.1347 44.3707 78.1183 44.9742C77.769 45.1966 77.6101 45.3236 77.8642 45.7365C78.3407 46.4988 78.0866 47.1976 77.4513 47.7693C75.2597 49.6433 72.7505 50.5009 69.7966 50.088C69.4472 50.0245 69.3837 49.9292 69.5425 49.6751C69.7966 49.1351 70.0824 48.6269 70.1777 48.0234C70.2412 47.7058 70.4636 47.5152 70.8447 47.547C71.4482 47.5787 72.0199 47.5787 72.6234 47.5787C73.0046 47.5787 73.4175 47.5152 73.5763 47.1023C73.7351 46.7212 73.481 46.4671 73.2269 46.213C72.4329 45.4189 71.607 44.6566 70.8447 43.8625C69.7648 42.7509 69.9554 41.4804 71.3212 40.6863C74.021 39.1299 76.8161 37.7959 79.5794 36.3666C79.8653 36.2078 80.0876 36.176 80.3417 36.4301C80.7864 36.9701 81.2946 37.4783 81.8028 37.9865ZM76.8478 40.2099C76.4349 40.2099 76.1491 40.3051 75.2279 40.7816C73.354 41.798 73.2904 42.0521 74.7833 43.4814C74.815 43.5131 74.815 43.5132 74.8468 43.5449C75.0374 43.799 75.2279 43.8308 75.5138 43.672C76.3396 43.1955 77.1972 42.7509 78.0548 42.2744C78.3407 42.1156 78.5948 41.8933 78.5312 41.5439C78.4677 41.131 77.356 40.2416 76.8478 40.2099Z" fill="#252552"/>
<path d="M63.8888 46.8164C62.4595 46.7846 61.0619 46.7846 59.6326 46.7529C57.4728 46.6893 56.774 45.5777 57.6634 43.7037C58.1716 42.6555 58.6798 41.6074 59.0291 40.5274C59.4103 39.4157 60.3314 38.9711 61.2843 38.5264C62.3007 38.0817 63.3806 37.9547 64.4923 37.9864C66.4616 38.0182 68.4626 38.0817 70.4319 38.1135C71.0671 38.1135 71.0036 38.3041 70.813 38.7487C70.146 40.178 69.5108 41.6391 68.9073 43.1002C68.5261 43.9895 68.5896 44.1483 69.5743 44.3389C69.9872 44.4342 70.0507 44.5613 69.8919 44.8789C69.8919 44.9106 69.8601 44.9424 69.8601 44.9424C69.0978 46.9117 69.0978 46.9117 66.938 46.8799C65.8898 46.8799 64.9052 46.8482 63.8888 46.8164ZM66.1439 40.6227C65.4134 40.6227 64.7464 40.5909 64.1111 40.5909C63.5394 40.5909 62.9359 40.7498 62.6501 41.258C62.2371 41.925 61.9195 42.6555 61.6337 43.3861C61.4748 43.7672 61.5384 44.2119 62.1419 44.2436C62.8724 44.2754 63.6029 44.2754 64.3335 44.2754C64.5558 44.2754 64.6511 44.1801 64.7464 44.0213C65.2228 42.9096 65.6675 41.7979 66.1439 40.6227Z" fill="#252552"/>
<path d="M19.0717 46.2445C17.6107 46.2128 16.1814 46.2128 14.7203 46.181C12.7828 46.1175 12.1475 45.2281 12.7828 43.4812C13.2592 42.1789 13.7992 40.9084 14.4662 39.6697C15.2602 38.1451 16.7531 37.6052 18.4047 37.4781C20.8187 37.2875 23.2326 37.5416 25.6783 37.5416C26.2183 37.5416 26.2183 37.764 25.996 38.2722C25.2654 39.8285 24.6302 41.4166 23.9632 42.973C23.7091 43.5447 24.1855 43.6718 24.5984 43.7035C25.2337 43.7671 25.2654 43.9894 25.0113 44.4976C24.1855 46.3081 24.2173 46.3081 22.1527 46.3081C21.6127 46.3081 21.1045 46.2763 20.5646 46.2763C20.0881 46.2445 19.5799 46.2445 19.0717 46.2445ZM18.5635 43.7035C18.9764 43.513 19.707 44.0847 20.0246 43.3224C20.4375 42.433 20.7869 41.5119 21.1681 40.5908C21.2951 40.3367 21.3269 40.1462 20.914 40.0509C19.1035 39.6697 18.0236 40.2097 17.2613 41.8296C16.4672 43.5447 16.5625 43.6718 18.5635 43.7035Z" fill="#E41F21"/>
<path d="M87.4564 47.4836C86.5352 47.4836 85.8682 47.2612 85.2965 46.753C84.4389 45.9907 83.5813 45.2284 82.819 44.3709C81.9297 43.3545 82.2156 42.4016 83.3908 41.6393C85.3283 40.4323 87.3928 39.4794 89.4574 38.5266C91.2361 37.7007 92.6336 37.9548 94.063 39.2253C94.73 39.8606 95.4287 40.4641 96.064 41.1311C96.9216 41.9887 96.858 42.8145 95.9687 43.6086C95.2699 44.2438 94.4123 44.625 93.5865 45.0379C91.9349 45.8955 90.315 46.8483 88.4728 47.3565C88.0598 47.4518 87.6787 47.4518 87.4564 47.4836ZM88.7586 44.5297C89.9021 44.2438 90.9502 43.5768 92.0619 42.9733C92.189 42.9098 92.189 42.751 92.1572 42.5922C91.9666 41.7028 90.3467 40.8135 89.5209 41.1628C88.7269 41.4805 87.9963 41.9251 87.2658 42.3063C86.9799 42.4651 86.7893 42.6874 86.8211 42.9733C86.7893 43.418 88.1551 44.4979 88.7586 44.5297Z" fill="#252552"/>
<path d="M3 46.0543C3.5082 44.8791 3.95288 43.7674 4.42931 42.6875C5.12809 41.0676 5.85862 39.4795 6.5574 37.8913C6.74797 37.4784 6.90678 37.2878 7.44675 37.2878C9.57483 37.3514 11.7029 37.3831 13.831 37.3831C14.4345 37.3831 14.498 37.5419 14.2757 38.0501C13.4181 39.9241 13.4181 39.9559 11.2582 39.9241C9.76541 39.9241 9.41602 40.1465 8.8443 41.417C8.24081 42.751 7.66908 44.1168 7.12912 45.4826C6.93855 45.959 6.68445 46.1496 6.17625 46.1178C5.12809 46.0543 4.11169 46.0543 3 46.0543Z" fill="#E41F21"/>
<path d="M43.1797 37.7957C43.6562 37.7957 44.1326 37.7957 44.6091 37.8275C45.149 37.8592 45.149 38.1133 44.9267 38.4627C44.0373 39.892 43.4974 41.4801 42.7986 43.0047C42.5127 43.64 42.7668 43.9258 43.3703 43.9894C43.942 44.0529 43.942 44.2117 43.7515 44.6882C42.9256 46.7209 42.9574 46.721 40.7023 46.5621C38.606 46.4033 37.9389 45.4187 38.733 43.6082C39.4318 41.9883 40.2258 40.3685 40.8611 38.7168C41.1469 37.9545 41.5916 37.6686 42.4174 37.7957C42.6398 37.7957 42.9256 37.7639 43.1797 37.7957Z" fill="#E41F21"/>
<path d="M44.2276 34.2702C44.4817 34.2702 44.6405 34.2067 44.7676 34.2385C45.244 34.3973 45.8475 34.3655 46.0063 34.969C46.1333 35.509 45.8475 35.9537 45.4028 36.2713C44.704 36.7477 44.0053 37.1606 43.0841 37.0653C42.5124 37.0018 41.9407 36.8748 41.7501 36.2713C41.5278 35.6043 41.9407 35.0643 42.4489 34.7784C42.9888 34.4608 43.5923 34.0161 44.2276 34.2702Z" fill="#E41F21"/>
</svg>
