<svg width="100" height="75" viewBox="0 0 100 75" fill="none" xmlns="http://www.w3.org/2000/svg">
<path d="M20.7 37V39.1H22.9V37H20.7ZM14.7 26.7H20.6V29.9C20.8 31 21.9 31.9 23 33.1C25 35.3 27.1 37.7 27.1 37.7C27.1 37.7 25.7 39.3 24 41.2C23.2 42.2 22.4 43 21.7 43.7C21.1 44.4 20.6 45 20.6 45.6V48.7H14.7V26.7Z" fill="#B1B1B1"/>
<path d="M37.6 26V49.5H14V26H37.6ZM37 26.7H14.7V48.9H36.9V26.7H37Z" fill="#1D1D1B"/>
<path d="M37 26.7V48.9H20.6L29.6 38.7C29.9 38.3 30.1 38 30.1 37.7C30.1 37.4 29.9 37.2 29.8 37C29.7 36.9 29.5 36.6 29.5 36.6L20.7 26.6H37V26.7Z" fill="#FFDE00"/>
<path d="M20.7 37H22.9V39H20.7V37Z" fill="#1D1D1B"/>
<path d="M27.2 37.8H30.1C27.2 37.8 27.2 37.8 27.2 37.8ZM30.1 37.8C30.1 38.2 29.9 38.4 29.7 38.6C29.5 38.8 20.6 48.9 20.6 48.9V46C20.6 45.2 21 44.6 21.4 44.2C21.8 43.8 27.1 37.8 27.1 37.8C27.1 37.8 21.7 31.8 21.4 31.4C21 31 20.6 30.4 20.6 29.6V26.7C20.6 26.7 29.5 36.8 29.7 37C29.9 37.1 30.1 37.4 30.1 37.8Z" fill="#1D1D1B"/>
<path d="M83.5 31.7C81.8 31.5 81.4 32.2 81.5 33.1H83.5V31.7ZM84.8 30.6V34.1C84.8 36.3 81.6 36.6 79.4 36.1V35.2C79.9 35.3 83.6 35.7 83.6 34H80.6C80.6 34 79.7 30.7 82.9 30.6C83.4 30.6 84.2 30.6 84.8 30.6Z" fill="#1D1D1B"/>
<path d="M77.4 27.3H78.8V28.5H77.4V27.3Z" fill="#1D1D1B"/>
<path d="M77.4 27.3H78.8V28.5H77.4V27.3Z" fill="#1D1D1B"/>
<path d="M78.1 30.4C76.4 30.2 76 30.8 76.1 31.6H78.1V30.4ZM79.4 33.2C79.4 33.8 79.1 34.1 78.4 34.1H69.6C69 34.1 68.6 33.7 68.6 33.2V27.4H70V33.1H78.1V32.5H75.1C75.1 32.5 74.2 29.3 77.4 29.3H79.4V33.2Z" fill="#1D1D1B"/>
<path d="M50.3 27.5H51.6V28.6H50.3V27.5Z" fill="#1D1D1B"/>
<path d="M51.2 28.9H52.6V30.1H51.2V28.9Z" fill="#1D1D1B"/>
<path d="M49.3 28.9H50.7001V30.1H49.3V28.9Z" fill="#1D1D1B"/>
<path d="M58.3 31.6C60.7 30.6 65.7 30.8 65.7 33.1V33.2H56.9V27.5H55.5V33.3C55.5 33.9 55.8 34.2 56.5 34.2H67V33.7C67 30.5 64.5 29.8 61.8 30.1L67.7 27.5H65.5L58.2 30.5V31.6H58.3Z" fill="#1D1D1B"/>
<path d="M41.3 32.4V33.9C41.3 34.6 42.1 34.9 42.9 34.9H46C47.3 34.9 47.6 34.6 47.6 33.6V31.3V30.9H49V33H50.4V30.9H51.8V33H53.2V30.9H54.6V33C54.6 33.6 54.3 34 53.7 34H49.1C49.1 35.5 48.1 36 46.2 36H42.8C41.5 36 39.9 35.6 39.9 33.9V32.4H41.3Z" fill="#1D1D1B"/>
<path d="M41.3 32.4V33.9C41.3 34.6 42.1 34.9 42.9 34.9H46C47.3 34.9 47.6 34.6 47.6 33.6V31.3V30.9H49V33H50.4V30.9H51.8V33H53.2V30.9H54.6V33C54.6 33.6 54.3 34 53.7 34H49.1C49.1 35.5 48.1 36 46.2 36H42.8C41.5 36 39.9 35.6 39.9 33.9V32.4H41.3Z" fill="#1D1D1B"/>
<path d="M56.2 44.2C56.2 44.7 56 45 55.6 45.3C55.2 45.6 54.7 45.8 54.2 45.8C53.6 45.8 53.1 45.6 52.7 45.3C52.3 45 52.1 44.6 52.1 44.2C52.1 43.7 52.3 43.4 52.6 43.1C53 42.8 53.4 42.7 54 42.7H55C55 42.1 54.7 41.8 54.1 41.8C53.8 41.8 53.3 41.9 52.6 42L52.3 41.1C53 40.9 53.6 40.8 54.1 40.8C54.7 40.8 55.2 41 55.6 41.3C56 41.6 56.2 42.1 56.2 42.6V44.2ZM55 44.2V43.4H54C53.5 43.4 53.2 43.7 53.2 44.2C53.2 44.4 53.3 44.5 53.4 44.7C53.6 44.9 53.8 44.9 54.1 44.9C54.4 44.9 54.6 44.8 54.7 44.7C54.9 44.5 55 44.3 55 44.2Z" fill="#1D1D1B"/>
<path d="M60.5 39.2L60.3 40.1C60 40 59.8 40 59.6 40C59.4 40 59.3 40 59.2 40.1C59.1 40.2 59 40.3 59 40.5V40.8H60.3L60.2 41.6H59V45.6H57.8V41.6H57.1V40.8H57.8V40.6C57.8 40.1 58 39.8 58.4 39.5C58.7 39.3 59.1 39.1 59.6 39.1C59.8 39.1 60.1 39.1 60.5 39.2Z" fill="#1D1D1B"/>
<path d="M64.9 44.2C64.9 44.7 64.7 45 64.3 45.3C63.9 45.6 63.4 45.8 62.9 45.8C62.3 45.8 61.8 45.6 61.4 45.3C61 45 60.8 44.6 60.8 44.2C60.8 43.7 61 43.4 61.3 43.1C61.7 42.8 62.1 42.7 62.7 42.7H63.7C63.7 42.1 63.4 41.8 62.8 41.8C62.5 41.8 62 41.9 61.3 42L61 41.1C61.7 40.9 62.3 40.8 62.8 40.8C63.4 40.8 63.9 41 64.3 41.3C64.7 41.6 64.9 42.1 64.9 42.6V44.2ZM63.7 44.2V43.4H62.7C62.2 43.4 61.9 43.7 61.9 44.2C61.9 44.4 62 44.5 62.1 44.7C62.3 44.9 62.5 44.9 62.8 44.9C63.1 44.9 63.3 44.8 63.4 44.7C63.6 44.5 63.7 44.3 63.7 44.2Z" fill="#1D1D1B"/>
<path d="M69.8 45.6C69.2 45.7 68.7 45.8 68.1 45.8C67.5 45.8 66.9 45.6 66.5 45.3C66.1 45 65.9 44.5 65.9 43.9V42.7C65.9 42.1 66.1 41.6 66.5 41.3C66.9 41 67.4 40.8 68.1 40.8C68.6 40.8 69.2 40.9 69.7 41L69.5 41.9C69 41.8 68.5 41.7 68.1 41.7C67.4 41.7 67.1 42 67.1 42.7V43.9C67.1 44.6 67.4 44.9 68.1 44.9C68.5 44.9 69 44.8 69.5 44.7L69.8 45.6Z" fill="#1D1D1B"/>
<path d="M74.9 44.2C74.9 44.7 74.7 45 74.3 45.3C73.9 45.6 73.4 45.8 72.9 45.8C72.3 45.8 71.8 45.6 71.4 45.3C71 45 70.8 44.6 70.8 44.2C70.8 43.7 71 43.4 71.3 43.1C71.7 42.8 72.1 42.7 72.7 42.7H73.7C73.7 42.1 73.4 41.8 72.8 41.8C72.5 41.8 72 41.9 71.3 42L71 41.1C71.7 40.9 72.3 40.8 72.8 40.8C73.4 40.8 73.9 41 74.3 41.3C74.7 41.6 74.9 42.1 74.9 42.6V44.2ZM73.7 44.2V43.4H72.7C72.2 43.4 71.9 43.7 71.9 44.2C71.9 44.4 72 44.5 72.1 44.7C72.3 44.9 72.5 44.9 72.8 44.9C73.1 44.9 73.3 44.8 73.4 44.7C73.6 44.5 73.7 44.3 73.7 44.2Z" fill="#1D1D1B"/>
<path d="M79.6 44.3C79.6 44.7 79.4 45 79.1 45.3C78.7 45.6 78.2 45.7 77.6 45.7C77.1 45.7 76.5 45.6 75.9 45.4L76.1 44.5C76.8 44.7 77.3 44.7 77.6 44.7C77.9 44.7 78.1 44.6 78.3 44.5C78.4 44.4 78.5 44.3 78.5 44.2C78.5 43.9 78.3 43.8 77.9 43.6C77.2 43.4 76.8 43.2 76.6 43.1C76.2 42.9 76 42.5 76 42C76 41.6 76.2 41.3 76.5 41C76.8 40.7 77.3 40.6 77.8 40.6C78.3 40.6 78.8 40.7 79.4 40.8L79.2 41.7C78.6 41.6 78.2 41.5 77.8 41.5C77.3 41.5 77.1 41.6 77.1 41.9C77.1 42 77.1 42.1 77.2 42.2C77.3 42.3 77.4 42.3 77.6 42.4C78.3 42.6 78.8 42.8 78.9 42.9C79.4 43.4 79.6 43.8 79.6 44.3Z" fill="#1D1D1B"/>
<path d="M84.9999 45.7H83.7999V42.7C83.7999 42.1 83.4999 41.8 82.8999 41.8C82.5999 41.8 82.1999 41.9 81.8999 42V45.8H80.7V39.3H81.8999V41.1C82.2999 41 82.5999 40.9 82.8999 40.9C83.4999 40.9 83.9999 41.1 84.3999 41.4C84.7999 41.7 84.9999 42.2 84.9999 42.8V45.7Z" fill="#1D1D1B"/>
<path d="M50.8 39L49.5 42.4V42.5C49.3 43.1 49 43.8 48.8 44.3C48.6 43.7 48.4 43 48.2 42.3L47 38.9H45.5L44.1 42.3C43.8 43 43.6 43.7 43.4 44.3C43.2 43.7 43 43.1 42.8 42.3L41.6 38.9H40L42.6 45.7V45.8H44.1L45.5 42.3C45.8 41.6 46 41 46.2 40.5C46.3 41.1 46.5 41.7 46.8 42.3L48.1 45.8H49.6L52.5 38.9H50.8V39Z" fill="#1D1D1B"/>
</svg>
