<svg width="100" height="75" viewBox="0 0 100 75" fill="none" xmlns="http://www.w3.org/2000/svg">
<path d="M32.3542 20.5001H31.3625L43.0875 8.7751C46.9084 4.96885 53.0917 4.96885 56.9126 8.7751L68.6375 20.5001H67.6459C65.3125 20.5001 63.1105 21.4043 61.4625 23.0668L51.5459 32.9397C50.6855 33.8001 49.3146 33.8001 48.4542 32.9397L38.5375 23.0668C36.8896 21.4043 34.6875 20.5001 32.3542 20.5001Z" fill="#4DB6AC"/>
<path d="M67.6459 55.4999H68.6375L56.9126 67.2249C53.0917 71.0312 46.9084 71.0312 43.0875 67.2249L31.3625 55.4999H32.3542C34.6875 55.4999 36.8896 54.5958 38.5375 52.9333L48.4542 43.0604C49.3146 42.1999 50.6855 42.1999 51.5459 43.0604L61.4625 52.9333C63.1105 54.5958 65.3125 55.4999 67.6459 55.4999Z" fill="#4DB6AC"/>
<path d="M79.225 44.9126L71.5541 52.5834H67.6458C66.0854 52.5834 64.6271 51.9709 63.5187 50.8772L53.6021 40.9897C51.6187 39.0063 48.3812 39.0063 46.3979 40.9897L36.4812 50.8772C35.3729 51.9709 33.9146 52.5834 32.3541 52.5834H28.4458L20.775 44.9126C16.9687 41.0917 16.9687 34.9084 20.775 31.0876L28.4458 23.4167H32.3541C33.9146 23.4167 35.3729 24.0292 36.4812 25.123L46.3979 35.0105C47.3896 36.0022 48.7021 36.498 50 36.498C51.2979 36.498 52.6104 36.0022 53.6021 35.0105L63.5187 25.123C64.6271 24.0292 66.0854 23.4167 67.6458 23.4167H71.5541L79.225 31.0876C83.0312 34.9084 83.0312 41.0917 79.225 44.9126Z" fill="#4DB6AC"/>
</svg>
