<svg width="100" height="75" viewBox="0 0 100 75" fill="none" xmlns="http://www.w3.org/2000/svg">
<path d="M76.6551 26C77.1041 26.2509 77.6191 26.2245 78.1077 26.3433C83.2973 27.6638 86.7967 31.8631 87.2853 37.3696C87.8135 43.3383 84.05 48.7392 78.3058 50.2842C69.7489 52.5687 61.7334 45.4511 62.9747 36.6961C63.7934 30.9783 67.7285 26.9772 73.3671 26.1188C73.4463 26.1056 73.5123 26.0396 73.5916 26C74.6084 26 75.6384 26 76.6551 26Z" fill="#4B378C"/>
<path d="M25.5514 26C26.04 26.2377 26.5814 26.2113 27.0832 26.3301C32.5765 27.6903 36.3135 32.5101 36.3532 38.3072C36.3928 44.2363 32.4576 49.1618 26.6738 50.4294C19.7543 51.9612 13.0065 47.2734 12.0293 40.2615C11.9765 39.8654 11.9369 39.4824 11.8841 39.0863C11.7917 38.6241 11.8709 38.1487 11.8445 37.6733C11.7256 32.4969 15.5815 27.6638 20.6655 26.2641C21.3125 26.0792 21.986 26.1453 22.6463 26C23.597 26 24.5742 26 25.5514 26Z" fill="#4B378C"/>
<path d="M44.778 30.6086C46.6663 35.0852 48.5283 39.4825 50.443 43.9986C52.2785 39.4957 54.0612 35.0984 55.8967 30.6086C55.2233 30.6086 54.629 30.5954 54.048 30.6086C53.6783 30.6218 53.5066 30.5558 53.5198 30.12C53.5462 29.1297 53.5462 28.1261 53.5198 27.1225C53.5066 26.7659 53.6122 26.6471 53.982 26.6471C56.2533 26.6603 58.5245 26.6603 60.7958 26.6471C61.1523 26.6471 61.2844 26.7395 61.2844 27.1225C61.2844 28.1393 61.2052 29.1164 60.7826 30.0936C57.9039 36.7226 55.0912 43.3648 52.2785 50.0201C52.0672 50.5219 51.8163 50.7068 51.2617 50.6936C49.3206 50.654 48.0529 49.69 47.3002 47.9469C44.8969 42.4008 42.4803 36.8678 40.0902 31.3217C39.8525 30.7671 39.5752 30.569 38.9678 30.5954C37.3699 30.6482 37.3567 30.6086 37.3832 28.9844C37.3964 28.2317 37.053 27.2149 37.5284 26.7923C37.951 26.4226 38.9414 26.6735 39.6808 26.6735C41.9785 26.6735 44.2762 26.6867 46.5739 26.6603C47.0229 26.6603 47.1813 26.7791 47.1549 27.2413C47.1153 28.1921 47.1153 29.1429 47.1549 30.0936C47.1681 30.5426 46.9965 30.6482 46.6003 30.6218C46.0325 30.5822 45.4515 30.6086 44.778 30.6086Z" fill="#4B378C"/>
<path d="M67.4116 38.6372C67.4248 34.5172 69.564 31.348 72.8521 30.3444C77.3418 28.9578 81.924 31.929 82.6503 36.7092C83.0596 39.4559 82.5842 42.0045 80.7223 44.1305C78.768 46.3754 76.2458 47.1413 73.3671 46.481C70.4091 45.7944 68.6396 43.8004 67.7681 40.9613C67.4908 40.1029 67.3984 39.2182 67.4116 38.6372Z" fill="white"/>
<path d="M16.4134 38.3996C16.4795 35.6265 17.3642 33.2892 19.543 31.5725C22.9236 28.9051 27.9415 29.6842 30.292 33.3288C32.352 36.5113 32.3652 39.8653 30.4637 43.127C28.8791 45.8341 25.8155 47.1414 22.7783 46.5867C19.7411 46.0321 17.3246 43.6288 16.6511 40.486C16.4927 39.7729 16.4531 39.0466 16.4134 38.3996Z" fill="white"/>
</svg>
