<svg width="100" height="75" viewBox="0 0 100 75" fill="none" xmlns="http://www.w3.org/2000/svg">
<path d="M91.4182 53.5745C89.9452 55.6787 87.4728 56.31 85.1319 56.31C81.1076 56.31 77.7935 54.2321 77.7935 50.9838C77.7935 47.8801 81.1208 45.6707 85.2502 45.6707C87.1572 45.6707 89.0378 46.0258 90.4844 47.3146L90.6028 47.4198C90.6685 47.4724 90.7343 47.5513 90.8 47.6171C90.879 47.7091 90.9579 47.7749 90.9579 47.7749C90.7869 47.959 90.6159 48.0642 90.4581 48.1036C90.2872 48.1562 90.1162 48.1431 89.9847 48.1036C89.7085 48.0116 89.5244 47.8143 89.5244 47.8143C88.5117 46.828 87.2361 46.4729 85.842 46.4729C82.8699 46.4729 80.9498 48.1694 80.9498 51.0364C80.9498 53.5614 82.449 55.0475 84.9741 55.2974C85.2108 55.3368 85.4738 55.3631 85.7631 55.3631C86.1971 55.3631 86.6443 55.3105 87.0651 55.2184C87.6306 55.1132 88.1698 54.9291 88.6696 54.6529C89.406 54.2716 90.0504 53.7718 90.4844 53.1669L91.4182 53.5745ZM15.3384 56.31C11.3141 56.31 8 54.2321 8 50.9838C8 47.8801 11.3273 45.6707 15.4567 45.6707C17.3637 45.6707 19.2311 46.0258 20.6909 47.3146L20.8093 47.4198C20.875 47.4724 20.9408 47.5513 21.0065 47.6171C21.0855 47.7091 21.1512 47.7749 21.1512 47.7749C20.9802 47.959 20.8093 48.0642 20.6515 48.1036C20.4805 48.1562 20.3095 48.1431 20.178 48.1036C19.9018 48.0116 19.7177 47.8143 19.7177 47.8143C18.7051 46.828 17.4294 46.4729 16.0354 46.4729C13.0632 46.4729 11.1431 48.1694 11.1431 51.0364C11.1431 53.5614 12.6424 55.0475 15.1674 55.2974C15.4041 55.3368 15.6672 55.3631 15.9565 55.3631C16.3905 55.3631 16.8376 55.3105 17.2585 55.2184C17.824 55.1132 18.3632 54.9291 18.8629 54.6529C19.5994 54.2716 20.2438 53.7718 20.6778 53.1669L21.6378 53.5614C20.1649 55.6787 17.6924 56.31 15.3384 56.31ZM47.4536 48.8927C47.4536 50.5629 45.7834 52.0096 43.4425 52.0096H40.0495V51.5624C40.0495 51.3125 40.2599 51.1153 40.4967 51.1153H40.786H42.0485C43.3899 51.1153 44.4815 50.1289 44.4815 48.9322C44.4815 47.7354 43.3899 46.7622 42.0485 46.7622H39.6155V56.1522H36.6696V45.8679H39.4972H43.4425C45.7834 45.8548 47.4536 47.2225 47.4536 48.8927ZM67.2068 45.8548H76.1364V46.7622H70.1526V50.2078H75.7419V51.1021H70.1526V55.2448H76.1364V56.139H67.2068V45.8548ZM31.7642 56.139L29.8442 52.917H25.8725L26.267 52.22C26.3459 52.1016 26.4906 52.0227 26.6353 52.0227H29.305L27.6085 49.182L23.5053 56.139H21.9929L28.3186 45.5786L34.9074 56.139H31.7642ZM64.0505 45.8548H65.2867V46.7491H61.3413V56.139H58.4218V46.7491H54.4632V45.8416L64.0505 45.8548ZM49.5973 56.1127H52.5563V45.8416H49.5973V56.1127Z" fill="#3B3532"/>
<mask id="mask0_21_2357" style="mask-type:luminance" maskUnits="userSpaceOnUse" x="44" y="19" width="24" height="19">
<path d="M44.6524 24.4972V24.1421C44.6524 26.1017 46.2569 27.693 48.2164 27.693H55.0682C57.5274 27.693 59.5264 29.8366 59.5264 32.2827V32.6378C59.5264 30.1785 57.5143 28.048 55.0682 28.048H48.2164C46.2569 28.048 44.6524 26.4567 44.6524 24.4972ZM44.6524 19V24.4972C44.6524 26.4567 46.2569 28.048 48.2164 28.048H55.0682C57.5274 28.048 59.5264 30.1785 59.5264 32.6378V37.8325C64.274 37.0435 67.9169 33.0455 67.9169 28.4163C67.9169 33.0455 64.274 37.0435 59.5264 37.8325V37.4775C64.2214 36.7015 67.8117 32.7956 67.9038 28.2585L67.9169 28.4294C67.9169 23.2478 63.3403 19 57.751 19H44.6524Z" fill="white"/>
</mask>
<g mask="url(#mask0_21_2357)">
<path d="M66.7465 13.8973L72.0464 36.8857L45.8229 42.9352L40.5229 19.9469L66.7465 13.8973Z" fill="url(#paint0_linear_21_2357)"/>
</g>
<mask id="mask1_21_2357" style="mask-type:luminance" maskUnits="userSpaceOnUse" x="31" y="19" width="25" height="19">
<path d="M31.5012 28.5609L31.488 28.4031C31.488 33.5847 36.0647 37.8326 41.6539 37.8326H55.8835V32.6247C55.8835 30.6651 54.2791 29.0607 52.3196 29.0607H45.4941C43.0348 29.0607 41.0358 27.088 41.0358 24.6287V24.3V19.3288C35.8016 19.6181 31.5932 23.6555 31.5012 28.5609Z" fill="white"/>
</mask>
<g mask="url(#mask1_21_2357)">
<path d="M55.9099 19.3156H31.5012V37.8325H55.9099V19.3156Z" fill="url(#paint1_linear_21_2357)"/>
</g>
<defs>
<linearGradient id="paint0_linear_21_2357" x1="53.6516" y1="16.9125" x2="58.9578" y2="39.8962" gradientUnits="userSpaceOnUse">
<stop stop-color="#E84541"/>
<stop offset="0.2884" stop-color="#E43F3E"/>
<stop offset="0.478" stop-color="#E0383B"/>
<stop offset="1" stop-color="#C21630"/>
</linearGradient>
<linearGradient id="paint1_linear_21_2357" x1="43.6837" y1="19.0027" x2="43.6837" y2="37.8421" gradientUnits="userSpaceOnUse">
<stop stop-color="#28AAE1"/>
<stop offset="0.00166319" stop-color="#28AAE1"/>
<stop offset="0.05" stop-color="#28AAE1"/>
<stop offset="0.1225" stop-color="#229BD0"/>
<stop offset="0.2893" stop-color="#167DAE"/>
<stop offset="0.4596" stop-color="#0C6593"/>
<stop offset="0.6328" stop-color="#055480"/>
<stop offset="0.8106" stop-color="#014A75"/>
<stop offset="1" stop-color="#004771"/>
</linearGradient>
</defs>
</svg>
