<svg width="100" height="75" viewBox="0 0 100 75" fill="none" xmlns="http://www.w3.org/2000/svg">
<path d="M11.3281 46.4117H11.9265L11.3559 48.7499C11.2724 49.0979 11.2863 49.3623 11.3977 49.5293C11.509 49.6963 11.7178 49.7938 12.0379 49.7938C12.3441 49.7938 12.6085 49.7102 12.8034 49.5293C12.9982 49.3484 13.1374 49.0839 13.2209 48.7499L13.7915 46.4117H14.4039L13.8333 48.8056C13.708 49.3205 13.4853 49.7102 13.1652 49.9747C12.8451 50.2391 12.4276 50.3644 11.9126 50.3644C11.3977 50.3644 11.0497 50.2391 10.8549 49.9886C10.66 49.7242 10.6322 49.3345 10.7435 48.8195L11.3281 46.4117Z" fill="#3D3D3C"/>
<path d="M14.3343 50.267L15.2946 46.2587L17.1039 48.6108C17.1457 48.6803 17.2013 48.7499 17.2431 48.8195C17.2848 48.8891 17.3405 48.9865 17.3962 49.084L18.0364 46.4118H18.607L17.6467 50.4061L15.7956 48.0123C15.7539 47.9427 15.6982 47.8731 15.6565 47.8175C15.6147 47.7479 15.573 47.6783 15.5451 47.5948L14.9049 50.267H14.3343Z" fill="#3D3D3C"/>
<path d="M18.5514 50.267L19.47 46.4117H20.0823L19.1638 50.267H18.5514Z" fill="#3D3D3C"/>
<path d="M20.0406 50.267L20.9592 46.4117H23.0468L22.9216 46.9406H21.4463L21.2236 47.9009H22.6989L22.5597 48.4437H21.0844L20.653 50.253L20.0406 50.267Z" fill="#3D3D3C"/>
<path d="M22.8102 50.267L23.7288 46.4117H24.3411L23.4226 50.267H22.8102Z" fill="#3D3D3C"/>
<path d="M24.2855 50.267L25.204 46.4117H27.3056L27.1803 46.9406H25.7051L25.4824 47.9009H26.9577L26.8185 48.4437H25.3432L25.0509 49.6824H26.5262L26.387 50.253H24.2855V50.267Z" fill="#3D3D3C"/>
<path d="M27.0969 50.267L28.0154 46.4117H28.8366C29.3655 46.4117 29.7412 46.4396 29.95 46.4952C30.1588 46.5509 30.3258 46.6344 30.451 46.7736C30.618 46.9406 30.7433 47.1633 30.7851 47.4277C30.8268 47.6922 30.8129 47.9984 30.7433 48.3324C30.6598 48.6803 30.5345 48.9726 30.3675 49.237C30.2005 49.5015 29.9778 49.7102 29.7134 49.8912C29.5185 50.0304 29.3098 50.1139 29.0871 50.1695C28.8644 50.2252 28.5304 50.253 28.0989 50.253H27.9319L27.0969 50.267ZM27.8345 49.6963H28.3495C28.6278 49.6963 28.8505 49.6824 29.0036 49.6407C29.1567 49.5989 29.2959 49.5293 29.4211 49.4458C29.5881 49.3205 29.7412 49.1675 29.8526 48.9726C29.9639 48.7917 30.0474 48.569 30.117 48.3185C30.1866 48.068 30.1866 47.8592 30.1588 47.6783C30.1309 47.4973 30.0613 47.3303 29.95 47.2051C29.8665 47.1076 29.7551 47.052 29.616 47.0102C29.4768 46.9685 29.2541 46.9545 28.934 46.9545H28.7113H28.4886L27.8345 49.6963Z" fill="#3D3D3C"/>
<path d="M33.5408 48.5412L33.1232 50.267H32.5526L33.4712 46.4117H34.4037C34.682 46.4117 34.8769 46.4257 35.0021 46.4535C35.1274 46.4813 35.2248 46.5231 35.2944 46.6066C35.3918 46.6901 35.4614 46.8154 35.4893 46.9684C35.5171 47.1215 35.5032 47.2886 35.4753 47.4695C35.4336 47.6504 35.364 47.8174 35.2526 47.9705C35.1413 48.1236 35.03 48.2489 34.8908 48.3324C34.7794 48.402 34.6542 48.4576 34.515 48.4855C34.3758 48.5133 34.1671 48.5272 33.9026 48.5272H33.7774L33.5408 48.5412ZM33.7078 48.0262H33.8609C34.1949 48.0262 34.4315 47.9844 34.5707 47.9149C34.7099 47.8453 34.7934 47.7061 34.8351 47.5112C34.8769 47.3164 34.849 47.1633 34.7655 47.0798C34.6542 46.9963 34.4454 46.9545 34.1392 46.9545H33.9861L33.7078 48.0262Z" fill="#3D3D3C"/>
<path d="M37.5352 50.267L37.3403 49.2788H35.8511L35.1831 50.267H34.5428L37.3125 46.2587L38.1754 50.267H37.5352ZM36.213 48.7499H37.2568L37.0898 47.8731C37.0759 47.8175 37.0759 47.7479 37.0759 47.6783C37.062 47.6087 37.062 47.5252 37.062 47.4417C37.0202 47.5252 36.9924 47.6087 36.9367 47.6783C36.8949 47.7479 36.8671 47.8175 36.8254 47.8731L36.213 48.7499Z" fill="#3D3D3C"/>
<path d="M39.0522 50.267L39.4697 48.5133L38.7042 46.4257H39.3444L39.8316 47.7339C39.8455 47.7757 39.8455 47.8035 39.8733 47.8731C39.8872 47.9288 39.9011 47.9844 39.9151 48.0401C39.9568 47.9844 39.9847 47.9288 40.0264 47.8731C40.0682 47.8174 40.096 47.7618 40.1377 47.72L41.2512 46.4257H41.8635L40.0821 48.4994L39.6645 50.253L39.0522 50.267Z" fill="#3D3D3C"/>
<path d="M44.8698 48.3602C44.8698 48.3324 44.8837 48.2489 44.8976 48.1097C44.9116 47.9984 44.9116 47.9149 44.9255 47.8314C44.8837 47.9149 44.8559 47.9984 44.8002 48.0958C44.7585 48.1793 44.6889 48.2767 44.6332 48.3602L43.1579 50.4201L42.6847 48.3324C42.6708 48.2489 42.643 48.1654 42.643 48.0819C42.629 48.0123 42.6151 47.9288 42.6151 47.8453C42.6012 47.9149 42.5734 48.0123 42.5455 48.1097C42.5177 48.1932 42.476 48.2907 42.4342 48.3881L41.5713 50.2809H41.0007L42.8517 46.2726L43.3806 48.6943C43.3945 48.736 43.3945 48.8056 43.4084 48.8891C43.4224 48.9726 43.4363 49.084 43.4502 49.2231C43.5198 49.1118 43.6033 48.9726 43.7146 48.8056C43.7425 48.7639 43.7703 48.736 43.7842 48.6943L45.4404 46.2726L45.3848 50.2809H44.8141L44.8698 48.3602Z" fill="#3D3D3C"/>
<path d="M45.8858 50.267L46.8044 46.4117H48.892L48.7668 46.9406H47.2915L47.0688 47.9009H48.5441L48.4049 48.4437H46.9296L46.6374 49.6824H48.1126L47.9735 50.253H45.8858V50.267Z" fill="#3D3D3C"/>
<path d="M48.6832 50.267L49.6435 46.2587L51.4529 48.6108C51.4946 48.6803 51.5503 48.7499 51.592 48.8195C51.6338 48.8891 51.6895 48.9865 51.7451 49.084L52.3853 46.4118H52.956L51.9956 50.4061L50.1446 48.0123C50.1028 47.9427 50.0472 47.8731 50.0054 47.8175C49.9637 47.7479 49.9219 47.6783 49.8941 47.5948L49.2539 50.267H48.6832Z" fill="#3D3D3C"/>
<path d="M54.9044 46.9406L54.1111 50.253H53.4987L54.2921 46.9406H53.3039L53.4292 46.4117H56.0318L55.9065 46.9406H54.9044Z" fill="#3D3D3C"/>
<path d="M55.5447 49.4877L56.0875 49.265C56.1014 49.432 56.1431 49.5712 56.2545 49.6547C56.3658 49.7382 56.505 49.7939 56.6999 49.7939C56.8808 49.7939 57.0339 49.7521 57.1731 49.6408C57.3122 49.5294 57.3957 49.4042 57.4375 49.2233C57.4932 49.0006 57.3679 48.7918 57.0339 48.6248C56.9921 48.597 56.9643 48.583 56.9225 48.5691C56.5607 48.3604 56.3241 48.1794 56.2406 47.9985C56.1432 47.8315 56.1292 47.6227 56.1849 47.3861C56.2545 47.066 56.4215 46.8155 56.6859 46.6206C56.9504 46.4258 57.2287 46.3284 57.5767 46.3284C57.855 46.3284 58.0777 46.384 58.2308 46.4954C58.3978 46.6067 58.4813 46.7598 58.5092 46.9686L57.9803 47.2191C57.9385 47.0938 57.8689 47.0103 57.7994 46.9547C57.7298 46.899 57.6323 46.8712 57.5071 46.8712C57.3401 46.8712 57.2009 46.9129 57.0896 47.0103C56.9782 47.0938 56.8947 47.2052 56.8669 47.3583C56.8112 47.581 56.9782 47.8036 57.3401 48.0124C57.3679 48.0263 57.3818 48.0403 57.4097 48.0542C57.7298 48.2212 57.9525 48.4021 58.0499 48.5691C58.1473 48.7361 58.1612 48.9449 58.1056 49.1954C58.022 49.5573 57.8411 49.8496 57.5628 50.0583C57.2844 50.2671 56.9643 50.3784 56.5746 50.3784C56.2545 50.3784 56.004 50.2949 55.837 50.1557C55.6143 49.9887 55.5308 49.766 55.5447 49.4877Z" fill="#3D3D3C"/>
<path d="M60.0401 50.267L60.9587 46.4117H61.571L60.6525 50.267H60.0401Z" fill="#3D3D3C"/>
<path d="M61.5293 50.267L62.4896 46.2587L64.2989 48.6108C64.3407 48.6803 64.3963 48.7499 64.4381 48.8195C64.4799 48.8891 64.5355 48.9865 64.5912 49.084L65.2314 46.4118H65.802L64.8417 50.4061L62.9907 48.0123C62.9489 47.9427 62.8932 47.8731 62.8515 47.8175C62.8097 47.7479 62.768 47.6783 62.7401 47.5948L62.0999 50.2531L61.5293 50.267Z" fill="#3D3D3C"/>
<path d="M67.7506 46.9406L66.9573 50.253H66.3449L67.1382 46.9406H66.15L66.2753 46.3978H68.8779L68.7526 46.9267H67.7506V46.9406Z" fill="#3D3D3C"/>
<path d="M68.4186 50.267L69.3372 46.4117H71.4388L71.3135 46.9406H69.8382L69.6156 47.9009H71.0908L70.9517 48.4437H69.4764L69.1841 49.6824H70.6594L70.5202 50.253H68.4186V50.267Z" fill="#3D3D3C"/>
<path d="M72.1903 48.5412L71.7728 50.267H71.2021L72.1207 46.4117H72.9697C73.2202 46.4117 73.4151 46.4257 73.5403 46.4535C73.6795 46.4813 73.7769 46.537 73.8604 46.6205C73.9579 46.7179 74.0135 46.8293 74.0414 46.9824C74.0692 47.1215 74.0553 47.2886 74.0274 47.4695C73.9579 47.7757 73.8326 48.0262 73.6378 48.1932C73.4429 48.3602 73.2063 48.4716 72.914 48.5133L73.7769 50.267H73.095L72.2599 48.5412H72.1903ZM72.3434 48.054H72.4547C72.7748 48.054 72.9975 48.0123 73.1228 47.9427C73.2481 47.8731 73.3316 47.7339 73.3872 47.5252C73.429 47.3164 73.4151 47.1633 73.3176 47.0798C73.2202 46.9963 73.0254 46.9406 72.7192 46.9406H72.6078L72.3434 48.054Z" fill="#3D3D3C"/>
<path d="M74.1527 50.267L75.0713 46.4117H77.1589L77.0337 46.9406H75.5584L75.3357 47.9009H76.811L76.6718 48.4437H75.1826L74.7512 50.253L74.1527 50.267Z" fill="#3D3D3C"/>
<path d="M79.1909 50.267L78.9961 49.2788H77.5069L76.8388 50.267H76.1986L78.9682 46.2587L79.8311 50.267H79.1909ZM77.8687 48.7499H78.9126L78.7455 47.8731C78.7316 47.8175 78.7316 47.7479 78.7316 47.6783C78.7177 47.6087 78.7177 47.5252 78.7177 47.4417C78.676 47.5252 78.6481 47.6087 78.5925 47.6783C78.5507 47.7479 78.5229 47.8175 78.4811 47.8731L77.8687 48.7499Z" fill="#3D3D3C"/>
<path d="M83.8116 47.3444C83.6724 47.1913 83.5193 47.0799 83.3384 47.0103C83.1714 46.9408 82.9765 46.899 82.7538 46.899C82.3363 46.899 81.9744 47.0382 81.6543 47.3026C81.3342 47.567 81.1255 47.9289 81.0141 48.3604C80.9167 48.7779 80.9584 49.1119 81.1533 49.3903C81.3342 49.6547 81.6265 49.7939 82.0023 49.7939C82.225 49.7939 82.4476 49.7521 82.6564 49.6686C82.8791 49.599 83.1018 49.4738 83.3245 49.3068L83.1574 50.0166C82.9626 50.1418 82.7677 50.2253 82.559 50.281C82.3502 50.3367 82.1414 50.3645 81.9048 50.3645C81.6126 50.3645 81.3621 50.3228 81.1394 50.2253C80.9167 50.1279 80.7358 49.9887 80.5966 49.7939C80.4574 49.613 80.3739 49.3903 80.3321 49.1398C80.2904 48.8892 80.3043 48.6248 80.3739 48.3325C80.4435 48.0403 80.5548 47.7897 80.7079 47.5392C80.861 47.2887 81.0559 47.066 81.2925 46.8851C81.5152 46.6902 81.7657 46.5511 82.044 46.4536C82.3085 46.3562 82.5729 46.3145 82.8513 46.3145C83.0739 46.3145 83.2688 46.3423 83.4636 46.4119C83.6446 46.4815 83.8116 46.5789 83.9647 46.7041L83.8116 47.3444Z" fill="#3D3D3C"/>
<path d="M83.8672 50.267L84.7858 46.4117H86.8735L86.7482 46.9406H85.2729L85.0503 47.9009H86.5255L86.3864 48.4437H84.9111L84.6188 49.6824H86.0941L85.9549 50.253H83.8672V50.267Z" fill="#3D3D3C"/>
<path d="M72.747 43.0575H68.5577L74.3893 22H78.5785L72.747 43.0575Z" fill="#71706E"/>
<path d="M70.5619 22.6682C70.2696 22.2646 69.8242 22.0697 69.2119 22.0697H46.1641L45.0229 26.2033H49.2121H65.9969L64.7721 30.6152H48.0012V30.6013H43.812L40.3326 43.169H44.5218L46.86 34.7348H65.7185C66.317 34.7348 66.8598 34.54 67.3747 34.1364C67.8897 33.7328 68.2376 33.2317 68.3907 32.6472L70.7289 24.213C70.9098 23.5728 70.8542 23.0718 70.5619 22.6682Z" fill="#71706E"/>
<path d="M37.883 41.7355C37.6604 42.5705 36.8949 43.1551 36.032 43.1551H14.4038C13.8054 43.1551 13.3739 42.9602 13.0816 42.5566C12.7894 42.153 12.7337 41.6519 12.9007 41.0674L18.1755 22.0697H22.3648L17.6606 39.0354H34.4454L39.1635 22.0697H43.3527L37.883 41.7355Z" fill="#71706E"/>
<path d="M85.8157 22.0417L91.1183 32.5914L79.9702 43.141L85.8157 22.0417Z" fill="#038042"/>
<path d="M82.0857 22.0417L87.3884 32.5914L76.2264 43.141L82.0857 22.0417Z" fill="#E97626"/>
</svg>
