<svg width="252" height="252" viewBox="0 0 252 252" fill="none" xmlns="http://www.w3.org/2000/svg">
<g clip-path="url(#clip0_2395_261)">
<mask id="mask0_2395_261" style="mask-type:luminance" maskUnits="userSpaceOnUse" x="0" y="0" width="252" height="252">
<path d="M252 0H0V252H252V0Z" fill="white"/>
</mask>
<g mask="url(#mask0_2395_261)">
<path d="M252 0H0V252H252V0Z" fill="white"/>
</g>
<path d="M140.97 125.095C152.19 114.733 160.383 101.025 160.383 85.5531C160.383 54.8982 135.499 30 104.86 30C74.2219 30 49.3373 54.8982 49.3373 85.5531C49.3373 101.025 55.8821 115.632 67.1018 125.995C40.4191 139.235 22.5827 165.501 20.5689 196.084C20.2093 202.704 25.2438 208.389 31.8605 208.821C32.0763 208.821 32.292 208.821 32.5078 208.821C38.8368 208.821 44.159 203.855 44.5186 197.523C46.4605 167.372 70.6978 143.193 100.833 141.178C116.871 140.099 132.478 145.424 144.561 156.002C156.643 166.58 163.907 181.332 164.986 197.451C165.418 203.783 170.668 208.677 176.997 208.677H177.788C181.025 208.461 183.901 206.95 186.059 204.575C188.145 202.128 189.224 199.034 189.008 195.868C187.066 165.86 168.87 139.235 142.475 125.923L140.97 125.095ZM104.86 54.0346C122.193 54.0346 136.29 68.2108 136.362 85.5531C136.362 102.896 122.265 117.072 104.932 117.072C87.5992 117.072 73.4308 102.967 73.4308 85.5531C73.4308 68.1388 87.5273 54.0346 104.86 54.0346Z" fill="#1043FA" stroke="white" stroke-width="11.3"/>
<path d="M185.5 222C210.629 222 231 201.405 231 176C231 150.595 210.629 130 185.5 130C160.371 130 140 150.595 140 176C140 201.405 160.371 222 185.5 222Z" fill="white" stroke="#1043FA" stroke-width="13"/>
<path d="M190.571 173.384H180.429C177.22 173.384 174.639 170.896 174.639 167.803C174.639 164.71 177.22 162.221 180.429 162.221H199.681C201.525 162.221 203 160.799 203 159.021C203 157.244 201.525 155.822 199.681 155.822H188.801V151.2C188.801 149.422 187.325 148 185.482 148C183.638 148 182.162 149.422 182.162 151.2V155.822H180.429C173.569 155.822 168 161.19 168 167.803C168 174.416 173.569 179.784 180.429 179.784H190.571C193.78 179.784 196.361 182.273 196.361 185.366C196.361 188.459 193.78 190.948 190.571 190.948H171.319C169.475 190.948 168 192.37 168 194.147C168 195.925 169.475 197.347 171.319 197.347H181.425V199.445C181.425 201.4 183.084 203 185.113 203C187.141 203 188.801 201.4 188.801 199.445V197.347H190.571C197.431 197.347 203 191.979 203 185.366C203 178.753 197.431 173.384 190.571 173.384Z" fill="#1043FA" stroke="#1043FA" stroke-width="0.598248"/>
</g>
<defs>
<clipPath id="clip0_2395_261">
<rect width="252" height="252" fill="white"/>
</clipPath>
</defs>
</svg>
