<svg width="100" height="75" viewBox="0 0 100 75" fill="none" xmlns="http://www.w3.org/2000/svg">
<path d="M49.62 69C66.9507 69 81 54.9507 81 37.62C81 20.2893 66.9507 6.23999 49.62 6.23999C32.2893 6.23999 18.24 20.2893 18.24 37.62C18.24 54.9507 32.2893 69 49.62 69Z" fill="white"/>
<path d="M49.62 67.4635C66.1021 67.4635 79.4635 54.1021 79.4635 37.62C79.4635 21.1379 66.1021 7.77649 49.62 7.77649C33.1379 7.77649 19.7765 21.1379 19.7765 37.62C19.7765 54.1021 33.1379 67.4635 49.62 67.4635Z" fill="#F9DA10"/>
<path d="M75.2085 32.6557C75.1199 32.6261 75.0017 32.5966 74.913 32.5966C74.8244 32.5966 74.7653 32.5966 74.6767 32.6261L65.1031 35.0786L60.5527 18.2953C60.4345 17.8817 60.0504 17.5862 59.6367 17.5862C59.5481 17.5862 59.489 17.5862 59.4003 17.6157L32.0684 24.7664C31.5661 24.8845 31.2706 25.4164 31.3888 25.9187L35.5846 42.5543L26.3656 45.0067C25.9815 45.1249 25.686 45.45 25.6565 45.8636C25.6565 45.9227 25.6565 45.9818 25.6565 46.0114C25.686 46.366 25.8929 46.6614 26.2179 46.8092L55.3523 59.5739C55.4704 59.633 55.6182 59.6626 55.7364 59.6626C56.0319 59.6626 56.2978 59.5444 56.5046 59.2784L75.6813 34.1331C75.7995 33.9853 75.8881 33.7785 75.8881 33.5421C75.8881 33.1284 75.5926 32.7739 75.2085 32.6557Z" fill="white"/>
<path fill-rule="evenodd" clip-rule="evenodd" d="M74.8836 33.5716L74.9132 33.542L64.4236 36.2309L59.6369 18.5316L32.3049 25.6822L36.7371 43.2338L26.6022 45.9522H26.6317H26.6022L55.7365 58.7169L74.9427 33.5716H74.8836Z" fill="#DF1D82"/>
<path d="M74.3516 26.8643L74.2334 26.4506C74.2038 26.3915 74.2038 26.3324 74.1743 26.2733L73.9379 25.8005C73.7606 25.446 73.5538 25.1209 73.3174 24.8255C73.081 24.5595 72.8446 24.2936 72.5492 24.0572C72.5492 24.0572 72.5492 24.0572 72.5196 24.0572C71.9286 23.5844 71.2786 23.2299 70.5694 22.9935C69.092 22.4912 67.3192 22.4912 65.2212 23.023C63.6552 23.4367 62.3551 24.0572 61.2914 24.8846C60.1981 25.7415 59.4594 26.687 59.1048 27.6916C59.0753 27.7507 59.0753 27.7803 59.0457 27.8394C58.7207 27.4848 58.307 27.1598 57.8638 26.9234C57.066 26.4802 56.0909 26.2142 55.0567 26.1551C54.4658 26.1256 53.9339 26.1256 53.4316 26.1847C52.9588 26.2438 52.3974 26.362 51.7769 26.5097C50.595 26.8052 49.5903 27.2189 48.7334 27.7507C48.6153 27.8098 48.5266 27.8985 48.4084 27.9576C48.2607 28.0166 48.1425 28.1053 48.0538 28.2235C47.4629 28.6667 46.9901 29.1395 46.5764 29.7009C45.9264 30.5873 45.5127 31.5624 45.3945 32.567L43.0307 29.7009C42.7647 29.3759 42.3215 29.2281 41.9374 29.3463L37.6825 30.4396C37.2984 30.5282 37.0029 30.8533 36.9142 31.2374L36.5597 32.833C36.3528 32.6557 36.0869 32.5079 35.821 32.3602C35.1414 32.0352 34.314 31.8874 33.3685 31.8874C32.5116 31.8579 31.507 32.0056 30.2955 32.3307L24.179 33.9263C23.6176 34.074 23.2631 34.6354 23.4108 35.1968L25.5973 44.5635C25.6564 44.859 25.8337 45.0954 26.0997 45.2431C26.277 45.3318 26.4542 45.3909 26.6611 45.3909C26.7497 45.3909 26.8384 45.3909 26.927 45.3613L39.9577 41.9929C40.3714 41.8747 40.6964 41.5201 40.7555 41.0769L40.785 40.4564L43.533 39.7472L43.9171 40.2791C44.1831 40.6337 44.6263 40.8109 45.0695 40.6927L49.2358 39.5995C49.5903 39.5108 49.8858 39.2449 49.9745 38.8903C49.9745 38.8608 50.004 38.8312 50.004 38.8017C51.245 39.0676 52.6338 38.979 54.1407 38.5948C55.3522 38.2698 56.3864 37.797 57.1842 37.1765C57.4206 37.3538 57.7456 37.4129 58.0706 37.3243L60.7299 36.6447C61.2914 36.4969 61.6459 35.9355 61.4982 35.3741C61.4982 35.3741 62.1482 34.8422 62.6506 35.0195C64.128 35.5514 65.9304 35.5218 68.0578 34.99C69.5943 34.5763 70.924 33.9558 71.9582 33.1285C73.0515 32.2716 73.7902 31.2669 74.2038 30.1737C74.588 29.0508 74.6471 27.928 74.3516 26.8643Z" fill="white"/>
<path d="M73.6425 27.1007L73.5243 26.7166L73.2879 26.2142C73.1402 25.9188 72.9629 25.6528 72.7856 25.4164C72.6083 25.1801 72.3719 24.9732 72.1355 24.7664C71.6332 24.3823 71.0718 24.0572 70.4513 23.8504C69.1512 23.4072 67.5261 23.4072 65.635 23.9095C64.1871 24.2936 63.0052 24.855 62.0301 25.5937C61.0846 26.3324 60.4345 27.1598 60.1095 28.0167C59.7845 28.8736 59.7254 29.7895 59.9027 30.7351L60.1686 31.5329L60.2868 31.8875V31.917C60.8187 32.9807 61.7642 33.749 63.0938 34.2218C63.7144 34.4581 64.4235 34.5468 65.2213 34.5468C66.0487 34.5468 66.9942 34.4286 67.9693 34.1627C69.3876 33.8081 70.599 33.2171 71.5446 32.4784C72.4901 31.7102 73.1697 30.8533 73.4948 29.9077C73.8493 28.9327 73.8789 27.9871 73.6425 27.1007ZM66.1964 26.5393C66.8464 26.362 67.3783 26.3915 67.8215 26.5984C68.2648 26.8052 68.5898 27.1598 68.8557 27.6325C69.2398 28.4008 69.3285 29.169 69.1216 29.9668C68.9148 30.7351 68.3534 31.2374 67.3783 31.5033C66.1668 31.8284 65.31 31.4738 64.7781 30.4396C64.3644 29.2281 64.3349 28.2826 64.6894 27.6325C64.9258 27.0711 65.4577 26.7166 66.1964 26.5393Z" fill="#1A5DA5"/>
<path d="M53.4909 31.7694L53.9637 33.8673L55.8252 33.3355C55.7366 33.631 55.5002 34.0742 55.2342 34.3106C54.9388 34.5765 54.466 34.8129 54.0523 34.9311C52.6931 35.2856 51.7771 34.9606 51.2748 33.9855C50.8316 32.7445 50.7725 31.7694 51.1271 31.1194C51.393 30.6171 51.8953 30.2625 52.6636 30.0556C53.6978 29.7897 54.4365 29.967 54.9092 30.6171L54.9979 30.7352L59.3119 29.6124L59.1937 29.3465C58.8391 28.6373 58.3072 28.0759 57.5981 27.6918C56.9185 27.3077 56.0911 27.1008 55.1752 27.0417C54.6433 27.0122 54.141 27.0122 53.6978 27.0713C53.2545 27.1304 52.7227 27.219 52.1317 27.3963C51.0384 27.6918 50.0929 28.0464 49.3246 28.5191C48.5268 28.9919 47.9063 29.5533 47.404 30.2034C46.4585 31.474 46.163 32.8923 46.5176 34.4288L46.6358 34.9311L46.9017 35.522C46.9608 35.6402 47.0199 35.7289 47.079 35.8175L42.4104 30.1443L37.9191 31.2967L37.0622 35.0493C37.0031 34.8129 36.9145 34.5765 36.8258 34.3992C36.5304 33.8378 36.1167 33.4241 35.5553 33.1286C34.9939 32.8627 34.3143 32.7445 33.4869 32.7445C32.7187 32.715 31.7731 32.8627 30.6503 33.1582L24.3566 34.7833L26.6318 44.5046L31.1822 43.3227L30.5026 40.3975L32.4823 39.8951C34.4029 39.3928 35.7326 38.7132 36.4713 37.8268L35.4962 42.1999L39.9875 41.0475L40.1648 39.6883L44.0946 38.6541L44.8924 39.7769L49.4724 38.595L47.8768 36.6744C48.3791 37.1176 48.9701 37.4722 49.7088 37.7086C50.9793 38.1223 52.4567 38.1223 54.1114 37.679C55.6184 37.2949 56.8003 36.6153 57.5685 35.7289L57.8936 36.4676L60.8779 35.6993L59.6074 30.1443L53.4909 31.7694ZM42.9127 36.8812L40.2534 37.5608L40.7853 33.8378L42.9127 36.8812ZM29.8525 37.9154L29.3502 36.0243C29.3502 36.0243 30.2957 35.788 30.8571 35.6107C31.6549 35.4038 32.2754 35.3447 32.6005 35.8471C32.7482 36.0834 32.7482 36.6153 32.5414 36.8812C32.305 37.1767 32.0095 37.3245 31.4776 37.5017C31.0935 37.6199 29.8525 37.9154 29.8525 37.9154Z" fill="#1A5DA5"/>
<path d="M61.114 44.2682C61.2913 44.0022 61.4982 43.7659 61.705 43.5295C62.7392 42.318 63.6847 41.0474 64.4234 39.6587C64.6598 39.2155 65.0144 38.5063 65.1917 38.0335C65.2508 37.8858 65.2212 37.7676 65.103 37.6494C64.778 37.3244 64.5712 37.3244 64.2166 37.5903C62.296 39.1268 60.8481 41.3134 60.1685 43.6477C60.139 43.7659 60.0799 43.9136 59.9912 44.0022C59.2525 44.8 58.5138 45.5978 57.7751 46.3956C57.716 46.4547 57.6274 46.5434 57.5387 46.5729C57.4796 46.6025 57.3614 46.632 57.3319 46.6025C57.2728 46.5729 57.2728 46.4547 57.2432 46.3956C57.2432 46.3661 57.2433 46.307 57.2728 46.2774C57.391 45.8047 57.5092 45.3024 57.6865 44.8296C57.8638 44.3568 58.1001 43.9431 58.307 43.4999C58.3661 43.3817 58.3956 43.2635 58.2183 43.2635C57.7751 43.234 57.4501 43.3226 57.1842 43.7659C57.066 43.9727 57.0069 44.1795 56.8591 44.3568C56.1204 45.2137 55.3817 46.1002 54.6135 46.9275C54.1407 47.4594 53.5497 47.8435 52.8701 48.0503C52.6633 48.1094 52.5451 48.0503 52.5451 47.8435C52.5451 47.6662 52.5451 47.4889 52.5747 47.3412C52.752 46.4843 53.1656 45.7456 53.7566 45.1251C54.0225 44.8591 54.2885 44.6228 54.6726 44.5046C54.6726 44.5932 54.6726 44.7114 54.643 44.7705C54.4657 45.0364 54.2294 45.2728 54.0521 45.5387C53.993 45.5978 53.993 45.6865 53.9634 45.7456C54.0521 45.7751 54.1407 45.8342 54.2294 45.8047C54.4362 45.7456 54.643 45.6569 54.8499 45.5683C55.3226 45.3024 55.6477 44.8887 55.7363 44.3568C55.7954 43.9727 55.5886 43.7363 55.2044 43.7363C55.1453 43.7363 55.1158 43.7363 55.0567 43.7363C54.1703 43.9136 53.5497 44.5046 52.8997 45.0364C52.752 45.1546 52.6338 45.3615 52.5156 45.5092C51.7769 46.3956 51.0382 47.2525 50.2699 48.139C50.1813 48.2572 50.0631 48.3458 49.9153 48.464C49.9153 48.4049 49.8858 48.3753 49.9153 48.3458C50.004 48.0503 50.0631 47.7548 50.1813 47.4594C50.4177 46.8389 50.7131 46.2479 50.9791 45.6569C51.0382 45.5387 51.0677 45.4205 50.92 45.3024C50.7131 45.1251 50.4768 45.1251 50.2404 45.3319C50.0335 45.0364 49.7381 45.0955 49.5017 45.2728C49.2653 45.4205 49.0289 45.5683 48.8221 45.7456C47.8174 46.6616 47.1378 47.7844 46.6355 49.0254C46.5173 49.3504 46.3991 49.705 46.4582 50.0596C46.5173 50.5324 47.0492 50.8278 47.4333 50.5324C47.581 50.4142 47.7288 50.3255 47.847 50.1778C48.172 49.705 48.497 49.2322 48.8221 48.7299C48.8516 48.6708 48.8516 48.5822 48.8812 48.4935C48.9107 48.4935 48.9403 48.5231 48.9698 48.5231C48.9994 48.6117 48.9994 48.7004 49.0289 48.789C49.088 49.0254 49.1175 49.2913 49.1766 49.4982C49.3244 49.9118 49.6199 49.9709 49.9153 49.6755C50.2404 49.3209 50.5654 48.9663 50.8609 48.5822C51.1268 48.2572 51.3632 47.9026 51.5996 47.5776C51.5996 47.7548 51.5996 47.9026 51.6291 48.0208C51.7769 48.8481 52.2496 49.2913 53.1361 48.8777C53.4316 48.7299 53.6975 48.5526 53.9634 48.3753C54.7612 47.7844 55.4113 47.0161 56.0318 46.2479C56.15 46.1002 56.2682 45.9524 56.4159 45.7456C56.3864 45.9524 56.3568 46.1297 56.3273 46.2774C56.2977 46.5434 56.2977 46.8389 56.3864 47.1048C56.5341 47.5185 56.8591 47.7253 57.3023 47.6957C57.6569 47.6662 57.982 47.5185 58.2183 47.2525C58.6911 46.7207 59.1343 46.1592 59.5775 45.6274C59.6957 45.4796 59.8139 45.3024 59.9321 45.1546C60.0208 45.4205 60.0799 45.6865 60.1685 45.9229C60.4344 46.632 60.9072 46.8389 61.5573 46.4843C61.8232 46.3661 62.0596 46.1592 62.2369 45.9524C63.3892 44.6818 64.2757 43.2635 65.1917 41.8157C65.3099 41.6384 65.2508 41.5498 65.0735 41.402C65.0144 41.4611 64.9848 41.5202 64.9553 41.5498C64.2757 42.3771 63.6256 43.2044 62.946 44.0022C62.5028 44.5046 62.0596 45.0069 61.4982 45.391C61.2322 45.5683 61.0845 45.5092 60.9958 45.2137C60.8186 44.8591 60.9368 44.5637 61.114 44.2682ZM63.9507 38.7131C63.9507 39.245 61.9709 42.5544 61.5573 42.7021C62.1482 41.2838 62.946 39.9542 63.9507 38.7131ZM47.6992 49.1731C47.6697 49.1731 47.6697 49.1436 47.6401 49.1436C47.6401 49.055 47.6401 48.9663 47.6697 48.9072C48.0538 47.873 48.6152 46.957 49.4426 46.2183C49.5608 46.1002 49.7381 46.0411 49.8858 45.9524C49.9153 45.982 49.9153 45.982 49.9449 46.0115C49.2357 47.0457 48.5857 48.1981 47.6992 49.1731Z" fill="#9E1C7E"/>
<path d="M47.4332 45.9229C47.3445 45.8047 47.2854 45.6275 47.1672 45.5388C47.1081 45.4797 46.9604 45.4206 46.8718 45.4206C46.724 45.3911 46.5467 45.3911 46.399 45.3911C45.7489 45.4206 45.1284 45.6274 44.5375 45.8343C44.3897 45.8934 44.2124 45.9525 44.0056 46.0116C44.0352 45.9229 44.0647 45.8934 44.0647 45.8638C44.4488 45.2433 44.8625 44.6228 45.2466 44.0023C45.4239 43.7068 45.4239 43.6773 45.1284 43.4704C45.3353 43.3818 45.483 43.3227 45.6603 43.2636C46.9013 42.8795 48.1423 42.4954 49.4129 42.1112C49.7379 42.0226 50.0334 41.9339 50.3584 41.8158C50.4175 41.7862 50.4471 41.7567 50.5062 41.7271C50.4766 41.6976 50.4471 41.6385 50.388 41.6089C49.9448 41.343 49.5015 41.1657 48.9697 41.1361C48.2605 41.1066 47.5809 41.2248 46.9013 41.3725C45.5126 41.6976 44.2124 42.2294 42.9123 42.8204C42.6168 42.9386 42.3509 43.0863 42.0259 43.2341C42.0554 43.1454 42.1145 43.0568 42.1441 42.9386C41.9963 42.9681 41.8781 42.9977 41.8191 43.0272C41.4645 43.2045 41.1099 43.4113 40.7849 43.6182C40.5189 43.7955 40.2826 43.9728 40.0757 44.1796C39.8689 44.3569 39.8984 44.5342 40.0462 44.741C40.2235 44.9478 40.4598 45.0365 40.6962 44.9774C41.1394 44.8887 41.5827 44.7706 41.9963 44.6228C42.7646 44.3569 43.5033 44.0614 44.2715 43.7659C44.3602 43.7364 44.4193 43.7364 44.5079 43.7068C44.5079 43.7068 44.5079 43.7364 44.5375 43.7364C44.4193 43.8841 44.3011 44.0319 44.1829 44.1796C43.6806 44.9183 43.1487 45.657 42.6759 46.3957C42.5578 46.573 42.41 46.7207 42.2032 46.8094C41.9077 46.9276 41.6122 47.0753 41.3463 47.223C41.1394 47.3412 41.1099 47.5185 41.2576 47.7254C41.3463 47.814 41.4349 47.9322 41.5236 48.0208C41.6418 48.139 41.6418 48.2277 41.5827 48.405C41.169 49.2028 40.8735 50.0301 40.9031 50.9461C40.9031 51.0643 40.9326 51.2416 40.9917 51.3007C41.2281 51.5371 41.5236 51.5961 41.8486 51.5961C41.8781 51.3598 41.8781 51.1234 41.9372 50.9165C41.9963 50.6802 42.0554 50.4733 42.1441 50.2665C42.3805 49.6164 42.6464 48.9959 42.8828 48.3754C43.001 48.0504 43.2078 47.814 43.5328 47.6663C44.7443 47.1639 45.9853 46.6321 47.1968 46.1298C47.2263 46.0707 47.315 45.982 47.4332 45.9229Z" fill="#9E1C7E"/>
<path d="M49.9449 44.1797C49.9154 44.2683 49.9449 44.3865 50.004 44.4161C50.0336 44.4456 50.1813 44.4456 50.2404 44.4161C50.5655 44.2092 50.92 44.0024 51.2451 43.766C51.5996 43.5001 51.8656 43.175 52.0133 42.7318C52.0724 42.5841 52.0724 42.4068 52.1019 42.2295C51.9838 42.0522 51.8656 41.8749 51.7178 41.7567C51.4814 41.5794 51.2155 41.6681 51.1269 41.9636C50.9496 42.6727 50.595 43.2932 50.0927 43.8546C50.0336 43.9728 49.9745 44.0615 49.9449 44.1797Z" fill="#9E1C7E"/>
<path d="M58.4546 41.9931C58.4842 41.9636 58.5433 41.934 58.6319 41.9045C58.957 41.6976 59.1638 41.3726 59.3115 41.018C59.4002 40.8112 59.3411 40.693 59.1934 40.5453C59.0456 40.3975 58.8683 40.4271 58.7501 40.5748C58.5728 40.7521 58.366 40.9589 58.2478 41.1658C58.1592 41.343 58.1001 41.5794 58.1001 41.7567C58.041 41.9636 58.2183 42.0522 58.4546 41.9931Z" fill="#9E1C7E"/>
<path d="M60.7594 43.9431C60.9367 43.6772 61.1435 43.4408 61.3504 43.2044C62.3846 41.9929 63.3301 40.7224 64.0688 39.3336C64.3052 38.8904 64.6598 38.1812 64.8371 37.7085C64.8961 37.5607 64.8666 37.4425 64.7484 37.3243C64.4234 36.9993 64.2165 36.9993 63.862 37.2652C61.9413 38.8017 60.4935 40.9883 59.8139 43.3226C59.7843 43.4408 59.7252 43.5885 59.6366 43.6772C58.8979 44.475 58.1592 45.2728 57.4205 46.0706C57.3614 46.1297 57.2728 46.2183 57.1841 46.2478C57.125 46.2774 57.0068 46.3069 56.9773 46.2774C56.9182 46.2479 56.9182 46.1297 56.8886 46.0706C56.8886 46.041 56.8886 45.9819 56.9182 45.9524C57.0364 45.4796 57.1546 44.9773 57.3319 44.5045C57.5091 44.0317 57.7455 43.6181 57.9524 43.1749C58.0115 43.0567 58.041 42.9385 57.8637 42.9385C57.4205 42.9089 57.0955 42.9976 56.8295 43.4408C56.7114 43.6476 56.6523 43.8545 56.5045 44.0317C55.7658 44.8886 55.0271 45.7751 54.2589 46.6024C53.7861 47.1343 53.1951 47.5184 52.5155 47.7253C52.3087 47.7843 52.1905 47.7253 52.1905 47.5184C52.1905 47.3411 52.1905 47.1638 52.2201 47.0161C52.3973 46.1592 52.811 45.4205 53.402 44.8C53.6679 44.5341 53.9338 44.2977 54.318 44.1795C54.318 44.2681 54.318 44.3863 54.2884 44.4454C54.1111 44.7114 53.8747 44.9477 53.6975 45.2137C53.6384 45.2728 53.6384 45.3614 53.6088 45.4205C53.6975 45.4501 53.7861 45.5091 53.8747 45.4796C54.0816 45.4205 54.2884 45.3319 54.4952 45.2432C54.968 44.9773 55.293 44.5636 55.3817 44.0317C55.4408 43.6476 55.2339 43.4112 54.8498 43.4112C54.7907 43.4112 54.7612 43.4112 54.7021 43.4112C53.8156 43.5885 53.1951 44.1795 52.5451 44.7114C52.3973 44.8295 52.2791 45.0364 52.161 45.1841C51.4223 46.0706 50.6836 46.9275 49.9153 47.8139C49.8267 47.9321 49.7085 48.0207 49.5607 48.1389C49.5607 48.0798 49.5312 48.0503 49.5607 48.0207C49.6494 47.7253 49.7085 47.4298 49.8267 47.1343C50.063 46.5138 50.3585 45.9228 50.6245 45.3319C50.6836 45.2137 50.7131 45.0955 50.5654 44.9773C50.3585 44.8 50.1221 44.8 49.8858 45.0068C49.6789 44.7114 49.3834 44.7704 49.1471 44.9477C48.9107 45.0955 48.6743 45.2432 48.4675 45.4205C47.4628 46.3365 46.7832 47.4593 46.2809 48.7003C46.1627 49.0254 46.0445 49.3799 46.1036 49.7345C46.1627 50.2073 46.6946 50.5028 47.0787 50.2073C47.2264 50.0891 47.3742 50.0004 47.4924 49.8527C47.8174 49.3799 48.1424 48.9072 48.4675 48.4049C48.497 48.3458 48.497 48.2571 48.5266 48.1685C48.5561 48.1685 48.5856 48.198 48.6152 48.198C48.6447 48.2867 48.6447 48.3753 48.6743 48.464C48.7334 48.7003 48.7629 48.9663 48.822 49.1731C48.9698 49.5868 49.2652 49.6459 49.5607 49.3504C49.8858 48.9958 50.2108 48.6412 50.5063 48.2571C50.7722 47.9321 51.0086 47.5775 51.245 47.2525C51.245 47.4298 51.245 47.5775 51.2745 47.6957C51.4223 48.523 51.895 48.9663 52.7815 48.5526C53.0769 48.4049 53.3429 48.2276 53.6088 48.0503C54.4066 47.4593 55.0567 46.6911 55.6772 45.9228C55.7954 45.7751 55.9136 45.6273 56.0613 45.4205C56.0317 45.6273 56.0022 45.8046 55.9726 45.9524C55.9431 46.2183 55.9431 46.5138 56.0317 46.7797C56.1795 47.1934 56.5045 47.4002 56.9477 47.3707C57.3023 47.3411 57.6273 47.1934 57.8637 46.9275C58.3365 46.3956 58.7797 45.8342 59.2229 45.3023C59.3411 45.1546 59.4593 44.9773 59.5775 44.8295C59.6662 45.0955 59.7252 45.3614 59.8139 45.5978C60.0798 46.3069 60.5526 46.5138 61.2026 46.1592C61.4686 46.041 61.705 45.8342 61.8823 45.6273C63.0346 44.3568 63.9211 42.9385 64.8371 41.4906C64.9552 41.3133 64.8962 41.2247 64.7189 41.0769C64.6598 41.136 64.6302 41.1951 64.6007 41.2247C63.9211 42.052 63.271 42.8794 62.5914 43.6772C62.1482 44.1795 61.705 44.6818 61.1436 45.0659C60.8776 45.2432 60.7299 45.1841 60.6412 44.8886C60.4639 44.5341 60.5821 44.209 60.7594 43.9431ZM63.596 38.3881C63.596 38.9199 61.6163 42.2293 61.2026 42.3771C61.7936 40.9588 62.5914 39.5995 63.596 38.3881ZM47.3446 48.8481C47.3151 48.8481 47.3151 48.8185 47.2855 48.8185C47.2855 48.7299 47.2855 48.6412 47.3151 48.5821C47.6992 47.548 48.2606 46.632 49.088 45.8933C49.2062 45.7751 49.3834 45.716 49.5312 45.6273C49.5607 45.6569 49.5607 45.6569 49.5903 45.6864C48.8516 46.7206 48.2015 47.8434 47.3446 48.8481Z" fill="white"/>
<path d="M47.0787 45.598C46.99 45.4502 46.9309 45.3025 46.8128 45.2139C46.7537 45.1548 46.6059 45.0957 46.5173 45.0957C46.3695 45.0661 46.1922 45.0661 46.0445 45.0661C45.3944 45.0957 44.7739 45.3025 44.183 45.5093C44.0352 45.5684 43.8579 45.6275 43.6511 45.6866C43.6807 45.598 43.7102 45.5684 43.7102 45.5389C44.0943 44.9184 44.508 44.2979 44.8921 43.6774C45.0694 43.3819 45.0694 43.3523 44.7739 43.1455C44.9808 43.0568 45.1285 42.9978 45.3058 42.9387C46.5468 42.5545 47.7878 42.1704 49.0584 41.7863C49.3834 41.6976 49.6789 41.609 50.0039 41.4908C50.063 41.4613 50.0926 41.4317 50.1517 41.4022C50.1221 41.3726 50.0926 41.3135 50.0335 41.284C49.5903 41.018 49.147 40.8407 48.6152 40.8112C47.906 40.7817 47.2264 40.8998 46.5468 41.0476C45.1581 41.3726 43.8579 41.9045 42.5578 42.4954C42.2624 42.6136 41.9964 42.7614 41.6714 42.9091C41.7009 42.8205 41.76 42.7318 41.7896 42.6136C41.6418 42.6432 41.5237 42.6727 41.4646 42.7023C41.11 42.8796 40.7554 43.0864 40.4304 43.2932C40.1644 43.4705 39.9281 43.6478 39.7212 43.8546C39.5144 44.0319 39.5439 44.2092 39.6917 44.4161C39.869 44.6229 40.1054 44.7115 40.3417 44.6524C40.785 44.5638 41.2282 44.4456 41.6418 44.2979C42.4101 44.0319 43.1488 43.7365 43.917 43.441C44.0057 43.4114 44.0648 43.4114 44.1534 43.3819C44.1534 43.3819 44.1534 43.4114 44.183 43.4114C44.0648 43.5592 43.9466 43.7069 43.8284 43.8546C43.3261 44.5933 42.7942 45.332 42.3215 46.0707C42.2033 46.248 42.0555 46.3958 41.8487 46.4844C41.5532 46.6026 41.2577 46.7503 40.9918 46.8981C40.785 47.0163 40.7554 47.1936 40.9031 47.4004C40.9918 47.489 41.0804 47.6072 41.1691 47.6959C41.2873 47.8141 41.2873 47.9027 41.2282 48.08C40.8145 48.8778 40.519 49.7052 40.5486 50.6211C40.5486 50.7393 40.5781 50.9166 40.6372 50.9757C40.8736 51.2121 41.1691 51.2712 41.4941 51.2712C41.5237 51.0348 41.5237 50.7984 41.5828 50.5916C41.6418 50.3552 41.7009 50.1484 41.7896 49.9415C42.026 49.2915 42.2919 48.671 42.5283 48.0505C42.6465 47.7254 42.8533 47.489 43.1783 47.3413C44.3898 46.839 45.6308 46.3071 46.8423 45.8048C46.8718 45.7457 46.9605 45.6571 47.0787 45.598Z" fill="white"/>
<path d="M49.5903 43.8251C49.5608 43.9137 49.5903 44.0319 49.6494 44.0614C49.679 44.091 49.8267 44.091 49.8858 44.0614C50.2108 43.8546 50.5654 43.6478 50.8904 43.4114C51.245 43.1455 51.511 42.8204 51.6587 42.3772C51.7178 42.2295 51.7178 42.0522 51.7473 41.8749C51.6291 41.6976 51.5109 41.5203 51.3632 41.4021C51.1268 41.2248 50.8609 41.3135 50.7722 41.609C50.595 42.3181 50.2404 42.9386 49.7381 43.5C49.679 43.6478 49.6199 43.7364 49.5903 43.8251Z" fill="white"/>
<path d="M58.1 41.668C58.1296 41.6385 58.1887 41.6089 58.2773 41.5794C58.6024 41.3726 58.8092 41.0475 58.9569 40.6929C59.0456 40.4861 58.9865 40.3679 58.8387 40.2202C58.691 40.0724 58.5137 40.102 58.3955 40.2497C58.2182 40.427 58.0114 40.6339 57.8932 40.8407C57.8046 41.018 57.7455 41.2544 57.7455 41.4316C57.6864 41.6385 57.8637 41.7271 58.1 41.668Z" fill="white"/>
</svg>
