<svg width="252" height="252" viewBox="0 0 252 252" fill="none" xmlns="http://www.w3.org/2000/svg">
<path d="M125.924 76.4799C128.934 76.4799 131.944 73.4697 131.944 70.4594V48.2588C131.944 26.5598 114.384 9 92.6855 9H59.4473C56.437 9 53.4268 12.0103 53.4268 15.0205C53.4268 18.0308 56.437 21.041 59.4473 21.041H92.6855C107.486 21.041 119.903 33.4583 119.903 48.2588V70.4594C119.903 73.4697 122.914 76.4799 125.924 76.4799Z" fill="#1043FA"/>
<path d="M83.2788 205.294C85.662 200.528 91.557 198.395 95.947 198.395H154.647C159.539 198.395 164.054 200.904 167.315 205.294L183.872 227.495C190.394 237.403 200.052 242.797 211.089 242.797C227.646 242.797 242.572 229.376 243.7 213.447L235.985 122.569C233.853 91.0872 206.259 65.5 174.526 65.5H73.682C57.8782 65.5 42.8269 71.3951 31.413 82.0564C20.1245 92.7177 15.4226 108.213 14.4192 123.641L8.90039 211.189V212.318C8.90039 229.627 23.0737 243.8 40.3827 243.8C57.6916 243.8 60.5765 238.03 66.4716 228.623L83.1534 205.294H83.2788ZM55.5594 221.599C52.0474 227.369 46.2778 230.756 39.5047 230.756C28.5925 230.756 20.0634 222.227 20.0634 211.314V210.186L25.5822 122.637C27.8399 96.7992 49.5389 77.5 75.0006 77.5H125.987H176.973C202.435 77.5 224.134 96.7992 226.392 122.637L230.781 211.314V212.443C230.781 222.854 221.751 231.884 211.34 231.884C200.93 231.884 197.794 227.62 194.157 221.599L177.6 198.395C172.207 190.87 163.803 186.48 154.898 186.48H96.1979C88.0451 186.48 80.5194 190.243 72.2412 198.521L55.6848 221.725L55.5594 221.599Z" fill="#1043FA"/>
<path d="M114.886 124.77H93.8144V103.698H80.5191V124.77H59.4473V138.065H80.5191V159.137H93.8144V138.065H114.886V124.77Z" fill="#1043FA"/>
<path d="M159.162 121.508C155.901 121.508 152.515 118.122 152.515 114.861C152.515 111.6 155.901 108.213 159.162 108.213C162.423 108.213 165.81 111.6 165.81 114.861C165.81 118.122 162.549 121.508 159.162 121.508Z" fill="#1043FA"/>
<path d="M181.363 154.747C178.102 154.747 174.716 151.485 174.716 148.099C174.716 144.712 178.102 141.451 181.363 141.451C184.625 141.451 188.011 144.712 188.011 148.099C188.011 151.485 184.75 154.747 181.363 154.747Z" fill="#1043FA"/>
</svg>
