<svg width="91" height="91" viewBox="0 0 91 91" fill="none" xmlns="http://www.w3.org/2000/svg">
<path d="M57.5663 45.6566C57.8704 45.1955 58.0251 44.543 58.0251 43.7149C58.0251 42.8879 57.8704 42.2365 57.5674 41.7804C57.2656 41.3288 56.8106 41.1089 56.1763 41.1089C55.5404 41.1089 55.0877 41.3288 54.7919 41.7804C54.4924 42.2365 54.3403 42.8879 54.3403 43.7149C54.3403 44.543 54.4924 45.1967 54.7919 45.6566C55.0877 46.1139 55.5404 46.3349 56.1763 46.3349C56.8106 46.3349 57.2656 46.1127 57.5663 45.6566Z" fill="#00A1E0"/>
<path d="M74.0721 41.7807C73.876 42.0787 73.749 42.4617 73.6812 42.9212H77.1297C77.0952 42.4783 77.0083 42.0787 76.8089 41.7807C76.5082 41.3291 76.0889 41.0796 75.4541 41.0796C74.8194 41.0796 74.3682 41.3279 74.0721 41.7807Z" fill="#00A1E0"/>
<path d="M35.3504 41.7807C35.1544 42.0787 35.0283 42.4617 34.9595 42.9212H38.4077C38.3732 42.4783 38.2864 42.0787 38.0881 41.7807C37.7863 41.3291 37.3668 41.0796 36.7323 41.0796C36.0978 41.0796 35.6463 41.3279 35.3504 41.7807Z" fill="#00A1E0"/>
<path d="M24.2292 45.801C24.2933 45.8984 24.3195 45.9363 24.5084 46.0872C24.5084 46.0872 24.9421 46.4296 25.926 46.3701C26.6176 46.3284 27.2307 46.1964 27.2307 46.1964V43.9984C27.2307 43.9984 26.6116 43.896 25.9189 43.8866C24.9327 43.8737 24.5168 44.2358 24.5168 44.2358C24.2256 44.4417 24.0854 44.7469 24.0854 45.1723C24.0854 45.4408 24.1341 45.6523 24.2292 45.801Z" fill="#00A1E0"/>
<path fill-rule="evenodd" clip-rule="evenodd" d="M49.0828 18.133C44.9404 18.133 41.195 19.8715 38.5048 22.6746C35.5448 18.8044 30.876 16.3066 25.6227 16.3066C16.675 16.3066 9.42059 23.5503 9.42059 32.4861C9.42059 34.7735 9.89713 36.9493 10.7538 38.9207C6.5925 41.3531 3.79175 45.8993 3.79175 51.1064C3.79175 58.8766 10.0254 65.1742 17.7147 65.1738C18.6963 65.1738 19.6529 65.0718 20.5761 64.8758C22.6888 70.6073 28.1929 74.6932 34.6511 74.6932C40.8526 74.6932 46.1739 70.9269 48.4576 65.5545C50.1949 66.4019 52.1461 66.8778 54.2092 66.8778C59.1368 66.8778 63.4301 64.1626 65.6827 60.1442C66.8491 60.3796 68.0355 60.4979 69.2253 60.4972C79.1568 60.4972 87.2084 52.3754 87.2084 42.356C87.2084 32.3376 79.1568 24.2157 69.2253 24.2157C66.636 24.2157 64.1752 24.7683 61.9517 25.7616C59.3935 21.2034 54.5891 18.133 49.0828 18.133ZM53.0292 36.7424C53.2123 36.7768 53.3526 36.8089 53.5069 36.8564C53.5403 36.8694 53.6343 36.9157 53.596 37.0254L53.2267 38.0403C53.1956 38.1161 53.1744 38.1624 53.0163 38.115C52.9769 38.1028 52.9189 38.0865 52.7691 38.0543C52.661 38.0316 52.5173 38.0153 52.3721 38.0153C52.181 38.0153 52.0062 38.0388 51.853 38.0888C51.7032 38.1373 51.5664 38.2219 51.4477 38.3406C51.3275 38.4619 51.1849 38.639 51.1091 38.8566C50.9582 39.293 50.885 39.753 50.8615 39.9005L50.8535 39.9471H52.3994C52.5291 39.9471 52.5693 40.0066 52.5575 40.1029L52.377 41.1081C52.3493 41.2541 52.2151 41.2495 52.2151 41.2495H50.623L49.5333 47.4133C49.4191 48.0499 49.2754 48.5967 49.1079 49.0365C48.9391 49.482 48.7621 49.8073 48.4803 50.119C48.2191 50.4064 47.9245 50.6191 47.587 50.7416C47.2507 50.8626 46.8442 50.9255 46.3998 50.9255C46.1871 50.9255 45.9604 50.9221 45.6916 50.8591C45.4978 50.8129 45.392 50.7795 45.2495 50.7295C45.1892 50.7071 45.1414 50.632 45.1748 50.5361C45.2093 50.4398 45.4944 49.6564 45.5338 49.5533C45.5835 49.4286 45.7082 49.4759 45.7082 49.4759C45.7951 49.5127 45.8557 49.5378 45.9699 49.5605C46.0851 49.584 46.2406 49.6033 46.357 49.6033C46.5674 49.6033 46.76 49.5772 46.9261 49.5211C47.1282 49.4536 47.245 49.3372 47.3682 49.1802C47.4968 49.016 47.5999 48.7915 47.7057 48.492C47.8141 48.1879 47.9116 47.7875 47.9958 47.3003L49.0794 41.2495H48.0113C47.8831 41.2495 47.8414 41.1889 47.8543 41.0937L48.0337 40.0874C48.0625 39.9426 48.1956 39.9471 48.1956 39.9471H49.2933L49.3528 39.6203C49.5166 38.6496 49.8434 37.9116 50.325 37.4267C50.8084 36.9396 51.4977 36.6924 52.3725 36.6924C52.6231 36.6924 52.8438 36.7091 53.0292 36.7424ZM31.7682 47.4595C31.8491 47.4595 31.9073 47.3943 31.9073 47.3136V36.9942C31.9073 36.9135 31.8491 36.8481 31.7682 36.8481H30.4861C30.4053 36.8481 30.3482 36.9135 30.3482 36.9942V47.3136C30.3482 47.3943 30.4053 47.4595 30.4861 47.4595H31.7682ZM15.8974 46.7607C15.8725 46.7369 15.831 46.6978 15.8743 46.5848L16.2121 45.6483C16.2655 45.4867 16.3879 45.5402 16.4366 45.5713C16.476 45.5948 16.5114 45.6179 16.5482 45.6418C16.598 45.674 16.6504 45.7078 16.7194 45.748C17.714 46.3766 18.6349 46.3827 18.9236 46.3827C19.6675 46.3827 20.1286 45.9884 20.1286 45.4583V45.4299C20.1286 44.8505 19.4207 44.6329 18.5983 44.3799L18.4139 44.3235C17.2838 44.0004 16.0777 43.5367 16.0777 42.1072V42.0788C16.0777 40.7229 17.1709 39.7772 18.737 39.7772L18.9081 39.7761C19.8278 39.7761 20.7166 40.0434 21.3595 40.4343C21.4177 40.47 21.4747 40.5363 21.4427 40.627C21.4129 40.71 21.1277 41.4774 21.0945 41.5631C21.0339 41.7235 20.8687 41.6166 20.8687 41.6166C20.3055 41.3053 19.4309 41.0603 18.6942 41.0603C18.0311 41.0603 17.6033 41.4122 17.6033 41.89V41.9195C17.6033 42.478 18.3345 42.7154 19.1823 42.9911L19.3299 43.0388C20.4552 43.3941 21.6541 43.8863 21.6541 45.241V45.2695C21.6541 46.7346 20.5918 47.6446 18.8807 47.6446C18.0406 47.6446 17.2373 47.513 16.3865 47.0614L16.2868 47.0053C16.1601 46.9344 16.0342 46.8642 15.91 46.7736L15.8974 46.7607ZM40.947 46.7607C40.9224 46.7369 40.8807 46.6978 40.9243 46.5848L41.2618 45.6483C41.3114 45.4951 41.4566 45.5508 41.4874 45.5713L41.5446 45.6081C41.6113 45.6517 41.675 45.6934 41.7691 45.748C42.7636 46.3766 43.6846 46.3827 43.9732 46.3827C44.7171 46.3827 45.1793 45.9884 45.1793 45.4583V45.4299C45.1793 44.8509 44.471 44.6332 43.6494 44.3807L43.4636 44.3235C42.3333 44.0004 41.1271 43.5367 41.1271 42.1072V42.0788C41.1271 40.7229 42.2203 39.7772 43.7866 39.7772L43.9576 39.7761C44.8775 39.7761 45.7663 40.0434 46.4089 40.4343C46.4673 40.47 46.5246 40.5363 46.4924 40.627C46.4624 40.71 46.1773 41.4774 46.1439 41.5631C46.0836 41.7235 45.9183 41.6166 45.9183 41.6166C45.3552 41.3053 44.4805 41.0603 43.7438 41.0603C43.0806 41.0603 42.6529 41.4122 42.6529 41.89V41.9195C42.6529 42.4777 43.384 42.7154 44.231 42.9907L44.3796 43.0388C45.505 43.3941 46.7039 43.8863 46.7039 45.241V45.2695C46.7039 46.7346 45.6415 47.6446 43.9303 47.6446C43.0905 47.6446 42.287 47.513 41.4362 47.0614L41.3361 47.0049C41.2098 46.9344 41.0839 46.8642 40.9599 46.7736L40.9531 46.766L40.947 46.7607ZM58.8035 40.939C59.0943 41.2871 59.3131 41.7053 59.4534 42.1796C59.5933 42.6513 59.6639 43.1681 59.6639 43.7149C59.6639 44.2616 59.5937 44.7785 59.4534 45.2501C59.3131 45.7241 59.0943 46.1427 58.8035 46.4908C58.5123 46.84 58.1426 47.1194 57.7066 47.3177C57.2694 47.516 56.7549 47.6173 56.1763 47.6173C55.5961 47.6173 55.0816 47.516 54.6444 47.3177C54.2084 47.1194 53.8387 46.84 53.5475 46.4908C53.2552 46.1416 53.0379 45.723 52.8965 45.2501C52.7573 44.7796 52.6872 44.2628 52.6872 43.7149C52.6872 43.167 52.7573 42.6513 52.8965 42.1796C53.0379 41.7068 53.2567 41.2886 53.5464 40.939C53.8387 40.5898 54.2073 40.3092 54.6444 40.1048C55.0805 39.9016 55.5961 39.7985 56.1763 39.7985C56.7549 39.7985 57.2706 39.9016 57.7066 40.1048C58.1438 40.3092 58.5123 40.5898 58.8035 40.939ZM71.0006 46.027C71.0006 46.027 71.1348 45.9747 71.1822 46.1139L71.5329 47.0823C71.578 47.2025 71.4745 47.2521 71.4745 47.2521C70.9353 47.4648 70.1842 47.6135 69.4524 47.6135C68.2141 47.6135 67.2646 47.2559 66.6326 46.5522C66.0016 45.8511 65.682 44.8933 65.682 43.7088C65.682 43.1609 65.7601 42.643 65.9148 42.1713C66.0702 41.6981 66.3031 41.2799 66.6098 40.9307C66.9162 40.5811 67.3037 40.3009 67.7602 40.0976C68.2175 39.8933 68.7521 39.7909 69.3523 39.7909C69.7539 39.7909 70.1152 39.8159 70.4242 39.8637C70.7545 39.9134 71.1917 40.0309 71.3771 40.1033C71.4104 40.1166 71.503 40.1629 71.465 40.2709C71.3759 40.5265 71.3046 40.7221 71.2299 40.928L71.1143 41.248C71.0608 41.3951 70.9482 41.3466 70.9482 41.3466C70.4777 41.198 70.0284 41.1301 69.4391 41.1301C68.732 41.1301 68.2023 41.3667 67.8539 41.8278C67.5035 42.2911 67.3086 42.8997 67.306 43.7088C67.3037 44.5976 67.5247 45.2547 67.9194 45.6611C68.3126 46.0676 68.8617 46.2731 69.5533 46.2731C69.8346 46.2731 70.0974 46.2542 70.3363 46.2174C70.5713 46.1806 70.7924 46.1067 71.0006 46.027ZM77.8711 40.779C78.0686 40.9906 78.3693 41.4528 78.4902 41.9101C78.7803 42.9289 78.6578 43.8176 78.6366 43.972L78.6339 43.9932C78.6207 44.1168 78.4936 44.1191 78.4936 44.1191L73.6589 44.1145C73.6896 44.8486 73.8644 45.3692 74.222 45.7233C74.57 46.0691 75.1263 46.2902 75.8759 46.2913C76.9228 46.2936 77.4236 46.1017 77.766 45.9706L77.8604 45.9349C77.8604 45.9349 77.995 45.886 78.0424 46.0179L78.3583 46.9033C78.4227 47.0531 78.3716 47.1054 78.3181 47.135C78.0151 47.3026 77.2796 47.6139 75.8831 47.6184C75.2048 47.6199 74.614 47.5225 74.1283 47.3344C73.6384 47.146 73.2297 46.8749 72.9127 46.5291C72.5942 46.1855 72.3587 45.7711 72.2116 45.3002C72.0653 44.8334 71.9917 44.314 71.9917 43.7566C71.9917 43.2091 72.063 42.6896 72.2044 42.2134C72.3447 41.7345 72.5654 41.3125 72.8592 40.9583C73.1527 40.6031 73.5269 40.3179 73.9725 40.1086C74.4168 39.8997 74.9647 39.7985 75.5684 39.7985C76.0863 39.7985 76.5595 39.9103 76.9538 40.0791C77.2557 40.2099 77.5598 40.4438 77.8711 40.779ZM39.1494 40.779C39.3466 40.9906 39.6461 41.4528 39.7671 41.9101C40.0571 42.9251 39.9369 43.8112 39.9153 43.9701L39.9123 43.9932C39.8994 44.1168 39.772 44.1191 39.772 44.1191L34.9371 44.1145C34.968 44.8486 35.1426 45.3692 35.5004 45.7233C35.8485 46.0691 36.4047 46.2902 37.1533 46.2913C38.2015 46.2936 38.702 46.1017 39.0444 45.9706L39.1388 45.9349C39.1388 45.9349 39.273 45.886 39.3219 46.0179L39.6366 46.9033C39.7007 47.0531 39.6499 47.1054 39.5965 47.135C39.2931 47.3026 38.5579 47.6139 37.1615 47.6184C36.483 47.6199 35.8925 47.5225 35.4064 47.3344C34.9169 47.146 34.5082 46.8749 34.1908 46.5291C33.8724 46.1855 33.6372 45.7711 33.4898 45.3002C33.3436 44.8334 33.2699 44.314 33.2699 43.7566C33.2699 43.2091 33.3424 42.6896 33.4826 42.2134C33.6228 41.7345 33.8438 41.3125 34.1373 40.9583C34.4308 40.6031 34.8052 40.3179 35.2507 40.1086C35.6951 39.8997 36.2441 39.7985 36.8465 39.7985C37.3647 39.7985 37.8375 39.9103 38.2322 40.0791C38.534 40.2099 38.8381 40.4438 39.1494 40.779ZM25.6778 42.6676C25.982 42.6676 26.2363 42.676 26.4324 42.69C26.4324 42.69 26.8138 42.7245 27.2297 42.784V42.5793C27.2297 41.9355 27.0954 41.6302 26.8317 41.4281C26.5608 41.22 26.1592 41.1157 25.6363 41.1157C25.6363 41.1157 24.4599 41.1002 23.5295 41.6063C23.4867 41.6314 23.4498 41.6458 23.4498 41.6458C23.4498 41.6458 23.3345 41.686 23.2918 41.5673L22.9495 40.6474C22.8972 40.5143 22.9923 40.4548 22.9923 40.4548C23.4272 40.1151 24.4836 39.9107 24.4836 39.9107C24.8329 39.8406 25.4163 39.7905 25.7788 39.7905C26.7448 39.7905 27.4922 40.0154 27.9996 40.4597C28.5094 40.9053 28.7684 41.6242 28.7684 42.5937L28.7709 47.0155C28.7709 47.0155 28.7804 47.1437 28.6603 47.1733C28.5478 47.204 28.4349 47.2328 28.3216 47.2601C28.1601 47.2969 27.5778 47.4144 27.1037 47.4956C26.6248 47.5775 26.1305 47.6177 25.635 47.6177C25.1644 47.6177 24.7343 47.574 24.3552 47.4872C23.9703 47.4004 23.6387 47.2567 23.3702 47.0607C23.0993 46.8646 22.8866 46.6102 22.7392 46.305C22.5919 46.0005 22.5182 45.6285 22.5182 45.2008C22.5182 44.7803 22.605 44.4046 22.7761 44.0861C22.9454 43.7702 23.1853 43.4972 23.4771 43.2887C23.7695 43.0798 24.1093 42.9217 24.4872 42.8208C24.8626 42.7196 25.2631 42.6676 25.6778 42.6676ZM65.3567 40.0252C65.3889 40.037 65.4659 40.0893 65.4291 40.1989C65.384 40.3304 65.1489 40.9925 65.0655 41.2135C65.0347 41.2977 64.9824 41.355 64.8899 41.3443C64.8899 41.3443 64.6116 41.2791 64.3587 41.2791C64.1828 41.2791 63.9344 41.3015 63.7099 41.3705C63.49 41.438 63.2891 41.5582 63.112 41.7292C62.9361 41.9017 62.7935 42.1417 62.6892 42.4413C62.5823 42.7442 62.5285 43.2265 62.5285 43.71V47.3128C62.5288 47.3519 62.5133 47.3894 62.486 47.4167C62.4587 47.4444 62.4215 47.4603 62.3825 47.4603H61.1123C61.0315 47.4603 60.9648 47.3939 60.9648 47.3128V40.1014C60.9648 40.0192 61.0232 39.9539 61.1039 39.9539H62.343C62.4242 39.9539 62.4822 40.0192 62.4822 40.1014V40.6895C62.6676 40.4412 63.0005 40.2224 63.2997 40.087C63.6019 39.9517 63.9393 39.8493 64.5464 39.8861C64.8637 39.9065 65.2748 39.9934 65.3567 40.0252Z" fill="#00A1E0"/>
</svg>
