<svg width="100" height="75" viewBox="0 0 100 75" fill="none" xmlns="http://www.w3.org/2000/svg">
<path d="M88.576 40.972V38.244V32.912H80.516H75.184V30.308H88.576V24.976H75.184H67.124V30.308V32.912V38.244H75.184H80.516V40.972H67.124V46.304H80.516H88.576V40.972Z" fill="black"/>
<path d="M64.52 24.976H59.188V46.304H64.52V24.976Z" fill="black"/>
<path d="M35.132 24.976V30.308H51.128V32.912H40.464H35.132V38.244V46.304H40.464V38.368L48.524 46.304H56.46L48.152 38.244H51.128H56.46V32.912V30.308V24.976H51.128H35.132Z" fill="black"/>
<path d="M19.136 38.244H24.468V32.912H19.136V38.244ZM20.5 34.276H23.228V37.004H20.5V34.276Z" fill="black"/>
<path d="M16.532 24.976H11.82C11.696 24.976 11.448 25.1 11.324 25.224C11.2 25.348 11.076 25.472 11.076 25.72V45.684C11.076 45.808 11.2 46.056 11.324 46.18C11.448 46.18 11.696 46.304 11.82 46.304H24.468V40.972H16.532V24.976Z" fill="black"/>
<path d="M31.908 24.976H19.136V30.308H27.196V38.368H32.528V25.596C32.528 25.472 32.404 25.224 32.28 25.1C32.156 25.1 32.032 24.976 31.908 24.976Z" fill="black"/>
<path d="M32.528 40.972H27.196V53H32.528V40.972Z" fill="black"/>
<path d="M18.64 22H8.59599C8.47199 22 8.22399 22.124 8.09999 22.248C7.97599 22.372 7.85199 22.496 7.85199 22.744V32.664H9.21599V23.984C9.21599 23.86 9.33999 23.612 9.46399 23.488C9.58799 23.364 9.71199 23.24 9.95999 23.24H18.64V22Z" fill="black"/>
<path d="M90.684 39.36V48.04C90.684 48.164 90.56 48.412 90.436 48.536C90.312 48.66 90.188 48.784 89.94 48.784H81.26V50.024H91.304C91.428 50.024 91.676 49.9 91.8 49.776C91.924 49.652 92.048 49.528 92.048 49.28V39.236H90.684V39.36Z" fill="black"/>
</svg>
