<svg width="125" height="45" viewBox="0 0 125 45" fill="none" xmlns="http://www.w3.org/2000/svg">
<path d="M53.1353 24.8319C53.1353 30.7123 48.535 35.0455 42.8894 35.0455C37.2438 35.0455 32.6436 30.7123 32.6436 24.8319C32.6436 18.91 37.2438 14.6183 42.8894 14.6183C48.535 14.6183 53.1353 18.91 53.1353 24.8319ZM48.6501 24.8319C48.6501 21.1572 45.9839 18.6429 42.8894 18.6429C39.7949 18.6429 37.1287 21.1572 37.1287 24.8319C37.1287 28.4698 39.7949 31.0209 42.8894 31.0209C45.9839 31.0209 48.6501 28.4652 48.6501 24.8319Z" fill="#EA4335"/>
<path d="M75.2385 24.8319C75.2385 30.7123 70.6383 35.0455 64.9927 35.0455C59.3471 35.0455 54.7468 30.7123 54.7468 24.8319C54.7468 18.9146 59.3471 14.6183 64.9927 14.6183C70.6383 14.6183 75.2385 18.91 75.2385 24.8319ZM70.7534 24.8319C70.7534 21.1572 68.0872 18.6429 64.9927 18.6429C61.8982 18.6429 59.232 21.1572 59.232 24.8319C59.232 28.4698 61.8982 31.0209 64.9927 31.0209C68.0872 31.0209 70.7534 28.4652 70.7534 24.8319Z" fill="#FBBC05"/>
<path d="M96.421 15.2353V33.572C96.421 41.1148 91.9727 44.1954 86.7139 44.1954C81.7637 44.1954 78.7843 40.8845 77.6607 38.1768L81.5657 36.5513C82.261 38.2137 83.9648 40.1754 86.7093 40.1754C90.0755 40.1754 92.1615 38.0986 92.1615 34.189V32.7201H92.0049C91.0011 33.9588 89.067 35.0409 86.6264 35.0409C81.5196 35.0409 76.8411 30.5926 76.8411 24.8687C76.8411 19.1034 81.5196 14.6183 86.6264 14.6183C89.0624 14.6183 90.9965 15.7004 92.0049 16.9023H92.1615V15.2399H96.421V15.2353ZM92.4792 24.8687C92.4792 21.2723 90.0801 18.6429 87.0271 18.6429C83.9326 18.6429 81.34 21.2723 81.34 24.8687C81.34 28.4283 83.9326 31.0209 87.0271 31.0209C90.0801 31.0209 92.4792 28.4283 92.4792 24.8687Z" fill="#4285F4"/>
<path d="M103.443 4.48755V34.4192H99.0688V4.48755H103.443Z" fill="#34A853"/>
<path d="M120.491 28.1934L123.972 30.5143C122.848 32.1766 120.141 35.0409 115.462 35.0409C109.66 35.0409 105.327 30.5557 105.327 24.8273C105.327 18.7534 109.697 14.6136 114.96 14.6136C120.261 14.6136 122.853 18.8317 123.7 21.1111L124.165 22.2716L110.512 27.9263C111.557 29.9755 113.183 31.0208 115.462 31.0208C117.746 31.0208 119.33 29.8972 120.491 28.1934ZM109.775 24.5187L118.902 20.7289C118.4 19.4534 116.89 18.5646 115.112 18.5646C112.833 18.5646 109.66 20.577 109.775 24.5187Z" fill="#EA4335"/>
<path d="M16.0843 22.1749V17.8417H30.6864C30.8292 18.5969 30.9028 19.4902 30.9028 20.4573C30.9028 23.7083 30.0141 27.7284 27.1499 30.5926C24.3639 33.4937 20.8043 35.0409 16.089 35.0409C7.34889 35.0409 -0.000488281 27.9218 -0.000488281 19.1817C-0.000488281 10.4416 7.34889 3.32251 16.089 3.32251C20.9241 3.32251 24.3685 5.21972 26.9565 7.69254L23.8988 10.7502C22.0431 9.00953 19.5288 7.6557 16.0843 7.6557C9.70199 7.6557 4.7103 12.7993 4.7103 19.1817C4.7103 25.5641 9.70199 30.7077 16.0843 30.7077C20.2241 30.7077 22.5818 29.0454 24.0922 27.535C25.3171 26.3101 26.123 24.5602 26.4407 22.1703L16.0843 22.1749Z" fill="#4285F4"/>
</svg>
