<svg width="116" height="38" viewBox="0 0 116 38" fill="none" xmlns="http://www.w3.org/2000/svg">
<g clip-path="url(#clip0_141_86)">
<path d="M28.238 17.4947C28.238 14.0103 24.9892 9.00205 18.7115 9.00205C13.0246 9.00205 9.18446 13.7933 9.18446 18.7289C9.18446 24.6066 13.3217 28.8183 20.4104 28.8183H33.851C30.6755 33.6772 25.1365 36.8007 18.7847 36.8007C8.74121 36.8006 0.616699 28.7462 0.616699 18.8733C0.616699 9.00218 8.74134 0.945923 18.7847 0.945923C28.8289 0.945923 37.0267 9.00218 37.0267 18.8733C37.0267 20.8325 36.6588 22.7213 36.1417 24.4622H15.832V22.5L22.9949 22.2838C26.6145 22.1384 28.238 20.3266 28.238 17.4947Z" fill="#000099"/>
<path d="M52.4308 9.84427C52.4308 8.8227 51.4778 7.35426 49.6358 7.35426C47.9684 7.35426 46.8437 8.75734 46.8437 10.2046C46.8437 11.9291 48.0551 13.1641 50.1347 13.1641H54.0775C53.1458 14.59 51.5202 15.5055 49.6579 15.5055C46.7122 15.5055 44.3296 13.1434 44.3296 10.2485C44.3296 7.35426 46.7118 4.98914 49.6579 4.98914C52.6048 4.98914 55.0091 7.35413 55.0091 10.2485C55.0091 10.8219 54.9005 11.3767 54.7477 11.8878H48.7917V11.3122L50.8924 11.247C51.9538 11.2057 52.4308 10.6737 52.4308 9.84427Z" fill="#000099"/>
<path d="M59.4473 8.24673L61.4845 5.31047H64.2978L60.8349 10.0572L64.5802 15.1869H61.5924L59.3628 11.9943L57.1093 15.1871H54.2932L57.9742 10.1838L54.4017 5.31035H57.3909L59.4473 8.24673ZM67.68 7.24568C68.4141 5.71505 69.736 5.0332 71.0771 5.0332C73.5048 5.0332 75.7153 7.05607 75.7153 10.2486C75.7153 13.4415 73.5048 15.4641 71.0771 15.4641C69.736 15.4641 68.4141 14.7818 67.6797 13.2493C67.6334 13.1642 67.5723 13.1847 67.5723 13.2705V19.2514H64.9702V5.31085H67.5722V7.22504C67.5722 7.31028 67.6336 7.33194 67.6798 7.24619M70.3619 13.3566C71.8811 13.3566 73.2031 12.0575 73.2031 10.2492C73.2031 8.43888 71.881 7.14042 70.3619 7.14042C68.87 7.14042 67.5245 8.43888 67.5245 10.2492C67.5245 12.0574 68.87 13.3566 70.3619 13.3566ZM84.6585 9.84425C84.6585 8.82268 83.7036 7.35424 81.8637 7.35424C80.1983 7.35424 79.0694 8.75733 79.0694 10.2046C79.0694 11.9291 80.2829 13.1641 82.3626 13.1641H86.3052C85.3736 14.5899 83.7501 15.5055 81.8877 15.5055C78.9418 15.5055 76.5574 13.1434 76.5574 10.2484C76.5574 7.35424 78.9379 4.98912 81.8877 4.98912C84.8325 4.98912 87.2368 7.35411 87.2368 10.2484C87.2368 10.8219 87.1285 11.3767 86.9771 11.8878H81.0171V11.3122L83.1198 11.247C84.1833 11.2057 84.6584 10.6737 84.6585 9.84425ZM96.1136 13.2493C95.3796 14.782 94.0575 15.4641 92.7122 15.4641C90.2894 15.4641 88.0782 13.4413 88.0782 10.2486C88.0782 7.05607 90.2894 5.0332 92.7122 5.0332C94.0575 5.0332 95.3795 5.71504 96.1136 7.24581C96.1558 7.33106 96.2223 7.31041 96.2223 7.22466V1.03129H98.8236V15.186H96.2223V13.2697C96.2223 13.1845 96.156 13.1637 96.1136 13.2485M93.4275 7.13815C91.9124 7.13815 90.5902 8.43724 90.5902 10.2477C90.5902 12.056 91.9124 13.3551 93.4275 13.3551C94.9235 13.3551 96.2686 12.056 96.2686 10.2477C96.2686 8.43724 94.9235 7.13815 93.4275 7.13815ZM100.469 2.43704C100.469 1.62827 101.161 0.946045 101.985 0.946045C102.807 0.946045 103.5 1.62814 103.5 2.43704C103.5 3.2439 102.807 3.92601 101.985 3.92601C101.161 3.92601 100.469 3.2439 100.469 2.43704ZM103.283 15.1868H100.686V5.31022H103.283V15.1868ZM112.617 13.2493C111.883 14.782 110.561 15.4641 109.22 15.4641C106.793 15.4641 104.581 13.4413 104.581 10.2486C104.581 7.05607 106.793 5.0332 109.22 5.0332C110.561 5.0332 111.883 5.71504 112.617 7.24581C112.663 7.33106 112.725 7.31041 112.725 7.22466V5.31047H115.327V15.186H112.725V13.2697C112.725 13.1845 112.664 13.1637 112.617 13.2485M109.931 7.13815C108.415 7.13815 107.094 8.43724 107.094 10.2477C107.094 12.056 108.415 13.3551 109.931 13.3551C111.427 13.3551 112.772 12.056 112.772 10.2477C112.772 8.43724 111.427 7.13815 109.931 7.13815ZM53.2891 30.7445C53.2891 30.6614 53.2235 30.6377 53.1805 30.7256C52.4447 32.2559 51.144 32.9361 49.8241 32.9361C47.4199 32.9361 45.2324 30.9382 45.2324 27.7664C45.2324 24.5946 47.4199 22.593 49.8241 22.593C51.144 22.593 52.4447 23.2723 53.1805 24.807C53.2235 24.8907 53.2891 24.8721 53.2891 24.7837V22.8698H55.8888V32.1725C55.8888 34.9184 53.9594 37.0459 50.6241 37.0459C48.761 37.0459 47.1379 36.4073 45.9478 35.3207L47.505 33.6609C48.5442 34.4703 49.3676 34.8958 50.5816 34.8958C52.4873 34.8958 53.289 33.5775 53.289 31.9363V30.7445H53.2891ZM50.5394 24.7015C49.0434 24.7015 47.7446 25.9779 47.7446 27.7667C47.7446 29.5521 49.0433 30.8318 50.5394 30.8318C52.0115 30.8318 53.3315 29.5519 53.3315 27.7667C53.3315 25.9779 52.0116 24.7015 50.5394 24.7015ZM60.3481 22.8704V25.0202C60.3481 25.0624 60.3901 25.0853 60.4137 25.0202C60.7619 23.2543 61.5424 22.5927 62.8838 22.5927H63.1239V25.2749H61.9528C60.8893 25.2749 60.3481 26.0841 60.3481 27.2351V32.747H57.7515V22.8705H60.3481V22.8704ZM68.6466 22.5515C71.5684 22.5515 73.9727 24.9143 73.9727 27.8084C73.9727 30.7027 71.5683 33.0655 68.6466 33.0655C65.6788 33.0655 63.2744 30.7027 63.2744 27.8084C63.2744 24.9143 65.6787 22.5515 68.6466 22.5515ZM68.6229 24.872C67.0616 24.872 65.7861 26.1483 65.7861 27.8084C65.7861 29.4685 67.0616 30.7449 68.6229 30.7449C70.1803 30.7449 71.4603 29.4686 71.4603 27.8084C71.4603 26.1487 70.1803 24.872 68.6229 24.872ZM79.3639 33.0655C76.8328 33.0655 75.2049 31.5537 75.2049 29.339V22.8708H77.8066V29.149C77.8066 30.1289 78.4555 30.7676 79.4295 30.7676C80.3187 30.7676 80.9917 30.106 80.9917 29.1718V22.8705H83.5885V29.3385C83.5885 31.5533 81.8338 33.0652 79.3639 33.0652M88.0949 24.8078C88.8292 23.2729 90.1514 22.593 91.4921 22.593C93.919 22.593 96.1305 24.6138 96.1305 27.8085C96.1305 31.0034 93.919 33.0243 91.4921 33.0243C90.1514 33.0243 88.8292 32.3441 88.0949 30.8094C88.0487 30.7264 87.9862 30.7449 87.9862 30.8328V36.8115H85.3853V22.871H87.9864V24.7852C87.9864 24.8725 88.0483 24.8912 88.0949 24.8085M90.7814 30.9166C92.2963 30.9166 93.6183 29.6176 93.6183 27.8093C93.6183 26.0011 92.2963 24.7019 90.7814 24.7019C89.2852 24.7019 87.9398 26.0011 87.9398 27.8093C87.9398 29.6176 89.2851 30.9166 90.7814 30.9166Z" fill="#000099"/>
</g>
<defs>
<clipPath id="clip0_141_86">
<rect width="116" height="38" fill="white"/>
</clipPath>
</defs>
</svg>
