<svg width="79" height="35" viewBox="0 0 79 35" fill="none" xmlns="http://www.w3.org/2000/svg">
<g clip-path="url(#clip0_141_136)">
<path d="M45.2173 1.58187C43.6932 2.4024 43.0327 3.93405 43.0327 8.09139C43.0327 8.09139 43.7948 7.27086 45.0141 6.77854C45.9031 6.42298 46.5382 5.95801 46.9954 5.60245C48.3163 4.53577 48.5195 3.25027 48.5195 1.0075C48.4941 1.0075 46.4112 0.870746 45.2173 1.58187Z" fill="#FFBA62"/>
<path d="M35.8929 2.5397C34.572 3.71579 34.2418 5.73976 34.2418 5.73976L29.9743 23.3537L26.4688 8.93982C26.1386 7.40816 25.4781 5.52095 24.4875 4.20811C23.2682 2.5397 20.728 2.4303 20.4232 2.4303C20.1945 2.4303 17.6797 2.5397 16.3588 4.20811C15.3682 5.52095 14.7077 7.40816 14.3775 8.93982L11.0752 23.3537L6.80772 5.73976C6.80772 5.73976 6.47749 3.85255 5.15659 2.5397C3.07363 0.515737 0 1.00805 0 1.00805L8.12862 33.9659C8.12862 33.9659 10.7704 34.212 12.0913 33.5009C13.8441 32.5436 14.7331 31.8599 15.7238 27.347C16.7145 23.3264 19.3563 11.6202 19.5595 10.7997C19.6611 10.4441 19.8897 9.37743 20.5502 9.37743C21.2106 9.37743 21.4392 10.3347 21.5408 10.7997C21.7695 11.6202 24.3859 23.3264 25.3765 27.347C26.4688 31.8325 27.2309 32.5436 29.009 33.5009C30.3299 34.212 32.9717 33.9659 32.9717 33.9659L41.0495 1.00805C41.0495 1.00805 37.9759 0.543088 35.8929 2.5397Z" fill="#06061A"/>
<path d="M48.4907 6.31348C48.4907 6.31348 47.9319 7.134 46.8396 7.84513C46.0775 8.31009 45.4171 8.55625 44.655 9.02122C43.3341 9.73234 43.0039 10.4435 43.0039 11.5101V11.8657V13.6435V13.9991V33.8558C43.0039 33.8558 45.0869 34.102 46.4078 33.3909C48.1605 32.4336 48.4907 31.5037 48.4907 27.4831V7.62632V6.31348Z" fill="#06061A"/>
<path d="M68.686 17.5548L78.9992 1.1169C78.9992 1.1169 74.7317 0.296374 72.5217 2.42974C71.0992 3.74259 69.6767 6.20417 69.6767 6.20417L65.9426 12.112C65.714 12.4675 65.5108 12.7137 65.1806 12.7137C64.8503 12.7137 64.5201 12.3581 64.4185 12.112L60.6844 6.20417C60.6844 6.20417 59.1603 3.85199 57.8394 2.42974C55.6548 0.296374 51.3619 1.1169 51.3619 1.1169L61.3449 17.5274L51.1333 33.938C51.1333 33.938 55.6294 34.5397 57.8394 32.4063C59.2619 31.0935 60.5828 28.8507 60.5828 28.8507L64.3169 22.9429C64.5455 22.5874 64.7487 22.3412 65.079 22.3412C65.4092 22.3412 65.7394 22.6968 65.841 22.9429L69.5751 28.8507C69.5751 28.8507 70.9976 31.0935 72.3185 32.4063C74.5031 34.5397 78.8976 33.938 78.8976 33.938L68.686 17.5548Z" fill="#06061A"/>
</g>
<defs>
<clipPath id="clip0_141_136">
<rect width="79" height="33.0946" fill="white" transform="translate(0 0.952759)"/>
</clipPath>
</defs>
</svg>
