<svg width="163" height="38" viewBox="0 0 163 38" fill="none" xmlns="http://www.w3.org/2000/svg">
<path d="M18.6719 37.3438C28.9841 37.3438 37.3438 28.9841 37.3438 18.6719C37.3438 8.35968 28.9841 0 18.6719 0C8.35968 0 0 8.35968 0 18.6719C0 28.9841 8.35968 37.3438 18.6719 37.3438Z" fill="url(#paint0_linear_141_281)"/>
<path fill-rule="evenodd" clip-rule="evenodd" d="M8.44192 18.4697C13.8833 16.1066 17.5058 14.5364 19.3248 13.7746C24.5019 11.6135 25.5902 11.2404 26.2898 11.2249C26.4453 11.2249 26.7873 11.2559 27.0205 11.4425C27.2071 11.598 27.2537 11.8001 27.2848 11.9556C27.3159 12.111 27.347 12.4375 27.3159 12.6863C27.0361 15.6402 25.8234 22.8073 25.2015 26.1033C24.9372 27.5025 24.4242 27.9689 23.9267 28.0155C22.8384 28.1088 22.0144 27.3004 20.9727 26.6163C19.3248 25.5436 18.4075 24.8751 16.8062 23.8179C14.9561 22.6052 16.1532 21.9367 17.2104 20.8484C17.4902 20.5686 22.2631 16.2154 22.3564 15.8267C22.372 15.7801 22.372 15.5935 22.2631 15.5003C22.1543 15.407 21.9988 15.4381 21.8745 15.4692C21.7035 15.5003 19.0916 17.2415 14.0077 20.6774C13.2615 21.1904 12.593 21.4392 11.9866 21.4236C11.3181 21.4081 10.0433 21.0505 9.07934 20.7396C7.91332 20.3665 6.98051 20.1643 7.05824 19.5114C7.10488 19.1693 7.57129 18.8273 8.44192 18.4697Z" fill="white"/>
<path d="M103.67 33.891C102.865 33.7431 102.1 33.5188 101.319 33.2859C101.314 32.4656 101.386 31.6132 101.542 30.8351C108.557 32.8598 110.182 31.5341 110.302 27.0481V25.9704L109.396 26.7982C108.218 27.8753 107.064 28.2603 105.345 28.1499C101.93 27.9307 100.038 25.4334 100.032 21.1359C100.029 18.5661 100.597 16.9336 102.026 15.4059C103.932 13.3681 107.194 12.9762 109.475 14.511L110.302 15.0677V14.4848V13.902L111.771 13.9506L113.24 13.9993L113.289 19.7919C113.365 28.8232 113.1 30.5867 111.413 32.3054C109.152 34.2141 106.841 34.2074 103.67 33.891ZM108.115 24.9991C108.505 24.7999 109.157 24.3305 109.563 23.9559L110.302 23.2748V20.4568V17.6387L109.776 17.1961C107.976 15.6812 106.04 15.566 104.579 16.8867C103.631 17.743 103.213 18.9794 103.2 20.9669C103.185 23.3676 103.702 24.5834 104.996 25.1909C105.854 25.5933 107.1 25.5167 108.115 24.9991ZM65.6262 26.9007C63.9101 25.2638 63.1023 22.6996 63.446 19.9796C63.7252 17.7702 64.399 16.3296 65.7245 15.1077C66.7762 14.1384 67.7641 13.7309 69.3217 13.6241C73.1151 13.3641 75.3643 15.9519 75.3754 20.5892L75.3786 21.8064C72.4828 21.8838 69.1717 21.6238 66.4798 22.0278C66.8735 24.5216 68.676 26.386 71.181 26.4229C72.6863 26.4229 73.7691 26.041 75.2162 25.7556L75.2602 28.0523C75.2602 28.0523 71.8805 28.8548 70.5934 28.8451C68.618 28.8531 66.7424 27.9563 65.6262 26.9007ZM72.3551 18.9941C72.3519 17.5643 71.4221 16.2213 70.2873 16.0084C68.496 15.6724 67.1233 16.7107 66.6733 18.7423L66.5152 19.4558H69.4356H72.3561L72.3551 18.9941ZM87.6214 26.9007C85.9053 25.2638 85.0975 22.6996 85.4412 19.9796C85.7204 17.7702 86.3942 16.3296 87.7197 15.1077C88.7714 14.1384 89.7593 13.7309 91.3169 13.6241C95.1103 13.3641 97.3595 15.9519 97.3706 20.5892L97.3738 21.8064C94.2833 21.7665 91.3227 21.7793 88.3971 21.7554C88.5714 24.7002 90.4742 26.5755 93.1762 26.423C94.6955 26.4525 96.0291 26.0387 97.2114 25.7558C97.4742 25.9182 97.4101 27.7799 97.1339 28.0092C96.7523 28.3258 93.8757 28.855 92.5886 28.8453C90.6132 28.8533 88.7375 27.9562 87.6214 26.9007ZM94.3503 18.9941C94.3471 17.5643 93.4173 16.2213 92.2825 16.0084C90.4912 15.6724 89.1185 16.7107 88.6685 18.7423L88.5104 19.4558H91.4308H94.3513L94.3503 18.9941ZM129.568 28.629C127.467 27.8452 126.433 25.5853 127.122 23.2852C127.397 22.3658 128.45 21.2347 129.515 20.7136C130.522 20.2208 132.56 19.8062 134.018 19.7974L134.984 19.7895V18.6059C134.927 15.4082 132.4 15.6162 129.907 16.5215C129.236 16.7628 128.36 16.9623 128.199 17.0123C128.178 16.2621 128.1 15.7469 128.1 14.5991L129.485 14.1608C130.408 13.8688 131.431 13.6906 132.552 13.6268C135.245 13.4733 136.701 14.0638 137.551 15.655C137.901 16.3091 137.926 16.6096 138.006 21.0775C138.09 25.7994 138.091 25.8084 138.497 26.2406C138.741 26.4999 139.632 26.7515 139.906 26.7515C139.898 27.7371 140.012 27.6968 139.893 28.6214C139.501 28.7269 138.199 28.858 137.712 28.8178C136.761 28.7388 136.171 28.3399 135.718 27.4679L135.476 27.0031L134.852 27.5023C133.413 28.6543 131.012 29.1653 129.569 28.6268L129.568 28.629ZM133.096 26.1023C133.466 25.9717 134.042 25.6884 134.374 25.4727L134.979 25.0807V23.3596V21.6386H134.259C132.565 21.6386 130.548 22.5077 130.134 23.4155C129.679 24.4158 130.06 25.6043 130.983 26.0591C131.67 26.3976 132.223 26.4089 133.092 26.1021L133.096 26.1023ZM52.3757 19.7916V11.0607H48.9337H45.4917V9.88534V8.71011H53.9708H62.4498V9.88534V11.0607H59.0078H55.5658V19.7916V28.5227H53.9708H52.3757V19.7916ZM79.0722 18.0286V7.53479H80.5833H82.0944V18.0286V28.5227H80.5833H79.0722V18.0286ZM117.522 21.2188V13.902C118.501 13.9347 119.52 13.8892 120.499 13.9211C120.489 14.5252 120.525 15.127 120.56 15.7296C121.938 14.216 123.399 13.8265 124.622 13.6961L125.749 13.5793V15.0185V16.4579C123.86 15.9032 121.891 17.1519 120.99 18.3645C120.645 18.845 120.624 19.0888 120.544 23.6535L120.46 28.4388C119.481 28.4715 118.501 28.5033 117.522 28.536L117.522 21.2188ZM142.539 21.2188V13.9151C143.547 13.9151 144.554 13.9151 145.561 13.9151C145.561 14.5837 145.561 15.7508 145.561 16.4195C146.836 14.9866 148.379 13.6376 150.095 13.6632C152.193 13.5808 153.053 14.9371 153.989 16.4422C156.613 13.4879 161.398 12.6388 162.877 16.1527C163.019 20.9516 162.937 22.7324 162.861 28.5168C161.887 28.5495 160.991 28.504 160.017 28.5359C160.062 24.803 160.008 20.5829 159.917 17.0777C159.543 16.3431 158.85 15.7658 157.655 16.0817C156.46 16.3977 155.379 17.3277 154.253 18.641C154.253 21.8961 154.292 25.2681 154.292 28.5232H152.787H151.283C151.251 24.7081 151.218 20.8929 151.186 17.0778C150.582 16.3797 150.101 15.971 148.961 16.2426C147.821 16.5142 146.307 17.4152 145.561 18.8451C145.561 22.071 145.522 25.2972 145.522 28.5232C144.515 28.5232 143.546 28.5232 142.539 28.5232C142.539 26.0884 142.539 23.6537 142.539 21.2188Z" fill="black"/>
<defs>
<linearGradient id="paint0_linear_141_281" x1="18.6532" y1="0.00155469" x2="18.6532" y2="37.0468" gradientUnits="userSpaceOnUse">
<stop stop-color="#2AABEE"/>
<stop offset="1" stop-color="#229ED9"/>
</linearGradient>
</defs>
</svg>
