<svg width="112" height="37" viewBox="0 0 112 37" fill="none" xmlns="http://www.w3.org/2000/svg">
<path d="M53.0056 7.0929H59.8012C66.6393 7.0929 72.0758 11.2977 72.0758 18.3906C72.0758 26.1206 67.4038 30.0705 59.8012 30.0705H53.0056V7.0929ZM56.276 27.1824H59.7163C65.3651 27.1824 68.5081 24.4641 68.5081 18.518C68.5081 13.1665 64.8554 9.98103 60.0985 9.98103H56.2335V27.1824H56.276Z" fill="#646464"/>
<path d="M79.7208 9.51387H76.238V6.03113H79.7208V9.51387ZM76.4079 13.2939H79.5084V30.113H76.4079V13.2939Z" fill="#646464"/>
<path d="M85.2849 7.0929H92.0805C98.9186 7.0929 104.355 11.2977 104.355 18.3906C104.355 26.1206 99.6831 30.0705 92.0805 30.0705H85.2849V7.0929ZM88.5978 27.1824H92.038C97.6869 27.1824 100.83 24.4641 100.83 18.518C100.83 13.1665 97.1772 9.98103 92.4203 9.98103H88.5553V27.1824H88.5978Z" fill="#646464"/>
<path d="M112 9.51387H108.517V6.03113H112V9.51387ZM108.73 13.2939H111.83V30.113H108.73V13.2939Z" fill="#646464"/>
<path fill-rule="evenodd" clip-rule="evenodd" d="M22.4255 28.2017C30.0705 27.9469 36.1016 21.8733 36.1866 14.3557V7.85741H44.5961V15.0353C44.4262 26.7152 34.2753 35.8893 22.4255 36.1441C10.3633 36.0591 0.127418 26.8001 0 15.0353V2.16609C0 0.849446 0.84945 0 2.12363 0H36.1866V7.85741H9.47137C8.79181 7.85741 8.36708 8.28213 8.36708 8.96169V14.2283C8.45203 21.8309 14.6105 28.1168 22.4255 28.2017Z" fill="#FC9153"/>
</svg>
