<svg width="94" height="47" viewBox="0 0 94 47" fill="none" xmlns="http://www.w3.org/2000/svg">
<path d="M13.3974 13.8155C13.194 14.187 12.984 14.5567 12.7874 14.9315C11.2598 17.8416 10.06 20.8608 9.95748 24.2104C9.8096 29.0271 12.942 32.479 17.6758 32.9015C21.1778 33.215 24.5118 32.4466 27.8492 31.5555C36.3775 29.2776 44.9125 27.02 53.4441 24.7523C53.6491 24.6977 53.8474 24.6228 54.0507 24.4217C53.35 24.4217 52.6476 24.4217 51.9468 24.4217C50.4529 24.4217 48.959 24.4081 47.4651 24.4285C46.9828 24.4353 46.8097 24.2718 46.771 23.7709C46.5761 21.2765 46.3459 18.7855 46.1207 16.2946C46.0938 15.9998 46.0266 15.7102 45.9359 15.1649C45.1897 17.3117 44.5243 19.22 43.8622 21.1283C43.5395 22.0602 43.2371 22.999 42.8842 23.9191C42.8035 24.127 42.5582 24.4132 42.3817 24.4183C40.7332 24.4558 39.0847 24.4405 37.3252 24.4405C38.0646 22.3533 38.762 20.3684 39.4678 18.3885C41.5364 12.5837 43.6185 6.78564 45.6603 0.972257C45.9006 0.289031 46.2165 0.0300523 46.9357 0.0573131C48.3691 0.113539 49.8059 0.0743516 51.4007 0.0743516C50.6445 2.18707 49.9336 4.1737 49.2245 6.16034C49.2665 6.1859 49.3085 6.21316 49.3488 6.23872C50.3739 5.01709 51.399 3.79716 52.4224 2.57554C52.6862 2.26033 52.9988 1.9758 53.2055 1.62652C54.9716 -0.31582 54.2877 0.00790335 56.5445 0.0385718C61.1842 0.137392 65.8256 0.0743516 70.467 0.0777592C70.8115 0.0777592 71.156 0.115242 71.6215 0.142503C71.1325 1.55155 70.6989 2.87029 70.1948 4.16178C70.1276 4.33727 69.7091 4.45142 69.452 4.45654C67.9312 4.4838 66.4104 4.45654 64.8896 4.48209C64.6275 4.4872 64.1989 4.58603 64.1317 4.75811C63.52 6.30176 62.9722 7.87096 62.3605 9.55602C64.0511 9.55602 65.6105 9.55602 67.3666 9.55602C66.8238 11.0724 66.3466 12.4525 65.8189 13.8121C65.7651 13.9484 65.4055 14.02 65.1871 14.0234C63.9116 14.0421 62.6328 14.0098 61.359 14.0524C61.0935 14.0609 60.6784 14.2483 60.6011 14.4562C59.9793 16.1446 59.4231 17.8587 58.8182 19.6511C60.9271 19.6511 62.9302 19.6511 65.0459 19.6511C64.8123 20.3956 64.6039 21.0533 64.3569 21.8404C74.2934 19.1978 84.1139 16.5842 93.9345 13.9723C93.9563 14.0336 93.9782 14.095 94 14.1546C93.2287 14.4936 92.4624 14.8429 91.6877 15.1718C69.2941 24.6824 46.9088 34.1981 24.5169 43.7003C20.9342 45.2201 17.2439 46.411 13.3671 46.8472C11.1792 47.0925 8.98114 47.0994 6.83521 46.4383C2.45933 45.094 -0.0915893 41.5688 0.0025157 36.9515C0.0848576 32.9527 1.58214 29.4173 3.54658 26.0471C5.74124 22.2834 8.55263 19.0019 11.4195 15.7647C12.0278 15.0781 12.6462 14.4033 13.2612 13.7235C13.3049 13.7542 13.352 13.7849 13.3974 13.8155ZM51.8998 23.0927C51.9636 23.1098 52.0275 23.1268 52.0896 23.1439C54.7599 15.642 57.4318 8.13846 60.102 0.636607C59.8987 0.686017 59.8012 0.779726 59.7172 0.885362C56.9243 4.35431 54.1179 7.81133 51.3587 11.3075C51.0579 11.6892 50.8444 12.2974 50.8864 12.7745C51.1822 16.2179 51.5536 19.6545 51.8998 23.0927Z" fill="black"/>
<path d="M35.892 0.0725832C34.5326 3.87207 33.247 7.45006 31.9716 11.0332C30.476 15.2381 28.9804 19.4431 27.51 23.6583C27.2982 24.2649 27.0176 24.5068 26.3505 24.4813C24.8347 24.4199 23.3156 24.4625 21.7057 24.4625C21.7057 21.0174 21.7057 17.6269 21.7057 14.2363C21.6452 14.2261 21.5847 14.2142 21.5242 14.2039C20.9226 15.8907 20.3193 17.5758 19.7177 19.2625C19.1766 20.784 18.6591 22.3157 18.081 23.8219C17.9802 24.086 17.6323 24.4234 17.3886 24.4319C15.846 24.4881 14.3 24.4608 12.6279 24.4608C12.7422 24.0451 12.8128 23.7095 12.9254 23.3925C15.5939 15.9146 18.2776 8.44167 20.9226 0.95345C21.1696 0.254891 21.5057 0.0316922 22.2098 0.0589531C23.566 0.111771 24.9254 0.0913252 26.2816 0.067472C26.868 0.0572492 27.0882 0.249779 27.0798 0.875075C27.0478 3.37967 27.0663 5.88596 27.0663 8.39055C27.0663 8.65124 27.0663 8.91192 27.0663 9.1726C27.1235 9.18453 27.1789 9.19646 27.2361 9.21009C27.6074 8.19803 27.9839 7.18597 28.3502 6.1722C28.9938 4.39684 29.6677 2.6317 30.2575 0.837592C30.4625 0.215703 30.7717 0.0487303 31.37 0.0623608C32.8303 0.0964369 34.2906 0.0725832 35.892 0.0725832Z" fill="black"/>
<path d="M43.6588 0.0726974C43.2202 1.34203 42.8572 2.42565 42.4758 3.50075C40.0929 10.2035 37.6982 16.9012 35.3322 23.6091C35.1087 24.2412 34.828 24.5121 34.1256 24.4814C32.6653 24.4167 31.2016 24.4627 29.6187 24.4627C29.7111 24.127 29.7648 23.8748 29.8506 23.6329C32.5578 16.0322 35.275 8.43327 37.9654 0.825779C38.162 0.268635 38.4175 0.0471404 39.0039 0.0607709C40.4895 0.0965508 41.9767 0.0726974 43.6588 0.0726974Z" fill="black"/>
</svg>
