<svg width="124" height="128" viewBox="0 0 124 128" fill="none" xmlns="http://www.w3.org/2000/svg">
<g clip-path="url(#clip0_127_112)">
<path d="M62.1475 13C42.8401 13 27.1943 28.6444 27.1943 47.9405V82.8809H62.1475C81.4506 82.8809 97.1007 67.2365 97.1007 47.9405C97.1007 28.6444 81.4506 13 62.1475 13Z" fill="#E52561"/>
<path d="M9.78089 111C9.29006 111 8.8557 110.822 8.51689 110.483C8.17809 110.145 8 109.71 8 109.22V94.1268C8 93.6449 8.17375 93.2063 8.5082 92.859C8.84701 92.5073 9.28571 92.3206 9.78089 92.3206H14.7804C16.7915 92.3206 18.529 92.7765 19.9493 93.6796C21.3653 94.5784 22.4426 95.7595 23.1593 97.188C23.8673 98.6035 24.2235 100.106 24.2235 101.66C24.2235 103.215 23.8673 104.721 23.1593 106.133C22.4426 107.561 21.3653 108.742 19.9493 109.641C18.529 110.544 16.7915 111 14.7804 111H9.78089ZM14.5068 107.565C15.749 107.565 16.848 107.314 17.7732 106.81C18.6984 106.311 19.3977 105.638 19.9015 104.752C20.4054 103.87 20.6617 102.833 20.6617 101.66C20.6617 100.488 20.4054 99.4502 19.9015 98.5688C19.3933 97.683 18.6984 97.01 17.7732 96.5106C16.848 96.0113 15.749 95.7551 14.5068 95.7551H11.5835V107.565H14.5068Z" fill="#020102"/>
<path d="M44.3347 111C43.8482 111 43.4095 110.822 43.0707 110.483C42.7319 110.145 42.5538 109.71 42.5538 109.22V98.5514C42.5538 98.0694 42.7276 97.6309 43.062 97.2835C43.4008 96.9318 43.8395 96.7451 44.3347 96.7451C44.8299 96.7451 45.286 96.9231 45.6204 97.2618C45.9592 97.6005 46.1373 98.0477 46.1373 98.5514V109.22C46.1373 109.715 45.9505 110.153 45.5987 110.492C45.2512 110.822 44.8168 111 44.3304 111H44.3347ZM44.2826 95.5988C43.7613 95.5988 43.2922 95.4034 42.9187 95.0343C42.5495 94.6653 42.354 94.192 42.354 93.6709V93.5711C42.354 93.05 42.5495 92.5811 42.9187 92.2077C43.2879 91.8386 43.7613 91.6432 44.2826 91.6432H44.4303C44.9515 91.6432 45.4206 91.8386 45.7942 92.2077C46.1634 92.5767 46.3588 93.05 46.3588 93.5711V93.6709C46.3588 94.192 46.1634 94.6609 45.7942 95.0343C45.425 95.4034 44.9515 95.5988 44.4303 95.5988H44.2826Z" fill="#020102"/>
<path d="M37.5975 96.6235C37.1154 96.6235 36.6767 96.7972 36.3292 97.1315C35.9774 97.4702 35.7906 97.9087 35.7906 98.4037V98.5123C35.7906 98.5123 35.7906 98.5383 35.7906 98.5514V105.177C35.7906 106.84 34.3572 107.587 33.015 107.587C31.5599 107.587 30.3002 106.879 30.3002 105.212V98.3994C30.3002 97.9131 30.1222 97.4745 29.7833 97.1359C29.4445 96.7972 29.0102 96.6192 28.5194 96.6192C28.0285 96.6192 27.5985 96.7928 27.251 97.1272C26.8992 97.4659 26.7124 97.9044 26.7124 98.3994V105.46C26.7124 106.45 26.9122 107.374 27.3118 108.204C27.7201 109.059 28.3195 109.745 29.0927 110.24C29.8702 110.739 30.7867 110.991 31.8249 110.991C32.9325 110.991 33.8924 110.831 34.5917 110.184C35.1434 109.671 35.4344 109.029 35.5951 109.024C35.7515 109.02 35.7776 109.12 35.7906 109.211C35.834 109.754 35.9687 110.136 36.3075 110.475C36.6463 110.813 37.0806 110.991 37.5715 110.991C38.0623 110.991 38.4923 110.818 38.8398 110.483C39.1916 110.145 39.3784 109.706 39.3784 109.211V104.956C39.3784 104.956 39.3784 104.943 39.3784 104.939V98.3907C39.3784 97.9044 39.2003 97.4659 38.8615 97.1272C38.5227 96.7885 38.0884 96.6105 37.5975 96.6105V96.6235Z" fill="#020102"/>
<path d="M74.0103 111C73.6368 111 73.2806 110.909 72.9505 110.735C72.6334 110.566 72.3684 110.34 72.1643 110.066L72.1512 110.045L63.729 98.3169V109.224C63.729 109.719 63.5422 110.158 63.1903 110.496C62.8428 110.826 62.4085 111.004 61.922 111.004C61.4355 111.004 60.9968 110.826 60.658 110.488C60.3192 110.149 60.1411 109.715 60.1411 109.224V94.8128C60.1411 94.1876 60.3626 93.6448 60.8013 93.1976C61.2357 92.7504 61.796 92.5115 62.4172 92.5115H62.7386C63.2511 92.5115 63.9939 92.6852 64.6324 93.5146L64.6411 93.5276L73.0243 104.76V94.3135C73.0243 93.8315 73.1981 93.393 73.5325 93.0456C73.8713 92.6939 74.31 92.5072 74.8052 92.5072C75.3004 92.5072 75.7347 92.6896 76.0822 93.0369C76.4297 93.3843 76.6122 93.8228 76.6122 94.3135V108.725C76.6122 109.346 76.3733 109.906 75.9259 110.34C75.4785 110.779 74.9312 111 74.31 111H74.0103Z" fill="#E52561"/>
<path d="M109.984 111C109.48 111 109.024 110.857 108.624 110.57C108.238 110.297 107.955 109.936 107.786 109.498L107.777 109.472L105.662 103.206L103.542 109.489V109.502C103.369 109.936 103.086 110.297 102.7 110.574C102.3 110.861 101.84 111.004 101.34 111.004C100.841 111.004 100.38 110.861 99.9805 110.574C99.5896 110.297 99.3116 109.936 99.1596 109.511L95.4371 99.1722C95.3589 98.9508 95.3198 98.738 95.3198 98.5383C95.3198 98.052 95.5066 97.6134 95.8628 97.2748C96.219 96.9361 96.6794 96.7581 97.1919 96.7581C97.5742 96.7581 97.926 96.8579 98.2387 97.0533C98.5732 97.2617 98.8034 97.5396 98.925 97.8827L101.336 105.412L103.707 98.1215C103.838 97.7176 104.085 97.3877 104.441 97.1402C104.798 96.8883 105.206 96.7624 105.658 96.7624C106.109 96.7624 106.513 96.8883 106.87 97.1402C107.226 97.392 107.473 97.7176 107.604 98.1215L109.975 105.416L112.386 97.887C112.508 97.544 112.738 97.2661 113.072 97.0577C113.385 96.8623 113.741 96.7624 114.119 96.7624C114.632 96.7624 115.092 96.9404 115.448 97.2791C115.804 97.6178 115.991 98.0563 115.991 98.5426C115.991 98.7467 115.952 98.9595 115.878 99.1722L112.156 109.524C112.008 109.945 111.73 110.305 111.339 110.583C110.94 110.87 110.479 111.013 109.98 111.013L109.984 111Z" fill="#E52561"/>
<path d="M54.3639 111C51.5971 111 50.0724 109.602 50.0724 107.057V100.01H49.9248C49.4643 100.01 49.056 99.8409 48.752 99.5196C48.4523 99.2069 48.2959 98.8118 48.2959 98.3776C48.2959 97.9434 48.4566 97.5222 48.7607 97.214C49.0691 96.9057 49.4687 96.745 49.9248 96.745H50.0724V94.904C50.0724 94.396 50.2592 93.9531 50.6111 93.6144C50.9542 93.2844 51.3886 93.1107 51.8664 93.1107C52.3659 93.1107 52.8089 93.2887 53.1434 93.6231C53.4778 93.9618 53.6559 94.4003 53.6559 94.904V95.3686V95.4163V96.745H55.806C56.2621 96.745 56.6617 96.9057 56.9701 97.2096C57.2785 97.5179 57.4392 97.9174 57.4392 98.3733C57.4392 98.8292 57.2829 99.2026 56.9832 99.5152C56.6748 99.8365 56.2708 100.006 55.8104 100.006H53.6603V106.858C53.6603 107.396 54.0078 107.947 54.4291 107.974C54.933 108.004 56.3446 107.921 56.7443 108.139C57.0744 108.317 57.4219 108.759 57.4262 109.241C57.4306 109.867 57.0961 110.383 56.501 110.696L56.488 110.705L56.475 110.713C55.7452 111.052 55.1936 111.004 54.3726 111.004L54.3639 111Z" fill="#020102"/>
<path d="M62.1479 28.6096C51.4669 28.6096 42.8101 37.2633 42.8101 47.9404V67.2712H62.1479C72.8289 67.2712 81.4857 58.6175 81.4857 47.9404C81.4857 37.2633 72.8289 28.6096 62.1479 28.6096ZM62.1479 56.5767H53.5084V47.9404C53.5084 43.1728 57.3743 39.3041 62.1479 39.3041C66.9215 39.3041 70.7874 43.1685 70.7874 47.9404C70.7874 52.7123 66.9215 56.5767 62.1479 56.5767Z" fill="white"/>
<path d="M86.7976 96.2935C82.7363 96.2935 79.4438 99.5847 79.4438 103.645C79.4438 107.704 82.7363 110.996 86.7976 110.996C90.8589 110.996 94.1514 107.704 94.1514 103.645C94.1514 99.5847 90.8589 96.2935 86.7976 96.2935ZM86.7976 107.596C84.6128 107.596 82.8406 105.824 82.8406 103.64C82.8406 101.456 84.6128 99.6846 86.7976 99.6846C88.9825 99.6846 90.7547 101.456 90.7547 103.64C90.7547 105.824 88.9825 107.596 86.7976 107.596Z" fill="#E52561"/>
</g>
<defs>
<clipPath id="clip0_127_112">
<rect width="108" height="98" fill="white" transform="translate(8 13)"/>
</clipPath>
</defs>
</svg>
