<svg width="100" height="75" viewBox="0 0 100 75" fill="none" xmlns="http://www.w3.org/2000/svg">
<path d="M68.887 49C68.7294 48.8425 68.5719 48.9212 68.4144 48.8425C66.1301 48.3699 64.5548 46.637 64.3185 44.3527C64.3185 44.0377 64.3973 43.8801 64.7123 43.9589C65.1062 43.9589 65.5 43.9589 65.8938 43.9589C66.0514 43.9589 66.2089 43.9589 66.2089 44.1952C66.2877 46.3219 68.1781 47.5034 70.3048 47.1884C71.8014 46.9521 72.6678 46.1644 72.9829 44.589C73.2192 43.5651 73.1404 42.4623 73.1404 41.4384C72.9829 41.5959 72.7466 41.7534 72.589 41.911C70.226 43.9589 66.6815 43.4075 65.0274 40.7295C63.6096 38.4452 63.8459 35.2945 65.5788 33.3253C67.4692 31.1199 71.0925 30.8836 73.0616 33.2466C73.0616 33.3253 73.1404 33.3253 73.2192 33.4041C73.2192 32.9315 73.2192 32.5377 73.2192 32.2226C73.2192 31.9863 73.2979 31.9075 73.5342 31.9075C73.9281 31.9075 74.4007 31.9075 74.7945 31.9075C75.0308 31.9075 75.1096 31.9863 75.1096 32.2226C75.1096 34.2705 75.1096 36.3185 75.1096 38.2877C75.1096 39.9418 75.1096 41.6747 75.1096 43.3288C75.1096 44.9041 74.7157 46.3219 73.613 47.4247C72.8253 48.2123 71.8014 48.6062 70.6986 48.8425C70.6199 48.8425 70.5411 48.8425 70.4623 48.9212C70.3836 48.9212 70.3048 48.9212 70.1473 48.9212C69.8322 48.8425 69.5959 48.8425 69.2808 48.9212C69.1233 49 69.0445 49 68.887 49Z" fill="#616163"/>
<path d="M39.6644 49C39.6644 48.8425 39.6644 48.7637 39.6644 48.6062C39.6644 43.1713 39.6644 37.8151 39.6644 32.3802C39.6644 31.9863 39.7432 31.9076 40.137 31.9076C40.5308 31.9076 40.9247 31.9076 41.3185 31.9076C41.476 31.9076 41.5548 31.9863 41.5548 32.1439C41.5548 32.5377 41.5548 32.9315 41.5548 33.4829C41.8699 33.1678 42.1062 32.8528 42.4212 32.6165C44.3904 31.0411 47.3048 31.2774 49.1165 33.1678C51.2432 35.4521 51.1644 39.4692 49.0377 41.6747C47.1473 43.5651 43.6028 43.7226 41.7911 41.3596C41.7911 41.3596 41.7123 41.2809 41.6336 41.2809C41.6336 43.8014 41.6336 46.322 41.6336 48.8425C40.9247 49 40.2945 49 39.6644 49Z" fill="#616163"/>
<path d="M69.2808 49C69.5959 48.9212 69.8322 48.9212 70.1473 49C69.8322 49 69.5959 49 69.2808 49Z" fill="#8A8A8B"/>
<path d="M8.07877 40.7295C8 40.4932 8 40.2569 8 40.0994H8.07877C8.2363 40.2569 8.2363 40.4932 8.07877 40.7295Z" fill="#FBD9CC"/>
<path d="M85.9795 33.4829C85.9795 33.0103 85.9795 32.6164 85.9795 32.2226C85.9795 31.9863 86.0582 31.9075 86.2945 31.9075C86.6884 31.9075 87.0822 31.9075 87.476 31.9075C87.7911 31.9075 87.8699 31.9863 87.8699 32.3014C87.8699 35.3733 87.8699 38.4452 87.8699 41.5171C87.8699 41.8322 87.8699 42.226 87.8699 42.5411C87.8699 42.6986 87.7911 42.7774 87.6336 42.7774C87.161 42.7774 86.6884 42.7774 86.2158 42.7774C85.9794 42.7774 85.9795 42.6986 85.9795 42.5411C85.9795 42.1472 85.9795 41.7534 85.9795 41.3596C85.9007 41.2808 85.8219 41.4383 85.8219 41.4383C83.9315 43.8014 79.8356 43.5651 77.9452 40.887C76.2911 38.524 76.6062 34.9007 78.5753 32.9315C80.5445 30.9623 83.8527 31.0411 85.7431 33.1678C85.8219 33.3253 85.8219 33.4041 85.9795 33.4829Z" fill="#616163"/>
<path d="M21.3116 32.4589C19.5 32.4589 18.0822 31.0411 18.0822 29.2295C18.0822 27.4178 19.5 26 21.3116 26C23.1233 26 24.5411 27.4178 24.6199 29.2295C24.5411 30.9623 23.1233 32.3801 21.3116 32.4589Z" fill="#F26B36"/>
<path d="M8.07877 40.7294C8.07877 40.4931 8.07877 40.2568 8.07877 40.0993C8.31507 38.2877 9.81164 37.1062 11.5445 37.1849C13.1986 37.2637 14.5377 38.6815 14.5377 40.4144C14.5377 42.1473 13.1986 43.5651 11.4658 43.7226C9.81164 43.8014 8.31507 42.5411 8.07877 40.7294Z" fill="#F26B36"/>
<path d="M25.8014 40.1781C27.613 40.1781 29.0308 41.5959 29.1096 43.4076C29.1096 45.2192 27.613 46.7158 25.8014 46.637C23.9897 46.637 22.5719 45.1404 22.5719 43.4076C22.5719 41.5959 23.9897 40.1781 25.8014 40.1781Z" fill="#F26B36"/>
<path d="M19.8151 48.2123C18.7123 48.2123 17.7671 47.2671 17.7671 46.1644C17.7671 45.0617 18.7123 44.1165 19.8151 44.1165C20.9178 44.1165 21.863 45.0617 21.863 46.1644C21.863 47.2671 20.9966 48.2123 19.8151 48.2123Z" fill="#F69633"/>
<path d="M11.7021 31.8288C12.8048 31.8288 13.75 32.774 13.75 33.8767C13.75 34.9795 12.8048 35.8459 11.7021 35.8459C10.5206 35.8459 9.65411 34.9795 9.65411 33.798C9.73288 32.6952 10.5993 31.8288 11.7021 31.8288Z" fill="#F69633"/>
<path d="M26.7466 30.9623C27.9281 30.9623 28.7945 31.8288 28.7945 33.0103C28.7945 34.113 27.9281 34.9795 26.7466 34.9795C25.5651 34.9795 24.6986 34.113 24.6986 32.9315C24.6986 31.8288 25.5651 30.9623 26.7466 30.9623Z" fill="#F69633"/>
<path d="M15.1678 31.5137C14.3801 31.5137 13.8288 30.8835 13.8288 30.0959C13.8288 29.3082 14.4589 28.7568 15.2466 28.7568C16.0342 28.7568 16.6644 29.387 16.6644 30.1746C16.5856 30.9623 15.9555 31.5137 15.1678 31.5137Z" fill="#FCC22C"/>
<path d="M16.2706 44.9829C16.2706 45.7705 15.6404 46.3219 14.8528 46.3219C14.0651 46.3219 13.4349 45.6918 13.5137 44.9041C13.5137 44.1164 14.1438 43.5651 14.9315 43.5651C15.7192 43.5651 16.2706 44.1952 16.2706 44.9829Z" fill="#FCC22C"/>
<path d="M29.5034 37.7363C29.5034 38.5239 28.9521 39.1541 28.1644 39.1541C27.3767 39.1541 26.7466 38.5239 26.7466 37.815C26.7466 37.0274 27.3767 36.3972 28.0856 36.3972C28.8733 36.3185 29.5034 36.9486 29.5034 37.7363Z" fill="#FCC22C"/>
<path d="M91.0205 32.9315C91.0205 33.5616 90.7055 33.9555 90.0753 33.9555C89.524 33.9555 89.0514 33.5616 89.0514 32.9315C89.0514 32.3801 89.4452 31.9075 89.9966 31.9075C90.6267 31.9075 91.0205 32.3014 91.0205 32.9315Z" fill="#656567"/>
<path d="M69.7534 33.3253C71.6438 33.3253 73.1404 34.7431 73.298 36.6335C73.3767 37.815 73.2192 38.9178 72.589 39.863C71.25 41.8322 68.3356 41.9109 66.9178 40.0205C65.7363 38.3664 65.8151 35.9246 67.1541 34.4281C67.7843 33.7192 68.7295 33.3253 69.7534 33.3253Z" fill="#FEFEFE"/>
<path d="M48.7226 37.3425C48.6438 38.524 48.4075 39.7055 47.4623 40.5719C45.8082 42.0685 43.0514 41.5959 42.0274 39.6267C41.2397 38.1301 41.2397 36.6335 42.1062 35.137C42.8151 33.8767 43.9966 33.3253 45.4144 33.4041C46.911 33.5616 47.9349 34.3493 48.4075 35.7671C48.6438 36.2397 48.6438 36.7911 48.7226 37.3425Z" fill="#FEFEFE"/>
<path d="M86.0582 37.4213C85.9794 38.524 85.6644 39.7055 84.7192 40.572C83.2226 41.911 80.7808 41.5959 79.6781 39.9418C78.7329 38.4452 78.5753 36.8699 79.363 35.2158C80.0719 33.8767 81.4109 33.1678 82.8288 33.3254C84.4041 33.4829 85.5856 34.5069 85.9794 36.0822C85.9794 36.4761 86.0582 36.8699 86.0582 37.4213Z" fill="#FEFEFE"/>
<path d="M62.5856 38.6815C62.5856 36.5548 62.5856 34.4281 62.5856 32.2226C62.5856 31.9863 62.5069 31.9076 62.2706 31.9076C61.8767 31.9076 61.4041 31.9076 61.0103 31.9076C60.774 31.9076 60.6952 31.9863 60.6952 32.2226C60.6952 32.6165 60.6952 33.0103 60.6952 33.4829C60.5377 33.3254 60.4589 33.2466 60.4589 33.1678C58.411 30.9624 54.8665 31.1199 52.976 33.4829C51.2432 35.6884 51.2432 39.0754 52.976 41.2808C54.5514 43.25 57.1507 43.6439 59.0411 42.7774C59.6713 42.4624 60.2226 41.9898 60.774 41.4384C60.774 41.911 60.774 42.3048 60.774 42.6199C60.774 42.8562 60.8528 42.935 61.0891 42.935C61.4829 42.935 61.9555 42.935 62.3493 42.935C62.5856 42.935 62.6644 42.8562 62.6644 42.6199C62.5069 41.2809 62.5856 39.9418 62.5856 38.6815ZM60.3802 39.3117C59.75 40.6507 58.4897 41.5172 57.0719 41.4384C55.5754 41.3596 54.3939 40.4932 53.8425 38.9966C53.7637 38.7603 53.685 38.4452 53.6062 38.2089C53.5274 37.8939 53.5274 37.5788 53.5274 37.3425C53.6062 35.7672 54.1576 34.4281 55.7329 33.7192C57.8596 32.6952 60.3802 34.113 60.6952 36.5548C60.8528 37.4213 60.774 38.3665 60.3802 39.3117Z" fill="#616163"/>
<path d="M90.0753 32.1438C90.5479 32.1438 90.863 32.5376 90.863 32.9315C90.863 33.4041 90.4692 33.7191 90.0753 33.7191C89.6815 33.7191 89.2877 33.3253 89.2877 32.8527C89.2877 32.4589 89.6815 32.065 90.0753 32.1438Z" fill="#FCFCFC"/>
<path d="M89.6815 32.8528C89.6815 32.3014 89.839 32.2226 90.3116 32.3014C90.5479 32.3801 90.7055 32.6164 90.4692 32.8528C90.3116 33.0103 90.3116 33.0891 90.3904 33.2466C90.3904 33.3254 90.5479 33.4041 90.3904 33.4829C90.3116 33.5617 90.2329 33.4041 90.1541 33.3254C90.1541 33.3254 90.1541 33.2466 90.0753 33.2466C89.9966 33.1678 89.9966 33.0103 89.839 33.0103C89.6815 33.0103 89.7603 33.1678 89.7603 33.2466C89.7603 33.3254 89.7603 33.4041 89.6815 33.4041C89.524 33.4041 89.6027 33.2466 89.6027 33.1678C89.6815 33.1678 89.6815 33.0103 89.6815 32.8528Z" fill="#6A6A6C"/>
<path d="M90.1541 32.774C90.0753 32.774 89.9178 32.774 89.9178 32.6952C89.9178 32.5377 89.9966 32.5377 90.1541 32.5377C90.2329 32.5377 90.3904 32.4589 90.3904 32.6952C90.3117 32.774 90.2329 32.774 90.1541 32.774Z" fill="#FDFDFD"/>
</svg>
