<svg width="100" height="75" viewBox="0 0 100 75" fill="none" xmlns="http://www.w3.org/2000/svg">
<path d="M91.0305 51.24C63.8755 51.24 36.7204 51.24 9.56534 51.24C9.50871 51.2258 9.45208 51.1975 9.39545 51.1975C8.46102 51.0984 7.73896 50.4755 7.48412 49.5694C7.4558 49.4702 7.42749 49.3711 7.39917 49.272C7.39917 41.4993 7.39917 33.7407 7.39917 25.968C7.41333 25.9255 7.44164 25.8689 7.4558 25.8264C7.66817 24.9061 8.22033 24.3115 9.15476 24.0849C9.29634 24.0566 9.43792 24.0283 9.5795 24C36.7346 24 63.8896 24 91.0447 24C91.1013 24.0142 91.1579 24.0425 91.2146 24.0425C92.149 24.1416 92.871 24.7787 93.1259 25.6706C93.1542 25.7698 93.1825 25.8689 93.2108 25.968C93.2108 33.7407 93.2108 41.4993 93.2108 49.272C93.1967 49.3145 93.1684 49.3711 93.1542 49.4136C92.9418 50.3339 92.3897 50.9285 91.4552 51.1551C91.3137 51.1834 91.1721 51.2117 91.0305 51.24ZM59.4723 38.1438C59.4581 38.1438 59.4298 38.1438 59.4157 38.1438C59.3874 38.0731 59.359 37.9881 59.3449 37.9173C58.9485 36.5723 58.552 35.2273 58.1415 33.8681C57.9999 33.3726 57.6318 33.0894 57.1362 33.0753C56.5841 33.0611 56.0461 33.0611 55.4939 33.0753C55.2532 33.0753 55.14 33.2027 55.14 33.4434C55.14 33.5708 55.1541 33.6841 55.1966 33.8115C55.2674 34.0522 55.3382 34.2787 55.4231 34.5194C56.1593 36.813 56.8956 39.0924 57.6318 41.386C57.8017 41.9099 58.1698 42.1789 58.7219 42.1789C59.0617 42.1789 59.4015 42.1789 59.7413 42.1789C60.3359 42.1789 60.7041 41.9099 60.8881 41.3436C61.3695 39.8286 61.8367 38.3279 62.3181 36.813C62.3464 36.7422 62.3747 36.6714 62.4172 36.544C62.4738 36.6856 62.5021 36.7705 62.5163 36.8413C62.9835 38.3421 63.4649 39.8428 63.9321 41.3436C64.102 41.8957 64.4842 42.1647 65.0647 42.1789C65.3904 42.1789 65.7301 42.1789 66.0558 42.1789C66.6504 42.1789 67.0044 41.924 67.1884 41.3577C67.868 39.2482 68.5476 37.1245 69.2272 35.0149C69.3688 34.5477 69.5387 34.0947 69.6519 33.6274C69.7369 33.2593 69.5811 33.0894 69.213 33.0894C68.7741 33.0894 68.3211 33.0894 67.8822 33.0894C67.1743 33.0894 66.8345 33.3443 66.6221 34.038C66.2682 35.2131 65.9284 36.4024 65.5744 37.5775C65.5178 37.7757 65.447 37.974 65.3904 38.1863C65.2912 38.0589 65.2488 37.9315 65.2205 37.8041C64.8382 36.4874 64.4559 35.1565 64.0595 33.8398C63.9038 33.3301 63.5923 33.1036 63.0543 33.0894C62.6437 33.0894 62.219 33.0894 61.8084 33.0894C61.2137 33.0894 60.9164 33.3018 60.7465 33.8823C60.5058 34.6893 60.2793 35.4963 60.0386 36.2891C59.8404 36.8979 59.6564 37.5209 59.4723 38.1438ZM51.6996 41.4285C51.7137 41.4993 51.7137 41.5276 51.7279 41.5559C51.7562 42.009 51.8978 42.1506 52.3508 42.1506C52.7897 42.1506 53.2428 42.1506 53.6817 42.1506C54.0923 42.1506 54.248 41.9807 54.248 41.5701C54.248 39.8428 54.248 38.1155 54.248 36.3883C54.248 35.8219 54.1489 35.2698 53.8799 34.7601C53.3985 33.8115 52.5774 33.316 51.5863 33.0753C50.666 32.8488 49.7458 32.8629 48.8113 32.9479C48.1459 33.0045 47.4805 33.1178 46.8717 33.3868C46.1213 33.7265 45.6541 34.2787 45.5975 35.1282C45.5691 35.5529 45.7674 35.7936 46.1921 35.7936C46.5602 35.7936 46.9142 35.7936 47.2823 35.7936C47.6645 35.7936 47.976 35.6662 48.245 35.3689C48.3583 35.2415 48.4857 35.1282 48.6414 35.0574C49.0237 34.845 49.4343 34.7884 49.8732 34.7884C50.9492 34.7884 51.3739 35.199 51.4872 36.2608C51.5155 36.4732 51.4447 36.544 51.2323 36.544C50.3829 36.5298 49.5192 36.544 48.6698 36.544C48.0185 36.544 47.3814 36.6431 46.7726 36.8838C45.6541 37.3368 45.0028 38.1438 44.9604 39.3897C44.932 40.4941 45.5267 41.4143 46.6168 41.924C47.2115 42.2072 47.8486 42.3063 48.4999 42.3346C49.5051 42.3771 50.4537 42.193 51.3315 41.6692C51.4447 41.5842 51.558 41.5135 51.6996 41.4285ZM83.2436 41.471C83.1303 41.9382 82.9604 42.3629 82.6631 42.7027C82.3233 43.085 81.8986 43.2124 81.3889 43.1416C81.035 43.085 80.6952 43.0425 80.3412 43.0284C80.0156 43.0142 79.8315 43.2124 79.8174 43.538C79.8174 43.807 79.8174 44.076 79.8174 44.3451C79.8174 44.7132 79.9731 44.9114 80.3412 44.9538C81.0633 45.0246 81.7995 45.1096 82.5215 45.1237C83.725 45.1379 84.6311 44.5857 85.1832 43.5239C85.4806 42.9434 85.7637 42.3488 85.9336 41.7258C86.6982 39.0358 87.4202 36.3316 88.1564 33.6416C88.2555 33.2735 88.0998 33.0753 87.7034 33.0611C87.1937 33.0611 86.6698 33.0611 86.1601 33.0611C85.7779 33.0611 85.523 33.2593 85.4098 33.6274C85.3531 33.7973 85.3107 33.9814 85.2682 34.1654C84.801 35.8503 84.3338 37.5492 83.8807 39.234C83.8241 39.4181 83.7533 39.4605 83.5692 39.4181C83.2719 39.3473 83.0454 39.1915 82.8755 38.965C82.5357 38.5403 82.3375 38.0306 82.1676 37.5209C81.7712 36.2467 81.3889 34.9583 80.9925 33.6841C80.8651 33.2735 80.5961 33.0753 80.1713 33.0753C79.6475 33.0753 79.1236 33.0753 78.5998 33.0753C78.2317 33.0753 78.0901 33.2877 78.1892 33.6416C78.6139 35.0716 79.0387 36.5157 79.4917 37.9456C79.7466 38.7668 80.0864 39.5455 80.6102 40.2251C81.0916 40.848 81.7004 41.2586 82.4791 41.386C82.7339 41.4143 82.9604 41.4427 83.2436 41.471ZM38.0229 37.5917H38.0088C38.0088 38.9084 38.0088 40.2251 38.0088 41.5418C38.0088 42.009 38.1645 42.1647 38.6317 42.1647C39.1414 42.1647 39.6511 42.1647 40.1608 42.1647C40.6422 42.1647 40.7979 42.009 40.7979 41.5276C40.7979 39.9419 40.7979 38.3421 40.7979 36.7564C40.7979 36.544 40.8687 36.4874 41.0669 36.4874C41.9305 36.5015 42.8083 36.4874 43.672 36.4874C44.0401 36.4874 44.2241 36.3033 44.2383 35.9352C44.2383 35.652 44.2383 35.383 44.2383 35.0999C44.2383 34.6468 44.0826 34.4911 43.6295 34.4911C42.78 34.4911 41.9164 34.4911 41.0669 34.4911C40.8545 34.4911 40.7837 34.4203 40.7979 34.2079C40.8262 33.9814 40.8262 33.7407 40.8545 33.5142C40.9536 32.7496 41.2651 32.3532 41.9164 32.1975C42.596 32.0417 43.2756 31.9851 43.9693 32.1125C44.2241 32.155 44.4931 32.1692 44.748 32.1833C45.1161 32.1833 45.3001 31.9993 45.3143 31.6312C45.3143 31.3763 45.3143 31.1215 45.3143 30.8666C45.3143 30.4985 45.1586 30.3145 44.7905 30.2437C44.5073 30.187 44.21 30.1587 43.9268 30.1304C42.7942 30.0313 41.6474 30.0172 40.5289 30.2862C39.5095 30.5268 38.6884 31.0648 38.3486 32.0984C38.1787 32.5939 38.0654 33.1319 38.0512 33.6558C37.9946 34.9866 38.0229 36.2891 38.0229 37.5917ZM73.6303 34.0805C73.6303 33.8823 73.6303 33.7407 73.6303 33.5991C73.6162 33.2593 73.4321 33.0753 73.0923 33.0753C72.526 33.0753 71.9597 33.0753 71.3792 33.0753C71.0111 33.0753 70.827 33.2593 70.827 33.6274C70.827 36.2891 70.827 38.9509 70.827 41.6126C70.827 41.9807 71.0111 42.1647 71.3792 42.1647C71.903 42.1647 72.441 42.1647 72.9649 42.1647C73.4604 42.1647 73.6162 42.009 73.6162 41.5135C73.6162 39.9844 73.6445 38.4695 73.602 36.9404C73.5878 36.459 73.7436 36.1334 74.0834 35.8219C74.6497 35.3264 75.2726 35.0432 76.0372 35.114C76.4194 35.1565 76.8017 35.1565 77.184 35.1565C77.5096 35.1565 77.6795 34.9725 77.6937 34.661C77.7078 34.2362 77.7078 33.8115 77.6937 33.3868C77.6795 33.0753 77.4955 32.8912 77.1981 32.8912C76.1504 32.8771 75.1452 33.0611 74.2533 33.6416C74.0692 33.7832 73.8852 33.9106 73.6303 34.0805Z" fill="#FFD229"/>
<path d="M59.4724 38.1439C59.6564 37.5209 59.8405 36.898 60.0245 36.275C60.2652 35.468 60.4917 34.661 60.7324 33.8682C60.9023 33.2877 61.1996 33.0753 61.7943 33.0753C62.2049 33.0753 62.6296 33.0753 63.0402 33.0753C63.5782 33.0753 63.8897 33.3019 64.0454 33.8257C64.4418 35.1424 64.8241 36.4591 65.2064 37.7899C65.2488 37.9174 65.2913 38.0448 65.3763 38.1722C65.4329 37.974 65.5037 37.7758 65.5603 37.5634C65.9143 36.3883 66.254 35.199 66.608 34.0239C66.8062 33.3443 67.1602 33.0895 67.8681 33.0753C68.307 33.0753 68.76 33.0753 69.1989 33.0753C69.5812 33.0753 69.7369 33.2452 69.6378 33.6133C69.5245 34.0805 69.3688 34.5478 69.2131 35.0008C68.5335 37.1104 67.8539 39.2341 67.1743 41.3436C66.9903 41.9099 66.6363 42.1648 66.0417 42.1648C65.716 42.1648 65.3763 42.1648 65.0506 42.1648C64.4701 42.1648 64.0879 41.8816 63.918 41.3294C63.4508 39.8287 62.9694 38.3279 62.5022 36.8272C62.4739 36.7422 62.4455 36.6715 62.4031 36.5299C62.3606 36.6573 62.3323 36.7281 62.304 36.7989C61.8226 38.3138 61.3554 39.8145 60.874 41.3294C60.69 41.8958 60.3218 42.1648 59.7272 42.1648C59.3874 42.1648 59.0476 42.1648 58.7078 42.1648C58.1698 42.1648 57.7876 41.8958 57.6177 41.3719C56.8815 39.0783 56.1452 36.7989 55.409 34.5053C55.3382 34.2646 55.2533 34.0381 55.1825 33.7974C55.1542 33.6841 55.1259 33.5567 55.1259 33.4293C55.1259 33.1886 55.2391 33.0753 55.4798 33.0612C56.032 33.0612 56.57 33.047 57.1221 33.0612C57.6177 33.0753 57.9858 33.3726 58.1274 33.854C58.5238 35.199 58.9344 36.544 59.3308 37.9032C59.3591 37.9881 59.3874 38.0589 59.4016 38.1297C59.4299 38.1439 59.444 38.1439 59.4724 38.1439Z" fill="#036E96"/>
<path d="M51.6996 41.4285C51.558 41.5135 51.4448 41.5842 51.3173 41.655C50.4537 42.1789 49.491 42.3629 48.4857 42.3205C47.8345 42.2921 47.1974 42.1789 46.6027 41.9099C45.5126 41.4002 44.9038 40.4799 44.9462 39.3756C44.9887 38.1297 45.6258 37.3227 46.7585 36.8696C47.3673 36.6289 48.0044 36.5298 48.6556 36.5298C49.5051 36.5298 50.3688 36.5298 51.2182 36.5298C51.4306 36.5298 51.5014 36.459 51.4731 36.2467C51.3598 35.1848 50.9209 34.7884 49.8591 34.7742C49.4343 34.7742 49.0096 34.8309 48.6273 35.0432C48.4857 35.1282 48.3442 35.2273 48.2309 35.3547C47.976 35.652 47.6646 35.7795 47.2681 35.7795C46.9 35.7795 46.5461 35.7795 46.178 35.7795C45.7532 35.7795 45.555 35.5529 45.5833 35.114C45.64 34.2646 46.1072 33.7124 46.8576 33.3726C47.4805 33.1036 48.1318 32.9903 48.7972 32.9337C49.7316 32.8629 50.6519 32.8346 51.5722 33.0611C52.5632 33.316 53.3844 33.7973 53.8658 34.7459C54.1206 35.2556 54.2339 35.8078 54.2339 36.3741C54.2339 38.1014 54.2339 39.8287 54.2339 41.5559C54.2339 41.9665 54.064 42.1364 53.6676 42.1364C53.2287 42.1364 52.7756 42.1364 52.3367 42.1364C51.8837 42.1364 51.7279 41.9948 51.7138 41.5418C51.7279 41.5276 51.7138 41.4993 51.6996 41.4285ZM50.0573 38.3987C50.0573 38.4129 50.0573 38.4129 50.0573 38.3987C49.6325 38.4129 49.2078 38.3987 48.7972 38.4129C48.3866 38.4412 48.0327 38.6111 47.8486 39.0075C47.5796 39.588 47.9194 40.2392 48.5848 40.3667C49.6042 40.5649 50.5245 40.2534 51.3881 39.7295C51.4448 39.7012 51.4731 39.588 51.4731 39.5172C51.4872 39.2199 51.4731 38.9225 51.4731 38.6252C51.4731 38.4553 51.4023 38.3987 51.2465 38.3987C50.8501 38.4129 50.4537 38.3987 50.0573 38.3987Z" fill="#036E96"/>
<path d="M83.2436 41.471C82.9604 41.4427 82.7339 41.4144 82.4932 41.3719C81.7145 41.2303 81.1057 40.8339 80.6244 40.2109C80.0864 39.5314 79.7607 38.7385 79.5059 37.9315C79.0528 36.5016 78.6281 35.0716 78.2033 33.6275C78.1042 33.2735 78.2458 33.0753 78.6139 33.0612C79.1378 33.0612 79.6616 33.0612 80.1855 33.0612C80.596 33.0612 80.8792 33.2735 81.0066 33.67C81.4031 34.9442 81.7853 36.2325 82.1817 37.5068C82.3375 38.0165 82.5498 38.5261 82.8896 38.9509C83.0737 39.1774 83.3002 39.3332 83.5834 39.4039C83.7674 39.4464 83.8524 39.4039 83.8949 39.2199C84.3479 37.5351 84.8293 35.8361 85.2823 34.1513C85.3248 33.9673 85.3814 33.7974 85.4239 33.6133C85.5372 33.2452 85.792 33.0612 86.1743 33.047C86.684 33.047 87.2078 33.047 87.7175 33.047C88.1139 33.047 88.2697 33.2452 88.1706 33.6275C87.4344 36.3317 86.7123 39.0217 85.9478 41.7117C85.7637 42.3346 85.4947 42.9434 85.1974 43.5098C84.6452 44.5575 83.7391 45.1238 82.5357 45.1096C81.8136 45.0955 81.0774 45.0247 80.3554 44.9397C79.9872 44.8972 79.8315 44.699 79.8315 44.3309C79.8315 44.0619 79.8315 43.7929 79.8315 43.5239C79.8457 43.1983 80.0297 43.0001 80.3554 43.0142C80.7093 43.0284 81.0633 43.0709 81.403 43.1275C81.9127 43.2124 82.3375 43.0709 82.6773 42.6886C82.9604 42.363 83.1303 41.9382 83.2436 41.471Z" fill="#036E96"/>
<path d="M38.0229 37.5917C38.0229 36.2891 37.9946 34.9724 38.037 33.6699C38.0512 33.1461 38.1645 32.6081 38.3344 32.1125C38.6883 31.079 39.4953 30.541 40.5147 30.3003C41.6332 30.0313 42.7658 30.0455 43.9126 30.1446C44.2099 30.1729 44.4931 30.2154 44.7763 30.2578C45.1444 30.3286 45.2859 30.5127 45.3001 30.8808C45.3001 31.1356 45.3001 31.3905 45.3001 31.6453C45.2859 32.0134 45.1019 32.1975 44.7338 32.1975C44.4789 32.1975 44.2099 32.1833 43.9551 32.1267C43.2613 31.9993 42.5818 32.0417 41.9022 32.2116C41.2509 32.3674 40.9394 32.7638 40.8403 33.5283C40.812 33.7549 40.812 33.9955 40.7837 34.2221C40.7695 34.4344 40.8403 34.5052 41.0527 34.5052C41.9022 34.4911 42.7658 34.5052 43.6153 34.5052C44.0684 34.5052 44.2241 34.661 44.2241 35.114C44.2241 35.3972 44.2241 35.6662 44.2241 35.9494C44.2099 36.3175 44.0259 36.5015 43.6578 36.5015C42.7941 36.5015 41.9163 36.5015 41.0527 36.5015C40.8403 36.5015 40.7695 36.5581 40.7837 36.7705C40.7979 38.3562 40.7837 39.9561 40.7837 41.5418C40.7837 42.0231 40.628 42.1789 40.1466 42.1789C39.6369 42.1789 39.1272 42.1789 38.6175 42.1789C38.1503 42.1789 37.9946 42.0231 37.9946 41.5559C37.9946 40.2392 37.9946 38.9225 37.9946 37.6058C38.0087 37.5917 38.0229 37.5917 38.0229 37.5917Z" fill="#036E96"/>
<path d="M73.6303 34.0805C73.8852 33.9106 74.0834 33.769 74.2816 33.6416C75.1735 33.0611 76.1788 32.8771 77.2264 32.8913C77.5238 32.8913 77.7078 33.0895 77.722 33.3868C77.7361 33.8115 77.7361 34.2363 77.722 34.661C77.7078 34.9866 77.5379 35.1565 77.2123 35.1565C76.83 35.1565 76.4478 35.1565 76.0655 35.1141C75.301 35.0433 74.678 35.3123 74.1117 35.822C73.7719 36.1334 73.6162 36.4591 73.6303 36.9404C73.6586 38.4553 73.6445 39.9844 73.6445 41.5135C73.6445 42.009 73.4887 42.1647 72.9932 42.1647C72.4694 42.1647 71.9314 42.1647 71.4075 42.1647C71.0394 42.1647 70.8553 41.9807 70.8553 41.6126C70.8553 38.9509 70.8553 36.2892 70.8553 33.6275C70.8553 33.2594 71.0394 33.0753 71.4075 33.0753C71.9738 33.0753 72.5402 33.0753 73.1206 33.0753C73.4604 33.0753 73.6445 33.2594 73.6586 33.5992C73.6303 33.7407 73.6303 33.8823 73.6303 34.0805Z" fill="#036E96"/>
<path d="M50.0572 38.3987C50.4537 38.3987 50.8501 38.3987 51.2607 38.3987C51.4306 38.3987 51.5014 38.4553 51.4872 38.6252C51.473 38.9225 51.4872 39.2198 51.4872 39.5172C51.4872 39.588 51.4589 39.7012 51.4023 39.7295C50.5386 40.2534 49.6183 40.579 48.599 40.3666C47.9194 40.2392 47.5938 39.588 47.8628 39.0075C48.0468 38.6111 48.4008 38.4412 48.8113 38.4128C49.2078 38.3987 49.6325 38.4128 50.0572 38.3987C50.0572 38.4128 50.0572 38.4128 50.0572 38.3987Z" fill="#FFD229"/>
<path d="M33.6764 37.5351C33.6764 43.4815 28.8485 48.3094 22.9022 48.3094C21.7695 48.3094 20.6794 48.1395 19.66 47.8138C18.1168 47.3325 16.7293 46.4971 15.5683 45.4211C13.4588 43.4532 12.1421 40.6499 12.1421 37.5493C12.1421 31.6029 16.97 26.775 22.9163 26.775C24.2047 26.775 25.4365 27.0016 26.5833 27.4121C28.0698 27.9501 29.4007 28.8138 30.505 29.9039C32.473 31.8436 33.6764 34.5478 33.6764 37.5351Z" fill="white"/>
<path d="M27.9141 42.1081L26.47 41.3861C26.47 41.3861 23.9923 45.8883 19.6741 47.8138C18.1309 47.3324 16.7434 46.4971 15.5825 45.4211C16.531 45.2795 18.0601 44.7981 19.6741 43.2124C22.3075 40.6215 22.9163 39.1916 22.9163 39.1916L21.7837 38.4412C21.4014 38.1863 21.4722 37.5917 21.9111 37.436L26.8805 35.7087C27.2203 35.5954 27.5743 35.8078 27.6309 36.1618L28.3671 41.7966C28.4096 42.0232 28.1406 42.2214 27.9141 42.1081Z" fill="#036E96"/>
<path d="M29.4148 35.8644C29.2874 36.1759 28.8485 36.1334 28.7919 35.7936L28.4662 33.8823L26.0027 34.6468C25.7337 34.7318 25.4931 34.4486 25.6063 34.1938C25.932 33.5142 26.3992 32.3532 26.7673 30.8525C27.1212 29.4367 26.8664 28.1908 26.5832 27.3838C28.0698 27.9218 29.4007 28.7854 30.505 29.8756C30.7032 32.1409 29.9245 34.5477 29.4148 35.8644Z" fill="#036E96"/>
</svg>
