<svg width="197" height="25" viewBox="0 0 197 25" fill="none" xmlns="http://www.w3.org/2000/svg">
<g clip-path="url(#clip0_141_64)">
<path d="M0.852806 -0.417042L-0.0405273 3.05996H8.23697L5.19995 15.1852L2.96671 24.1306H8.38589L10.6189 15.1852L13.656 3.05996H21.9037L22.7672 -0.417236L0.852806 -0.417042ZM166.283 -0.149491C165.842 1.6573 165.438 3.06734 165.033 4.2786H163.008L163.663 3.86241C164.792 3.13126 165.348 2.75568 165.36 2.70341C164.758 1.34468 164.248 0.40679 163.782 -0.0605017C163.769 -0.145022 162.909 0.379393 161.251 1.45523L160.686 1.81177C160.698 1.838 160.766 1.93884 160.894 2.10886C161.478 2.86604 161.971 3.57932 162.353 4.27841H160.686L160.15 6.77497H163.901L163.633 7.28034L163.365 7.78552H159.316L158.81 10.2821H161.608C160.414 11.737 158.993 12.9055 157.351 13.789L159.971 1.30698H152.735L150.026 14.205C149.953 14.5425 149.871 14.8637 149.788 15.1856C149.158 17.681 148.22 19.9194 146.959 21.9022C147.724 22.5762 148.347 23.2988 148.865 24.0715C150.381 21.9129 151.572 19.149 152.468 15.7503H154.046L153.152 19.9705C153.082 20.5483 152.493 20.8085 151.425 20.7135C151.648 21.7464 151.743 22.7808 151.664 23.8636C154.242 23.8469 155.544 23.267 155.594 22.0806L157.053 15.1856L157.142 14.7102C157.297 14.8633 157.446 15.0219 157.589 15.1856C157.936 15.5946 158.207 15.9966 158.393 16.4041C158.788 16.2092 159.257 15.9096 159.792 15.453L158.839 18.5437H167.504L167.355 19.3462C167.012 21.0152 166.529 21.826 165.925 21.7236L166.402 19.3462H157.112L156.576 21.8128H164.139C164.571 22.7435 164.756 23.6969 164.675 24.6954C167.088 24.6171 168.566 24.2462 169.141 23.5662C169.321 23.3678 169.51 23.0231 169.707 22.4369C170.101 21.2589 170.563 19.5362 171.136 17.2658L171.464 15.9584H168.248L168.427 15.1854L168.665 13.9969C169.237 14.4961 169.744 14.8849 170.183 15.1854C170.508 15.4079 170.796 15.5779 171.047 15.6908C171.185 15.5185 171.327 15.3485 171.464 15.1854C172.293 14.1811 173.08 13.3441 173.816 12.6595C171.875 12.1079 170.453 11.3161 169.558 10.2821H173.816L174.322 7.78552H166.67C166.875 7.48591 167.065 7.16396 167.206 6.77516H173.518L174.025 4.2788H171.762C172.75 3.31468 173.62 2.52174 174.412 1.90134L171.762 0.266699C170.913 1.34837 169.997 2.40167 168.993 3.41688L170.601 4.39752H168.308L168.636 3.35743L169.052 2.31715C169.4 1.44105 169.686 0.775377 169.886 0.355689C169.905 0.183345 169.792 0.0964927 169.439 0.0584099C168.771 -0.0461235 167.722 -0.1151 166.283 -0.149491ZM182.302 0.0584099C181.495 0.325961 180.239 0.814431 178.491 1.54422C179.041 3.10989 179.438 4.67187 179.712 6.23987C180.33 6.00554 181.671 5.54563 183.702 4.81332C182.855 1.77019 182.37 0.178487 182.302 0.0584099ZM185.25 1.39578L184.625 4.2786H187.007L185.875 9.6576H182.898L182.272 12.5402H185.28L184.714 15.185L182.898 23.7739H186.232L188.019 15.185L188.585 12.5402H190.967L190.49 14.7096C190.456 14.8701 190.431 15.0273 190.401 15.185C189.791 18.3721 190.105 20.8648 191.324 22.6446C192.067 23.6991 192.964 24.145 194.034 23.9822C195.141 24.0391 196.25 22.2546 197.339 18.6327C196.44 18.226 195.537 17.8297 194.629 17.444C194.088 19.1035 193.752 19.6419 193.617 19.0489C193.404 18.2025 193.448 16.9151 193.736 15.1852C193.829 14.6266 193.948 14.0262 194.093 13.3724L196.624 1.39578H185.25ZM135.793 1.69306L134.662 6.26979H130.315L129.481 9.6578H145.381L135.793 1.69306ZM154.969 3.86241H156.547L155.802 7.39887H154.254L154.969 3.86241ZM190.312 4.2786H192.813L191.682 9.6576H189.181L190.312 4.2786ZM28.9902 5.25924C25.6863 5.25924 22.8209 6.12115 20.3853 7.84478C17.9628 9.59348 16.3895 11.8843 15.6807 14.7098C15.639 14.8753 15.595 15.0236 15.5618 15.1852C15.0175 17.8091 15.4999 19.9487 17.0208 21.575C18.6416 23.2868 21.1429 24.1306 24.5241 24.1306C30.2873 24.1306 34.7049 20.6214 35.1538 20.2376L32.6527 19.673C32.0644 19.8084 28.8605 20.7346 25.6555 20.4457C21.6121 20.0832 20.6952 17.128 20.9214 15.6609H37.1487L37.2977 15.1854L37.4168 14.6803C38.1528 11.7345 37.7633 9.41764 36.2556 7.7558C34.7354 6.07957 32.3274 5.25924 28.9902 5.25924ZM77.077 5.25924C73.6004 5.25924 70.4561 6.15923 67.6085 7.99342C64.756 9.82898 63.0064 12.1029 62.3383 14.7694C62.3015 14.9156 62.2477 15.0415 62.2193 15.1854C61.7204 17.6604 62.3813 19.754 64.1845 21.4561C66.0971 23.2415 68.8044 24.1308 72.3131 24.1308C74.439 24.1308 76.6697 23.6909 79.0124 22.8234L80.3821 17.3849C78.8243 18.582 77.5177 19.3773 76.4815 19.7923C75.4122 20.2201 74.2555 20.4459 72.9977 20.4459C71.0267 20.4459 69.5355 19.9182 68.5316 18.8412C67.6432 17.871 67.3251 16.6396 67.5787 15.1856C67.6071 15.0253 67.656 14.8755 67.6977 14.7102C68.1086 13.0722 69.0971 11.6956 70.6753 10.6091C72.2498 9.52256 74.0328 8.97444 76.0049 8.97444C77.2615 8.97444 78.2787 9.1874 79.1015 9.62826C79.9402 10.0549 80.8189 10.8562 81.7218 12.0057L83.0915 6.50781C81.3159 5.66455 79.3126 5.25924 77.077 5.25924ZM96.6988 5.25924C93.3937 5.25924 90.5284 6.12115 88.0939 7.84478C85.6702 9.59348 84.0969 11.8843 83.3893 14.7098C83.3476 14.8753 83.3046 15.0236 83.2704 15.1852C82.7249 17.8091 83.2059 19.9487 84.7292 21.575C86.3479 23.2868 88.8527 24.1306 92.2327 24.1306C97.9935 24.1306 102.415 20.6214 102.862 20.2376L100.361 19.673C99.773 19.8084 96.5691 20.7346 93.3641 20.4457C89.3218 20.0832 88.4012 17.128 88.63 15.6609H104.857L105.006 15.1854L105.125 14.6803C105.864 11.7345 105.499 9.41764 103.994 7.7558C102.474 6.07957 100.037 5.25924 96.6988 5.25924ZM54.4777 5.76442C52.1816 5.76442 49.9365 6.47283 47.7486 7.90424L42.8952 6.26979L40.6619 15.1852L38.4287 24.1306H43.6989L45.8426 15.5124C45.8703 15.4019 45.9045 15.2853 45.932 15.1852C46.4798 13.1313 47.2147 11.6667 48.1057 10.8168C49.0607 9.9133 50.3876 9.47943 52.1252 9.47943C53.7234 9.47943 54.7584 9.80391 55.192 10.4898C55.6434 11.1603 55.6339 12.3846 55.192 14.1452L54.9537 15.1852L52.6909 24.1306H57.9609L60.1942 15.1852L60.7005 13.1645C61.3328 10.6456 61.159 8.84232 60.1644 7.72607C59.0178 6.41823 57.1169 5.76442 54.4777 5.76442ZM121.74 5.76442C119.442 5.76442 117.201 6.47283 115.011 7.90424L110.157 6.26979L107.924 15.1852L105.691 24.1306H110.961L113.105 15.5124C113.133 15.4019 113.166 15.2853 113.194 15.1852C113.744 13.1313 114.474 11.6667 115.368 10.8168C116.324 9.9133 117.647 9.47943 119.387 9.47943C120.984 9.47943 122.019 9.80391 122.454 10.4898C122.904 11.1603 122.896 12.3846 122.454 14.1452L122.186 15.1852L119.953 24.1306H125.223L127.456 15.1852L127.963 13.1645C128.595 10.6456 128.42 8.84232 127.427 7.72607C126.281 6.41823 124.377 5.76442 121.74 5.76442ZM175.246 7.63669L174.62 10.5492H177.568L176.585 15.1852L175.96 18.2762C175.824 18.9228 175.306 19.5968 174.412 20.3266C174.149 20.5431 173.987 20.6822 173.965 20.743C174.293 21.7666 174.876 22.7649 175.692 23.6851C175.755 23.7018 176.104 23.395 176.704 22.7934C177.6 21.846 179.872 19.7575 183.553 16.523C183.541 16.4812 183.338 16.0475 182.957 15.2451L182.928 15.1854L182.392 13.9969L181.796 14.5021C181.51 14.7529 181.234 14.9838 180.992 15.1856C180.349 15.7419 179.861 16.1499 179.533 16.4041L179.801 15.1856L181.379 7.63708H175.246V7.63669ZM28.1566 8.97406C30.9507 8.97406 32.4442 10.0701 32.6227 12.2729H22.1122C22.4098 11.7593 22.7553 11.3099 23.1842 10.9058C23.6094 10.504 24.0892 10.1461 24.6135 9.8655C25.1517 9.57056 25.7151 9.35916 26.3106 9.21168C26.9128 9.05211 27.5335 8.97221 28.1566 8.97406ZM95.8652 8.97406C98.6593 8.97406 100.155 10.0701 100.331 12.2729H89.8208C90.1209 11.7593 90.4675 11.3099 90.8926 10.9058C91.3203 10.504 91.8038 10.1461 92.3219 9.8655C92.865 9.57056 93.4237 9.35916 94.0192 9.21168C94.6215 9.05222 95.2421 8.97233 95.8652 8.97406ZM153.718 9.8657H155.266L154.582 13.1645H153.033L153.718 9.8657ZM165.122 10.2817H166.045C166.173 10.6467 166.343 10.9958 166.551 11.3218H164.288L164.705 10.7869L165.122 10.2817ZM133.62 10.4303L132.429 15.1852L130.166 24.1306H135.406L137.669 15.1852L138.86 10.4303H133.62ZM161.906 13.6697H165.628L165.331 15.1852L165.122 16.0474H162.562C162.657 15.7287 162.743 15.4435 162.83 15.1852C162.928 14.8882 163.008 14.635 163.098 14.4125C162.972 14.3412 162.896 14.2938 162.83 14.2938H161.281L161.906 13.6697Z" fill="#006CB6"/>
</g>
<defs>
<clipPath id="clip0_141_64">
<rect width="197" height="25" fill="white"/>
</clipPath>
</defs>
</svg>
