<svg width="100" height="75" viewBox="0 0 100 75" fill="none" xmlns="http://www.w3.org/2000/svg">
<path d="M34.7822 31.132C36.3531 29.6534 38.0165 29.1914 39.8647 29.4686C43.3763 30.0231 45.2244 32.1485 45.3168 35.7525C45.4093 38.5247 45.3168 41.3894 45.3168 44.1617C45.3168 44.9934 45.0396 45.2706 44.1155 45.2706C43.099 45.2706 42.0825 45.2706 41.066 45.2706C40.1419 45.2706 39.8647 44.9934 39.8647 44.0693C39.8647 41.5742 39.8647 39.0792 39.8647 36.5841C39.8647 34.5511 38.3862 33.627 36.4456 34.0891C35.5215 34.3663 35.0594 34.9208 34.8746 35.8449C34.7822 36.3069 34.6898 36.769 34.6898 37.231C34.6898 39.5412 34.6898 41.8515 34.6898 44.0693C34.6898 44.901 34.3201 45.1782 33.5809 45.1782C32.472 45.1782 31.4555 45.1782 30.3465 45.1782C29.6997 45.1782 29.33 44.901 29.33 44.1617C29.33 37.6931 29.33 31.3168 29.33 24.8482C29.33 24.2013 29.6073 23.9241 30.2541 23.9241C31.4555 23.9241 32.5644 23.9241 33.7657 23.9241C34.4126 23.9241 34.6898 24.2013 34.6898 24.8482C34.7822 27.066 34.7822 29.0066 34.7822 31.132Z" fill="#7A4DA6"/>
<path d="M86.6238 44.0693C84.3135 46.0099 81.7261 46.0099 79.231 44.8086C77.1056 43.8845 76.2739 41.8515 76.2739 39.6337C76.1815 36.5842 76.2739 33.6271 76.2739 30.5776C76.2739 29.9307 76.5511 29.6535 77.198 29.6535C78.3993 29.6535 79.6007 29.6535 80.802 29.6535C81.5412 29.6535 81.8185 30.1156 81.8185 30.7624C81.8185 33.1651 81.8185 35.5677 81.8185 37.9703C81.8185 38.4324 81.8185 38.8944 82.0033 39.3565C82.3729 40.4654 83.2046 40.835 84.5908 40.7426C85.6073 40.6502 86.2541 40.0957 86.4389 39.0792C86.6238 38.1552 86.6238 37.2311 86.6238 36.307C86.6238 34.4588 86.6238 32.6106 86.6238 30.7624C86.6238 30.0231 86.901 29.6535 87.7327 29.6535C88.8416 29.6535 89.8581 29.6535 90.967 29.6535C91.7063 29.6535 92.0759 29.9307 92.0759 30.67C92.0759 35.1981 92.0759 39.6337 92.0759 44.1618C92.0759 44.901 91.7063 45.2707 90.8746 45.2707C90.0429 45.2707 89.1188 45.2707 88.2871 45.2707C86.9934 45.3631 86.8086 45.1783 86.6238 44.0693Z" fill="#7A4DA6"/>
<path d="M24.0627 24.1089H26.2805C26.5578 24.1089 26.9274 24.1089 27.1122 24.3861C27.297 24.7557 27.1122 25.033 26.9274 25.3102C25.4489 27.2508 24.0627 29.099 22.5842 31.0396C21.8449 31.9637 21.198 32.8878 20.4588 33.8119C20.1815 34.0891 20.2739 34.2739 20.4588 34.5511C22.769 37.6006 24.9868 40.6501 27.2046 43.6996C27.4819 44.0693 27.8515 44.3465 27.6667 44.901C27.3895 45.4554 26.835 45.363 26.3729 45.363C24.9868 45.363 23.6931 45.363 22.3069 45.363C21.6601 45.363 21.198 45.1782 20.8284 44.6237C18.4258 41.3894 15.9307 38.2475 13.6205 34.9208C13.2508 34.3663 13.3432 33.9967 13.7129 33.5346C15.8383 30.7624 17.9637 27.9901 20.0891 25.2178C20.6436 24.4785 21.2904 24.0165 22.3069 24.1089C22.8614 24.2013 23.4159 24.1089 24.0627 24.1089Z" fill="#5BB1E0"/>
<path d="M9.09241 34.6435C9.09241 31.6864 9.09241 28.6369 9.09241 25.6798C9.09241 24.1089 9.18482 24.0165 10.7558 24.0165C11.7723 24.0165 12.8812 24.0165 13.8977 24.0165C14.637 24.0165 15.0066 24.3861 15.0066 25.033C15.0066 26.5115 15.0066 28.0825 15.0066 29.561C15.0066 29.9307 14.8218 30.2079 14.637 30.4851C13.9901 31.3168 13.3432 32.0561 12.6964 32.8878C12.0495 33.7194 12.0495 34.4587 12.604 35.3828C13.1584 36.1221 13.6205 36.9538 14.2673 37.693C14.8218 38.3399 15.0066 38.9868 14.9142 39.8185C14.8218 41.297 14.8218 42.7756 14.9142 44.1617C14.9142 44.901 14.5446 45.1782 13.8053 45.1782C12.604 45.1782 11.4026 45.1782 10.2013 45.1782C9.27723 45.1782 9 44.901 9 43.9769C9.09241 41.0198 9.09241 37.8779 9.09241 34.6435Z" fill="#7A4DA6"/>
<path d="M54.0033 37.5083C54.0033 39.7261 54.0033 41.8515 54.0033 44.0693C54.0033 45.0858 53.7261 45.3631 52.7096 45.3631C51.7855 45.3631 50.769 45.3631 49.8449 45.3631C48.9208 45.3631 48.6436 45.1783 48.6436 44.2542C48.6436 41.0198 48.6436 37.7855 48.6436 34.5512C48.6436 33.3499 48.6436 32.1485 48.6436 30.9472C48.6436 30.208 49.0132 29.8383 49.7525 29.8383C50.769 29.8383 51.8779 29.8383 52.8944 29.8383C53.8185 29.8383 54.0957 30.0231 54.0957 31.0396C54.0033 33.1651 54.0033 35.2905 54.0033 37.5083Z" fill="#7A4DA6"/>
<path d="M51.231 23C52.6172 23 53.8185 24.1089 53.8185 25.4951V25.5875C53.8185 27.066 52.7096 28.1749 51.231 28.1749C49.7525 28.1749 48.6436 27.1584 48.6436 25.5875C48.6436 24.1089 49.6601 23 51.231 23Z" fill="#5BB1E0"/>
<path d="M73.3168 35.5677C73.132 33.0726 72.0231 31.0396 69.6204 30.0231C67.2178 29.099 64.8152 29.0066 62.6898 31.0396C62.5973 29.9307 62.4125 29.7459 61.3036 29.7459C60.3795 29.7459 59.363 29.7459 58.4389 29.7459C57.6997 29.7459 57.33 30.1155 57.33 30.8548C57.33 37.231 57.33 43.5148 57.33 49.8911C57.33 50.6304 57.6997 51 58.4389 51C59.363 51 60.3795 51 61.3036 51C62.5049 51 62.6898 50.8152 62.6898 49.5214C62.6898 47.6733 62.6898 45.9175 62.6898 43.9769C63.2442 44.5313 63.7063 44.901 64.3531 45.1782C67.7723 46.6568 71.9307 44.7162 73.0396 41.1122C73.594 39.264 73.5016 37.4158 73.3168 35.5677ZM68.0495 37.4158C68.0495 37.9703 68.0495 38.4323 67.8647 38.8944C67.495 40.2805 66.7558 40.835 65.1848 40.835C63.8911 40.835 63.0594 40.0957 62.6898 38.802C62.5049 37.8779 62.5049 36.9538 62.6898 36.0297C62.967 34.736 63.9835 34.0891 65.2772 34.0891C66.5709 34.0891 67.4026 34.736 67.7723 36.1221C68.0495 36.5842 68.0495 37.0462 68.0495 37.4158Z" fill="#7A4DA6"/>
</svg>
