<svg width="252" height="252" viewBox="0 0 252 252" fill="none" xmlns="http://www.w3.org/2000/svg">
<rect width="252" height="252" fill="white"/>
<path d="M152.867 28.9421H71.565C60.7599 28.9421 52 37.7016 52 48.507V216.435C52 227.241 60.7599 236 71.565 236H152.867C163.672 236 172.432 227.241 172.432 216.435V48.507C172.432 37.7016 163.672 28.9421 152.867 28.9421Z" stroke="#1043FA" stroke-width="12" stroke-miterlimit="10"/>
<path d="M92.1445 50.0708H134.401" stroke="#1043FA" stroke-width="12" stroke-miterlimit="10" stroke-linecap="round"/>
<path d="M100.594 210.646H125.948" stroke="#1043FA" stroke-width="12" stroke-miterlimit="10" stroke-linecap="round"/>
<path d="M157.609 173.799C181.569 173.799 200.993 154.376 200.993 130.415C200.993 106.455 181.569 87.0311 157.609 87.0311C133.648 87.0311 114.225 106.455 114.225 130.415C114.225 154.376 133.648 173.799 157.609 173.799Z" fill="white" stroke="#1043FA" stroke-width="12"/>
<path d="M162.281 128H152.719C149.693 128 147.259 125.647 147.259 122.723C147.259 119.798 149.693 117.445 152.719 117.445H170.87C172.609 117.445 174 116.101 174 114.42C174 112.739 172.609 111.395 170.87 111.395H160.612V107.025C160.612 105.345 159.221 104 157.483 104C155.744 104 154.353 105.345 154.353 107.025V111.395H152.719C146.251 111.395 141 116.471 141 122.723C141 128.975 146.251 134.05 152.719 134.05H162.281C165.307 134.05 167.741 136.403 167.741 139.328C167.741 142.252 165.307 144.605 162.281 144.605H144.13C142.391 144.605 141 145.95 141 147.63C141 149.311 142.391 150.656 144.13 150.656H153.658V152.639C153.658 154.488 155.222 156 157.135 156C159.047 156 160.612 154.488 160.612 152.639V150.656H162.281C168.749 150.656 174 145.58 174 139.328C174 133.076 168.749 128 162.281 128Z" fill="#1043FA" stroke="#1043FA" stroke-width="0.504209"/>
</svg>
