<svg width="100" height="75" viewBox="0 0 100 75" fill="none" xmlns="http://www.w3.org/2000/svg">
<path fill-rule="evenodd" clip-rule="evenodd" d="M32.2 24.8H38.5C40.5 24.8 42.1 26.4 42.1 28.4V38.8C42.1 40.8 40.5 42.4 38.5 42.4H32.2C30.2 42.4 28.6 40.8 28.6 38.8V28.4C28.6 26.6 30.2 24.8 32.2 24.8Z" fill="white"/>
<path fill-rule="evenodd" clip-rule="evenodd" d="M40.8 58.1H30C28.4 58.1 27.1 56.7 27.1 55.2V23.6C27.1 22 28.5 20.7 30 20.7H40.8C41 20.7 41 20.7 41.3 20.7V18.4C41.1 17.7 41.8 17 42.4 17C43.1 17 43.8 17.5 43.8 18.4V22.2C43.8 22.4 43.8 22.7 43.8 22.7C43.8 22.9 43.8 23.2 43.8 23.4V55C43.5 56.8 42.4 58.1 40.8 58.1ZM32.2 24.8H38.5C40.5 24.8 42.1 26.4 42.1 28.4V38.8C42.1 40.8 40.5 42.4 38.5 42.4H32.2C30.2 42.4 28.6 40.8 28.6 38.8V28.4C28.6 26.6 30.2 24.8 32.2 24.8Z" fill="#DAE182"/>
<path fill-rule="evenodd" clip-rule="evenodd" d="M46.2 25.4H53.2C55.7 25.6 56.8 27.7 56.8 30.4C56.6 33.1 55 34.5 52.5 34.7H50V42.4H46.4V25.4H46.2ZM49.8 27.2C51.6 27 52.7 27.4 53 30.1C53 32.6 51.6 33 49.8 33V27.2Z" fill="#93C01F"/>
<path fill-rule="evenodd" clip-rule="evenodd" d="M62.9 25.2H67.2V27H63.8C61.8 27.5 62.2 29.5 62.2 31.1H66.7V33.4H62.2V39C62.4 40.4 63.1 41.3 64.5 41.3H67H67.7V43.1H67H62.3C60.7 43.1 59.4 42.2 58.9 39.7L58.7 28.9C58.8 26.6 60.2 25.4 62.9 25.2Z" fill="#93C01F"/>
<path fill-rule="evenodd" clip-rule="evenodd" d="M69 29.9C68.8 26.3 70.8 25.4 73.3 25.2C76.2 25 78 26.3 78.3 29.3H74.9C74.7 27.7 73.5 27.3 72.4 27.9C70.8 29.7 75.8 33.1 77.1 34.4C79.6 36.4 79.1 41.8 75.3 43H72.8C70.3 43 69 41.6 68.5 38.7H71.9C72.1 39.8 72.6 40.7 73.7 40.5C75.5 40.3 76 38.7 74.6 36.7C72.1 34.9 69.2 32.9 69 29.9Z" fill="#93C01F"/>
<path fill-rule="evenodd" clip-rule="evenodd" d="M9 24.8H12.6V25.9C14.9 25 16.4 24.3 18 25.9C21.2 24.5 23.4 24.5 24.5 27.3L24.7 42.4H21.1V27.9C20.9 26.8 20 26.5 18.6 26.5V42.3H15V27.9C14.8 26.8 13.6 26.5 12.5 26.5V42.3H9V24.8Z" fill="#93C01F"/>
<path fill-rule="evenodd" clip-rule="evenodd" d="M80 42.8H83.8V33.6H87V42.8H90.6V29.5C90.6 26.8 88.6 25.2 85.6 25.2C82.2 25.2 80.4 26.8 80.2 29.5V42.8H80ZM83.8 28.6C84 27.7 84.3 27.2 85.4 27C86.5 27 87 27.7 87 28.6V31.3H83.8V28.6Z" fill="#93C01F"/>
<path fill-rule="evenodd" clip-rule="evenodd" d="M31.5 32C32.2 33.4 32.9 34 34 34.3C32.4 35.4 30.6 36.1 28.8 36.8C27.7 36.8 26.5 36.3 25.6 36.1C28.2 35.3 30.2 34 31.5 32Z" fill="#862216" stroke="#D19360" stroke-width="0.0346503" stroke-miterlimit="2.6131"/>
<path fill-rule="evenodd" clip-rule="evenodd" d="M38.3 28.1L45.7 31.9C41.9 36.9 35.6 37.1 28.6 36.4C33.3 35.3 36.5 32.4 38.3 28.1Z" fill="#E20D17" stroke="#D19360" stroke-width="0.0346503" stroke-miterlimit="2.6131"/>
</svg>
