<svg width="197" height="37" viewBox="0 0 197 37" fill="none" xmlns="http://www.w3.org/2000/svg">
<path d="M194.937 28.9199C194.35 28.9199 193.872 29.3781 193.872 29.9424C193.872 30.5066 194.35 30.9649 194.937 30.9649C195.525 30.9649 196.002 30.5066 196.002 29.9424C196.002 29.3781 195.525 28.9199 194.937 28.9199ZM194.937 30.8027C194.442 30.8027 194.041 30.4157 194.041 29.9424C194.041 29.4668 194.444 29.082 194.937 29.082C195.433 29.082 195.836 29.469 195.836 29.9424C195.836 30.4158 195.433 30.8027 194.937 30.8027ZM195.284 29.7673C195.284 29.5814 195.147 29.4711 194.944 29.4711H194.604V30.4028H194.771V30.0656H194.953L195.129 30.4028H195.309L195.115 30.031C195.219 29.9856 195.284 29.8948 195.284 29.7673ZM194.937 29.9207H194.773V29.6117H194.937C195.05 29.6117 195.117 29.6657 195.117 29.7651C195.117 29.8667 195.048 29.9207 194.937 29.9207ZM66.6248 18.5719V16.0989H62.676V30.8113H66.6248V21.9896C66.6248 20.392 67.692 19.6073 69.3558 19.6073H71.5171V16.099H69.671C68.2256 16.0989 66.9693 16.8231 66.6248 18.5719ZM75.2161 10.2797C73.8653 10.2797 72.8297 11.3043 72.8297 12.6013C72.8297 13.8681 73.8653 14.8927 75.2161 14.8927C76.5669 14.8927 77.6026 13.8681 77.6026 12.6013C77.6025 11.3043 76.5669 10.2797 75.2161 10.2797ZM73.2462 30.8114H77.1861V16.0989H73.2462V30.8114ZM95.9535 23.4551C95.9535 27.6553 92.4076 31.06 88.0331 31.06C86.268 31.06 84.6673 30.5044 83.384 29.5662V35.1305H79.4441V16.0989H83.384V17.344C84.6673 16.4058 86.268 15.8503 88.0331 15.8503C92.4076 15.8503 95.9535 19.255 95.9535 23.4551ZM91.9888 23.4551C91.9888 21.1746 90.0617 19.3241 87.6865 19.3241C85.3112 19.3241 83.3841 21.1746 83.3841 23.4551C83.3841 25.7357 85.3113 27.5861 87.6865 27.5861C90.0617 27.5861 91.9888 25.7379 91.9888 23.4551ZM164.431 22.1646L162.133 21.5593C160.62 21.181 160.032 20.7357 160.032 19.9683C160.032 19.2204 160.861 18.6972 162.045 18.6972C163.173 18.6972 164.058 19.4063 164.058 20.3142V20.3984H167.689V20.3142C167.689 17.6444 165.422 15.8502 162.045 15.8502C158.702 15.8502 156.272 17.6423 156.272 20.1131C156.272 22.0348 157.598 23.4831 159.913 24.0841L162.115 24.6613C163.787 25.1066 164.409 25.5995 164.409 26.4836C164.409 27.4153 163.51 28.0422 162.173 28.0422C160.779 28.0422 159.841 27.1948 159.841 25.9367V25.8524H155.986V25.9367C155.986 28.9544 158.517 31.0642 162.142 31.0642C165.633 31.0642 168.169 29.0042 168.169 26.168C168.168 24.7759 167.52 22.9558 164.431 22.1646ZM109.93 16.0989H113.87V30.8113H109.93V29.5662C108.647 30.5044 107.046 31.0599 105.281 31.0599C100.907 31.0599 97.3607 27.6553 97.3607 23.4551C97.3607 19.2549 100.907 15.8502 105.281 15.8502C107.046 15.8502 108.647 16.4058 109.93 17.3439V16.0989ZM109.93 23.4551C109.93 21.1724 108.003 19.3241 105.628 19.3241C103.252 19.3241 101.325 21.1746 101.325 23.4551C101.325 25.7357 103.252 27.5861 105.628 27.5861C108.005 27.5861 109.93 25.7379 109.93 23.4551ZM128.096 10.8633H132.036V30.8135H128.096V29.5683C126.813 30.5065 125.212 31.0621 123.447 31.0621C119.073 31.0621 115.527 27.6574 115.527 23.4572C115.527 19.257 119.073 15.8524 123.447 15.8524C125.212 15.8524 126.813 16.408 128.096 17.3461V10.8633ZM128.096 23.4551C128.096 21.1746 126.169 19.3241 123.794 19.3241C121.419 19.3241 119.492 21.1746 119.492 23.4551C119.492 25.7357 121.416 27.5861 123.794 27.5861C126.169 27.5861 128.096 25.7379 128.096 23.4551ZM150.329 30.8114H154.268V16.0989H150.329V30.8114ZM152.299 10.2797C150.948 10.2797 149.912 11.3043 149.912 12.6013C149.912 13.8681 150.948 14.8927 152.299 14.8927C153.649 14.8927 154.685 13.8681 154.685 12.6013C154.685 11.3043 153.649 10.2797 152.299 10.2797ZM185.198 23.4551C185.198 27.6553 181.652 31.06 177.277 31.06C172.903 31.06 169.357 27.6553 169.357 23.4551C169.357 19.2549 172.903 15.8503 177.277 15.8503C181.652 15.8503 185.198 19.255 185.198 23.4551ZM181.58 23.4551C181.58 21.1746 179.653 19.3241 177.278 19.3241C174.902 19.3241 172.975 21.1746 172.975 23.4551C172.975 25.7357 174.9 27.5861 177.278 27.5861C179.653 27.5861 181.58 25.7379 181.58 23.4551ZM64.6076 10.8633H49.4941V14.2377H55.0888V30.8113H59.0152V14.2377H64.6099V10.8633H64.6076ZM141.04 26.782L137.534 16.099H133.396L138.653 30.8114H143.394L148.683 16.099H144.545L141.04 26.782ZM190.97 18.5719V16.0989H187.021V30.8113H190.97V21.9896C190.97 20.392 192.038 19.6073 193.701 19.6073H195.863V16.099H194.017C192.571 16.0989 191.317 16.8231 190.97 18.5719Z" fill="black"/>
<path d="M19 37C29.4934 37 38 28.7173 38 18.5C38 8.28273 29.4934 0 19 0C8.50659 0 0 8.28273 0 18.5C0 28.7173 8.50659 37 19 37Z" fill="#00E59A"/>
<path d="M30.7115 15.2426L33 12.7497H27.9251C25.3845 11.012 22.3162 10 18.9979 10C15.6838 10 12.624 11.0142 10.0876 12.7497H5L7.28848 15.2426C5.88575 16.524 5.00638 18.3699 5.00638 20.4194C5.00638 24.2871 8.13825 27.4229 12.0011 27.4229C13.8361 27.4229 15.508 26.7143 16.7561 25.5559L18.9979 28L21.2398 25.558C22.4879 26.7164 24.1576 27.4229 25.9926 27.4229C29.8555 27.4229 32.9915 24.2871 32.9915 20.4194C32.9936 18.3678 32.1143 16.522 30.7115 15.2426ZM12.0032 25.1591C9.38836 25.1591 7.26945 23.0375 7.26945 20.4194C7.26945 17.8013 9.38841 15.6796 12.0032 15.6796C14.618 15.6796 16.7369 17.8013 16.7369 20.4194C16.7369 23.0375 14.618 25.1591 12.0032 25.1591ZM19 20.2815C19 17.1627 16.7349 14.4852 13.745 13.3416C15.3617 12.6648 17.1353 12.2892 18.9979 12.2892C20.8604 12.2892 22.6361 12.6648 24.2529 13.3416C21.2652 14.4873 19 17.1627 19 20.2815ZM25.9947 25.1591C23.3799 25.1591 21.2609 23.0375 21.2609 20.4194C21.2609 17.8013 23.3799 15.6796 25.9947 15.6796C28.6096 15.6796 30.7285 17.8013 30.7285 20.4194C30.7285 23.0375 28.6095 25.1591 25.9947 25.1591ZM25.9947 17.9328C24.6237 17.9328 23.5134 19.0446 23.5134 20.4173C23.5134 21.7899 24.6237 22.9017 25.9947 22.9017C27.3657 22.9017 28.476 21.7899 28.476 20.4173C28.476 19.0467 27.3657 17.9328 25.9947 17.9328ZM14.4845 20.4194C14.4845 21.7921 13.3741 22.9038 12.0032 22.9038C10.6322 22.9038 9.52189 21.7921 9.52189 20.4194C9.52189 19.0467 10.6322 17.9349 12.0032 17.9349C13.3741 17.9328 14.4845 19.0467 14.4845 20.4194Z" fill="black"/>
</svg>
