<svg width="100" height="75" viewBox="0 0 100 75" fill="none" xmlns="http://www.w3.org/2000/svg">
<path d="M80 8H20V68H80V8Z" fill="#ED6A08"/>
<path fill-rule="evenodd" clip-rule="evenodd" d="M74.6818 54.2273V51.2273H75.6364L76.1818 53.5455L76.7273 51.2273H77.6818V54.2273H77.2727V51.7728L76.5909 54.2273H75.9091L75.3636 51.7728V54.2273H74.6818ZM72.7727 54.2273V51.7728H71.8182V51.2273H74.2727V51.7728H73.3182V54.2273H72.7727ZM68 57.5H71.2727C71.2727 56.5455 70.7273 56 69.6364 56C68.5455 56 68 56.5455 68 57.5ZM71.5455 60.0909L73.3182 61.1818C72.7727 62.4091 71 63.2273 69.6364 63.2273C68.4091 63.2273 67.4545 62.8182 66.7727 62C66.0909 61.1818 65.6818 60.0909 65.6818 58.5909C65.6818 56.1364 67.0455 54.0909 69.6364 54.0909C71 54.0909 71.9545 54.6364 72.6364 55.4546C73.4545 56.4091 73.5909 57.7728 73.4545 59.2728H68.1364C68.1364 60.3637 68.6818 61.3182 69.9091 61.3182C70.4545 61.1818 71.2727 60.6364 71.5455 60.0909ZM56.6818 63.6364H59C59.1364 64.3182 59.6818 64.4546 60.3636 64.4546C61.8636 64.4546 62.1364 63.7728 62.1364 62.4091V61.5909C61.5909 62.4091 60.9091 62.8182 59.8182 62.8182C57.3636 62.8182 56.2727 60.6364 56.2727 58.5909C56.2727 56.4091 57.2273 54.0909 59.6818 54.0909C60.7727 54.0909 61.5909 54.5 62 55.4546V54.5H64.0455V62.4091C64.0455 63.3637 63.9091 63.9091 63.7727 64.4546C63.2273 66.0909 61.4545 66.5 59.9545 66.5C58.4545 66.2273 56.8182 65.5455 56.6818 63.6364ZM58.5909 58.4546C58.5909 59.6818 59 60.9091 60.3636 60.9091C61.7273 60.9091 62.1364 59.5455 62.1364 58.4546C62.1364 57.2273 61.7273 56 60.3636 56C59 56 58.5909 57.3637 58.5909 58.4546ZM47.6818 62.8182V54.3637H49.8636V55.3182C50.4091 54.5 51.3636 54.0909 52.3182 54.0909C54.2273 54.0909 55.0455 55.1818 55.0455 56.9546V62.6818H52.7273V57.5C52.7273 56.5455 52.5909 55.8637 51.5 55.8637C50.4091 55.8637 49.8636 56.5455 49.8636 57.6364V62.6818H47.6818V62.8182ZM43.7273 58.5909C43.3182 58.7273 42.9091 58.8637 42.5 59C41.9545 59.1364 41.2727 59.1364 41 59.5455C40.3182 60.2273 41 61.3182 41.8182 61.3182C43.0455 61.3182 43.7273 60.5 43.7273 59.4091V58.5909ZM43.7273 61.7273C43.1818 62.6818 42.2273 63.0909 41.1364 63.0909C39.6364 63.0909 38.5455 62 38.5455 60.3637C38.5455 58.5909 39.9091 57.9091 41.4091 57.6364C41.6818 57.6364 41.9545 57.5 42.2273 57.5C43.1818 57.3637 43.5909 57.0909 43.5909 56.6818C43.5909 55.8637 43.0455 55.7273 42.2273 55.7273C41.5455 55.7273 41.1364 56.1364 40.7273 56.8182L39.0909 55.8637C39.6364 54.6364 41 54.0909 42.2273 54.0909C43.8636 53.9546 45.9091 54.7728 45.9091 56.8182V62.8182H43.5909L43.7273 61.7273ZM33.0909 62.8182V54.3637H35.1364V55.8637C35.6818 54.7728 36.5 53.9546 37.8636 54.2273V56.5455H37.1818C35.9545 56.5455 35.4091 57.2273 35.4091 58.4546V62.9546H33.0909V62.8182ZM23.4091 58.5909C23.4091 56 24.7727 54.0909 27.5 54.0909C30.2273 54.0909 31.5909 56 31.5909 58.5909C31.5909 61.1818 30.2273 63.0909 27.5 63.0909C24.7727 63.0909 23.4091 61.1818 23.4091 58.5909ZM25.5909 58.5909C25.5909 59.8182 26 61.1818 27.5 61.1818C29 61.1818 29.4091 59.8182 29.4091 58.5909C29.4091 57.3637 29 56 27.5 56C26 56 25.5909 57.3637 25.5909 58.5909Z" fill="white"/>
</svg>
