<svg width="100" height="75" viewBox="0 0 100 75" fill="none" xmlns="http://www.w3.org/2000/svg">
<path d="M64.0417 18C63.7425 18 63.5 18.2425 63.5 18.5417V23.9583C63.5 24.2575 63.7425 24.5 64.0417 24.5H69.4583C69.7575 24.5 70 24.2575 70 23.9583V18.5417C70 18.2425 69.7575 18 69.4583 18H64.0417ZM63.5 57V55.375C63.5 54.4775 64.2275 53.75 65.125 53.75C66.0225 53.75 66.75 54.4775 66.75 55.375V57H70V55.375C70 54.4775 70.7275 53.75 71.625 53.75C72.5225 53.75 73.25 54.4775 73.25 55.375V58.625C73.25 59.5225 72.5225 60.25 71.625 60.25H58.625C57.7275 60.25 57 59.5225 57 58.625V55.375C57 54.4775 57.7275 53.75 58.625 53.75C59.5225 53.75 60.25 54.4775 60.25 55.375V57H63.5ZM53.75 34.25H55.375C56.2725 34.25 57 34.9775 57 35.875C57 36.7725 56.2725 37.5 55.375 37.5H48.875C47.9775 37.5 47.25 36.7725 47.25 35.875C47.25 34.9775 47.9775 34.25 48.875 34.25H50.5V31H45.625C44.7275 31 44 30.2725 44 29.375C44 28.4775 44.7275 27.75 45.625 27.75H55.375C56.2725 27.75 57 28.4775 57 29.375C57 30.2725 56.2725 31 55.375 31H53.75V34.25ZM70 37.5H68.375C67.4775 37.5 66.75 36.7725 66.75 35.875C66.75 34.9775 67.4775 34.25 68.375 34.25H70V32.625C70 31.7275 70.7275 31 71.625 31C72.5225 31 73.25 31.7275 73.25 32.625V39.125C73.25 40.0225 72.5225 40.75 71.625 40.75C70.7275 40.75 70 40.0225 70 39.125V37.5ZM53.75 44H52.125C51.2275 44 50.5 43.2725 50.5 42.375C50.5 41.4775 51.2275 40.75 52.125 40.75H55.375C56.2725 40.75 57 41.4775 57 42.375V48.875C57 49.7725 56.2725 50.5 55.375 50.5H45.625C44.7275 50.5 44 49.7725 44 48.875C44 47.9775 44.7275 47.25 45.625 47.25H53.75V44ZM64.0417 14.75H69.4583C71.5524 14.75 73.25 16.4476 73.25 18.5417V23.9583C73.25 26.0524 71.5524 27.75 69.4583 27.75H64.0417C61.9476 27.75 60.25 26.0524 60.25 23.9583V18.5417C60.25 16.4476 61.9476 14.75 64.0417 14.75ZM31.5417 14.75H36.9583C39.0524 14.75 40.75 16.4476 40.75 18.5417V23.9583C40.75 26.0524 39.0524 27.75 36.9583 27.75H31.5417C29.4476 27.75 27.75 26.0524 27.75 23.9583V18.5417C27.75 16.4476 29.4476 14.75 31.5417 14.75ZM31.5417 18C31.2425 18 31 18.2425 31 18.5417V23.9583C31 24.2575 31.2425 24.5 31.5417 24.5H36.9583C37.2575 24.5 37.5 24.2575 37.5 23.9583V18.5417C37.5 18.2425 37.2575 18 36.9583 18H31.5417ZM31.5417 47.25H36.9583C39.0524 47.25 40.75 48.9476 40.75 51.0417V56.4583C40.75 58.5524 39.0524 60.25 36.9583 60.25H31.5417C29.4476 60.25 27.75 58.5524 27.75 56.4583V51.0417C27.75 48.9476 29.4476 47.25 31.5417 47.25ZM31.5417 50.5C31.2425 50.5 31 50.7425 31 51.0417V56.4583C31 56.7575 31.2425 57 31.5417 57H36.9583C37.2575 57 37.5 56.7575 37.5 56.4583V51.0417C37.5 50.7425 37.2575 50.5 36.9583 50.5H31.5417ZM53.75 18H45.625C44.7275 18 44 17.2725 44 16.375C44 15.4775 44.7275 14.75 45.625 14.75H55.375C56.2725 14.75 57 15.4775 57 16.375V22.875C57 23.7725 56.2725 24.5 55.375 24.5C54.4775 24.5 53.75 23.7725 53.75 22.875V18ZM45.625 24.5C44.7275 24.5 44 23.7725 44 22.875C44 21.9775 44.7275 21.25 45.625 21.25H48.875C49.7725 21.25 50.5 21.9775 50.5 22.875C50.5 23.7725 49.7725 24.5 48.875 24.5H45.625ZM29.375 44C28.4775 44 27.75 43.2725 27.75 42.375C27.75 41.4775 28.4775 40.75 29.375 40.75H35.875C36.7725 40.75 37.5 41.4775 37.5 42.375C37.5 43.2725 36.7725 44 35.875 44H29.375ZM42.375 44C41.4775 44 40.75 43.2725 40.75 42.375C40.75 41.4775 41.4775 40.75 42.375 40.75H45.625C46.5225 40.75 47.25 41.4775 47.25 42.375C47.25 43.2725 46.5225 44 45.625 44H42.375ZM47.25 57V58.625C47.25 59.5225 46.5225 60.25 45.625 60.25C44.7275 60.25 44 59.5225 44 58.625V55.375C44 54.4775 44.7275 53.75 45.625 53.75H52.125C53.0225 53.75 53.75 54.4775 53.75 55.375C53.75 56.2725 53.0225 57 52.125 57H47.25ZM40.75 34.25H42.375C43.2725 34.25 44 34.9775 44 35.875C44 36.7725 43.2725 37.5 42.375 37.5H39.125C38.2275 37.5 37.5 36.7725 37.5 35.875V34.25H35.875C34.9775 34.25 34.25 33.5225 34.25 32.625C34.25 31.7275 34.9775 31 35.875 31H39.125C40.0225 31 40.75 31.7275 40.75 32.625V34.25ZM27.75 32.625C27.75 31.7275 28.4775 31 29.375 31C30.2725 31 31 31.7275 31 32.625V35.875C31 36.7725 30.2725 37.5 29.375 37.5C28.4775 37.5 27.75 36.7725 27.75 35.875V32.625ZM60.25 32.625C60.25 31.7275 60.9775 31 61.875 31C62.7725 31 63.5 31.7275 63.5 32.625V39.125C63.5 40.0225 62.7725 40.75 61.875 40.75C60.9775 40.75 60.25 40.0225 60.25 39.125V32.625ZM66.75 47.25V45.625C66.75 44.7275 67.4775 44 68.375 44H71.625C72.5225 44 73.25 44.7275 73.25 45.625C73.25 46.5225 72.5225 47.25 71.625 47.25H70V48.875C70 49.7725 69.2725 50.5 68.375 50.5H61.875C60.9775 50.5 60.25 49.7725 60.25 48.875V45.625C60.25 44.7275 60.9775 44 61.875 44C62.7725 44 63.5 44.7275 63.5 45.625V47.25H66.75ZM21.25 19.625C21.25 20.5225 20.5225 21.25 19.625 21.25C18.7275 21.25 18 20.5225 18 19.625V13.125C18 8.63769 21.6377 5 26.125 5H32.625C33.5225 5 34.25 5.72754 34.25 6.625C34.25 7.52246 33.5225 8.25 32.625 8.25H26.125C23.4326 8.25 21.25 10.4326 21.25 13.125V19.625ZM68.375 8.25C67.4775 8.25 66.75 7.52246 66.75 6.625C66.75 5.72754 67.4775 5 68.375 5H74.875C79.3623 5 83 8.63769 83 13.125V19.625C83 20.5225 82.2725 21.25 81.375 21.25C80.4775 21.25 79.75 20.5225 79.75 19.625V13.125C79.75 10.4326 77.5674 8.25 74.875 8.25H68.375ZM32.625 66.75C33.5225 66.75 34.25 67.4775 34.25 68.375C34.25 69.2725 33.5225 70 32.625 70H26.125C21.6377 70 18 66.3623 18 61.875V55.375C18 54.4775 18.7275 53.75 19.625 53.75C20.5225 53.75 21.25 54.4775 21.25 55.375V61.875C21.25 64.5674 23.4326 66.75 26.125 66.75H32.625ZM79.75 55.375C79.75 54.4775 80.4775 53.75 81.375 53.75C82.2725 53.75 83 54.4775 83 55.375V61.875C83 66.3623 79.3623 70 74.875 70H68.375C67.4775 70 66.75 69.2725 66.75 68.375C66.75 67.4775 67.4775 66.75 68.375 66.75H74.875C77.5674 66.75 79.75 64.5674 79.75 61.875V55.375Z" fill="black"/>
</svg>
