<svg width="178" height="35" viewBox="0 0 178 35" fill="none" xmlns="http://www.w3.org/2000/svg">
<g clip-path="url(#clip0_141_127)">
<path d="M45.8882 6.38901H54.411C59.8446 6.38901 64.3331 9.37631 64.3331 16.197V17.6302C64.3331 24.5028 60.1353 27.5937 54.5746 27.5937H45.8882V6.38901ZM50.6493 10.2397V23.7257H54.302C57.3913 23.7257 59.4629 21.809 59.4629 17.5439V16.4215C59.4629 12.1564 57.2823 10.2397 54.1384 10.2397H50.6493ZM66.8591 10.4469H70.6753L71.2931 14.4357C72.02 11.7247 73.8736 10.2742 77.2355 10.2742H78.4167V14.8502H76.4541C72.5834 14.8502 71.6384 16.128 71.6384 19.7542V27.6455H66.9318V10.4469H66.8591ZM79.3617 19.3915V18.9081C79.3617 13.1579 83.2324 10.0152 88.5024 10.0152C93.8814 10.0152 97.6431 13.1579 97.6431 18.9081V19.3915C97.6431 25.0381 93.9904 28.0772 88.5024 28.0772C82.6691 28.0254 79.3617 25.0553 79.3617 19.3915ZM92.8274 19.3397V18.9081C92.8274 15.7135 91.1374 13.7968 88.4479 13.7968C85.8129 13.7968 84.0683 15.5581 84.0683 18.9081V19.3397C84.0683 22.4307 85.7583 24.192 88.4479 24.192C91.1374 24.1402 92.8274 22.4307 92.8274 19.3397ZM100.115 10.4469H104.04L104.494 13.6932C105.439 11.5175 107.456 10.0152 110.436 10.0152C115.034 10.0152 118.069 13.1579 118.069 18.9771V19.4606C118.069 25.1071 114.707 28.0944 110.436 28.0944C107.583 28.0944 105.621 26.8684 104.658 24.8999V33.5856H100.06L100.115 10.4469ZM113.289 19.3397V18.9599C113.289 15.5409 111.436 13.8486 108.964 13.8486C106.329 13.8486 104.585 15.7653 104.585 18.9599V19.2879C104.585 22.327 106.275 24.2438 108.91 24.2438C111.618 24.192 113.289 22.5515 113.289 19.3397ZM125.029 24.4682L124.629 27.6109H120.595V4.69678H125.192V13.486C126.21 11.2412 128.227 10.0152 131.08 10.0152C135.405 10.067 138.604 12.8989 138.604 18.5972V19.1325C138.604 24.8309 135.569 28.0944 130.971 28.0944C127.936 28.0254 125.974 26.6958 125.029 24.4682ZM133.77 19.1325V18.7008C133.77 15.5581 131.971 13.7968 129.445 13.7968C126.864 13.7968 125.065 15.7653 125.065 18.7526V19.1325C125.065 22.327 126.81 24.192 129.39 24.192C132.152 24.192 133.77 22.5515 133.77 19.1325ZM140.621 19.3915V18.9081C140.621 13.1579 144.491 10.0152 149.761 10.0152C155.14 10.0152 158.902 13.1579 158.902 18.9081V19.3915C158.902 25.0381 155.195 28.0772 149.761 28.0772C143.928 28.0254 140.621 25.0553 140.621 19.3915ZM154.123 19.3397V18.9081C154.123 15.7135 152.433 13.7968 149.743 13.7968C147.108 13.7968 145.364 15.5581 145.364 18.9081V19.3397C145.364 22.4307 147.054 24.192 149.743 24.192C152.451 24.1402 154.123 22.4307 154.123 19.3397ZM165.063 18.7008L158.72 10.4469H164.154L167.807 15.6099L171.514 10.4469H176.893L170.46 18.649L177.238 27.6109H171.914L167.77 21.9126L163.736 27.6109H158.175L165.063 18.7008Z" fill="#007FF1"/>
</g>
<path d="M17.8099 9.45823L8.90493 15.0023L17.8099 20.5463L8.90493 26.0904L0 20.5164L8.90493 14.9723L0 9.45823L8.90493 3.91418L17.8099 9.45823ZM8.85887 27.8734L17.7638 22.3294L26.6687 27.8734L17.7638 33.4175L8.85887 27.8734ZM17.8099 20.5164L26.7148 14.9723L17.8099 9.45823L26.6687 3.91418L35.5737 9.45823L26.6687 15.0023L35.5737 20.5463L26.6687 26.0904L17.8099 20.5164Z" fill="#007FF1"/>
<defs>
<clipPath id="clip0_141_127">
<rect width="131.143" height="34" fill="white" transform="translate(46.0308)"/>
</clipPath>
</defs>
</svg>
