<svg width="252" height="252" viewBox="0 0 252 252" fill="none" xmlns="http://www.w3.org/2000/svg">
<g clip-path="url(#clip0_2395_269)">
<path d="M252 0H0V252H252V0Z" fill="white"/>
<path d="M198.696 238.975H53.6583C50.2521 238.975 47.4904 241.737 47.4904 245.143C47.4904 248.549 50.2521 251.311 53.6583 251.311H198.696C202.102 251.311 204.864 248.549 204.864 245.143C204.864 241.737 202.102 238.975 198.696 238.975ZM121.816 208.702C122.971 209.861 124.541 210.511 126.177 210.509C127.813 210.511 129.383 209.861 130.538 208.702L187.242 152.022V152.01L187.248 152.003C220.97 118.272 220.961 63.5896 187.23 29.8677C153.497 -3.85401 98.8151 -3.84573 65.0934 29.8858C31.3717 63.6181 31.38 118.3 65.1122 152.022L121.816 208.702ZM126.177 16.9664C145.833 16.9491 164.689 24.7554 178.58 38.6626C207.452 67.568 207.424 114.405 178.52 143.276L126.177 195.619L73.8342 143.288C59.9256 129.396 52.1168 110.539 52.1342 90.8812C52.1695 50.0243 85.3199 16.9311 126.177 16.9664Z" fill="#1043FA"/>
<path d="M132.955 94.6152H119.045C114.645 94.6152 111.105 91.222 111.105 87.0038C111.105 82.7861 114.645 79.3923 119.045 79.3923H145.448C147.977 79.3923 150 77.453 150 75.0289C150 72.6048 147.977 70.6661 145.448 70.6661H130.527V64.3634C130.527 61.9393 128.503 60 125.975 60C123.446 60 121.422 61.9393 121.422 64.3634V70.6661H119.045C109.637 70.6661 102 77.9866 102 87.0038C102 96.0214 109.637 103.342 119.045 103.342H132.955C137.355 103.342 140.895 106.736 140.895 110.953C140.895 115.171 137.355 118.565 132.955 118.565H106.552C104.023 118.565 102 120.504 102 122.928C102 125.352 104.023 127.292 106.552 127.292H120.411V130.152C120.411 132.819 122.687 135 125.469 135C128.251 135 130.527 132.819 130.527 130.152V127.292H132.955C142.363 127.292 150 119.971 150 110.953C150 101.936 142.363 94.6152 132.955 94.6152Z" fill="#1043FA" stroke="#1043FA" stroke-width="0.504209"/>
</g>
<defs>
<clipPath id="clip0_2395_269">
<rect width="252" height="252" fill="white"/>
</clipPath>
</defs>
</svg>
