<svg width="82" height="35" viewBox="0 0 82 35" fill="none" xmlns="http://www.w3.org/2000/svg">
<path d="M77.7946 33.9514L65.6457 0.0223889L65.6373 0H65.3976L62.8958 6.97232L58.3413 19.6655L58.3306 19.6554C56.7521 18.2426 54.5251 17.3594 51.7204 17.0305L50.8649 16.9409L51.7135 16.8305C56.3388 15.9875 59.448 13.0244 59.448 9.45444C59.448 4.55892 54.9087 1.14186 48.4065 1.14186H34.8777V1.38968H38.8089V26.6857L29.2615 0.0223889L29.2531 0H29.0133L26.5116 6.97232L16.8622 33.8641L16.8028 33.8711C16.6379 33.8917 16.4748 33.9081 16.3134 33.9205C16.0706 33.9398 15.8294 33.9514 15.5873 33.9514H5.83746L24.3706 1.38968L24.5083 1.14494H1.84162V11.2178H2.08213C2.12475 6.31145 4.94163 1.38968 11.1653 1.38968H18.6736L0.000488281 34.1953H25.1568V24.5448H24.9163C24.8835 28.8211 22.4937 32.8828 17.2968 33.8L17.1316 33.8286L21.0894 22.7938H32.1765L36.1716 33.9514H32.2306V34.1953H47.6987V33.9514H43.7409V17.1208H48.3076C52.9549 17.1208 55.6203 19.227 55.6203 22.8972V25.8827C55.6203 26.2116 55.6424 26.6926 55.6668 27.0948V27.1095L53.2122 33.9498H50.0056V34.1938H56.6433V33.9498H53.4709L55.7063 27.721C55.7109 27.7812 55.7132 27.8175 55.7132 27.8175L55.7748 28.3788L55.8342 28.7501C56.2071 31.0469 57.0733 32.7354 58.4075 33.7684L58.5993 33.9097C59.6131 34.6246 60.8728 34.9867 62.3455 34.9867C64.2962 34.9867 65.597 34.4933 66.6709 33.3322L66.5301 33.1978C65.5407 34.1243 64.7103 34.4995 63.6699 34.4995C61.8972 34.4995 60.9694 32.3185 60.9694 30.1676V25.9846C60.9789 24.9467 60.8186 23.9144 60.4952 22.9297L60.4511 22.8V22.7953H68.5608L72.5558 33.9529H68.6148V34.1969H82.0005V33.9529L77.7946 33.9514ZM21.1777 22.5498L26.6394 7.329L32.089 22.5498H21.1777ZM43.7432 16.8761V1.38968H47.2291C51.8855 1.38968 54.3439 4.1976 54.3439 9.50694C54.3439 15.1537 52.9328 16.8761 48.3076 16.8761H43.7432ZM60.3567 22.5498L60.3331 22.4896C59.9727 21.5993 59.4481 20.7869 58.7873 20.0963L58.559 19.8647L58.5346 19.8415L63.0206 7.329L68.4702 22.5498H60.3567Z" fill="#06061A"/>
</svg>
