<?xml version="1.0" encoding="UTF-8"?>
<svg xmlns="http://www.w3.org/2000/svg" version="1.1" viewBox="0 0 252 252">
  <defs>
    <style>
      .cls-1 {
        fill: #1043fa;
      }
    </style>
  </defs>
  <!-- Generator: Adobe Illustrator 28.7.4, SVG Export Plug-In . SVG Version: 1.2.0 Build 166)  -->
  <g>
    <g id="Layer_1">
      <path class="cls-1" d="M229.6,118.8c-3-1.5-3.5-3.6-3.8-6.1-.2-1.6-.3-3.1-.5-4.7-.5-4.9-1-10-2.1-14.8-3.8-15.8-11.6-30.2-23-42.9-7.4-8.2-16.4-15.2-26.9-20.9-13.9-7.6-29.9-11.5-47.4-11.8-.5,0-1,0-1.5,0-5.9,0-11.6.5-16.8,1.5-10.9,2.1-21,5.8-30.1,10.8h0c-13.6,7.6-24.9,17.7-33.4,29.9-11.7,16.8-17.8,35.1-18.2,54.5,0,1.2-.8,2.9-2.1,3.5-3.7,1.7-6.9,4-9.9,7.2-6.8,7.1-9.6,16-8.2,25.8,1.5,10.2,7.4,18.3,17.1,23.3,2.5,1.3,3.1,3,3.5,4.8.2.8.3,1.5.4,2.2,0,.4.1.9.2,1.3,2.2,12.1,7.8,23,16.7,32.4,5.8,6.2,13,11.1,21.4,14.6,5.1,2.1,11.9,4.6,19,4.7,20.9.2,42.1.2,62.6.1h.6c5,0,10.1,0,15.1,0,2,0,4.1-.2,6.1-.3h1.8c6.2-.6,12.7-2.5,19.7-5.8,9.8-4.6,18.1-11.5,24.6-20.6,6.3-8.7,10.1-18.9,11.3-30.2v-.7c0,0,.6-.4.6-.4,1.4-1,2.8-2,4.1-2.9,2.8-1.9,5.3-3.7,7.4-5.8,6.9-7,9.7-16.1,8.1-26.3-1.6-10.1-7.3-17.9-16.6-22.4ZM39,113.6c1.7-25.9,12-46.7,30.7-62,30.5-24.8,64.8-28,99.4-9.2,26.5,14.5,41.3,38.4,43.9,71.1v1.7c.1,0-174.1,0-174.1,0v-1.7ZM152.2,128.6l-7.7,6.3c-2.1,1.7-4.1,3.3-6.1,5-1.7,1.4-3.4,2.8-5.2,4.2l-.4.3c-2.4,1.9-4.7,3.8-7.1,5.7-2.2,1.8-4.4,3.7-6.7,5.5l-.3.2c-2.8,2.3-5.5,4.6-8.3,6.8-1.4,1.1-2.9,2.3-4.3,3.4-2.7,2.1-5.4,4.2-7.8,6.4-2.2,2-4.7,3-7.3,3s-2-.1-3-.4c-4.7-1.4-6.1-5.7-6.9-8.9l-.9-4.1c-1.7-7.6-3.4-15.2-5-22.7-.4-2-.8-3.9-1.2-6v-.3c-.2-.8-.4-1.7-.6-2.5l-.4-1.9h78.9ZM18.8,147.3c-.6-8.8,5.8-16.4,12.1-17.9.3,0,.7-.2,1-.3,1.2-.3,2.4-.6,3.6-.6,5.4,0,11,0,16.8,0h7.2s8.1,35.7,8.1,35.7h-2c-3.2,0-6.4,0-9.5.1h-.2c-3.1,0-6.3.1-9.5.1-5,0-9.1-.1-12.8-.4-8.1-.7-14.2-7.5-14.9-16.6ZM212.5,179.6c-.3,1.1-.6,2.2-1,3.3-.7,2.4-1.4,4.9-2.4,7.3-5.7,13.5-15.6,22.9-29.6,28-4.9,1.8-10.3,2.8-15.5,2.8-14,.1-28.2.2-42,.2s-24.9,0-37.1-.2c-6.4,0-12.9-2.1-20.1-6.2-11.7-6.8-19.7-16.8-23.8-29.8-.4-1.3-.7-2.5-.9-3.9,0-.5-.2-1-.3-1.4v-2.3c0,0,6.8,0,6.8,0,7.4,0,15.2,0,23.1,0,1.4,0,2.9,1.1,3.6,2.2,3.6,5,9.1,8.2,15.4,8.9,6.4.7,12.9-1.3,17.8-5.6,1.9-1.6,3.8-3.2,5.9-4.8.9-.7,2-.8,2.8-.8,17.6,0,35.1,0,52.7,0h42.2c.3,0,.6,0,.9.2.2,0,.4.1.6.2l1.5.4-.5,1.5ZM219.9,163.5c-1.4.4-3,.6-4.6.6-26.5,0-53.1,0-79.6,0s-.6,0-1.2,0h-1.2c0,0-1.6-1.8-1.6-1.8l2.6-2.1c3.3-2.7,6.2-5.1,9.2-7.5,4.3-3.5,8.6-7.1,12.9-10.6,1.4-1.1,2.7-2.3,4.1-3.4l.3-.3c3.5-2.9,7-5.8,10.5-8.5,1.7-1.3,3.8-1.4,4.4-1.4,13,0,26.4-.1,39.7,0,10.1.1,17.7,7.3,18,17.2.3,8.4-5.1,15.6-13.6,17.9Z"/>
    </g>
  </g>
</svg>