<?xml version="1.0" encoding="UTF-8"?>
<svg xmlns="http://www.w3.org/2000/svg" xmlns:xlink="http://www.w3.org/1999/xlink" version="1.1" viewBox="0 0 157 130">
  <defs>
    <style>
      .cls-1 {
        fill: none;
      }

      .cls-2 {
        fill: #fff;
      }

      .cls-3 {
        fill: #1677ff;
      }

      .cls-4 {
        clip-path: url(#clippath);
      }
    </style>
    <clipPath id="clippath">
      <rect class="cls-1" y="45.9" width="156.8" height="39"/>
    </clipPath>
  </defs>
  <!-- Generator: Adobe Illustrator 28.6.0, SVG Export Plug-In . SVG Version: 1.2.0 Build 709)  -->
  <g>
    <g id="Layer_1">
      <g class="cls-4">
        <g>
          <path class="cls-3" d="M32.9,45.9H6.3c-3.5,0-6.3,2.8-6.3,6.3v26.5c0,3.5,2.8,6.3,6.3,6.3h26.7c3.5,0,6.3-2.8,6.3-6.3v-26.5c0-3.5-2.8-6.3-6.3-6.3Z"/>
          <path class="cls-2" d="M10.6,75.9c-6.1,0-7.9-4.8-4.9-7.4,1-.9,2.8-1.3,3.8-1.4,3.6-.4,7,1,10.9,2.9-2.8,3.6-6.3,5.9-9.9,5.9ZM32.3,70.4c-1.6-.5-3.7-1.3-6-2.2,1.4-2.4,2.5-5.2,3.3-8.2h-7.7v-2.8h9.5v-1.5h-9.5v-4.6h-3.9c-.7,0-.7.7-.7.7v4H7.7v1.5h9.6v2.8h-7.9v1.5h15.3c-.6,1.9-1.3,3.7-2.2,5.4-5-1.6-10.3-3-13.6-2.1-2.1.5-3.5,1.5-4.3,2.4-3.7,4.5-1,11.3,6.8,11.3s9.1-2.6,12.5-6.8c5.2,2.5,15.4,6.7,15.4,6.7v-6s-1.3-.1-6.9-2Z"/>
          <path class="cls-3" d="M85.2,51.6c0,2,1.5,3.4,3.6,3.4s3.6-1.4,3.6-3.4-1.5-3.4-3.6-3.4-3.6,1.4-3.6,3.4Z"/>
          <path d="M75.2,77.4h6.2v-28.3h-6.2v28.3Z"/>
          <path d="M55.2,67.6l3.7-12.6h.2l3.5,12.6h-7.4ZM64.3,50h-8.3l-9.3,27.4h5.7l1.6-5.4h9.9l1.5,5.4h7.4l-8.4-27.4Z"/>
          <path d="M85.6,77.4h6.2v-20.8h-6.2v20.8Z"/>
          <path d="M156.8,56.6h0s-5.9,0-5.9,0l-3.7,12.7h-.2l-4.2-12.7h-7l8.4,20.9-3.5,6.4v.2h5.5l10.6-27.4Z"/>
          <path d="M103.4,73.8c-.7,0-1.4,0-2.1-.3v-11.3c1.3-.9,2.4-1.3,3.7-1.3,2.3,0,4.2,1.8,4.2,5.7s-2.7,7.2-5.7,7.2ZM107.3,56.2c-2.3,0-4.1.9-6.1,2.5v-2.1h-6.2v27.4h6.2v-6.8c1.2.3,2.3.5,3.6.5,5.5,0,10.5-4,10.5-11.2s-3.6-10.3-8.1-10.3Z"/>
          <path d="M128.4,72.4c-1.7.9-2.6,1.2-3.7,1.2s-2.4-1-2.4-2.5.1-1.2.6-1.6c.7-.7,2.2-1.3,5.5-2.1v5ZM134.7,72.2v-8.7c0-4.7-2.8-7.3-7.8-7.3s-5.4.5-9.4,1.7l1.1,4.8c3.7-1.6,5.3-2.3,7-2.3s3,1.4,3,3.6v.2c-7.1,1.3-9.3,2.1-10.7,3.4-1,1-1.5,2.4-1.5,4.1,0,4,3.1,6.1,6.1,6.1s4-.8,6.4-2.6l.4,2.2h6.2l-.7-5.2Z"/>
        </g>
      </g>
    </g>
  </g>
</svg>