<svg width="252" height="252" viewBox="0 0 252 252" fill="none" xmlns="http://www.w3.org/2000/svg">
<g clip-path="url(#clip0_2396_314)">
<mask id="mask0_2396_314" style="mask-type:luminance" maskUnits="userSpaceOnUse" x="0" y="0" width="252" height="252">
<path d="M252 0H0V252H252V0Z" fill="white"/>
</mask>
<g mask="url(#mask0_2396_314)">
<path d="M252 0H0V252H252V0Z" fill="white"/>
<path d="M125.728 214.456H60.914C49.9056 214.442 40.9854 205.522 40.9713 194.513V54.9141C40.9854 43.9057 49.9056 34.9854 60.914 34.9714H120.742V71.5364C120.759 84.3772 131.165 94.7832 144.005 94.7997H180.57V159.613C180.57 162.367 182.803 164.599 185.556 164.599C188.31 164.599 190.542 162.367 190.542 159.613V89.8137C190.542 88.4913 190.017 87.2238 189.081 86.2888L129.253 26.4607C128.318 25.5253 127.051 25 125.728 25H60.914C44.4002 25.0183 31.0182 38.4002 31 54.9141V194.513C31.0182 211.027 44.4002 224.409 60.914 224.427H125.728C128.482 224.427 130.714 222.195 130.714 219.442C130.714 216.688 128.482 214.456 125.728 214.456ZM130.714 42.0208L173.521 84.8282H144.005C136.667 84.822 130.72 78.8751 130.714 71.5364V42.0208ZM75.871 84.8282C73.1177 84.8282 70.8855 87.0604 70.8855 89.8137C70.8855 92.5671 73.1177 94.7997 75.871 94.7997H95.8141C98.5674 94.7997 100.8 92.5671 100.8 89.8137C100.8 87.0604 98.5674 84.8282 95.8141 84.8282H75.871ZM218.995 176.154C217.082 174.173 213.926 174.118 211.945 176.031L175.585 212.392L159.166 195.975C157.235 194.108 154.171 194.108 152.24 195.975C150.259 197.887 150.204 201.044 152.117 203.024L172.06 222.967C172.993 223.903 174.262 224.429 175.585 224.427C176.907 224.428 178.176 223.903 179.109 222.967L218.995 183.081C220.861 181.149 220.861 178.086 218.995 176.154ZM125.728 164.599H75.871C73.1177 164.599 70.8855 166.832 70.8855 169.585C70.8855 172.338 73.1177 174.571 75.871 174.571H125.728C128.482 174.571 130.714 172.338 130.714 169.585C130.714 166.832 128.482 164.599 125.728 164.599ZM145.671 124.714H75.871C73.1177 124.714 70.8855 126.946 70.8855 129.699C70.8855 132.453 73.1177 134.685 75.871 134.685H145.671C148.424 134.685 150.656 132.453 150.656 129.699C150.656 126.946 148.424 124.714 145.671 124.714Z" fill="#1043FA" stroke="#1043FA" stroke-width="3"/>
</g>
</g>
<defs>
<clipPath id="clip0_2396_314">
<rect width="252" height="252" fill="white"/>
</clipPath>
</defs>
</svg>
