<svg width="114" height="48" viewBox="0 0 114 48" fill="none" xmlns="http://www.w3.org/2000/svg">
<g clip-path="url(#clip0_141_28)">
<path d="M70.7067 39.8702C64.09 44.9729 54.4994 47.6955 46.242 47.6955C34.6639 47.6955 24.2406 43.215 16.355 35.763C15.7354 35.1771 16.2905 34.3785 17.034 34.8348C25.5441 40.0154 36.0665 43.132 46.9359 43.132C54.2664 43.132 62.3304 41.5452 69.7452 38.2522C70.8654 37.7544 71.8021 39.0197 70.7067 39.8702Z" fill="#FF9300"/>
<path d="M73.4574 36.5772C72.6148 35.4467 67.8666 36.043 65.7354 36.3075C65.0861 36.3905 64.9869 35.7993 65.5718 35.3741C69.3535 32.5893 75.5589 33.3931 76.2825 34.3265C77.0062 35.2652 76.0942 41.7733 72.5405 44.8795C71.9953 45.3566 71.4749 45.1025 71.7177 44.4699C72.5157 42.3852 74.305 37.7128 73.4574 36.5772Z" fill="#FF9300"/>
<path d="M65.8858 15.715V13.008C65.8858 12.5983 66.1831 12.3235 66.54 12.3235H78.1231C78.4948 12.3235 78.7922 12.6035 78.7922 13.008V15.326C78.7873 15.715 78.475 16.2232 77.9199 17.027L71.9177 25.9931C74.1481 25.9361 76.5024 26.2835 78.5246 27.4762C78.9805 27.7459 79.1045 28.14 79.1392 28.529V31.4174C79.1392 31.8115 78.7228 32.2731 78.2867 32.0345C74.723 30.0795 69.9897 29.8669 66.0493 32.0553C65.6479 32.2834 65.2266 31.8271 65.2266 31.433V28.6897C65.2266 28.2489 65.2315 27.497 65.6528 26.828L72.6066 16.3943H66.5549C66.1831 16.3943 65.8858 16.1195 65.8858 15.715Z" fill="#231F1F"/>
<path d="M23.6339 32.6049H20.1099C19.7729 32.5789 19.5053 32.3145 19.4805 31.9774V13.0546C19.4805 12.676 19.7828 12.3753 20.1595 12.3753H23.4456C23.7876 12.3908 24.0602 12.6657 24.085 13.0079V15.4815H24.1494C25.0068 13.0909 26.6177 11.976 28.7886 11.976C30.9942 11.976 32.372 13.0909 33.3633 15.4815C34.2158 13.0909 36.1538 11.976 38.2305 11.976C39.7075 11.976 41.3233 12.6138 42.3096 14.0451C43.4248 15.6371 43.1968 17.9499 43.1968 19.9776L43.1918 31.9203C43.1918 32.2989 42.8895 32.6049 42.5128 32.6049H38.9938C38.6419 32.5789 38.3594 32.2833 38.3594 31.9203V21.8911C38.3594 21.0925 38.4287 19.1012 38.2602 18.3441C37.9975 17.0735 37.2095 16.7157 36.1885 16.7157C35.336 16.7157 34.4438 17.3121 34.082 18.2663C33.7202 19.2204 33.7549 20.8177 33.7549 21.8911V31.9203C33.7549 32.2989 33.4525 32.6049 33.0758 32.6049H29.5568C29.2 32.5789 28.9224 32.2833 28.9224 31.9203L28.9174 21.8911C28.9174 19.7805 29.2495 16.6742 26.7465 16.6742C24.2138 16.6742 24.3129 19.7027 24.3129 21.8911V31.9203C24.3129 32.2989 24.0106 32.6049 23.6339 32.6049Z" fill="#231F1F"/>
<path d="M88.7623 11.976C93.9913 11.976 96.8213 16.6742 96.8213 22.6482C96.8213 28.42 93.6939 32.999 88.7623 32.999C83.6274 32.999 80.832 28.3007 80.832 22.446C80.832 16.555 83.6621 11.976 88.7623 11.976ZM88.792 15.8393C86.1949 15.8393 86.0313 19.542 86.0313 21.8496C86.0313 24.1625 85.9966 29.0993 88.7623 29.0993C91.4932 29.0993 91.6221 25.1166 91.6221 22.6897C91.6221 21.0925 91.5577 19.1841 91.0967 17.6699C90.7002 16.3527 89.9121 15.8393 88.792 15.8393Z" fill="#231F1F"/>
<path d="M103.604 32.6049H100.094C99.7425 32.5789 99.46 32.2833 99.46 31.9203L99.4551 12.9924C99.4848 12.6449 99.7772 12.3753 100.134 12.3753H103.4C103.708 12.3908 103.96 12.6086 104.03 12.9042V15.7978H104.094C105.081 13.2102 106.463 11.976 108.897 11.976C110.478 11.976 112.02 12.5723 113.011 14.2058C113.933 15.7201 113.933 18.2663 113.933 20.0968V32.0085C113.893 32.3404 113.601 32.6049 113.254 32.6049H109.72C109.398 32.5789 109.13 32.33 109.095 32.0085V21.7303C109.095 19.6612 109.323 16.6328 106.89 16.6328C106.032 16.6328 105.244 17.2343 104.853 18.147C104.357 19.3034 104.293 20.4547 104.293 21.7303V31.9203C104.288 32.2989 103.98 32.6049 103.604 32.6049Z" fill="#231F1F"/>
<path d="M56.6512 23.5661V22.7675C54.1036 22.7675 51.4123 23.3379 51.4123 26.4805C51.4123 28.0725 52.2004 29.1511 53.5535 29.1511C54.5447 29.1511 55.4319 28.5133 55.992 27.4761C56.6859 26.2004 56.6512 25.0025 56.6512 23.5661ZM60.2049 32.553C59.972 32.7708 59.635 32.7864 59.3723 32.6412C58.2026 31.6247 57.9944 31.1528 57.3501 30.1831C55.4171 32.247 54.0491 32.8641 51.5412 32.8641C48.5773 32.8641 46.2676 30.9506 46.2676 27.1183C46.2676 24.1261 47.8189 22.0881 50.0245 21.0925C51.9377 20.2109 54.6092 20.0553 56.6512 19.8116V19.3345C56.6512 18.4581 56.7156 17.421 56.225 16.6639C55.7938 15.9845 54.971 15.7045 54.2474 15.7045C52.9042 15.7045 51.7047 16.4253 51.4123 17.9188C51.3528 18.2507 51.1199 18.5774 50.8027 18.593L47.3828 18.2092C47.0953 18.1418 46.7781 17.8981 46.8574 17.4365C47.6455 13.1012 51.3875 11.7944 54.738 11.7944C56.453 11.7944 58.6932 12.2715 60.0463 13.6302C61.7613 15.3052 61.5977 17.5402 61.5977 19.9724V25.7182C61.5977 27.445 62.2817 28.2021 62.926 29.1356C63.154 29.4675 63.2036 29.8668 62.9161 30.1157C62.1974 30.7432 60.9187 31.91 60.2149 32.5634L60.2049 32.553Z" fill="#231F1F"/>
<path d="M10.4559 23.5662V22.7676C7.90832 22.7676 5.217 23.338 5.217 26.4806C5.217 28.0726 6.00506 29.1513 7.35816 29.1513C8.34944 29.1513 9.23663 28.5134 9.7967 27.4763C10.4906 26.2006 10.4559 25.0027 10.4559 23.5662ZM14.0096 32.5531C13.7767 32.7709 13.4396 32.7865 13.177 32.6413C12.0073 31.6249 11.7991 31.153 11.1548 30.1832C9.22176 32.2472 7.8538 32.8643 5.34586 32.8643C2.38194 32.8643 0.0722656 30.9507 0.0722656 27.1185C0.0722656 24.1263 1.62362 22.0883 3.82921 21.0926C5.74237 20.211 8.41387 20.0555 10.4559 19.8117V19.3346C10.4559 18.4582 10.5203 17.4211 10.0297 16.664C9.59845 15.9846 8.77569 15.7046 8.05205 15.7046C6.70887 15.7046 5.50942 16.4254 5.217 17.9189C5.15752 18.2508 4.92457 18.5775 4.60736 18.5931L1.18745 18.2093C0.899982 18.1419 0.582773 17.8982 0.662075 17.4367C1.45014 13.1014 5.19221 11.7946 8.54274 11.7946C10.2576 11.7946 12.4979 12.2716 13.851 13.6303C15.5659 15.3053 15.4024 17.5404 15.4024 19.9725V25.7183C15.4024 27.4452 16.0864 28.2023 16.7307 29.1357C16.9587 29.4676 17.0083 29.8669 16.7208 30.1158C16.0021 30.7433 14.7234 31.9101 14.0195 32.5635L14.0096 32.5531Z" fill="#231F1F"/>
</g>
<defs>
<clipPath id="clip0_141_28">
<rect width="113.999" height="47" fill="white" transform="translate(0 0.695435)"/>
</clipPath>
</defs>
</svg>
