<svg width="106" height="40" viewBox="0 0 106 40" fill="none" xmlns="http://www.w3.org/2000/svg">
<path d="M12.0415 14.6904H15.2172V9.38703L15.2807 9.35528L42.6233 4.36946V35.8087L12.0415 30.7594V33.8398L45.7672 39.429V0.685669L12.0415 6.81473V14.6904Z" fill="#0097FF"/>
<path d="M53.0079 20.0574H49.9275V19.9938C49.991 19.4222 50.4038 18.3107 51.5788 18.3107C52.7538 18.3107 53.0396 19.3905 53.0396 19.9938V20.0574H53.0079ZM51.7058 16.3101C48.2761 16.3101 47.0376 19.1999 47.0376 21.1053C47.0376 23.9952 48.8795 25.7418 52.0234 25.7418C53.2937 25.7418 54.4052 25.5513 55.3579 25.1702L54.9768 23.0743C54.2146 23.2966 53.4525 23.3918 52.5315 23.3918C51.2295 23.3918 50.2133 22.8837 50.118 22.1851V22.1216H55.8025C55.8342 21.8993 55.8977 21.4547 55.8977 20.9466C55.866 18.0567 54.3099 16.3101 51.7058 16.3101Z" fill="black"/>
<path d="M62.5666 16.3101C60.9787 16.3101 60.1213 17.3263 59.899 17.6756L59.8673 17.7074H59.6767L59.5497 16.5324H56.8186C56.8504 17.6438 56.8821 18.5965 56.8821 19.5493V25.5195H60.0896V20.4067C60.0896 20.0891 60.1213 19.8668 60.1848 19.708C60.4389 19.1364 60.82 18.8506 61.3598 18.8506C61.9314 18.8506 62.5983 19.1682 62.5983 20.5972V25.5195H65.8058V20.2161C65.7423 17.7074 64.6308 16.3101 62.5666 16.3101Z" fill="black"/>
<path d="M72.9828 21.4547C72.9828 21.677 72.9828 21.9628 72.9193 22.1533C72.7923 22.7249 72.2842 23.106 71.6808 23.106C70.7599 23.106 70.1247 22.2486 70.1247 20.9783C70.1247 19.3905 70.9187 18.6601 71.6808 18.6601C72.316 18.6601 72.7923 19.0411 72.9193 19.7716C72.9193 19.8986 72.9511 20.0891 72.9511 20.1844V21.4229L72.9828 21.4547ZM73.3639 17.4851H73.2369L73.2051 17.4533C72.697 16.6911 71.9349 16.3101 70.8869 16.3101C68.5369 16.3101 66.822 18.3107 66.822 21.0418C66.822 23.6141 68.3781 25.4243 70.6011 25.4243C71.5538 25.4243 72.3159 25.0749 72.8558 24.4398L72.8876 24.408H73.0146V24.9162C73.0146 26.2817 72.1889 27.0439 70.8234 27.0439C69.8389 27.0439 68.8227 26.7263 68.2193 26.4405L67.6159 28.8222C68.4416 29.2033 69.6801 29.4574 70.9187 29.4574C72.6335 29.4574 73.8403 29.1081 74.7295 28.3459C75.6504 27.5202 76.1268 26.2182 76.1268 24.3128V19.327C76.1268 18.0567 76.1585 17.1993 76.1903 16.5959H73.4592L73.3639 17.4851Z" fill="black"/>
<path d="M77.7146 12.912H80.922V25.5512H77.7146V12.912Z" fill="black"/>
<path d="M91.4019 19.9621C90.2904 19.6128 89.9728 19.3905 89.9728 19.0729C89.9728 18.4695 90.735 18.4695 90.9573 18.4695C91.7195 18.4695 92.5134 18.7553 92.958 18.9459L93.4661 16.8182C92.9262 16.5641 91.9735 16.3101 90.8303 16.3101C88.512 16.3101 86.9559 17.5486 86.9559 19.3587C86.9242 20.5655 87.8769 21.5182 89.5918 22.058C90.5445 22.3756 90.8303 22.5344 90.8303 22.9155C90.8303 23.4236 90.2586 23.4871 89.7505 23.4871C88.9249 23.4871 87.8451 23.1695 87.2735 22.852L86.7336 25.0432C87.5276 25.4243 88.6391 25.6466 89.7505 25.6466C92.3228 25.6466 93.8789 24.5351 93.8789 22.6614C93.8472 21.3594 93.085 20.5337 91.4019 19.9621Z" fill="black"/>
<path d="M100.675 16.3101C100.198 16.3101 99.7221 16.4053 99.3092 16.6276C98.9282 16.8182 98.6106 17.104 98.2295 17.4851L98.1977 17.5168H98.0707V12.9438H94.8633V25.5831H98.0707V20.2797C98.0707 20.2162 98.0707 19.8986 98.166 19.708C98.3883 19.1999 98.7694 18.9459 99.3092 18.9459C100.167 18.9459 100.548 19.5493 100.548 20.756V25.5831H103.755V20.3749C103.819 17.7391 102.707 16.3101 100.675 16.3101Z" fill="black"/>
<path d="M82.4465 16.437H85.654V25.4242H82.4465V16.437Z" fill="black"/>
<path d="M82.5417 12.8168H85.5904V15.4843H82.5417V12.8168Z" fill="black"/>
<path d="M6.26188 23.5189C5.27742 23.5189 4.7058 22.5979 4.7058 21.0418C4.7058 19.4857 5.27742 18.5648 6.23013 18.5648C7.34162 18.5648 7.7227 19.8351 7.7227 21.0418C7.7227 22.5979 7.18283 23.5189 6.26188 23.5189ZM6.35716 16.3101C3.34026 16.3101 1.37134 18.1837 1.37134 21.0736C1.37134 23.8364 3.27674 25.7418 6.13486 25.7418C9.72338 25.7418 10.9936 23.1378 10.9936 20.9466C11.0572 18.1837 9.18351 16.3101 6.35716 16.3101Z" fill="black"/>
<path d="M28.5235 20.0574H25.4431V19.9938C25.5066 19.4222 25.9195 18.3107 27.0945 18.3107C28.2695 18.3107 28.587 19.3905 28.587 19.9938V20.0574H28.5235ZM27.1897 16.3101C23.76 16.3101 22.5215 19.1999 22.5215 21.1053C22.5215 23.9952 24.3634 25.7418 27.5073 25.7418C28.7776 25.7418 29.8891 25.5513 30.8418 25.1702L30.4607 23.0743C29.6985 23.2966 28.9364 23.3918 28.0154 23.3918C26.9039 23.3918 25.7289 23.0425 25.6019 22.1851V22.1216H31.2864C31.3181 21.8993 31.3816 21.4547 31.3816 20.9148C31.3181 18.0249 29.7938 16.3101 27.1897 16.3101Z" fill="black"/>
<path d="M38.0187 16.3101C36.4309 16.3101 35.5734 17.3263 35.3511 17.6756L35.3194 17.7074H35.1923L35.0653 16.5324H32.3342C32.366 17.3263 32.3977 18.3425 32.3977 19.5493V25.5195H35.6052V20.4067C35.6052 20.0891 35.6369 19.8668 35.7005 19.708C35.9545 19.1364 36.3356 18.8506 36.8755 18.8506C37.4471 18.8506 38.114 19.1682 38.114 20.5972V25.5195H41.3214V20.1844C41.2579 17.7074 40.1146 16.3101 38.0187 16.3101Z" fill="black"/>
<path d="M16.678 23.3283C16.0111 23.3283 15.4713 22.852 15.2807 22.1851C15.249 21.9945 15.2172 21.8357 15.2172 21.6134V20.4702C15.2172 20.3432 15.2172 20.1526 15.249 19.9938C15.3442 19.2952 16.0111 18.7553 16.678 18.7553C17.6942 18.7553 18.3294 19.6128 18.3294 21.0418C18.3294 22.4391 17.6625 23.3283 16.678 23.3283ZM17.9165 16.3101C16.8368 16.3101 16.0746 16.6594 15.3442 17.4851L15.2172 17.6121V16.5006H12.0098V29.2668H15.2172V24.8209H15.3442L15.376 24.8526C15.6618 25.2337 16.3604 25.7101 17.4719 25.7101C19.4409 25.7101 21.5686 24.2175 21.5686 20.9148C21.6321 18.6601 20.2983 16.3101 17.9165 16.3101Z" fill="black"/>
</svg>
