<svg width="79" height="79" viewBox="0 0 79 79" fill="none" xmlns="http://www.w3.org/2000/svg">
<g clip-path="url(#clip0_113_31)">
<path d="M66.9735 51.9509H53.6285C52.7073 51.9509 51.9604 52.6978 51.9604 53.619C51.9604 54.5403 52.7073 55.2872 53.6285 55.2872H63.5573C58.0194 63.5433 48.7408 68.6226 38.6737 68.6322C22.0745 68.6482 8.60527 55.2051 8.58918 38.6059C8.58776 37.0205 8.71421 35.4373 8.96732 33.8722C9.11658 32.9634 8.50101 32.1057 7.59242 31.9564C6.68363 31.807 5.82594 32.4225 5.67668 33.3313C5.39384 35.0752 5.25212 36.8392 5.25293 38.6059C5.27452 57.0225 20.1989 71.9468 38.6154 71.9684C49.211 71.9729 59.0512 66.9422 65.3054 58.6281V66.9659C65.306 67.8867 66.0527 68.6328 66.9735 68.6322H66.9756C67.8962 68.6315 68.6423 67.8848 68.6417 66.964V53.617C68.641 52.6964 67.8943 51.9503 66.9735 51.9509ZM54.4202 9.23517C39.6837 1.29916 21.6699 5.60121 11.9254 18.5982V10.2478C11.9254 9.3266 11.1785 8.57969 10.2573 8.57969C9.33609 8.57969 8.58918 9.3266 8.58918 10.2478V23.5948C8.58979 24.5154 9.3365 25.2615 10.2573 25.2609H23.6023C24.5235 25.2609 25.2704 24.514 25.2704 23.5928C25.2704 22.6716 24.5235 21.9247 23.6023 21.9247H13.6736C19.2115 13.6686 28.49 8.58926 38.5572 8.57969C55.1564 8.5636 68.6256 22.0067 68.6417 38.6059C68.6431 40.1916 68.5168 41.7746 68.2639 43.3399C68.2633 43.3425 68.2629 43.345 68.2625 43.3476C68.1157 44.2546 68.7319 45.1088 69.6388 45.2556C69.729 45.2713 69.8207 45.2788 69.9123 45.2784C70.728 45.2772 71.4228 44.6857 71.5542 43.8805C71.837 42.1366 71.9787 40.3726 71.9779 38.6059C71.9681 26.3328 65.226 15.0545 54.4202 9.23517ZM48.6242 38.6059C48.6242 33.0782 44.1431 28.5972 38.6154 28.5972C33.0877 28.5972 28.6067 33.0782 28.6067 38.6059C28.6067 44.1336 33.0877 48.6147 38.6154 48.6147C44.1407 48.6086 48.6181 44.1312 48.6242 38.6059ZM31.9429 38.6059C31.9429 34.9209 34.9304 31.9334 38.6154 31.9334C42.2986 31.9381 45.2832 34.9227 45.2879 38.6059C45.2879 42.291 42.3005 45.2784 38.6154 45.2784C34.9304 45.2784 31.9429 42.291 31.9429 38.6059Z" fill="black"/>
<circle cx="39.4012" cy="40.961" r="15.7" fill="white"/>
<path d="M37.9368 52.0253L37.9368 52.0255L40.6138 52.0251V49.4388H41.7284C44.9064 49.4388 47.4825 46.8626 47.4825 43.6847C47.4825 40.5067 44.9064 37.9306 41.7284 37.9306H36.8222C35.1227 37.9306 33.745 36.5529 33.745 34.8534C33.745 33.154 35.1227 31.7763 36.8222 31.7763H39.2753H46.144C46.8832 31.7763 47.4825 31.177 47.4825 30.4378C47.4825 29.6986 46.8832 29.0993 46.144 29.0993H40.6138V26.5128C40.6138 25.7736 40.0145 25.1743 39.2753 25.1743C38.5361 25.1743 37.9368 25.7736 37.9368 26.5128V29.0993H36.8222C33.6442 29.0993 31.068 31.6755 31.068 34.8534C31.068 38.0314 33.6442 40.6076 36.8222 40.6076H41.7284C43.4278 40.6076 44.8055 41.9852 44.8055 43.6847C44.8055 45.3841 43.4278 46.7618 41.7284 46.7618H32.4065C31.6673 46.7618 31.068 47.3611 31.068 48.1003C31.068 48.8395 31.6673 49.4388 32.4065 49.4388H37.9368V52.0253Z" fill="#2D59F5" stroke="#2D59F5" stroke-width="0.714501"/>
</g>
<defs>
<clipPath id="clip0_113_31">
<rect width="78.5951" height="78.5951" fill="white"/>
</clipPath>
</defs>
</svg>
