<?xml version="1.0" encoding="UTF-8"?>
<svg xmlns="http://www.w3.org/2000/svg" version="1.1" viewBox="0 0 60 60">
  <defs>
    <style>
      .cls-1 {
        fill: #2d59f5;
      }
    </style>
  </defs>
  <!-- Generator: Adobe Illustrator 28.6.0, SVG Export Plug-In . SVG Version: 1.2.0 Build 709)  -->
  <g>
    <g id="Layer_1">
      <g>
        <path d="M18,7.5c3.7.4,6.8,2.1,9.2,4.8.3.4.6.8.9,1.2.2.3.3.3.7.2,2.1-.9,4.1-1.8,6.2-2.7,2.6-1.1,5.3-2.3,7.9-3.4,1.1-.5,1.9,0,1.9,1.3,0,3.7,0,7.4,0,11.2v.5c.2,0,.4,0,.5,0,2.3,0,4.5,0,6.8,0,2.6,0,4.3,1.8,4.3,4.3,0,7.8,0,15.6,0,23.4,0,2.6-1.7,4.4-4.4,4.4-12.8,0-25.6,0-38.4,0-1.1,0-1.5-.4-1.5-1.5,0-5,0-10.1,0-15.1,0-.4-.1-.6-.5-.7C1.6,31.7-1.2,18.8,6.5,11.4c2.3-2.2,5.1-3.5,8.3-3.9M54,32.1c0-.2,0-.4,0-.6,0-2.2,0-4.4,0-6.7,0-1.3-.7-2-2-2-6.9,0-13.7,0-20.6,0-.1,0-.3,0-.4,0-.2,0-.3,0-.3.3,0,.3,0,.7-.1,1-1.3,7.3-7.9,12.3-15.3,11.7-.2,0-.4,0-.6,0,0,.2,0,.4,0,.5,0,4.4,0,8.7,0,13.1q0,.6.6.6c12.2,0,24.4,0,36.5,0,.2,0,.4,0,.5,0,1.1,0,1.8-.7,1.8-1.8,0-1.2,0-2.5,0-3.7,0-.1,0-.3,0-.4-.2,0-.4,0-.6,0-3.4,0-6.8,0-10.2,0-2.1,0-3.7-1-4.7-2.9-.8-1.5-.7-3.2-.5-4.8.4-2.6,2.6-4.3,5.2-4.3,3.4,0,6.8,0,10.1,0h.6ZM16.4,9.8c-6.6,0-11.9,5.3-11.9,11.9,0,6.6,5.3,11.9,11.9,11.9,6.5,0,11.9-5.3,11.9-11.9,0-6.5-5.3-11.9-11.9-11.9ZM29.6,16c0,.2.1.3.2.4.5,1.2.8,2.4.9,3.7,0,.3.1.4.5.4,3.6,0,7.2,0,10.8,0h.4v-10c-4.3,1.9-8.5,3.7-12.7,5.5ZM54,34.6c-.1,0-.2,0-.2,0-3.5,0-7.1,0-10.6,0-1.5,0-2.7,1.2-2.7,2.8,0,.5,0,1,0,1.4,0,1.8,1.2,2.9,2.9,2.9,3.4,0,6.8,0,10.2,0,.1,0,.3,0,.5,0v-7.1Z"/>
        <path class="cls-1" d="M17.7,20.5c1.2,0,2.4,0,3.5,0,.5,0,.9.2,1.2.7.3.7,0,1.6-.9,1.7-.1,0-.2,0-.4,0-1.5,0-3,0-4.5,0-.9,0-1.4-.5-1.4-1.3,0-2.9,0-5.7,0-8.6,0-.7.4-1.2,1-1.2.6,0,1.2.2,1.3.8,0,.2,0,.4,0,.6,0,2.2,0,4.5,0,6.7,0,.2,0,.4,0,.6Z"/>
      </g>
    </g>
  </g>
</svg>