<svg width="186" height="32" viewBox="0 0 186 32" fill="none" xmlns="http://www.w3.org/2000/svg">
<g clip-path="url(#clip0_141_161)">
<mask id="mask0_141_161" style="mask-type:luminance" maskUnits="userSpaceOnUse" x="0" y="-1" width="186" height="33">
<path d="M0.430664 -0.227369H185.609V31.1942H0.430664V-0.227369Z" fill="white"/>
</mask>
<g mask="url(#mask0_141_161)">
<mask id="mask1_141_161" style="mask-type:luminance" maskUnits="userSpaceOnUse" x="0" y="-1" width="186" height="33">
<path d="M0.430664 31.1941H185.609V-0.227491H0.430664V31.1941Z" fill="white"/>
</mask>
<g mask="url(#mask1_141_161)">
<path d="M73.0479 3.21163C73.0479 2.46533 73.3443 1.74959 73.872 1.22188C74.3997 0.694165 75.1156 0.397698 75.8619 0.397698C76.6082 0.397698 77.3238 0.694165 77.8516 1.22188C78.3793 1.74959 78.6757 2.46533 78.6757 3.21163C78.6486 3.93976 78.3402 4.629 77.8154 5.13453C77.2907 5.64005 76.5905 5.92249 75.8619 5.92249C75.1332 5.92249 74.4329 5.64005 73.9082 5.13453C73.3834 4.629 73.075 3.93976 73.0479 3.21163Z" fill="#273B7D"/>
<path d="M117.446 21.9784C117.446 20.4166 118.704 19.1547 120.254 19.1547C121.002 19.1547 121.72 19.452 122.249 19.9812C122.778 20.5103 123.076 21.2281 123.076 21.9764C123.076 22.7248 122.778 23.4426 122.249 23.9717C121.72 24.5009 121.002 24.7982 120.254 24.7982C118.706 24.7982 117.446 23.5343 117.446 21.9764" fill="#499FDD"/>
<path d="M26.867 20.7576C24.445 20.7576 22.7597 18.8333 22.7597 16.0821C22.7597 13.3328 24.4449 11.4105 26.8689 11.4105C29.3046 11.4105 31.0075 13.3328 31.0075 16.0821C31.0075 18.8765 29.3419 20.7576 26.867 20.7576ZM26.867 7.30132C21.7408 7.30132 18.0195 10.9951 18.0195 16.0821C18.0195 21.1711 21.7427 24.8629 26.867 24.8629C32.0148 24.8629 35.7496 21.1711 35.7496 16.0841C35.7496 10.9951 32.0128 7.30132 26.867 7.30132ZM67.5984 16.523C67.42 16.178 67.1945 15.8594 66.9282 15.5765L66.7714 15.4139L66.9361 15.2571C67.1713 15.0083 67.4122 14.7143 67.6434 14.3734L72.17 7.64816H66.6755L63.2756 12.9096C63.0835 13.1918 62.6956 13.3328 62.1136 13.3328H61.3396V3.38611C61.3396 1.39715 60.0992 1.12673 58.7608 1.12673H56.4681L56.4739 24.6043H61.3415V17.5616H61.7981C62.3527 17.5616 62.7289 17.6262 62.9033 17.928L65.5878 22.9955C66.3384 24.3711 67.0849 24.6043 68.4919 24.6043H72.221L69.4424 20.011L67.6004 16.523M91.2268 7.26212C88.75 7.26212 87.1705 8.3634 86.2848 9.29419L85.9909 9.59204L85.8851 9.18642C85.6264 8.189 84.7485 7.64228 83.4297 7.64228H81.2487L81.2624 24.5984H86.0966V16.7836C86.0966 16.0194 86.1946 15.3571 86.3984 14.7516C86.9353 12.9194 88.4364 11.7809 90.3117 11.7809C91.8205 11.7809 92.4104 12.5784 92.4104 14.636V22.0215C92.4104 23.7773 93.2236 24.5984 94.9813 24.5984H97.2818L97.2741 13.8129C97.2741 9.52934 95.1832 7.26212 91.2268 7.26212ZM75.9206 7.64816H73.6299L73.6456 20.7596V24.6043H76.0892L76.1754 24.6082L77.3159 24.6043H78.4485V24.5984H78.4563L78.4661 10.225C78.4661 8.49077 77.6373 7.65012 75.9227 7.65012M45.8531 20.7576C43.4311 20.7576 41.7439 18.8333 41.7439 16.0821C41.7439 13.3328 43.4312 11.4105 45.8552 11.4105C48.285 11.4105 49.9937 13.3328 49.9937 16.0821C49.9937 18.8765 48.3281 20.7576 45.8552 20.7576H45.8531ZM45.8531 7.30132C40.723 7.30132 36.9998 10.9951 36.9998 16.0821C36.9998 21.1711 40.7231 24.8629 45.8552 24.8629C50.9951 24.8629 54.7378 21.1711 54.7378 16.0841C54.7378 10.9951 50.9951 7.30132 45.8552 7.30132" fill="#273B7D"/>
</g>
</g>
<mask id="mask2_141_161" style="mask-type:luminance" maskUnits="userSpaceOnUse" x="0" y="-1" width="186" height="33">
<path d="M0.430664 -0.227369H185.609V31.1942H0.430664V-0.227369Z" fill="white"/>
</mask>
<g mask="url(#mask2_141_161)">
<mask id="mask3_141_161" style="mask-type:luminance" maskUnits="userSpaceOnUse" x="0" y="0" width="186" height="32">
<path d="M0.430664 0.391501H185.57V31.1527H0.430664V0.391501Z" fill="white"/>
</mask>
<g mask="url(#mask3_141_161)">
<mask id="mask4_141_161" style="mask-type:luminance" maskUnits="userSpaceOnUse" x="0" y="-1" width="186" height="33">
<path d="M0.430664 31.1942H185.609V-0.227369H0.430664V31.1942Z" fill="white"/>
</mask>
<g mask="url(#mask4_141_161)">
<path d="M149.465 20.7576C147.043 20.7576 145.354 18.8333 145.354 16.0821C145.354 13.3328 147.043 11.4105 149.465 11.4105C151.899 11.4105 153.606 13.3328 153.606 16.0821C153.606 18.8765 151.94 20.7576 149.465 20.7576ZM149.465 7.30132C144.335 7.30132 140.614 10.9951 140.614 16.0821C140.614 21.1711 144.335 24.8629 149.465 24.8629C154.607 24.8629 158.348 21.1711 158.348 16.0841C158.348 10.9951 154.605 7.30132 149.465 7.30132Z" fill="#499FDD"/>
<path d="M107.466 20.011C104.822 20.011 103.882 17.7066 103.882 15.5452C103.882 14.5928 104.123 11.4908 107.213 11.4908C108.747 11.4908 110.791 11.9298 110.791 15.7039C110.791 19.2644 108.983 20.011 107.466 20.011ZM113.301 7.60305C112.384 7.60305 111.679 7.96948 111.324 8.6377L111.191 8.89636L110.968 8.7004C110.188 8.02631 108.789 7.22485 106.517 7.22485C101.997 7.22485 98.9536 10.6208 98.9536 15.6706C98.9536 20.7184 102.103 24.2456 106.608 24.2456C108.146 24.2456 109.363 23.8851 110.327 23.1561L110.699 22.8759V23.3462C110.699 25.6114 109.235 26.8616 106.58 26.8616C105.289 26.8616 104.115 26.5481 103.327 26.262C102.304 25.9524 101.701 26.2091 101.287 27.2379L100.903 28.1863L100.36 29.5737L100.696 29.752C102.397 30.6534 104.609 31.1923 106.608 31.1923C110.723 31.1923 115.531 29.0857 115.531 23.1561L115.549 7.60305H113.301Z" fill="#273B7D"/>
</g>
</g>
</g>
<mask id="mask5_141_161" style="mask-type:luminance" maskUnits="userSpaceOnUse" x="0" y="-1" width="186" height="33">
<path d="M0.430664 -0.227369H185.609V31.1942H0.430664V-0.227369Z" fill="white"/>
</mask>
<g mask="url(#mask5_141_161)">
<mask id="mask6_141_161" style="mask-type:luminance" maskUnits="userSpaceOnUse" x="0" y="-1" width="186" height="33">
<path d="M0.430664 31.1941H185.609V-0.227492H0.430664V31.1941Z" fill="white"/>
</mask>
<g mask="url(#mask6_141_161)">
<path d="M8.86657 20.5635L4.93177 20.5596V15.8567C4.93177 14.8495 5.32173 14.3282 6.18198 14.2067H8.86657C10.7811 14.2067 12.0195 15.4138 12.0214 17.3675C12.0195 19.3741 10.8124 20.5616 8.86657 20.5616V20.5635ZM4.93177 7.87342V6.63497C4.93177 5.55134 5.39033 5.03597 6.39558 4.96934H8.41004C10.1364 4.96934 11.1711 6.00203 11.1711 7.73233C11.1711 9.04915 10.4617 10.5874 8.47272 10.5874H4.93177V7.87342ZM13.8909 12.5685L13.1795 12.1688L13.8008 11.6377C14.5238 11.0166 15.7329 9.61939 15.7329 7.20912C15.7329 3.51731 12.872 1.13448 8.44138 1.13448H2.80955C2.17585 1.15758 1.57537 1.42362 1.13249 1.87744C0.689606 2.33127 0.438295 2.9381 0.430664 3.57217V24.5199H8.54125C13.4656 24.5199 16.6441 21.8392 16.6441 17.6869C16.6441 15.451 15.6173 13.5405 13.8909 12.5685Z" fill="#273B7D"/>
<path d="M179.941 7.31894C178.943 7.32261 177.958 7.55044 177.06 7.9856C176.162 8.42076 175.373 9.05212 174.752 9.83306L174.403 10.2759L174.129 9.78015C173.231 8.14783 171.691 7.31894 169.549 7.31894C167.301 7.31894 165.795 8.57306 165.095 9.31769L164.636 9.81346L164.46 9.16093C164.205 8.22034 163.369 7.70497 162.103 7.70497H160.071L160.051 24.5964H164.666V17.1403C164.666 16.4858 164.748 15.8411 164.911 15.165C165.352 13.3622 166.563 11.4242 168.599 11.6182C169.853 11.7397 170.468 12.7097 170.468 14.583V24.5964H175.116V17.1403C175.116 16.3231 175.193 15.7117 175.377 15.1004C175.749 13.3799 177.015 11.6163 178.978 11.6163C180.401 11.6163 180.926 12.4197 180.926 14.583V22.1274C180.926 23.8322 181.687 24.5964 183.393 24.5964H185.565L185.568 13.8129C185.568 9.50385 183.672 7.31894 179.941 7.31894ZM137.939 18.7314C137.926 18.7491 135.941 20.8419 133.325 20.8419C130.942 20.8419 128.535 19.38 128.535 16.1174C128.535 13.2995 130.401 11.3302 133.074 11.3302C133.94 11.3302 134.928 11.6398 135.082 12.163L135.104 12.2512C135.203 12.6114 135.417 12.9289 135.715 13.1546C136.013 13.3803 136.376 13.5015 136.75 13.4994L139.278 13.5033V11.2929C139.278 8.3771 135.568 7.31894 133.074 7.31894C127.736 7.31894 123.864 11.0343 123.864 16.1526C123.864 21.2671 127.693 24.9785 132.976 24.9785C137.557 24.9785 140.05 21.9667 140.073 21.9373L140.207 21.7727L138.204 18.4512L137.939 18.7314Z" fill="#499FDD"/>
</g>
</g>
</g>
<defs>
<clipPath id="clip0_141_161">
<rect width="186" height="31.5456" fill="white"/>
</clipPath>
</defs>
</svg>
