<svg width="79" height="58" viewBox="0 0 79 58" fill="none" xmlns="http://www.w3.org/2000/svg">
<g clip-path="url(#clip0_113_41)">
<path d="M73.7371 53.3998H4.85449C3.03023 53.3998 1.55225 51.9218 1.55225 50.0975V7.71734C1.55225 5.89309 3.03023 4.4151 4.85449 4.4151H73.7455C75.5698 4.4151 77.0478 5.89309 77.0478 7.71734V50.106C77.0478 51.9302 75.5698 53.4082 73.7455 53.4082L73.7371 53.3998Z" stroke="black" stroke-width="3.42302"/>
<path d="M60.686 5.5719C60.686 13.0716 66.7669 19.1609 74.2751 19.1609H75.8713" stroke="black" stroke-width="2.35332"/>
<path d="M75.8737 37.806C68.374 37.806 62.2847 43.8869 62.2847 51.3951V52.9913" stroke="black" stroke-width="2.35332"/>
<path d="M17.5852 52.7242C17.5852 45.2244 11.5043 39.1351 3.99613 39.1351H2.3999" stroke="black" stroke-width="2.35332"/>
<path d="M2.12549 20.7572C9.62521 20.7572 15.7145 14.6763 15.7145 7.16812V5.5719" stroke="black" stroke-width="2.35332"/>
<path d="M39.7023 42.5559C47.24 42.5559 53.3505 36.4454 53.3505 28.9077C53.3505 21.3701 47.24 15.2596 39.7023 15.2596C32.1647 15.2596 26.0542 21.3701 26.0542 28.9077C26.0542 36.4454 32.1647 42.5559 39.7023 42.5559Z" stroke="black" stroke-width="2.63504"/>
<path d="M40.4319 28.5777H38.1094C37.3746 28.5777 36.7834 27.9865 36.7834 27.2518C36.7834 26.517 37.3746 25.9258 38.1094 25.9258H42.518C42.9403 25.9258 43.2781 25.588 43.2781 25.1657C43.2781 24.7434 42.9403 24.4056 42.518 24.4056H40.0265V23.3077C40.0265 22.8854 39.6887 22.5475 39.2664 22.5475C38.8441 22.5475 38.5063 22.8854 38.5063 23.3077V24.4056H38.1094C36.5385 24.4056 35.2632 25.6809 35.2632 27.2518C35.2632 28.8227 36.5385 30.0979 38.1094 30.0979H40.4319C41.1667 30.0979 41.7579 30.6891 41.7579 31.4239C41.7579 32.1587 41.1667 32.7499 40.4319 32.7499H36.0233C35.601 32.7499 35.2632 33.0877 35.2632 33.51C35.2632 33.9323 35.601 34.2701 36.0233 34.2701H38.3374V34.7684C38.3374 35.2329 38.7174 35.6129 39.182 35.6129C39.6465 35.6129 40.0265 35.2329 40.0265 34.7684V34.2701H40.4319C42.0028 34.2701 43.2781 32.9948 43.2781 31.4239C43.2781 29.853 42.0028 28.5777 40.4319 28.5777Z" fill="#2D59F5" stroke="#2D59F5" stroke-width="0.591194"/>
</g>
<defs>
<clipPath id="clip0_113_41">
<rect width="79" height="58" fill="white"/>
</clipPath>
</defs>
</svg>
