<svg width="189" height="40" viewBox="0 0 189 40" fill="none" xmlns="http://www.w3.org/2000/svg">
<g clip-path="url(#clip0_141_150)">
<path d="M37.5552 2.38784C33.0305 -0.439172 27.0739 0.234366 21.7612 3.57253C16.4652 0.234366 10.5049 -0.439172 5.98571 2.38784C-1.16302 6.85533 -2.03216 18.3608 4.04629 28.0875C8.5267 35.2583 15.5333 39.4601 21.7705 39.3826C28.0076 39.4601 35.0143 35.2583 39.4947 28.0875C45.5657 18.3608 44.704 6.85533 37.5552 2.38784ZM7.33278 26.0336C6.07943 24.0467 5.13378 21.8817 4.52791 19.612C3.98963 17.6417 3.78382 15.5955 3.91896 13.5575C4.19022 9.96283 5.65355 7.1635 8.03769 5.67434C10.4218 4.18517 13.5736 4.09475 16.9302 5.42706C17.434 5.6282 17.9322 5.86071 18.4268 6.11721C16.5615 7.81798 14.9396 9.76776 13.6068 11.9115C9.91621 17.8165 8.79058 24.3876 10.0786 29.6264C9.05157 28.5185 8.13216 27.3155 7.33278 26.0336ZM39.0149 19.6101C38.4082 21.8795 37.4626 24.0445 36.21 26.0318C35.4099 27.3155 34.4906 28.5209 33.4642 29.632C34.6157 24.9357 33.8333 19.182 31.0099 13.7863C30.9648 13.6974 30.9016 13.619 30.8243 13.5561C30.747 13.4932 30.6574 13.4473 30.5612 13.4212C30.465 13.3951 30.3645 13.3895 30.266 13.4047C30.1675 13.4199 30.0733 13.4556 29.9895 13.5095L21.1874 19.0085C21.1071 19.0586 21.0375 19.1241 20.9825 19.2011C20.9275 19.2781 20.8883 19.3653 20.867 19.4575C20.8458 19.5497 20.8429 19.6452 20.8586 19.7385C20.8743 19.8318 20.9083 19.9211 20.9585 20.0013L22.2503 22.0662C22.3002 22.1464 22.3654 22.216 22.4423 22.271C22.5192 22.3259 22.6061 22.3651 22.6982 22.3864C22.7903 22.4076 22.8856 22.4105 22.9788 22.3948C23.072 22.3792 23.1611 22.3452 23.2412 22.295L28.9469 18.7299C29.1314 19.2835 29.3159 19.8371 29.4543 20.3907C29.9925 22.3584 30.199 24.4021 30.0651 26.4377C29.7939 30.0306 28.3305 32.8299 25.9464 34.3209C24.7167 35.0728 23.3076 35.4806 21.8664 35.5019H21.6837C20.2425 35.4811 18.8333 35.0732 17.6038 34.3209C15.2178 32.8299 13.7545 30.0306 13.4832 26.4377C13.3489 24.3998 13.5547 22.3537 14.0921 20.3833C15.3288 15.8247 17.8853 11.7333 21.4402 8.62314C22.9732 7.27752 24.7193 6.19619 26.607 5.42337C29.9544 4.09106 33.1117 4.17964 35.4977 5.67065C37.8837 7.16165 39.3452 9.95914 39.6165 13.5538C39.7533 15.592 39.55 17.6387 39.0149 19.6101ZM84.4501 15.3161C79.822 15.3161 76.0816 18.9292 76.0816 23.5259C76.0816 28.0911 79.822 31.6452 84.4501 31.6452C89.1095 31.6452 92.8499 28.0967 92.8499 23.5259C92.8499 18.931 89.115 15.3179 84.4501 15.3179V15.3161ZM84.4501 27.353C82.3169 27.353 80.693 25.6277 80.693 23.4945C80.693 21.3613 82.3169 19.6101 84.4501 19.6101C86.6146 19.6101 88.2385 21.3668 88.2385 23.5C88.2385 25.6332 86.6146 27.3604 84.4501 27.3604V27.353ZM103.285 9.01065H94.769C94.677 9.00889 94.5856 9.02574 94.5003 9.0602C94.415 9.09465 94.3375 9.14599 94.2725 9.21115C94.2075 9.2763 94.1564 9.35391 94.1222 9.43932C94.088 9.52474 94.0713 9.61619 94.0733 9.70818V30.4697C94.0667 30.5648 94.0798 30.6602 94.1119 30.7499C94.144 30.8397 94.1942 30.9218 94.2596 30.9911C94.3249 31.0605 94.4039 31.1155 94.4916 31.1528C94.5793 31.1901 94.6738 31.2089 94.769 31.2079H103.285C110.1 31.2079 114.835 26.6758 114.835 20.0825C114.835 13.4486 110.1 9.01065 103.285 9.01065ZM103.486 26.8234H98.8269V13.384H103.486C107.258 13.384 109.858 16.2055 109.858 20.0733C109.858 23.8765 107.258 26.8234 103.486 26.8234ZM131.786 15.7626H128.584C128.407 15.7767 128.241 15.8556 128.119 15.9843C127.996 16.113 127.925 16.2825 127.92 16.4602V17.4105C127.191 16.2055 125.543 15.3179 123.491 15.3179C119.498 15.3179 115.758 18.4549 115.758 23.465C115.758 28.4473 119.465 31.6415 123.46 31.6415C125.519 31.6415 127.2 30.7558 127.929 29.5508V30.5325C127.93 30.7085 128 30.8771 128.125 31.0018C128.249 31.1265 128.417 31.1972 128.594 31.1986H131.795C131.883 31.2007 131.971 31.1848 132.052 31.152C132.134 31.1193 132.208 31.0703 132.271 31.008C132.333 30.9458 132.382 30.8715 132.415 30.7898C132.447 30.708 132.463 30.6205 132.461 30.5325V16.4602C132.464 16.3697 132.449 16.2796 132.416 16.1952C132.383 16.1108 132.334 16.0338 132.271 15.9688C132.208 15.9037 132.133 15.852 132.049 15.8166C131.966 15.7812 131.876 15.7628 131.786 15.7626ZM124.338 27.3881C122.218 27.3881 120.625 25.7587 120.625 23.4982C120.625 21.2377 122.218 19.6101 124.338 19.6101C126.459 19.6101 128.051 21.2358 128.051 23.4963C128.051 25.7568 126.46 27.3862 124.338 27.3862V27.3881ZM149.757 9.01065H146.556C146.466 9.00795 146.377 9.02312 146.293 9.05527C146.21 9.08742 146.133 9.13592 146.068 9.19792C146.004 9.25993 145.952 9.33421 145.916 9.41643C145.88 9.49865 145.861 9.58716 145.86 9.67681V17.3478C145.122 16.2055 143.45 15.3179 141.359 15.3179C137.396 15.3179 133.72 18.4549 133.72 23.465C133.72 28.4473 137.427 31.6415 141.422 31.6415C143.481 31.6415 145.035 30.7558 145.891 29.5508V30.5325C145.892 30.7087 145.962 30.8776 146.086 31.0023C146.211 31.1271 146.38 31.1977 146.556 31.1986H149.757C149.845 31.2009 149.933 31.1853 150.015 31.1526C150.097 31.1199 150.171 31.0709 150.234 31.0086C150.296 30.9463 150.345 30.8719 150.377 30.7901C150.41 30.7082 150.426 30.6206 150.424 30.5325V9.6805C150.426 9.59209 150.411 9.50404 150.379 9.42176C150.346 9.33947 150.297 9.26467 150.235 9.20195C150.173 9.13923 150.098 9.08992 150.016 9.05702C149.934 9.02413 149.846 9.00835 149.757 9.01065ZM142.31 27.4268C140.199 27.4268 138.619 25.7808 138.619 23.4963C138.619 21.2118 140.204 19.5658 142.31 19.5658C144.415 19.5658 146 21.2118 146 23.4963C146 25.7808 144.423 27.4268 142.31 27.4268ZM167.725 9.01065H164.529C164.439 9.00795 164.35 9.02311 164.266 9.05524C164.182 9.08737 164.106 9.13583 164.041 9.19782C163.976 9.2598 163.924 9.33406 163.888 9.41629C163.852 9.49852 163.833 9.58708 163.832 9.67681V17.3478C163.103 16.2055 161.422 15.3179 159.331 15.3179C155.367 15.3179 151.691 18.4549 151.691 23.465C151.691 28.4473 155.4 31.6415 159.394 31.6415C161.455 31.6415 163.007 30.7558 163.863 29.5508V30.5325C163.864 30.7089 163.934 30.8777 164.059 31.0025C164.184 31.1272 164.353 31.1977 164.529 31.1986H167.725C167.813 31.2009 167.901 31.1853 167.982 31.1526C168.064 31.1199 168.138 31.0709 168.201 31.0085C168.263 30.9462 168.312 30.8718 168.344 30.79C168.377 30.7081 168.392 30.6205 168.389 30.5325V9.6805C168.392 9.59218 168.377 9.50417 168.345 9.42189C168.313 9.33961 168.264 9.26479 168.202 9.20204C168.14 9.1393 168.065 9.08995 167.983 9.05703C167.901 9.02412 167.813 9.00833 167.725 9.01065ZM160.277 27.4268C158.165 27.4268 156.587 25.7808 156.587 23.4963C156.587 21.2118 158.172 19.5658 160.277 19.5658C162.383 19.5658 163.968 21.2118 163.968 23.4963C163.968 25.7808 162.394 27.4268 160.283 27.4268H160.277ZM185.256 16.8421L180.478 33.2266C179.555 36.1422 177.498 37.886 174.296 37.886C172.84 37.886 171.515 37.5889 170.476 36.9948C169.871 36.6497 169.369 36.3341 169.369 35.8285C169.369 35.5148 169.471 35.3524 169.655 35.059L170.604 33.6381C170.871 33.2414 171.069 33.1122 171.357 33.1122C171.585 33.1178 171.805 33.1946 171.988 33.3318C172.584 33.7175 173.137 34.0496 173.981 34.0496C174.966 34.0496 175.719 33.7341 176.125 32.5605L176.535 31.2005H174.601C174.403 31.2068 174.209 31.1437 174.052 31.022C173.896 30.9004 173.787 30.7278 173.745 30.5343L169.469 16.8421C169.31 16.3033 169.456 15.7645 170.248 15.7645H173.615C174.027 15.7645 174.315 15.9047 174.496 16.4934L177.653 27.5191L180.605 16.4934C180.7 16.1132 180.954 15.7645 181.462 15.7645H184.656C185.285 15.7626 185.475 16.2055 185.256 16.8421ZM74.8748 21.7156V30.4679C74.8763 30.5633 74.8586 30.658 74.8227 30.7465C74.7869 30.8349 74.7337 30.9153 74.6662 30.9827C74.5988 31.0502 74.5184 31.1034 74.43 31.1392C74.3415 31.1751 74.2468 31.1928 74.1514 31.1913H71.5089C71.4134 31.193 71.3186 31.1755 71.23 31.1398C71.1415 31.104 71.061 31.0508 70.9935 30.9833C70.926 30.9158 70.8728 30.8353 70.837 30.7468C70.8013 30.6582 70.7838 30.5634 70.7856 30.4679V28.1705C69.1082 30.2889 66.1907 31.6231 62.8913 31.6231C56.6948 31.6231 51.8527 26.9618 51.8527 20.3261C51.8527 13.4302 57.0805 8.67665 63.6848 8.67665C68.5601 8.67665 72.4574 10.7729 74.1883 14.9895C74.2368 15.1009 74.2637 15.2205 74.2677 15.3419C74.2677 15.5412 74.1366 15.6925 73.7141 15.8383L70.6287 17.0267C70.4426 17.1038 70.2341 17.1071 70.0456 17.0359C69.8804 16.9383 69.751 16.7902 69.6765 16.6133C68.5693 14.5078 66.5986 13.0777 63.5649 13.0777C59.6307 13.0777 56.8129 16.1502 56.8129 20.1342C56.8129 23.9964 59.2118 27.1722 63.6774 27.1722C66.0265 27.1722 67.8995 26.065 68.7723 24.8489H65.9859C65.8905 24.8504 65.7958 24.8327 65.7073 24.7969C65.6189 24.7611 65.5386 24.7079 65.4711 24.6404C65.4036 24.5729 65.3504 24.4926 65.3146 24.4042C65.2787 24.3157 65.2611 24.221 65.2625 24.1256V21.747C65.2611 21.6516 65.2787 21.5568 65.3146 21.4684C65.3504 21.38 65.4036 21.2996 65.4711 21.2322C65.5386 21.1647 65.6189 21.1115 65.7073 21.0756C65.7958 21.0398 65.8905 21.0221 65.9859 21.0236H74.1514C74.245 21.0188 74.3386 21.0332 74.4264 21.0659C74.5143 21.0986 74.5945 21.1489 74.6623 21.2137C74.73 21.2784 74.7838 21.3564 74.8203 21.4427C74.8569 21.529 74.8754 21.6219 74.8748 21.7156ZM185.342 12.5223V12.3101C185.342 12.2952 185.347 12.2807 185.357 12.2695C185.368 12.26 185.382 12.2548 185.396 12.2547H186.745C186.752 12.2545 186.759 12.2556 186.766 12.2582C186.772 12.2607 186.778 12.2646 186.783 12.2695C186.793 12.2807 186.798 12.2952 186.798 12.3101V12.5223C186.798 12.5365 186.793 12.5503 186.783 12.561C186.778 12.5659 186.772 12.5698 186.766 12.5723C186.759 12.5748 186.752 12.576 186.745 12.5758H186.252V13.9063C186.252 13.9208 186.246 13.9346 186.235 13.9449C186.225 13.9552 186.211 13.9612 186.197 13.9616H185.942C185.935 13.9616 185.928 13.9601 185.922 13.9572C185.915 13.9544 185.91 13.9502 185.905 13.945C185.9 13.94 185.896 13.934 185.893 13.9273C185.89 13.9207 185.889 13.9135 185.889 13.9063V12.5758H185.396C185.389 12.5763 185.381 12.5753 185.375 12.5728C185.368 12.5704 185.362 12.5664 185.357 12.5613C185.352 12.5563 185.348 12.5501 185.345 12.5434C185.343 12.5366 185.342 12.5294 185.342 12.5223ZM187.701 12.3027L188.07 13.1571L188.439 12.3027C188.444 12.2875 188.455 12.2746 188.468 12.2658C188.484 12.2578 188.501 12.254 188.518 12.2547H188.946C188.953 12.2542 188.96 12.2551 188.967 12.2575C188.973 12.2599 188.979 12.2637 188.985 12.2685C188.99 12.2734 188.994 12.2793 188.996 12.2858C188.999 12.2924 189 12.2994 189 12.3064V13.9081C189 13.9151 188.999 13.9221 188.997 13.9288C188.994 13.9354 188.991 13.9414 188.986 13.9464C188.981 13.9515 188.975 13.9555 188.969 13.9581C188.962 13.9607 188.955 13.9619 188.948 13.9616H188.708C188.701 13.9619 188.694 13.9607 188.687 13.9581C188.681 13.9556 188.675 13.9518 188.669 13.9469C188.664 13.9419 188.66 13.9359 188.658 13.9292C188.655 13.9224 188.654 13.9153 188.655 13.9081V12.6994L188.258 13.5778C188.252 13.5944 188.242 13.6091 188.228 13.6202C188.213 13.6286 188.196 13.6325 188.179 13.6313H187.983C187.966 13.6322 187.95 13.6284 187.935 13.6202C187.921 13.6096 187.911 13.5947 187.905 13.5778L187.511 12.6994V13.9081C187.511 13.9151 187.51 13.9221 187.507 13.9286C187.505 13.9352 187.501 13.9412 187.496 13.9462C187.492 13.9512 187.486 13.9552 187.479 13.9578C187.473 13.9605 187.466 13.9618 187.459 13.9616H187.213C187.207 13.9615 187.2 13.9601 187.194 13.9573C187.187 13.9545 187.182 13.9505 187.177 13.9455C187.172 13.9405 187.169 13.9346 187.167 13.9282C187.164 13.9218 187.163 13.9149 187.164 13.9081V12.3064C187.163 12.2994 187.165 12.2924 187.167 12.2858C187.17 12.2793 187.174 12.2734 187.179 12.2685C187.184 12.2637 187.19 12.2599 187.196 12.2575C187.203 12.2551 187.21 12.2542 187.217 12.2547H187.632C187.649 12.2542 187.666 12.2581 187.68 12.2658C187.69 12.2759 187.697 12.2887 187.701 12.3027Z" fill="#1BDBDB"/>
</g>
<defs>
<clipPath id="clip0_141_150">
<rect width="189" height="38.7675" fill="white" transform="translate(0 0.616211)"/>
</clipPath>
</defs>
</svg>
