<?xml version="1.0" encoding="UTF-8"?>
<svg id="Layer_1" data-name="Layer 1" xmlns="http://www.w3.org/2000/svg" viewBox="0 0 157 157">
  <defs>
    <style>
      .cls-1 {
        fill: #1043fa;
      }
    </style>
  </defs>
  <g>
    <path class="cls-1" d="M148.35,67.08c-1.82,0-3.3,1.48-3.3,3.3v12.94H11.95V31.39c0-1.82-1.48-3.3-3.3-3.3s-3.3,1.48-3.3,3.3v94.22c0,1.82,1.48,3.3,3.3,3.3s3.3-1.48,3.3-3.3v-19.45h106.96c2.72-1.12,5.69-1.73,8.81-1.73s6.09.61,8.81,1.73h8.52v6.03c3.67,4.09,5.91,9.47,5.95,15.37.41-.54.65-1.22.65-1.95v-55.23c0-1.82-1.48-3.3-3.3-3.3ZM11.95,99.57v-9.65h133.1v9.65H11.95Z"/>
    <path class="cls-1" d="M36.17,44.59c-8.99,0-16.29,7.31-16.29,16.29.01,8.98,7.31,16.28,16.29,16.29,8.98,0,16.29-7.3,16.29-16.29s-7.31-16.29-16.29-16.29ZM36.17,70.58c-5.35,0-9.7-4.35-9.7-9.7.01-5.34,4.36-9.69,9.7-9.7,5.35.01,9.69,4.35,9.69,9.7s-4.34,9.7-9.69,9.7Z"/>
    <path class="cls-1" d="M105.67,41.34h-45.48c-1.82,0-3.3,1.48-3.3,3.3v29.24c0,1.81,1.48,3.29,3.3,3.29h74.72c1.82,0,3.3-1.48,3.3-3.29-.02-17.93-14.61-32.52-32.54-32.54ZM63.49,70.58v-22.64h42.18c13.08.01,24.06,9.72,25.73,22.64H63.49Z"/>
  </g>
  <g>
    <path class="cls-1" d="M151.73,111.54c-3.74-5.32-9.24-9.31-15.63-11.15-2.52-.73-5.19-1.12-7.95-1.12s-5.43.38-7.95,1.12c-4.37,1.24-8.31,3.5-11.56,6.5-5.75,5.28-9.35,12.85-9.35,21.25,0,15.91,12.95,28.86,28.87,28.86s28.86-12.95,28.86-28.86c0-6.18-1.94-11.91-5.27-16.6ZM151.09,128.14c0,12.66-10.29,22.95-22.95,22.95s-22.96-10.29-22.96-22.95c0-9.58,5.9-17.82,14.27-21.25,2.68-1.1,5.61-1.71,8.68-1.71s6,.6,8.68,1.71c3.23,1.33,6.1,3.37,8.4,5.94,3.62,4.03,5.83,9.33,5.86,15.15v.16Z"/>
    <path class="cls-1" d="M130.71,125.93h-5.14c-.99,0-1.79-.74-1.79-1.66s.8-1.66,1.79-1.66h9.76c1.56,0,2.82-1.23,2.82-2.75s-1.27-2.75-2.82-2.75h-4.37v-1.18c0-1.52-1.27-2.75-2.82-2.75s-2.82,1.23-2.82,2.75v1.18c-3.98.13-7.18,3.29-7.18,7.15s3.34,7.15,7.44,7.15h5.14c.99,0,1.79.74,1.79,1.66s-.8,1.66-1.79,1.66h-9.76c-1.56,0-2.82,1.23-2.82,2.75s1.27,2.75,2.82,2.75h3.98c.05,1.57,1.38,2.84,3.01,2.84s2.96-1.27,3.01-2.84c3.99-.12,7.2-3.28,7.2-7.15s-3.34-7.15-7.44-7.15Z"/>
  </g>
</svg>