<?xml version="1.0" encoding="UTF-8"?>
<svg id="Layer_1" data-name="Layer 1" xmlns="http://www.w3.org/2000/svg" viewBox="0 0 157 157">
  <defs>
    <style>
      .cls-1 {
        fill: #1043fa;
      }
    </style>
  </defs>
  <path class="cls-1" d="M60.64,84.23c5.48,0,9.93-4.46,9.93-9.93,0-2.02,1.64-3.66,3.66-3.66h9.53c1.73,0,3.14-1.4,3.14-3.14s-1.4-3.14-3.14-3.14h-9.53c-5.48,0-9.93,4.46-9.93,9.93,0,2.02-1.64,3.66-3.66,3.66-7.85,0-14.23,6.38-14.23,14.23s6.38,14.23,14.23,14.23h4.99c2.49,0,4.51,2.02,4.51,4.51,0,5.95,4.84,10.78,10.78,10.78h2.84c1.73,0,3.14-1.4,3.14-3.14s-1.4-3.14-3.14-3.14h-2.84c-2.49,0-4.51-2.02-4.51-4.51,0-5.95-4.84-10.78-10.78-10.78h-4.99c-4.39,0-7.96-3.57-7.96-7.96,0-4.39,3.57-7.96,7.96-7.96h0Z"/>
  <path class="cls-1" d="M64.98,43.05c0-8.98-7.31-16.29-16.29-16.29h-24.8c-1.73,0-3.14,1.4-3.14,3.14s1.4,3.14,3.14,3.14h24.8c5.53,0,10.02,4.5,10.02,10.02s-4.5,10.02-10.02,10.02h-8.42c-6.08,0-11.03,4.95-11.03,11.03,0,2.62-2.14,4.76-4.76,4.76h-15.18c-1.73,0-3.14,1.4-3.14,3.14s1.4,3.14,3.14,3.14h15.18c6.08,0,11.03-4.95,11.03-11.03,0-2.62,2.14-4.76,4.76-4.76h8.42c8.98,0,16.29-7.31,16.29-16.29h0Z"/>
  <path class="cls-1" d="M70.93,4.29c-17.59,0-34.13,6.85-46.57,19.29-12.45,12.44-19.3,28.99-19.3,46.58s6.85,34.14,19.3,46.58c12.44,12.44,28.98,19.29,46.57,19.29,3.64,0,7.28-.31,10.87-.9v-6.37c-3.58.67-7.22,1-10.87,1-32.86,0-59.59-26.74-59.59-59.6S38.07,10.56,70.93,10.56c20.44,0,39.29,10.42,50.19,27.46h7.31C116.79,17.19,94.84,4.29,70.93,4.29Z"/>
  <g>
    <path class="cls-1" d="M138.49,152.71h-43.9c-7.42,0-13.45-6.03-13.45-13.43V48.59c0-7.42,6.04-13.45,13.45-13.45h43.9c7.42,0,13.45,6.03,13.45,13.45v90.69c0,7.41-6.04,13.43-13.45,13.43ZM94.59,40.89c-4.25,0-7.7,3.46-7.7,7.7v90.69c0,4.24,3.46,7.68,7.7,7.68h43.9c4.25,0,7.7-3.45,7.7-7.68V48.59c0-4.25-3.46-7.7-7.7-7.7h-43.9Z"/>
    <path class="cls-1" d="M127.95,52.3h-22.82c-1.59,0-2.88-1.29-2.88-2.88s1.29-2.88,2.88-2.88h22.82c1.59,0,2.88,1.29,2.88,2.88s-1.29,2.88-2.88,2.88Z"/>
    <path class="cls-1" d="M123.38,139.03h-13.69c-1.59,0-2.88-1.29-2.88-2.88s1.29-2.88,2.88-2.88h13.69c1.59,0,2.88,1.29,2.88,2.88s-1.29,2.88-2.88,2.88Z"/>
    <g>
      <path class="cls-1" d="M119.85,91.45h-6.62c-2.09,0-3.78-1.61-3.78-3.61s1.68-3.61,3.78-3.61h12.56c1.2,0,2.17-.92,2.17-2.07s-.96-2.07-2.17-2.07h-7.1v-2.99c0-1.15-.96-2.07-2.17-2.07s-2.17.92-2.17,2.07v2.99h-1.13c-4.48,0-8.11,3.47-8.11,7.74s3.63,7.74,8.11,7.74h6.62c2.09,0,3.78,1.61,3.78,3.61s-1.68,3.61-3.78,3.61h-12.56c-1.2,0-2.17.92-2.17,2.07s.96,2.07,2.17,2.07h6.59v1.35c0,1.26,1.08,2.3,2.41,2.3s2.41-1.03,2.41-2.3v-1.35h1.16c4.48,0,8.11-3.47,8.11-7.74s-3.63-7.74-8.11-7.74Z"/>
      <path class="cls-1" d="M116.29,111.18c-1.66,0-3.01-1.3-3.01-2.9v-.76h-6c-1.53,0-2.77-1.2-2.77-2.67s1.24-2.67,2.77-2.67h12.56c1.75,0,3.18-1.35,3.18-3.01s-1.43-3-3.18-3h-6.62c-4.8,0-8.71-3.74-8.71-8.34s3.91-8.34,8.71-8.34h.53v-2.39c0-1.47,1.24-2.67,2.77-2.67s2.77,1.2,2.77,2.67v2.39h6.5c1.53,0,2.77,1.2,2.77,2.67s-1.24,2.67-2.77,2.67h-12.56c-1.75,0-3.18,1.35-3.18,3.01s1.43,3.01,3.18,3.01h6.62c4.8,0,8.71,3.74,8.71,8.34s-3.91,8.34-8.71,8.34h-.56v.76c0,1.6-1.35,2.9-3.01,2.9ZM107.28,103.4c-.88,0-1.57.64-1.57,1.47s.69,1.47,1.57,1.47h7.19v1.96c0,.94.81,1.7,1.81,1.7s1.81-.76,1.81-1.7v-1.96h1.75c4.14,0,7.51-3.2,7.51-7.14s-3.37-7.14-7.51-7.14h-6.62c-2.41,0-4.38-1.89-4.38-4.21s1.96-4.21,4.38-4.21h12.56c.88,0,1.57-.64,1.57-1.47s-.69-1.47-1.57-1.47h-7.7v-3.58c0-.82-.69-1.47-1.57-1.47s-1.57.64-1.57,1.47v3.58h-1.73c-4.14,0-7.51,3.2-7.51,7.14s3.37,7.14,7.51,7.14h6.62c2.41,0,4.38,1.89,4.38,4.2s-1.96,4.21-4.38,4.21h-12.56Z"/>
    </g>
  </g>
</svg>