<svg width="146" height="42" viewBox="0 0 146 42" fill="none" xmlns="http://www.w3.org/2000/svg">
<g clip-path="url(#clip0_141_4)">
<mask id="mask0_141_4" style="mask-type:luminance" maskUnits="userSpaceOnUse" x="-3" y="0" width="149" height="42">
<path d="M145.615 0H-3V42H145.615V0Z" fill="white"/>
</mask>
<g mask="url(#mask0_141_4)">
<path fill-rule="evenodd" clip-rule="evenodd" d="M32.1783 0.786103C29.8293 -0.0283199 26.9108 -0.0283203 21.0712 -0.0283203C15.2316 -0.0283203 12.3145 -0.0283199 9.96412 0.786103C5.69412 2.26687 2.33816 5.62283 0.857391 9.89417C0.0429686 12.2432 0.0429688 15.1617 0.0429688 21.0013C0.0429688 26.8409 0.0429686 29.758 0.857391 32.1071C2.33816 36.3771 5.69412 39.7344 9.96412 41.2151C12.3132 42.0296 15.2329 42.0296 21.0712 42.0296C26.9095 42.0296 29.8293 42.0296 32.1783 41.2151C36.4483 39.7344 39.8043 36.3784 41.2864 32.1071C42.1008 29.758 42.1008 26.8396 42.1008 21.0013C42.1008 15.163 42.1008 12.2432 41.2864 9.89417C39.8056 5.62417 36.4497 2.26821 32.1783 0.786103ZM39.6966 31.5551C38.376 35.3621 35.4347 38.3034 31.6277 39.624C29.5466 40.3455 26.7143 40.3455 21.0725 40.3455C15.4308 40.3455 12.5985 40.3455 10.5174 39.624C6.70912 38.3034 3.76777 35.3621 2.44854 31.5551C1.72701 29.474 1.72701 26.6417 1.72701 20.9999C1.72701 15.3582 1.72701 12.5259 2.44854 10.4448C3.76912 6.63783 6.70912 3.69648 10.5174 2.37591C12.5985 1.65437 15.4295 1.65437 21.0725 1.65437C26.7156 1.65437 29.5466 1.65437 31.6277 2.37591C35.4347 3.69648 38.376 6.63783 39.6966 10.4448C40.4181 12.5259 40.4181 15.3582 40.4181 20.9999C40.4181 26.6417 40.4181 29.474 39.6966 31.5551Z" fill="black"/>
<path fill-rule="evenodd" clip-rule="evenodd" d="M137.941 15.1819C133.282 15.2061 129.999 18.6927 129.999 23.0219C129.999 27.3511 133.256 30.839 137.941 30.8632C141.054 30.8632 143.801 29.1846 145.106 26.6269L141.901 25.0088C141.103 26.6565 139.621 27.4709 137.828 27.4736C135.857 27.475 134.096 26.1598 133.842 24.049H145.447C146.26 19.184 143.008 15.1819 137.941 15.1819ZM133.962 21.385C134.4 19.7077 136.103 18.5648 137.887 18.5648C139.671 18.5648 141.425 19.7588 141.814 21.385H133.962Z" fill="black"/>
<path fill-rule="evenodd" clip-rule="evenodd" d="M64.4825 17.1392L64.3708 15.6072H60.7954V30.4378H64.6508V22.8078C64.6508 18.2605 70.9346 17.9119 70.9346 21.8076V30.4378H74.79V21.463C74.79 14.8184 67.4602 14.0053 64.4825 17.1405" fill="black"/>
<path fill-rule="evenodd" clip-rule="evenodd" d="M84.6719 11.562V11.5647H77.8496V30.4378H84.6719C90.1723 30.4378 94.3252 26.3939 94.3252 20.9999C94.3252 15.6058 90.1723 11.562 84.6719 11.562ZM84.6719 26.7722H81.7063V15.2303H84.6719C88.0683 15.2303 90.4685 17.6035 90.4685 21.0012C90.4685 24.3989 88.0696 26.7722 84.6719 26.7722Z" fill="black"/>
<path fill-rule="evenodd" clip-rule="evenodd" d="M100.628 17.2159L100.516 15.6073H96.9409V30.4379H100.796V23.9952C100.796 20.3579 103.564 18.7923 106.622 19.4654V15.5023C104.759 15.0365 102.024 15.3232 100.628 17.2173" fill="black"/>
<path fill-rule="evenodd" clip-rule="evenodd" d="M125.935 15.6086L122.291 26.2581L118.675 15.6086H114.577L119.998 30.4379H124.611L130.034 15.6086H125.935Z" fill="black"/>
<path d="M57.8099 15.6086H53.9531V30.4392H57.8099V15.6086Z" fill="black"/>
<path d="M57.8099 9.86316H53.9531V13.7199H57.8099V9.86316Z" fill="black"/>
<path d="M112.582 15.6086H108.727V30.4392H112.582V15.6086Z" fill="black"/>
<path d="M112.583 9.86316H108.727V13.7199H112.583V9.86316Z" fill="black"/>
<path fill-rule="evenodd" clip-rule="evenodd" d="M15.0443 18.0856H11.6871C11.2078 18.0856 10.8901 18.4033 10.8901 18.8811V31.3263C10.8901 31.8042 11.2078 32.1219 11.6871 32.1219H15.0443C15.5235 32.1219 15.8399 31.8042 15.8399 31.3263V18.8811C15.8399 18.4033 15.5235 18.0856 15.0443 18.0856Z" fill="black"/>
<path fill-rule="evenodd" clip-rule="evenodd" d="M15.0443 9.86047H11.6871C11.2078 9.86047 10.8901 10.1782 10.8901 10.6561V13.8814C10.8901 14.3607 11.2078 14.677 11.6871 14.677H15.0443C15.5235 14.677 15.8399 14.3607 15.8399 13.8814V10.6561C15.8399 10.1782 15.5235 9.86047 15.0443 9.86047Z" fill="black"/>
<path fill-rule="evenodd" clip-rule="evenodd" d="M23.1135 9.86048L20.4346 9.87798C19.9554 9.88067 19.6377 10.1957 19.6377 10.6736V13.8882C19.6377 14.3661 19.9567 14.6837 20.4346 14.6837H23.1135C31.7504 14.6837 31.7504 27.3147 23.1135 27.3147H20.4346C19.9567 27.3147 19.6377 27.6324 19.6377 28.1103V31.3249C19.6377 31.8028 19.9554 32.1178 20.4346 32.1205L23.1135 32.138C38.3815 32.138 38.3815 9.85779 23.1135 9.85779" fill="black"/>
</g>
</g>
<defs>
<clipPath id="clip0_141_4">
<rect width="146" height="42" fill="white"/>
</clipPath>
</defs>
</svg>
