<svg fill="none" height="60" viewBox="0 0 30 60" width="30" xmlns="http://www.w3.org/2000/svg"><path d="m26.5909 9.65h-7.5v-4.32346c-.0011-.88172-.3606-1.72702-.9997-2.35049s-1.5056-.9742-2.4094-.97526h-12.27271c-.90381.00106-1.7703.35179-2.409395.97526-.639094.62347-.99861237 1.46877-.999695 2.35049v7.98176c.00108263.8817.360601 1.727.999695 2.3505.639095.6235 1.505585.9742 2.409395.9753v1.3901c-.00051.2624.07903.5191.22849.7373.14947.2181.3621.388.61083.4879.24982.1015.52495.1282.79037.0767s.50912-.1789.70008-.366c.0249-.0233.04771-.0487.06819-.0758l1.69636-2.2502h3.40569v4.3234c.0011.8818.3606 1.7271.9997 2.3505.6391.6235 1.5056.9742 2.4094.9753h7.5586l2.3864 2.328c.1907.186.4336.3126.6981.3639.2645.0514.5386.025.7878-.0757.2491-.1006.4621-.2711.6119-.4898s.2299-.4759.2299-.7389v-1.3875c.9038-.0011 1.7703-.3518 2.4094-.9753.6391-.6234.9986-1.4687.9997-2.3505v-7.9818c-.0011-.8817-.3606-1.727-.9997-2.3504-.6391-.6235-1.5056-.97424-2.4094-.9753zm-19.43181 5.6538c-.10625.0005-.21091.0253-.30561.0723s-.17684.1149-.23984.1984l-1.84091 2.4344v-2.04c0-.1764-.07184-.3456-.1997-.4703-.12787-.1248-.30129-.1948-.48212-.1948h-.68182c-.54249 0-1.06276-.2103-1.44635-.5845-.3836-.3742-.5991-.8818-.5991-1.411v-7.98176c0-.52923.2155-1.03678.5991-1.411.38359-.37422.90386-.58445 1.44635-.58445h12.27271c.5425 0 1.0628.21023 1.4464.58445s.5991.88177.5991 1.411v4.32346h-3.4091c-.7254.0021-1.4308.23181-2.0121.6552l-2.1402-4.58955c-.0542-.11613-.1416-.21458-.25157-.28362-.11002-.06904-.23806-.10575-.36888-.10575-.13081 0-.25886.03671-.36887.10575s-.19734.16749-.25158.28362l-3.40909 7.31665c-.03696.0796-.05746.1656-.06032.253-.00287.0874.01195.1745.04362.2563.03166.0818.07954.1567.1409.2204.06137.0637.13501.115.21671.1509.08762.0396.18298.0603.27954.0606.13086-.0001.25894-.0368.36896-.1059.11002-.0692.19732-.1677.2515-.2839l1.05818-2.2708h3.4623l.0484.1031c-.2695.4781-.4127 1.0141-.4166 1.5597v2.3281zm3.49841-5.32122h-2.22273l1.11068-2.38389zm17.9789 10.97492c0 .5293-.2155 1.0368-.5991 1.411s-.9039.5845-1.4464.5845h-.6818c-.1808 0-.3543.0701-.4821.1948-.1279.1247-.1997.2939-.1997.4703v2.0527l-2.5862-2.5229c-.1278-.1248-.3012-.1949-.482-.1949h-7.8409c-.5425 0-1.0628-.2103-1.4464-.5845s-.5991-.8817-.5991-1.411v-7.9818c0-.5292.2155-1.0367.5991-1.4109.3836-.3743.9039-.5845 1.4464-.5845h12.2727c.5425 0 1.0628.2102 1.4464.5845.3836.3742.5991.8817.5991 1.4109z" fill="#040125"/><path d="m23.8635 14.6387h-2.7272v-1.3303c0-.1764-.0719-.3456-.1997-.4703-.1279-.1247-.3013-.1948-.4822-.1948-.1808 0-.3542.0701-.4821.1948-.1278.1247-.1997.2939-.1997.4703v1.3303h-2.7273c-.1808 0-.3542.0701-.4821.1948-.1278.1248-.1997.294-.1997.4704s.0719.3456.1997.4703c.1279.1247.3013.1948.4821.1948h5.0591c-.1669 1.13-.756 2.16-1.6541 2.8921-.5245-.4274-.9485-.9601-1.2429-1.5618-.0371-.0809-.0904-.1538-.1567-.2144-.0664-.0606-.1445-.1076-.2298-.1383-.0852-.0307-.1759-.0445-.2667-.0405s-.1798.0256-.2619.0637c-.0821.038-.1556.0917-.2161.1579-.0605.0661-.1069.1434-.1363.2272-.0295.0839-.0415.1727-.0353.2611.0062.0885.0305.1749.0714.254.3168.6409.75 1.2205 1.2784 1.7108-.6059.2517-1.258.3807-1.9166.3791-.0883.0004-.1756.0181-.2568.0519-.0812.0339-.1546.0833-.216.1453-.0613.062-.1093.1353-.1411.2157s-.0467.1662-.044.2523c.0055.1788.0825.3485.2144.4728.132.1242.3085.1933.492.1923 1.0835-.0004 2.1474-.2828 3.0818-.8181.943.5331 2.013.8152 3.1029.8181.0883-.0004.1757-.018.2569-.0519s.1546-.0833.2159-.1452c.0614-.062.1093-.1354.1411-.2158.0318-.0803.0468-.1661.0441-.2522-.0055-.1789-.0825-.3486-.2145-.4728-.1319-.1243-.3085-.1933-.4919-.1924-.6378-.0024-1.2686-.1305-1.8545-.3765 1.0156-.9634 1.6569-2.2409 1.8143-3.6144h.3811c.1809 0 .3543-.0701.4821-.1948.1279-.1247.1997-.2939.1997-.4703s-.0718-.3456-.1997-.4704c-.1278-.1247-.3012-.1948-.4821-.1948z" fill="#040125"/><g fill="#2d59f5"><path d="m26.5909 39.65h-7.5v-4.3235c-.0011-.8817-.3606-1.727-.9997-2.3505-.6391-.6234-1.5056-.9742-2.4094-.9752h-12.27271c-.90381.001-1.7703.3518-2.409395.9752-.639094.6235-.99861237 1.4688-.999695 2.3505v7.9818c.00108263.8817.360601 1.727.999695 2.3505.639095.6235 1.505585.9742 2.409395.9753v1.3901c-.00051.2624.07903.5191.22849.7373.14947.2181.3621.388.61083.4879.24982.1015.52495.1282.79037.0767s.50912-.1789.70008-.366c.0249-.0233.04771-.0487.06819-.0758l1.69636-2.2502h3.40569v4.3234c.0011.8818.3606 1.7271.9997 2.3505.6391.6235 1.5056.9742 2.4094.9753h7.5586l2.3864 2.328c.1907.186.4336.3126.6981.3639.2645.0514.5386.025.7878-.0757.2491-.1006.4621-.2711.6119-.4898s.2299-.4759.2299-.7389v-1.3875c.9038-.0011 1.7703-.3518 2.4094-.9753.6391-.6234.9986-1.4687.9997-2.3505v-7.9818c-.0011-.8817-.3606-1.727-.9997-2.3504-.6391-.6235-1.5056-.9742-2.4094-.9753zm-19.43181 5.6538c-.10625.0005-.21091.0253-.30561.0723s-.17684.1149-.23984.1984l-1.84091 2.4344v-2.04c0-.1764-.07184-.3456-.1997-.4703-.12787-.1248-.30129-.1948-.48212-.1948h-.68182c-.54249 0-1.06276-.2103-1.44635-.5845-.3836-.3742-.5991-.8818-.5991-1.411v-7.9818c0-.5292.2155-1.0367.5991-1.411.38359-.3742.90386-.5844 1.44635-.5844h12.27271c.5425 0 1.0628.2102 1.4464.5844.3836.3743.5991.8818.5991 1.411v4.3235h-3.4091c-.7254.0021-1.4308.2318-2.0121.6552l-2.1402-4.5896c-.0542-.1161-.1416-.2145-.25157-.2836-.11002-.069-.23806-.1057-.36888-.1057-.13081 0-.25886.0367-.36887.1057-.11001.0691-.19734.1675-.25158.2836l-3.40909 7.3167c-.03696.0796-.05746.1656-.06032.253-.00287.0874.01195.1745.04362.2563.03166.0818.07954.1567.1409.2204.06137.0637.13501.115.21671.1509.08762.0396.18298.0603.27954.0606.13086-.0001.25894-.0368.36896-.1059.11002-.0692.19732-.1677.2515-.2839l1.05818-2.2708h3.4623l.0484.1031c-.2695.4781-.4127 1.0141-.4166 1.5597v2.3281zm3.49841-5.3212h-2.22273l1.11068-2.3839zm17.9789 10.9749c0 .5293-.2155 1.0368-.5991 1.411s-.9039.5845-1.4464.5845h-.6818c-.1808 0-.3543.0701-.4821.1948-.1279.1247-.1997.2939-.1997.4703v2.0527l-2.5862-2.5229c-.1278-.1248-.3012-.1949-.482-.1949h-7.8409c-.5425 0-1.0628-.2103-1.4464-.5845s-.5991-.8817-.5991-1.411v-7.9818c0-.5292.2155-1.0367.5991-1.4109.3836-.3743.9039-.5845 1.4464-.5845h12.2727c.5425 0 1.0628.2102 1.4464.5845.3836.3742.5991.8817.5991 1.4109z"/><path d="m23.8635 44.6387h-2.7272v-1.3303c0-.1764-.0719-.3456-.1997-.4703-.1279-.1247-.3013-.1948-.4822-.1948-.1808 0-.3542.0701-.4821.1948-.1278.1247-.1997.2939-.1997.4703v1.3303h-2.7273c-.1808 0-.3542.0701-.4821.1948-.1278.1248-.1997.294-.1997.4704s.0719.3456.1997.4703c.1279.1247.3013.1948.4821.1948h5.0591c-.1669 1.13-.756 2.16-1.6541 2.8921-.5245-.4274-.9485-.9601-1.2429-1.5618-.0371-.0809-.0904-.1538-.1567-.2144-.0664-.0606-.1445-.1076-.2298-.1383-.0852-.0307-.1759-.0445-.2667-.0405s-.1798.0256-.2619.0637c-.0821.038-.1556.0917-.2161.1579-.0605.0661-.1069.1434-.1363.2272-.0295.0839-.0415.1727-.0353.2611.0062.0885.0305.1749.0714.254.3168.6409.75 1.2205 1.2784 1.7108-.6059.2517-1.258.3807-1.9166.3791-.0883.0004-.1756.0181-.2568.0519-.0812.0339-.1546.0833-.216.1453-.0613.062-.1093.1353-.1411.2157s-.0467.1662-.044.2523c.0055.1788.0825.3485.2144.4728.132.1242.3085.1933.492.1923 1.0835-.0004 2.1474-.2828 3.0818-.8181.943.5331 2.013.8152 3.1029.8181.0883-.0004.1757-.018.2569-.0519s.1546-.0833.2159-.1452c.0614-.062.1093-.1354.1411-.2158.0318-.0803.0468-.1661.0441-.2522-.0055-.1789-.0825-.3486-.2145-.4728-.1319-.1243-.3085-.1933-.4919-.1924-.6378-.0024-1.2686-.1305-1.8545-.3765 1.0156-.9634 1.6569-2.2409 1.8143-3.6144h.3811c.1809 0 .3543-.0701.4821-.1948.1279-.1247.1997-.2939.1997-.4703s-.0718-.3456-.1997-.4704c-.1278-.1247-.3012-.1948-.4821-.1948z"/></g></svg>