<svg fill="none" height="56" viewBox="0 0 14 56" width="14" xmlns="http://www.w3.org/2000/svg" xmlns:xlink="http://www.w3.org/1999/xlink"><mask id="a" fill="#fff"><path d="m9.59266 54.8335h-6.48152c-.51942 0-1.00771-.2023-1.37495-.5696-.36725-.3672-.5695-.8555-.5695-1.3749v-6.4815c0-.5194.20228-1.0077.56952-1.3749.36724-.3673.85553-.5695 1.37495-.5695h2.5926c.35799 0 .64816.2901.64816.6481s-.29017.6482-.64816.6482h-2.59262c-.17314 0-.33589.0674-.45829.1898s-.18985.2852-.18985.4583v6.4815c0 .1731.06743.3359.18985.4583.1224.1224.28515.1899.45829.1899h6.4815c.17314 0 .33588-.0675.45826-.1899.1224-.1224.1899-.2852.1899-.4583v-2.5926c0-.358.2902-.6481.6481-.6481.358 0 .6482.2901.6482.6481v2.5926c0 .5194-.2022 1.0077-.5695 1.375-.3673.3672-.8556.5695-1.37494.5695zm-3.8889-3.889c-.16589 0-.33176-.0632-.45831-.1898-.2531-.2531-.2531-.6635 0-.9166l5.37505-5.375h-2.32413c-.35799 0-.64814-.2902-.64814-.6482s.29015-.6482.64814-.6482h3.88893c.0896 0 .175.0183.2527.0511.0724.0307.1405.0751.2.1333l.0001.0001c.0004.0004.0009.0008.0013.0013l.0003.0003c.0004.0003.0007.0007.001.001.0003.0002.0005.0004.0007.0007l.0007.0007c.0005.0004.001.0009.0014.0014.0005.0004.001.0009.0014.0014.0003.0002.0006.0005.0007.0007l.0007.0007c.0004.0003.0007.0006.001.001.0001.0001.0003.0002.0003.0004.0005.0004.0009.0008.0013.0013h.0001c.0581.0596.1026.1277.1332.2001.0329.0777.0512.163.0512.2527v3.8889c0 .358-.2902.6481-.6482.6481s-.6482-.2901-.6482-.6481v-2.3241l-5.37504 5.375c-.12645.1266-.29233.1898-.4582.1898z" fill="#fff"/></mask><path d="m9.59266 12.8334h-6.48152c-.51942 0-1.00771-.2023-1.37495-.5695-.36725-.3673-.5695-.8556-.5695-1.375v-6.48146c0-.51939.20228-1.00768.56952-1.37492s.85553-.56952 1.37495-.56952h2.5926c.35799 0 .64816.29017.64816.64815 0 .35799-.29017.64816-.64816.64816h-2.59262c-.17314 0-.33589.06742-.45829.18982s-.18985.28517-.18985.45831v6.48146c0 .1732.06743.3359.18985.4584.1224.1224.28515.1898.45829.1898h6.4815c.17314 0 .33588-.0674.45826-.1899.1224-.1224.1899-.2851.1899-.4583v-2.59255c0-.35799.2902-.64813.6481-.64813.358 0 .6482.29017.6482.64813v2.59255c0 .5194-.2022 1.0077-.5695 1.375-.3673.3672-.8556.5695-1.37494.5695zm-3.8889-3.88892c-.16589 0-.33176-.06326-.45831-.18982-.2531-.25311-.2531-.66353 0-.91664l5.37505-5.37502h-2.32413c-.35799 0-.64814-.29017-.64814-.64816 0-.35798.29015-.64815.64814-.64815h3.88893c.0896 0 .175.0182.2527.0511.0724.03066.1405.07508.2.13329l.0001.00004c.0004.00043.0009.00084.0013.00127.0001.00011.0002.00025.0003.00036.0004.00032.0007.00066.001.001.0003.00023.0005.00043.0007.00066.0002.00025.0005.00052.0007.00072.0005.00045.001.00093.0014.00141.0005.00045.001.00095.0014.0014.0003.00023.0006.00052.0007.00072.0003.00023.0005.00043.0007.00066.0004.00034.0007.00066.001.00102.0001.00009.0003.00025.0003.00036.0005.00043.0009.00086.0013.00129l.0001.00005c.0581.05959.1026.12765.1332.2001.0329.07766.0512.16302.0512.25268v3.88891c0 .35798-.2902.64815-.6482.64815s-.6482-.29017-.6482-.64815v-2.3241l-5.37504 5.37505c-.12645.12656-.29233.1898-.4582.1898z" fill="#4aa473" stroke="#4aa473" stroke-width=".233335"/><path d="m9.59266 26.8335h-6.48152c-.51942 0-1.00771-.2023-1.37495-.5696-.36725-.3672-.5695-.8555-.5695-1.3749v-6.4815c0-.5194.20228-1.0077.56952-1.3749.36724-.3673.85553-.5695 1.37495-.5695h2.5926c.35799 0 .64816.2901.64816.6481s-.29017.6482-.64816.6482h-2.59262c-.17314 0-.33589.0674-.45829.1898s-.18985.2852-.18985.4583v6.4815c0 .1731.06743.3359.18985.4583.1224.1224.28515.1899.45829.1899h6.4815c.17314 0 .33588-.0675.45826-.1899.1224-.1224.1899-.2852.1899-.4583v-2.5926c0-.358.2902-.6481.6481-.6481.358 0 .6482.2901.6482.6481v2.5926c0 .5194-.2022 1.0077-.5695 1.375-.3673.3672-.8556.5695-1.37494.5695zm-3.8889-3.889c-.16589 0-.33176-.0632-.45831-.1898-.2531-.2531-.2531-.6635 0-.9166l5.37505-5.375h-2.32413c-.35799 0-.64814-.2902-.64814-.6482s.29015-.6482.64814-.6482h3.88893c.0896 0 .175.0183.2527.0511.0724.0307.1405.0751.2.1333l.0001.0001c.0004.0004.0009.0008.0013.0013l.0003.0003c.0004.0003.0007.0007.001.001.0003.0002.0005.0004.0007.0007l.0007.0007c.0005.0004.001.0009.0014.0014.0005.0004.001.0009.0014.0014.0003.0002.0006.0005.0007.0007l.0007.0007c.0004.0003.0007.0006.001.001.0001.0001.0003.0002.0003.0004.0005.0004.0009.0008.0013.0013h.0001c.0581.0596.1026.1277.1332.2001.0329.0777.0512.163.0512.2527v3.8889c0 .358-.2902.6481-.6482.6481s-.6482-.2901-.6482-.6481v-2.3241l-5.37504 5.375c-.12645.1266-.29233.1898-.4582.1898z" fill="#2d59f5" stroke="#2d59f5" stroke-width=".23"/><path d="m9.59266 40.8334h-6.48152c-.51942 0-1.00771-.2023-1.37495-.5695-.36725-.3673-.5695-.8556-.5695-1.375v-6.4815c0-.5194.20228-1.0076.56952-1.3749.36724-.3672.85553-.5695 1.37495-.5695h2.5926c.35799 0 .64816.2902.64816.6482 0 .3579-.29017.6481-.64816.6481h-2.59262c-.17314 0-.33589.0674-.45829.1898s-.18985.2852-.18985.4583v6.4815c0 .1732.06743.3359.18985.4584.1224.1224.28515.1898.45829.1898h6.4815c.17314 0 .33588-.0674.45826-.1899.1224-.1224.1899-.2851.1899-.4583v-2.5926c0-.3579.2902-.6481.6481-.6481.358 0 .6482.2902.6482.6481v2.5926c0 .5194-.2022 1.0077-.5695 1.375-.3673.3672-.8556.5695-1.37494.5695zm-3.8889-3.8889c-.16589 0-.33176-.0633-.45831-.1898-.2531-.2532-.2531-.6636 0-.9167l5.37505-5.375h-2.32413c-.35799 0-.64814-.2902-.64814-.6482 0-.3579.29015-.6481.64814-.6481h3.88893c.0896 0 .175.0182.2527.0511.0724.0306.1405.0751.2.1333h.0001c.0004.0005.0009.0009.0013.0013.0001.0001.0002.0002.0003.0004.0004.0003.0007.0006.001.001.0003.0002.0005.0004.0007.0006.0002.0003.0005.0005.0007.0007.0005.0005.001.001.0014.0014l.0014.0014c.0003.0003.0006.0006.0007.0008.0003.0002.0005.0004.0007.0006.0004.0004.0007.0007.001.001.0001.0001.0003.0003.0003.0004.0005.0004.0009.0009.0013.0013h.0001c.0581.0596.1026.1277.1332.2001.0329.0777.0512.1631.0512.2527v3.8889c0 .358-.2902.6482-.6482.6482s-.6482-.2902-.6482-.6482v-2.3241l-5.37504 5.3751c-.12645.1265-.29233.1898-.4582.1898z" fill="#fff" stroke="#fff" stroke-width=".233335"/><g fill="#0a0a16"><path d="m9.59266 54.8335h-6.48152c-.51942 0-1.00771-.2023-1.37495-.5696-.36725-.3672-.5695-.8555-.5695-1.3749v-6.4815c0-.5194.20228-1.0077.56952-1.3749.36724-.3673.85553-.5695 1.37495-.5695h2.5926c.35799 0 .64816.2901.64816.6481s-.29017.6482-.64816.6482h-2.59262c-.17314 0-.33589.0674-.45829.1898s-.18985.2852-.18985.4583v6.4815c0 .1731.06743.3359.18985.4583.1224.1224.28515.1899.45829.1899h6.4815c.17314 0 .33588-.0675.45826-.1899.1224-.1224.1899-.2852.1899-.4583v-2.5926c0-.358.2902-.6481.6481-.6481.358 0 .6482.2901.6482.6481v2.5926c0 .5194-.2022 1.0077-.5695 1.375-.3673.3672-.8556.5695-1.37494.5695zm-3.8889-3.889c-.16589 0-.33176-.0632-.45831-.1898-.2531-.2531-.2531-.6635 0-.9166l5.37505-5.375h-2.32413c-.35799 0-.64814-.2902-.64814-.6482s.29015-.6482.64814-.6482h3.88893c.0896 0 .175.0183.2527.0511.0724.0307.1405.0751.2.1333l.0001.0001c.0004.0004.0009.0008.0013.0013l.0003.0003c.0004.0003.0007.0007.001.001.0003.0002.0005.0004.0007.0007l.0007.0007c.0005.0004.001.0009.0014.0014.0005.0004.001.0009.0014.0014.0003.0002.0006.0005.0007.0007l.0007.0007c.0004.0003.0007.0006.001.001.0001.0001.0003.0002.0003.0004.0005.0004.0009.0008.0013.0013h.0001c.0581.0596.1026.1277.1332.2001.0329.0777.0512.163.0512.2527v3.8889c0 .358-.2902.6481-.6482.6481s-.6482-.2901-.6482-.6481v-2.3241l-5.37504 5.375c-.12645.1266-.29233.1898-.4582.1898z"/><path d="m2.65285 53.3473-.16265.1627h.00003zm7.39805 0-.16259-.1626h-.00001zm.9167.9167.1626.1626zm-5.72215-3.5093.16265-.1626h-.00001zm0-.9166.16264.1626zm5.37505-5.375.1626.1626.3926-.3926h-.5552zm1.8175-1.2453-.0897.2118.0001.0001zm.2.1333.1621-.1632-.0013-.0012zm.0001.0001.1626-.1627-.0006-.0005zm.0013.0013-.1671.1582.0044.0044zm.0003.0003.1627-.1626zm.001.001-.1682.157.0056.0056zm.0007.0007.1626-.1627zm.0007.0007.1627-.1626zm.0014.0014-.1666.1587.004.0039zm.0014.0014-.1628.1628.0081.0074zm.0007.0007-.1719.1528.0082.0092.009.0082zm.0007.0007-.1627.1627.0054.0051zm.001.001-.1731.1515.0134.0153.016.0128zm.0003.0004-.1796.1436.008.01.009.009zm.0013.0013-.167.1582.0037.0037zm.0001 0 .1645-.1607-.0012-.0013zm.1332.2001-.2118.0896v.0001zm-1.2452 1.8175h.23v-.5553l-.3926.3927zm-5.37504 5.375-.16264-.1626-.00007.0001zm3.4307 3.8488h-6.48152v.46h6.48152zm-6.48152 0c-.45842 0-.8882-.1781-1.21231-.5022l-.32528.3253c.41037.4104.95716.6369 1.53759.6369zm-1.21231-.5022c-.32412-.3241-.50214-.7539-.50214-1.2123h-.460003c0 .5804.226483 1.1272.636863 1.5376zm-.50214-1.2123v-6.4815h-.460003v6.4815zm0-6.4815c0-.4584.17804-.8882.50215-1.2123l-.32526-.3253c-.41038.4104-.636893.9572-.636893 1.5376zm.50215-1.2123c.32412-.3241.7539-.5021 1.21232-.5021v-.46c-.58042 0-1.12721.2265-1.53758.6368zm1.21232-.5021h2.5926v-.46h-2.5926zm2.5926 0c.23096 0 .41816.1872.41816.4181h.46c0-.485-.39315-.8781-.87816-.8781zm.41816.4181c0 .231-.1872.4182-.41816.4182v.46c.48501 0 .87816-.3932.87816-.8782zm-.41816.4182h-2.59262v.46h2.59262zm-2.59262 0c-.23415 0-.4554.0916-.62092.2572l.32526.3252c.07927-.0792.18352-.1224.29566-.1224zm-.62092.2572c-.16553.1655-.25722.3867-.25722.6209h.46c0-.1121.04321-.2164.12248-.2957zm-.25722.6209v6.4815h.46v-6.4815zm0 6.4815c0 .2342.09167.4554.2572.621l.3253-.3253c-.07932-.0793-.1225-.1836-.1225-.2957zm.25723.621c.16551.1655.38674.2572.62091.2572v-.46c-.11212 0-.21638-.0432-.29567-.1225zm.62091.2572h6.4815v-.46h-6.4815zm6.4815 0c.23415 0 .45536-.0917.62096-.2573l-.3253-.3252c-.0793.0793-.18354.1225-.29566.1225zm.62096-.2573c.1655-.1655.2572-.3868.2572-.6209h-.46c0 .1121-.04323.2164-.12249.2957zm.2572-.6209v-2.5926h-.46v2.5926zm0-2.5926c0-.2309.1872-.4181.4181-.4181v-.46c-.4849 0-.8781.3931-.8781.8781zm.4181-.4181c.231 0 .4182.1872.4182.4181h.46c0-.485-.3932-.8781-.8782-.8781zm.4182.4181v2.5926h.46v-2.5926zm0 2.5926c0 .4584-.178.8882-.5022 1.2123l.3253.3253c.4104-.4104.6369-.9572.6369-1.5376zm-.5021 1.2123c-.3242.3241-.754.5022-1.21234.5022v.46c.58034 0 1.12714-.2265 1.53754-.6369zm-5.10124-3.3868c-.10741 0-.214-.0407-.29566-.1224l-.32529.3252c.17142.1715.39657.2572.62095.2572zm-.29567-.1224c-.16329-.1633-.16329-.4281 0-.5914l-.32527-.3253c-.34293.343-.34293.899 0 1.242zm0-.5914 5.37501-5.375-.3253-.3253-5.37498 5.375zm5.21241-5.7676h-2.32413v.46h2.32413zm-2.32413 0c-.23095 0-.41814-.1872-.41814-.4182h-.46c0 .485.39312.8782.87814.8782zm-.41814-.4182c0-.231.18719-.4182.41814-.4182v-.46c-.48502 0-.87814.3932-.87814.8782zm.41814-.4182h3.88893v-.46h-3.88893zm3.88893 0c.0582 0 .1131.0118.163.0329l.1794-.4235c-.1055-.0447-.2214-.0694-.3424-.0694zm.1631.033c.0465.0197.0903.0482.1289.0859l.3215-.3289c-.0805-.0787-.1728-.139-.2712-.1807zm.1276.0847.3241-.3264v-.0001zm-.0005-.0006c.0007.0008.0014.0014.0016.0017.0006.0005.0001.0001.0001 0-.0004-.0003-.0023-.0022-.0048-.0049l.3339-.3163c-.0029-.0031-.0053-.0054-.006-.0062-.0003-.0003-.0009-.0009-.0006-.0006 0 .0001.0005.0005.001.0011zm.0012.0013c.0026.0025.0047.0045.0057.0054.0005.0006.001.001.0013.0012.0001.0002.0002.0003.0003.0003.0001.0001.0001.0002.0001.0002.0002.0001-.0006-.0006-.0015-.0015-.001-.0008-.003-.0027-.0055-.0053l.3253-.3252c-.0026-.0026-.0047-.0045-.0057-.0055-.0005-.0005-.001-.0009-.0013-.0012-.0001-.0001-.0002-.0002-.0003-.0003-.0001 0-.0001-.0001-.0001-.0001-.0002-.0002.0006.0006.0015.0014.001.0009.003.0028.0055.0053zm.0004.0003.002.002c.0006.0006 0 .0001-.0001-.0001-.0005-.0004-.0031-.003-.0064-.0066l.3363-.3138c-.0036-.0039-.0066-.0068-.0074-.0076-.0003-.0003-.001-.001-.0006-.0006 0 0 .0007.0007.0015.0015zm.001.001.0003.0003s.0002.0003.0004.0004l.3252-.3253c-.0001-.0001-.0001-.0001-.0003-.0003-.0001-.0001-.0002-.0002-.0003-.0003zm.0007.0007c.0001.0002.0003.0003.0004.0004.0001.0002.0002.0003.0003.0003l.3253-.3252c-.0002-.0002-.0003-.0003-.0004-.0004-.0002-.0002-.0003-.0003-.0004-.0004zm.0007.0007c.0007.0008.0013.0014.0015.0016.0005.0004.0002.0001.0001.0001-.0002-.0003-.0019-.002-.0041-.0043l.3331-.3172c-.0027-.0028-.0049-.005-.0056-.0057-.0003-.0003-.0008-.0008-.0006-.0006 0 0 .0001.0001.0002.0002l.0007.0007zm.0014.0014c.0002.0003.0005.0005.0007.0008.0003.0002.0005.0004.0007.0006l.3253-.3252c-.0003-.0003-.0005-.0005-.0008-.0008-.0002-.0002-.0004-.0004-.0006-.0006zm.0093.009c-.0052-.0048-.0091-.0088-.0112-.0109-.0022-.0024-.004-.0044-.0053-.0058l.3438-.3056c-.0015-.0017-.0083-.0094-.0179-.0181zm.0007.0007c-.0048-.0044-.0084-.008-.0098-.0094-.0002-.0002-.0012-.0013-.0003-.0004l.0029.0029.3252-.3253c.0013.0013.0023.0023.0025.0026.0009.0008-.0003-.0003-.0006-.0007-.0016-.0016-.0054-.0054-.0105-.0101zm-.0019-.0017c-.0031-.0029-.0085-.0082-.0148-.0153l.3462-.303c-.0069-.0079-.013-.0138-.0168-.0173zm.0146.0128c-.0087-.0069-.0151-.0131-.0188-.0169-.0038-.0037-.0099-.0101-.0168-.0187l.3592-.2873c-.0106-.0133-.0228-.0255-.0362-.0363zm-.0186-.0166c.0009.0008-.001-.001-.0031-.0032l.334-.3163c-.0029-.0031-.0056-.0058-.0056-.0058zm.0006.0006.0001.0001.3266-.324h-.0001zm-.0012-.0012c.0378.0387.0664.0825.086.129l.4237-.1792c-.0417-.0984-.102-.1907-.1806-.2712zm.086.1291c.0212.0499.033.1048.033.163h.46c0-.1211-.0247-.237-.0694-.3424zm.033.163v3.8889h.46v-3.8889zm0 3.8889c0 .2309-.1873.4181-.4182.4181v.46c.485 0 .8782-.3931.8782-.8781zm-.4182.4181c-.231 0-.4182-.1871-.4182-.4181h-.46c0 .485.3932.8781.8782.8781zm-.4182-.4181v-2.3241h-.46v2.3241zm-.3926-2.4867-5.37508 5.375.32527.3253 5.37511-5.3751zm-5.37515 5.3751c-.08152.0816-.18807.1223-.29549.1223v.46c.22433 0 .44952-.0857.6209-.2572z" mask="url(#a)"/></g></svg>