<svg enable-background="new 0 0 14 56" height="56" viewBox="0 0 14 56" width="14" xmlns="http://www.w3.org/2000/svg"><path d="m4.9 55c-.2 0-.4-.1-.6-.3-.3-.3-.3-.9 0-1.2l4.5-4.5-4.5-4.5c-.3-.3-.3-.9 0-1.2s.9-.3 1.2 0l5.1 5.1c.3.3.3.9 0 1.2l-5.1 5.1c-.2.2-.4.3-.6.3z" fill="#0a0a16"/><path d="m4.9 41c-.2 0-.4-.1-.6-.3-.3-.3-.3-.9 0-1.2l4.5-4.5-4.5-4.5c-.3-.3-.3-.9 0-1.2s.9-.3 1.2 0l5.1 5.1c.3.3.3.9 0 1.2l-5.1 5.1c-.2.2-.4.3-.6.3z" fill="#fff"/><path d="m4.9 27c-.2 0-.4-.1-.6-.3-.3-.3-.3-.9 0-1.2l4.5-4.5-4.5-4.5c-.3-.3-.3-.9 0-1.2s.9-.3 1.2 0l5.1 5.1c.3.3.3.9 0 1.2l-5.1 5.1c-.2.2-.4.3-.6.3z" fill="#2d59f5"/><path d="m4.9 13c-.2 0-.4-.1-.6-.3-.3-.3-.3-.9 0-1.2l4.5-4.5-4.5-4.5c-.3-.3-.3-.9 0-1.2s.9-.3 1.2 0l5.1 5.1c.3.3.3.9 0 1.2l-5.1 5.1c-.2.2-.4.3-.6.3z" fill="#00a76f"/></svg>