<svg fill="none" height="56" viewBox="0 0 14 56" width="14" xmlns="http://www.w3.org/2000/svg"><path d="m13.7941 6.39523-5.0441-5.14707c-.30882-.308825-.92647-.308825-1.23529 0-.30883.41176-.30883.92647 0 1.23529l3.60289 3.60295h-10.191129c-.308824 0-.514706.10294-.617647.20588-.205883.20589-.308824.41177-.308824.7206 0 .20588.102941.5147.205882.61764.205883.10294.411765.20589.720589.20589h10.191129l-3.60289 3.60299c-.30883.3088-.30883.9264 0 1.2352.20588.2059.41176.3089.61764.3089.20589 0 .41177-.103.61765-.3089l5.0441-5.14702c.2059-.20588.2059-.41176.2059-.61765 0-.20588-.1029-.41176-.2059-.5147z" fill="#00a76f"/><path d="m13.7941 20.3952-5.0441-5.147c-.30882-.3089-.92647-.3089-1.23529 0-.30883.4117-.30883.9264 0 1.2353l3.60289 3.6029h-10.191129c-.308824 0-.514706.1029-.617647.2059-.205883.2059-.308824.4118-.308824.7206 0 .2059.102941.5147.205882.6176.205883.103.411765.2059.720589.2059h10.191129l-3.60289 3.603c-.30883.3088-.30883.9264 0 1.2352.20588.2059.41176.3089.61764.3089.20589 0 .41177-.103.61765-.3089l5.0441-5.147c.2059-.2059.2059-.4118.2059-.6177 0-.2058-.1029-.4117-.2059-.5147z" fill="#2d59f5"/><path d="m13.7941 34.3952-5.0441-5.147c-.30882-.3089-.92647-.3089-1.23529 0-.30883.4117-.30883.9264 0 1.2353l3.60289 3.6029h-10.191129c-.308824 0-.514706.1029-.617647.2059-.205883.2059-.308824.4118-.308824.7206 0 .2059.102941.5147.205882.6176.205883.103.411765.2059.720589.2059h10.191129l-3.60289 3.603c-.30883.3088-.30883.9264 0 1.2352.20588.2059.41176.3089.61764.3089.20589 0 .41177-.103.61765-.3089l5.0441-5.147c.2059-.2059.2059-.4118.2059-.6177 0-.2058-.1029-.4117-.2059-.5147z" fill="#fff"/><path d="m13.7941 48.3952-5.0441-5.147c-.30882-.3089-.92647-.3089-1.23529 0-.30883.4117-.30883.9264 0 1.2353l3.60289 3.6029h-10.191129c-.308824 0-.514706.1029-.617647.2059-.205883.2059-.308824.4118-.308824.7206 0 .2059.102941.5147.205882.6176.205883.103.411765.2059.720589.2059h10.191129l-3.60289 3.603c-.30883.3088-.30883.9264 0 1.2352.20588.2059.41176.3089.61764.3089.20589 0 .41177-.103.61765-.3089l5.0441-5.147c.2059-.2059.2059-.4118.2059-.6177 0-.2058-.1029-.4117-.2059-.5147z" fill="#0a0a16"/></svg>