<?xml version="1.0" encoding="UTF-8"?>
<svg xmlns="http://www.w3.org/2000/svg" version="1.1" viewBox="0 0 512 512">
  <defs>
    <style>
      .cls-1 {
        fill: #2d59f5;
      }
    </style>
  </defs>
  <!-- Generator: Adobe Illustrator 28.6.0, SVG Export Plug-In . SVG Version: 1.2.0 Build 709)  -->
  <g>
    <g id="Capa_1">
      <g>
        <path class="cls-1" d="M307.1,35.1l-104.1,104.1c-.2.2-.3.4-.5.6,25.6-3.7,52-1.2,76.4,8.3l70.6-70.6c23.4-23.4,61.5-23.4,84.9,0,23.4,23.4,23.4,61.5,0,84.9-4,4-110.1,110.1-104.1,104.1-23.6,23.6-62.3,22.6-84.9,0s-30.7-11.7-42.4,0l-18.2,18.2c5.1,8.6,10.8,16.8,18.2,24.2,44.4,44.4,120.9,48,169.1.5.2-.2.4-.3.6-.5l104.1-104.1c46.9-46.9,46.9-122.8,0-169.7-46.9-46.9-122.8-46.9-169.7,0h0Z"/>
        <path class="cls-1" d="M233.3,363.6l-70.9,70.9c-23.4,23.4-61.5,23.4-84.9,0-23.4-23.4-23.4-61.5,0-84.9,4-4,110.3-110.3,104.3-104.3,23.6-23.6,62.3-22.6,84.9,0,11.7,11.7,30.7,11.7,42.4,0l18.2-18.2c-5.1-8.6-10.8-16.8-18.2-24.2-44.4-44.4-120.8-48.1-169.1-.5-.2.2-.4.3-.6.5l-104.3,104.3c-46.9,46.9-46.9,122.8,0,169.7,46.9,46.9,122.8,46.9,169.7,0l104.3-104.3c.2-.2.3-.4.5-.6-25.6,3.7-52,1.2-76.4-8.3h0Z"/>
      </g>
    </g>
  </g>
</svg>