<svg width="167" height="45" viewBox="0 0 167 45" fill="none" xmlns="http://www.w3.org/2000/svg">
<path d="M31.6701 21.0766C31.9745 21.0766 32.2788 21.0766 32.5831 21.0766C32.7767 20.6616 32.7767 20.053 32.5831 19.3614C32.3894 18.3378 32.0851 17.6462 31.4765 17.7292C30.8679 17.8398 30.8679 18.6421 31.0615 19.6657C31.1445 20.2743 31.3658 20.7723 31.6701 21.0766Z" fill="black"/>
<path d="M26.3033 21.9896C26.7183 22.1832 27.0226 22.2939 27.1056 22.1832C27.2162 22.0726 27.1056 21.9896 26.9949 21.7683C26.8013 21.3533 26.2756 21.049 25.8883 20.8553C24.8647 20.4404 23.7581 20.551 22.8452 21.2703C22.5409 21.464 22.2365 21.7683 22.3472 21.9896C22.3472 22.1002 22.4579 22.1003 22.5409 22.1003C22.7345 22.1003 23.6475 21.6853 24.6711 21.6023C25.2797 21.5746 25.8883 21.7959 26.3033 21.9896Z" fill="black"/>
<path d="M25.3904 22.4875C24.7818 22.5982 24.4775 22.7918 24.2838 22.9855C24.0902 23.1791 23.9795 23.2898 23.9795 23.4004V23.5111H24.0902C24.2008 23.5111 24.5051 23.4004 24.5051 23.4004C25.3074 23.0961 25.833 23.0961 26.331 23.2068C26.6353 23.2068 26.746 23.3174 26.829 23.2068C26.829 23.2068 26.829 23.0961 26.829 23.0131C26.8013 22.7088 26.1927 22.4045 25.3904 22.4875Z" fill="black"/>
<path d="M29.8443 24.3133C30.2593 24.507 30.6466 24.424 30.8679 24.1197C30.9786 23.8153 30.7572 23.4004 30.3699 23.2067C29.9549 23.0131 29.5676 23.0961 29.3463 23.4004C29.125 23.7047 29.4293 24.1197 29.8443 24.3133Z" fill="black"/>
<path d="M32.3618 22.1002C32.0575 22.1002 31.7532 22.4045 31.7532 22.9025C31.7532 23.3175 31.9468 23.7048 32.3618 23.7048C32.6661 23.7048 32.9704 23.4005 32.9704 22.9025C32.8874 22.4875 32.6661 22.1002 32.3618 22.1002Z" fill="black"/>
<path d="M10.9216 29.9847C10.8109 29.8741 10.7279 29.8741 10.6173 29.9847C10.5066 29.9847 10.4236 29.9847 10.313 29.9847C10.1193 29.9847 9.89799 29.8741 9.815 29.6804C9.732 29.4868 9.70434 29.1824 9.815 28.7675L9.92566 28.5738C10.23 27.9652 10.6449 27.0522 10.1193 26.1393C9.70434 25.42 9.20637 25.0327 8.48708 24.922C7.76779 24.8114 7.07617 25.1157 6.66119 25.6413C5.9419 26.4436 5.85891 27.4672 5.9419 27.8545C5.9419 27.9652 6.05256 28.0482 6.13556 28.0482C6.24622 28.0482 6.43987 27.9375 6.55053 27.6332V27.5225C6.55053 27.3289 6.66119 27.1076 6.85485 26.8033C7.0485 26.4989 7.35282 26.3053 7.65713 26.3053C7.96145 26.1946 8.37642 26.3053 8.68074 26.4989C9.17871 26.8033 9.40002 27.4119 9.1787 28.0205C8.87439 28.3248 8.76373 28.8228 8.76373 29.3484C8.87439 30.2614 9.48302 30.6763 9.98099 30.7593C10.479 30.7593 10.8939 30.455 10.8939 30.2614C11.0046 30.0954 10.9216 30.0954 10.9216 29.9847Z" fill="black"/>
<path d="M40.357 28.2695C40.357 28.1588 40.2463 27.7715 40.0527 27.1629L39.6377 26.2499C40.357 25.2263 40.357 24.2304 40.2463 23.7324C40.1357 23.1238 39.8313 22.5151 39.3334 21.9065C38.8354 21.2979 37.6182 20.6893 36.0966 20.2743L35.2943 20.0806C35.2943 20.0806 35.2943 18.1441 35.1836 17.3418C35.1836 16.7332 35.073 15.8202 34.7687 14.9073C34.4643 13.69 33.8557 12.5834 33.0534 11.8641C35.073 9.73392 36.4009 7.29939 36.4009 5.27985C36.4009 1.43442 31.6425 0.217158 25.6669 2.65168L24.4496 3.14965C24.4496 3.14965 22.2364 0.936449 22.1258 0.936449C15.5692 -4.92853 -5.37324 18.4484 1.29402 24.1197L2.70494 25.337C2.28996 26.3606 2.20697 27.4672 2.28996 28.6844C2.48362 30.206 3.31357 31.7276 4.50316 32.9448C5.72042 34.0514 7.32499 34.7707 8.95723 34.7707C11.5854 40.857 17.561 44.4811 24.5326 44.7025C32.0298 44.8961 38.3928 41.355 41.0209 35.075C41.2146 34.6601 41.9339 32.6405 41.9339 30.8146C42.0999 28.9611 41.0763 28.2695 40.357 28.2695ZM9.59352 33.0278C9.39986 33.0278 9.09555 33.1385 8.87423 33.0278C6.66103 32.9172 4.11585 30.8976 3.9222 28.4631C3.72854 25.8349 5.0288 23.8154 7.46332 23.2898C7.76763 23.1791 8.07195 23.1791 8.48692 23.1791C9.81484 23.2898 11.8344 24.2857 12.3324 27.2182C12.7197 29.9847 12.1387 32.6129 9.59352 33.0278ZM7.07601 21.6852C5.55443 21.9895 4.25418 22.7918 3.42423 24.009C2.92626 23.5941 2.01331 22.7918 1.90265 22.4875C0.574734 20.053 3.31357 15.2116 5.25012 12.5557C9.89783 5.88848 17.2844 0.82579 20.6318 1.71107C21.2405 1.90472 23.0664 4.03493 23.0664 4.03493C23.0664 4.03493 19.6359 5.97147 16.4821 8.59965C12.2217 11.7535 8.98489 16.5118 7.07601 21.6852ZM30.9509 32.0042L31.0615 31.8936C31.0615 31.7829 30.9509 31.7829 30.9509 31.7829C30.9509 31.7829 27.4098 32.2809 24.0623 31.0636C24.4773 29.8464 25.3902 30.2613 26.8841 30.455C29.5123 30.6486 31.9468 30.2613 33.6621 29.7357C35.1836 29.3207 37.2032 28.4078 38.7248 27.2182C39.2227 28.3248 39.444 29.6527 39.444 29.6527C39.444 29.6527 39.859 29.542 40.1633 29.7634C40.4676 29.957 40.6613 30.372 40.5783 31.3956C40.274 33.4151 39.361 34.9367 38.0608 36.4583C37.2585 37.3712 36.1242 38.1735 34.9346 38.7821C34.326 39.0865 33.6067 39.3908 32.9151 39.5844C27.4374 41.2997 21.9874 39.4738 20.2722 35.324C20.1615 35.0197 19.9679 34.7154 19.9679 34.3004C19.2486 31.5616 19.8572 28.3248 21.9044 26.3052C22.0151 26.1946 22.0981 26.0009 22.0981 25.8073C22.0981 25.6136 21.9874 25.503 21.9044 25.3923C21.1851 24.3687 18.7783 22.6535 19.2763 19.306C19.5806 16.8715 21.7108 15.2669 23.6197 15.3499H24.1176C24.9199 15.3499 25.7499 15.5436 26.3308 15.5436C27.4374 15.5436 28.544 15.4329 29.7613 14.437C30.1763 14.1326 30.4806 13.8283 31.0892 13.7177C31.1999 13.7177 31.2829 13.607 31.5872 13.7177C31.8915 13.7177 32.1958 13.8283 32.3895 14.022C33.4131 14.7413 33.4961 16.2352 33.6067 17.4524C33.6067 18.1717 33.7174 19.7763 33.7174 20.1913C33.828 21.2149 34.0217 21.4085 34.6303 21.6022C34.9346 21.7129 35.239 21.7958 35.6539 21.9065C36.9819 22.3215 37.7841 22.6258 38.2821 23.1238C38.5864 23.4281 38.6971 23.7324 38.7801 24.0367C38.9737 25.1433 37.8671 26.5542 35.1283 27.8821C32.0852 29.2931 28.544 29.5974 26.0265 29.2931L25.1136 29.1824C23.094 28.8781 21.9874 31.5063 23.177 33.2215C23.9793 34.3281 26.1095 35.158 28.1291 35.158C32.9981 35.158 36.7329 33.1385 38.0608 31.3126L38.1715 31.1189C38.2821 31.0083 38.1715 30.9253 38.0608 31.0083C36.9542 31.8106 31.8915 34.8537 26.5245 33.9408C26.5245 33.9408 25.9159 33.8301 25.3072 33.6365C24.8093 33.4428 23.8963 33.0278 23.675 32.0042C28.2121 33.3321 30.9509 32.0042 30.9509 32.0042ZM15.7628 12.5834C17.395 10.6469 19.4976 8.93163 21.3235 8.01868C21.4341 8.01868 21.4341 8.01869 21.4341 8.12935C21.3235 8.43366 21.0192 8.93163 20.9362 9.34661C20.9362 9.45727 21.0468 9.45726 21.0468 9.45726C22.1534 8.65498 24.173 7.82503 25.9159 7.74203C26.0265 7.74203 26.0265 7.8527 26.0265 7.8527C25.7222 8.04635 25.5286 8.35067 25.2242 8.65498C25.2242 8.65498 25.2242 8.76564 25.3349 8.76564C26.5522 8.76564 28.2674 9.18061 29.374 9.87224C29.4846 9.87224 29.374 10.0659 29.2633 10.0659C27.5481 9.65092 24.8093 9.34661 21.8768 10.0659C19.2486 10.6745 17.3121 11.6981 15.9011 12.6941C15.7628 12.6664 15.6798 12.6664 15.7628 12.5834Z" fill="black"/>
<path d="M160.616 17.1206C158.099 17.1206 156.965 18.9465 156.467 20.0531C156.162 20.7724 156.162 20.966 155.969 20.966C155.664 20.966 155.858 20.3574 156.079 19.7488C156.384 18.4209 156.19 17.4249 156.19 17.4249H152.649V34.4389H157.518V29.0719C158.127 30.0955 159.15 31.0914 160.755 31.0914C164.296 31.0914 166.011 28.1589 166.011 24.1198C165.983 19.5551 163.853 17.1206 160.616 17.1206ZM159.316 27.8546C158.21 27.8546 157.38 26.4437 157.38 24.5072C157.38 22.5706 158.182 21.1597 159.316 21.1597C160.644 21.1597 161.253 22.3769 161.253 24.5072C161.225 26.748 160.727 27.8546 159.316 27.8546Z" fill="black"/>
<path d="M64.3705 17.1206C62.2403 17.1206 61.2443 18.8359 60.7187 19.8595C60.4144 20.4681 60.4144 20.9661 60.1101 20.9661C59.8058 20.9661 59.9994 20.5511 59.8058 19.6381C59.5014 18.4209 58.4778 17.1206 56.3753 17.1206C54.1621 17.1206 53.1385 19.0572 52.7235 20.0531C52.4192 20.7724 52.4192 20.9661 52.2256 20.9661C51.9212 20.9661 52.1149 20.3574 52.3362 19.7488C52.6405 18.4209 52.4469 17.4249 52.4469 17.4249H48.9058V30.7871H53.6641V24.1199C53.6641 22.792 54.1621 21.1874 55.1857 21.1874C56.2923 21.1874 56.5136 21.9897 56.5136 23.5112V30.7871H61.3827V24.1199C61.3827 22.9026 61.8806 21.1874 62.9042 21.1874C64.0108 21.1874 64.2322 22.4046 64.2322 23.5112V30.7041H68.8799V22.8196C68.8245 19.3615 67.6073 17.1206 64.3705 17.1206ZM146.563 17.1206C144.433 17.1206 143.437 18.8359 142.911 19.8595C142.607 20.4681 142.607 20.9661 142.303 20.9661C141.998 20.9661 142.192 20.4681 141.998 19.6381C141.583 18.4209 140.781 17.1206 138.568 17.1206C136.355 17.1206 135.331 19.0572 134.916 20.0531C134.612 20.7724 134.612 20.9661 134.418 20.9661C134.114 20.9661 134.308 20.3574 134.529 19.7488C134.833 18.4209 134.64 17.4249 134.64 17.4249H131.098V30.7871H135.967V24.1199C135.967 22.792 136.465 21.1874 137.489 21.1874C138.596 21.1874 138.817 21.9897 138.817 23.5112V30.7871H143.686V24.1199C143.686 22.9026 144.184 21.1874 145.208 21.1874C146.314 21.1874 146.535 22.4046 146.535 23.5112V30.7041H151.294V22.8196C151.017 19.3615 149.8 17.1206 146.563 17.1206ZM77.124 17.1206C73.3893 17.1206 70.7334 18.4486 70.7334 18.4486V22.4876C70.7334 22.4876 73.6659 20.7724 76.1004 20.7724C78.037 20.7724 78.2306 21.796 78.12 22.709C78.12 22.709 77.622 22.5983 75.9068 22.5983C71.9507 22.5983 69.9311 24.4242 69.9311 27.246C69.9311 29.9848 72.1443 31.0915 74.0809 31.0915C76.8197 31.0915 78.037 29.2656 78.4243 28.3526C78.7286 27.744 78.7286 27.329 78.9223 27.329C79.2266 27.329 79.1159 27.6333 79.1159 28.242C79.1159 29.2656 79.1159 30.0678 79.3096 30.7595H82.989V24.1752C82.8784 20.0531 81.4674 17.1206 77.124 17.1206ZM75.9068 27.661C74.8002 27.9653 74.1916 27.5503 74.1916 26.8587C74.1916 25.8351 75.2982 25.3371 76.8197 25.3371C77.539 25.3371 78.1476 25.4478 78.1476 25.4478C78.12 25.8351 77.124 27.3567 75.9068 27.661ZM90.8735 13.3859H95.7426V30.7871H90.8735C90.8735 30.7041 90.8735 13.3859 90.8735 13.3859ZM101.11 24.1199C101.11 22.9026 102.216 21.796 104.236 21.796C106.449 21.796 108.275 22.9026 108.69 23.1239V18.4486C108.69 18.4486 107.279 17.1206 103.821 17.1206C100.169 17.1206 97.1535 19.2508 97.1535 23.8986C97.1535 28.5463 99.8923 31.0915 103.821 31.0915C106.864 31.0915 108.773 29.3762 108.773 29.3762V24.9222C108.164 25.2265 106.56 26.3331 104.319 26.3331C101.912 26.4437 101.11 25.3371 101.11 24.1199ZM118.511 17.1206C115.689 17.1206 114.665 19.7488 114.472 20.2468C114.278 20.7447 114.167 20.9661 113.974 20.9661C113.669 20.9661 113.863 20.3574 113.974 20.0531C114.167 19.3338 114.693 17.6186 114.693 15.4054C114.693 13.8838 114.499 13.3859 114.499 13.3859H110.35V30.7871H115.219V24.1199C115.219 23.0133 115.634 21.1874 116.851 21.1874C117.875 21.1874 118.179 21.9067 118.179 23.4006V30.7871H123.048V23.7049C122.854 20.2744 122.356 17.1206 118.511 17.1206ZM124.486 17.4249V30.7871H129.356V17.4249C129.356 17.4249 128.553 17.9229 126.921 17.9229C125.289 17.8399 124.486 17.4249 124.486 17.4249Z" fill="black"/>
<path d="M126.921 17.0375C128.54 17.0375 129.853 16.1705 129.853 15.101C129.853 14.0315 128.54 13.1644 126.921 13.1644C125.301 13.1644 123.988 14.0315 123.988 15.101C123.988 16.1705 125.301 17.0375 126.921 17.0375Z" fill="black"/>
<path d="M84.5103 17.4249V30.7871H89.3516V17.4249C89.3516 17.4249 88.5493 17.9229 86.9171 17.9229C86.9171 17.8399 84.5103 17.4249 84.5103 17.4249Z" fill="black"/>
<path d="M86.9174 17.0375C88.5369 17.0375 89.8498 16.1705 89.8498 15.101C89.8498 14.0315 88.5369 13.1644 86.9174 13.1644C85.2978 13.1644 83.9849 14.0315 83.9849 15.101C83.9849 16.1705 85.2978 17.0375 86.9174 17.0375Z" fill="black"/>
</svg>
