<svg width="166" height="35" viewBox="0 0 166 35" fill="none" xmlns="http://www.w3.org/2000/svg">
<path d="M55.3056 8.58374H54.4327C53.5806 8.58374 53.2065 8.83315 52.6453 9.76842L47.9897 17.313L46.0568 9.85156C45.8282 8.95785 45.5788 8.60452 44.602 8.60452H43.8745C42.9185 8.60452 42.3157 9.16569 42.1287 10.1633L39.9672 22.3011C39.8009 23.2156 40.2166 23.6936 41.0064 23.6936H41.3389C42.1703 23.6936 42.5444 23.2779 42.6899 22.3842L44.4357 12.5742L46.1192 19.1419C46.2647 19.807 46.3894 20.2435 47.6572 20.2435C48.7172 20.2435 48.9666 19.8694 49.3407 19.2666L53.4559 12.5119L51.71 22.3219C51.5438 23.2571 51.9594 23.7144 52.7285 23.7144H53.0818C53.9131 23.7144 54.2872 23.2779 54.4327 22.405L56.5735 10.1841C56.7605 9.20726 56.2825 8.58374 55.3056 8.58374Z" fill="black"/>
<path d="M68.2955 17.2714C68.1915 14.3201 66.1963 12.1586 62.8293 12.1586C58.9843 12.1586 56.6357 15.2969 56.7396 18.7263C56.8643 21.8646 59.0259 23.8807 62.2058 23.8807C66.1547 23.8599 68.3994 20.7007 68.2955 17.2714ZM62.2266 21.7191C60.4184 21.7191 59.2753 20.4098 59.2129 18.6223C59.1298 16.3153 60.647 14.2785 62.8085 14.2785C64.4712 14.2785 65.7806 15.5879 65.843 17.3961C65.9053 19.8278 64.3881 21.7191 62.2266 21.7191Z" fill="black"/>
<path d="M76.8792 12.1586C75.2789 12.1586 74.011 12.9484 73.1589 14.2785C73.242 12.7613 72.4107 12.3248 71.5586 12.3248C71.1637 12.3248 70.8519 12.4288 70.8311 12.4703L69.0853 22.3427C68.919 23.3611 69.4802 23.652 70.2284 23.652H70.5401C71.3507 23.652 71.6833 23.3195 71.8495 22.3427L72.8887 16.4193C73.6369 15.1099 74.4683 14.4864 75.7569 14.4864C77.0455 14.4864 77.8145 15.2554 77.8353 16.5232C77.8561 16.8557 77.7729 17.2714 77.7106 17.7702L76.9 22.3427C76.7337 23.3611 77.3157 23.652 78.0431 23.652H78.3549C79.1654 23.652 79.498 23.3195 79.6643 22.3427L80.558 17.2922C80.6619 16.731 80.7242 16.2322 80.7034 15.775C80.6411 13.655 79.2278 12.1586 76.8792 12.1586Z" fill="black"/>
<path d="M126.054 12.1586C124.744 12.1586 123.768 12.9068 123.103 14.2785C123.206 12.7613 122.375 12.3248 121.523 12.3248C121.107 12.3248 120.816 12.4288 120.796 12.4703L119.029 22.3427C118.863 23.3611 119.528 23.652 120.276 23.652H120.588C121.294 23.652 121.627 23.3195 121.814 22.3427L122.396 19.038C122.832 16.4608 123.788 14.6734 125.326 14.6734C126.075 14.6734 126.553 14.9852 126.864 15.3385C126.906 15.3801 128.07 14.9228 128.028 13.5511C127.966 12.6989 127.114 12.1586 126.054 12.1586Z" fill="black"/>
<path d="M139.48 12.3247C138.399 12.3247 137.797 12.8443 137.443 14.2161C136.757 12.9275 135.344 12.1377 133.702 12.1377C130.211 12.1377 127.779 15.2553 127.779 18.7885C127.779 21.6983 129.566 23.8598 132.393 23.8598C134.118 23.8598 135.448 23.1531 136.3 21.719C136.175 23.2155 136.466 23.6727 137.547 23.6727C138.503 23.6727 138.815 23.3194 138.919 22.2594C139.044 20.3057 139.709 17.1258 140.478 12.6573C140.478 12.5742 140.041 12.3247 139.48 12.3247ZM132.996 21.719C131.291 21.719 130.314 20.6383 130.314 18.7262C130.314 16.4815 131.624 14.2369 134.056 14.2369C136.03 14.2369 136.861 15.6917 136.861 17.2921C136.861 19.3081 135.49 21.719 132.996 21.719Z" fill="black"/>
<path d="M156.066 12.1586C154.154 12.1586 152.886 13.1354 151.992 14.5695C151.556 13.0523 150.246 12.1586 148.584 12.1586C147.129 12.1586 145.861 12.8444 144.988 14.1538C145.03 12.7613 144.219 12.3456 143.388 12.3456C142.972 12.3456 142.681 12.4495 142.66 12.4911L140.914 22.3634C140.748 23.3818 141.309 23.6728 142.057 23.6728H142.369C143.076 23.6728 143.512 23.3818 143.679 22.3634L144.759 16.2322C145.549 15.006 146.297 14.4864 147.461 14.4864C148.604 14.4864 149.311 15.3385 149.311 16.6271C149.311 16.8349 149.29 17.0636 149.249 17.313L148.376 22.3634C148.21 23.3818 148.791 23.6728 149.519 23.6728H149.81C150.517 23.6728 150.974 23.3611 151.14 22.3634L152.221 16.2322C153.011 15.006 153.759 14.4864 154.923 14.4864C156.024 14.4864 156.835 15.1514 156.835 16.5232C156.835 16.8557 156.772 17.2714 156.689 17.7702L155.879 22.3427C155.712 23.3611 156.274 23.652 157.022 23.652H157.334C158.144 23.652 158.477 23.3195 158.643 22.3427L159.537 17.2922C159.641 16.731 159.682 16.2322 159.682 15.775C159.703 13.5511 158.207 12.1586 156.066 12.1586Z" fill="black"/>
<path d="M93.3193 17.1051C93.3193 15.5671 93.0075 14.5487 92.3217 13.6549C91.5735 12.6989 90.1809 12.1169 88.5598 12.1169C83.6548 12.1169 81.8882 15.7333 81.8882 18.8717C81.8882 21.8646 84.0497 23.8598 87.3751 23.8598C90.7005 23.8598 92.5711 22.3842 92.5711 21.1995C92.5711 20.4097 92.0099 20.1395 91.3656 20.0772C90.4927 21.1995 89.2872 21.7399 87.6453 21.7399C86.1904 21.7399 84.4654 21.1787 84.3407 18.5807H91.8852C92.6958 18.6015 93.3193 18.1443 93.3193 17.1051ZM90.8876 16.7517H84.5901C85.1928 15.1514 86.5853 14.1538 88.352 14.1538C89.2457 14.1538 89.9315 14.4032 90.3888 14.902C90.7837 15.3592 90.9292 15.9827 90.8876 16.7517Z" fill="black"/>
<path d="M116.743 15.5878H112.253C111.713 15.5878 111.464 15.7126 111.297 15.8788C111.027 16.1698 110.882 16.8349 110.882 17.1259C110.902 17.5831 111.297 17.8533 112.025 17.8533H115.205C114.768 20.0772 113.355 21.6152 110.923 21.6152C108.367 21.6152 106.662 19.994 106.559 17.2298C106.434 13.7589 108.741 10.8907 112.004 10.8907C113.916 10.8907 115.412 11.9091 116.015 13.2601C116.098 13.364 117.865 13.364 117.803 11.8468C117.782 11.3064 117.47 10.6621 116.888 10.1217C115.953 9.18642 114.186 8.37585 111.838 8.37585C108.554 8.37585 105.956 10.184 104.605 12.8028C104.605 12.782 104.584 12.782 104.584 12.782C104.314 12.4287 103.877 12.2624 103.441 12.2624C102.714 12.2624 102.236 12.4911 101.529 13.7381L98.0372 19.8693L96.7278 13.7589C96.4784 12.6158 96.0627 12.2624 95.3353 12.2624C94.4832 12.2624 93.7973 12.8859 93.8181 13.0314L96.3121 22.9038L93.7349 27.1437C93.4647 27.6009 93.444 28.2036 94.4208 28.2036H94.9612C95.9796 28.2036 96.3121 27.5801 96.8109 26.728L103.836 14.8396C103.628 15.671 103.524 16.5647 103.566 17.4792C103.69 21.4697 106.392 23.8806 110.341 23.8806C112.212 23.8806 113.708 23.174 114.54 22.0932C114.477 23.2571 115.101 23.7143 115.932 23.7143C116.389 23.7143 116.722 23.5688 116.722 23.4857L117.865 17.0843C118.052 16.0867 117.678 15.5878 116.743 15.5878Z" fill="black"/>
<path d="M162.654 22.4465C162.737 22.592 162.8 22.6543 162.904 22.6543C162.904 22.6543 162.924 22.8206 162.717 22.8206C162.592 22.8206 162.509 22.7583 162.384 22.5296L162.155 22.114H161.948L161.844 22.6959C161.823 22.779 161.781 22.8206 161.698 22.8206H161.657C161.573 22.8206 161.532 22.779 161.553 22.6751L161.844 21.1787C161.864 21.0748 161.927 21.0332 162.031 21.0332H162.467C162.862 21.0332 163.091 21.1995 163.091 21.4904C163.091 21.8438 162.862 22.0724 162.467 22.0932L162.654 22.4465ZM162.384 21.8853C162.654 21.8853 162.8 21.7399 162.779 21.5112C162.779 21.345 162.654 21.241 162.426 21.241H162.114L161.989 21.8646H162.384V21.8853Z" fill="black"/>
<path d="M162.322 20.5552C163.132 20.5552 163.777 21.2203 163.777 22.0101C163.777 22.8206 163.111 23.4649 162.322 23.4649C161.511 23.4649 160.867 22.7998 160.867 22.0101C160.846 21.2203 161.511 20.5552 162.322 20.5552ZM162.322 20.3058C161.386 20.3058 160.617 21.0748 160.617 22.0101C160.617 22.9453 161.386 23.7143 162.322 23.7143C163.257 23.7143 164.026 22.9453 164.026 22.0101C164.026 21.0748 163.257 20.3058 162.322 20.3058Z" fill="black"/>
<path d="M17.6454 33.9816C26.7479 33.9816 34.127 26.6026 34.127 17.5C34.127 8.39749 26.7479 1.01843 17.6454 1.01843C8.54288 1.01843 1.16382 8.39749 1.16382 17.5C1.16382 26.6026 8.54288 33.9816 17.6454 33.9816Z" fill="white"/>
<path d="M34.127 17.5C34.127 26.6033 26.7487 33.9816 17.6454 33.9816C8.54209 33.9816 1.16382 26.6033 1.16382 17.5C1.16382 14.9852 1.72498 12.6158 2.72261 10.4959C2.05752 12.1794 1.74577 13.8628 1.74577 15.4216C1.74577 22.883 7.77308 23.9638 10.3295 23.943C14.2369 23.9014 18.7885 21.9893 22.6335 18.4561C22.6335 18.4561 22.1347 21.2411 21.9892 22.0933C21.8438 22.9246 22.3841 23.652 23.2155 23.652H23.548C24.4002 23.652 25.0237 22.9454 25.1692 22.0933L26.5617 14.3201C26.728 13.4472 26.1668 12.7613 25.2939 12.7613H17.5207C16.6478 12.7613 15.858 13.2186 15.7125 14.0915C15.7125 14.133 15.6502 14.3824 15.6502 14.4448C15.5255 15.2762 16.1074 15.8997 16.9388 15.8997H20.9916C20.9293 15.962 20.8669 16.0244 20.8046 16.0867C17.9987 18.7263 14.5278 20.1811 11.6597 20.1811C8.81228 20.1811 5.61156 18.3729 5.61156 14.3201C5.61156 5.90264 13.5094 1.01843 17.6454 1.01843C26.728 1.01843 34.127 8.3967 34.127 17.5Z" fill="#DF2127"/>
</svg>
