<?xml version="1.0" encoding="UTF-8"?>
<svg id="Layer_1" data-name="Layer 1" xmlns="http://www.w3.org/2000/svg" viewBox="0 0 157 157">
  <defs>
    <style>
      .cls-1 {
        fill: #1043fa;
      }
    </style>
  </defs>
  <path class="cls-1" d="M98.24,145.82v-6.45l7.57-7.57c6.02-6.01,9.33-14.02,9.33-22.54v-27.97h15.97c7.01,0,12.71-5.73,12.71-12.76V20.77c0-7.04-5.7-12.77-12.71-12.77H25.88c-7.01,0-12.71,5.73-12.71,12.77v47.77c0,7.04,5.7,12.76,12.71,12.76h15.97v64.52c0,1.75,1.43,3.18,3.18,3.18s3.18-1.43,3.18-3.18v-64.52h34.5l-2.37,3.19c-3.29,4.43-5.02,9.61-5.02,14.98,0,1.75,1.43,3.18,3.18,3.18s3.18-1.43,3.18-3.18c0-8.52,5.83-16.03,14.17-18.27,1.36-.42,2.4-1.78,2.39-3.19v-10.56c0-2.91,2.37-5.27,5.28-5.27s5.27,2.36,5.27,5.27v10.85s0,30.97,0,30.97c0,6.82-2.65,13.23-7.47,18.04l-8.51,8.5c-.6.6-.93,1.4-.93,2.25v7.76c0,1.75,1.43,3.18,3.18,3.18s3.18-1.43,3.18-3.18ZM103.52,55.82c-6.42,0-11.63,5.22-11.63,11.63v7.5H25.88c-3.5,0-6.35-2.87-6.35-6.41V20.77c0-3.59,2.79-6.41,6.35-6.41h105.24c3.56,0,6.35,2.82,6.35,6.41v47.77c0,3.53-2.85,6.41-6.35,6.41h-15.97v-7.5c0-6.41-5.22-11.63-11.63-11.63Z"/>
  <path class="cls-1" d="M78.5,28.01c-9.18,0-16.64,7.46-16.64,16.64s7.46,16.65,16.64,16.65,16.64-7.47,16.64-16.65-7.46-16.64-16.64-16.64ZM78.5,54.94c-5.67,0-10.28-4.62-10.28-10.29s4.61-10.28,10.28-10.28,10.28,4.61,10.28,10.28-4.61,10.29-10.28,10.29Z"/>
  <path class="cls-1" d="M45.03,41.47h-9.56c-1.75,0-3.18,1.43-3.18,3.18s1.43,3.18,3.18,3.18h9.56c1.75,0,3.18-1.43,3.18-3.18s-1.43-3.18-3.18-3.18Z"/>
  <path class="cls-1" d="M121.53,41.47h-9.56c-1.75,0-3.18,1.43-3.18,3.18s1.43,3.18,3.18,3.18h9.56c1.75,0,3.18-1.43,3.18-3.18s-1.43-3.18-3.18-3.18Z"/>
</svg>