<?xml version="1.0" encoding="UTF-8"?>
<svg id="Layer_1" data-name="Layer 1" xmlns="http://www.w3.org/2000/svg" viewBox="0 0 157 157">
  <defs>
    <style>
      .cls-1 {
        fill: #1043fa;
      }
    </style>
  </defs>
  <path class="cls-1" d="M94.99,11.04c-11.34,0-22.07,3.65-31.03,10.55-8.04,6.19-14.21,14.91-17.36,24.54l-.16.49-.49.16c-20.98,6.88-35.07,26.31-35.07,48.37,0,28.06,22.83,50.89,50.89,50.89,22.05,0,41.49-14.1,48.37-35.07l.16-.49.49-.16c9.63-3.15,18.35-9.32,24.54-17.36,6.9-8.96,10.55-19.69,10.55-31.03,0-28.06-22.83-50.89-50.89-50.89ZM61.76,140.02c-24.74,0-44.87-20.13-44.87-44.87s20.13-44.87,44.87-44.87,44.87,20.13,44.87,44.87-20.13,44.87-44.87,44.87ZM111.42,84.03c-4.22-18.83-19.07-33.9-37.85-38.38l-1.61-.39,1.06-1.27c5.45-6.52,13.45-10.25,21.96-10.25,15.79,0,28.64,12.85,28.64,28.64,0,8.68-3.85,16.78-10.56,22.22l-1.29,1.04-.36-1.62ZM130.56,89.28c-4.42,5.74-10.26,10.39-16.88,13.44l-1.68.78.23-1.84c.27-2.15.41-4.34.41-6.5,0-.77-.02-1.53-.05-2.29l-.03-.61.52-.32c10.37-6.34,16.56-17.39,16.56-29.56,0-19.11-15.55-34.66-34.65-34.66-11.97,0-22.92,6.04-29.31,16.15l-.32.51-.6-.04c-1.03-.06-2.04-.09-2.99-.09-2.17,0-4.36.14-6.51.41l-1.84.24.78-1.68c3.05-6.62,7.7-12.45,13.44-16.88,7.9-6.08,17.36-9.3,27.36-9.3,24.74,0,44.87,20.13,44.87,44.87,0,10-3.22,19.46-9.3,27.36Z"/>
  <path class="cls-1" d="M47.04,22.37l-11.22-11.22-4.25,4.25,3.96,3.96h-2.88c-12.15,0-22.03,9.88-22.03,22.03v8.2h6.02v-8.2c0-8.83,7.19-16.02,16.02-16.02h2.88l-3.96,3.96,4.25,4.25,11.22-11.22Z"/>
  <path class="cls-1" d="M146.39,107.4h-6.02v8.2c0,8.83-7.19,16.02-16.02,16.02h-2.88l3.96-3.96-4.25-4.25-11.22,11.22,11.22,11.22,4.25-4.25-3.96-3.96h2.88c12.15,0,22.03-9.88,22.03-22.03v-8.2Z"/>
  <path class="cls-1" d="M80.35,102.98c0-2.42-.86-4.77-2.42-6.62l-.56-.66.56-.66c1.56-1.85,2.42-4.21,2.42-6.62,0-5.38-4.2-9.89-9.57-10.26l-.96-.07v-6.41h-6.02v6.45h-9.05v-6.45h-6.02v6.45h-6.73v6.02h6.73v23.12h-6.73v6.01h6.73v6.45h6.02v-6.45h9.05v6.45h6.02v-6.41l.96-.07c5.36-.38,9.57-4.88,9.57-10.26ZM70.06,107.25h-15.29v-8.55h15.29c2.36,0,4.28,1.92,4.28,4.28s-1.92,4.28-4.28,4.28ZM70.06,92.68h-15.29v-8.55h15.29c2.36,0,4.28,1.92,4.28,4.28s-1.92,4.28-4.28,4.28Z"/>
</svg>