<?xml version="1.0" encoding="UTF-8"?>
<svg id="Layer_1" data-name="Layer 1" xmlns="http://www.w3.org/2000/svg" viewBox="0 0 157 157">
  <defs>
    <style>
      .cls-1 {
        fill: #1043fa;
      }
    </style>
  </defs>
  <path class="cls-1" d="M126.07,77.11c-1.08-10.13-5.14-22.05-11.45-33.55h0c-6.39-11.69-14.66-21.98-22.69-28.24-5.97-4.66-14.67-9.35-22.18-5.23-3.77,2.08-6.21,5.81-7.24,11.1-.59,3.05-1.71,5.9-3.41,8.71-13.14,21.65-21.83,32.44-41.62,43.28-5.1,2.66-8.9,7.27-10.48,12.66-1.67,5.72-.79,11.9,2.44,16.95,3.74,5.87,10.26,9.37,17.46,9.37.83,0,1.72-.06,2.65-.17l2.29-.28,4.97,24.45c.81,4.03,3.15,7.5,6.59,9.78,3.38,2.24,7.6,3.06,11.59,2.26,8.31-1.71,13.7-9.85,12-18.14l-4.7-23.22q-1.11-5.46-.35-6.38l.57-.69.88-.18c9.83-1.97,20.25-2.18,32.87-1.89,3.53.06,6.43.59,9.12,1.67,5.09,2.04,9.69,2.02,13.3.03,5.94-3.26,8.57-11.17,7.41-22.3ZM59.1,137.86c-1.27,1.93-3.21,3.24-5.46,3.7-.58.12-1.17.18-1.75.18-1.67,0-3.31-.49-4.73-1.43-1.93-1.28-3.25-3.23-3.7-5.49l-5.25-25.79,1.67-.87c4.12-2.15,7.97-3.88,11.78-5.26l2.73-.99,5.97,29.51c.46,2.23.02,4.53-1.25,6.45ZM86.62,90.84c-18.81.13-33.43,2.25-52.49,12.71h0c-2.3,1.25-4.78,1.85-7.22,1.85-4.69,0-9.18-2.22-11.77-6.25-2.2-3.48-2.78-7.53-1.63-11.42,1.04-3.54,3.38-6.35,7.15-8.58,19.14-10.48,28.8-21.65,39.03-37.42l3.07-4.73,1.44,5.46c2.01,7.63,5.32,15.75,9.57,23.5,4.28,7.79,9.35,14.94,14.66,20.7l3.84,4.16-5.66.04ZM113.13,94.41c-.31.04-.62.06-.94.06-3.83,0-8.16-3.01-11.95-6.03l-.12-.1c-7.27-5.78-14.51-14.9-20.39-25.67-6.83-12.46-10.79-25.25-10.88-35.08v-.19c-.03-3.03-.08-7.6,2.57-10.27,1.19-1.2,2.78-1.83,4.6-1.83,3.95,0,9.35,2.98,15.21,8.39,4.45,4.11,11.1,11.46,17.47,23.12,5.9,10.77,9.68,21.78,10.63,31.01.7,6.61-.13,11.69-2.35,14.32-.95,1.27-2.27,2.05-3.84,2.27Z"/>
  <path class="cls-1" d="M136.53,42.82c.54-.33,1.06-.64,1.56-.92.8-.44,1.37-1.15,1.63-2.02.25-.87.15-1.78-.28-2.58h0c-.61-1.12-1.78-1.76-2.98-1.76-.55,0-1.11.13-1.62.42l-4.44,2.44c-1.64.9-2.24,2.96-1.34,4.6.59,1.08,1.73,1.76,2.97,1.76,1.3,0,3-1.03,4.5-1.94Z"/>
  <path class="cls-1" d="M121.82,26.18h0c.85.25,1.75.14,2.56-.3.81-.44,1.39-1.15,1.64-2l1.42-4.87c.25-.87.16-1.78-.28-2.58-.43-.79-1.15-1.37-2.02-1.62-.31-.09-.63-.14-.95-.14-1.47,0-2.82.96-3.26,2.44l-1.42,4.86c-.25.87-.15,1.78.28,2.58.43.79,1.15,1.37,2.02,1.62Z"/>
  <path class="cls-1" d="M148.4,57.26h0l-4.87-1.42c-.32-.09-.64-.14-.96-.14-.56,0-1.11.14-1.61.41-.79.44-1.37,1.15-1.63,2.02-.52,1.79.51,3.68,2.3,4.2.59.17,1.21.38,1.83.59,1.39.47,2.82.96,3.99.96,1.49,0,2.83-1,3.25-2.44.26-.87.16-1.79-.28-2.58-.43-.79-1.15-1.37-2.02-1.62Z"/>
</svg>