<svg width="161" height="36" viewBox="0 0 161 36" fill="none" xmlns="http://www.w3.org/2000/svg">
<g clip-path="url(#clip0_141_119)">
<path d="M94.9497 9.57225C93.5971 9.57225 92.5566 10.6127 92.5566 12.0694C92.5566 13.2139 93.285 13.8382 94.4295 13.8382C95.7821 13.8382 96.8225 12.7977 96.8225 11.341C96.8225 10.3006 96.1983 9.57225 94.9497 9.57225ZM90.6838 10.1965C90.6838 10.0925 90.5798 10.0925 90.4757 10.0925H87.4584C87.3543 10.0925 87.2503 10.1965 87.1462 10.3006C87.1462 10.3006 86.0017 16.1272 85.8977 16.4393C85.1694 15.0867 83.6087 14.2543 81.8399 14.2543C78.1983 14.2543 75.4931 17.1676 75.4931 21.2254C75.4931 24.5549 77.4699 26.8439 80.4873 26.8439C81.9439 26.8439 83.1925 26.2197 84.1289 25.1792C84.0248 25.4913 84.0249 25.8035 83.9208 26.1156C83.9208 26.2197 83.9208 26.3237 84.0248 26.3237C84.0248 26.4277 84.1289 26.4277 84.2329 26.4277H87.2503C87.3543 26.4277 87.4584 26.3237 87.5624 26.2197L90.7879 10.3006L90.6838 10.1965ZM84.8572 20.6012C84.7532 21.0173 84.6491 21.4335 84.441 21.7457C84.2329 22.0578 84.0249 22.474 83.7127 22.6821C83.4006 22.9942 83.0884 23.2023 82.7763 23.3064C82.152 23.6185 81.3197 23.6185 80.6954 23.3064C80.3832 23.2023 80.1751 22.9942 79.967 22.7861C79.759 22.578 79.6549 22.2659 79.5509 21.9538C79.4468 21.6416 79.4468 21.3295 79.4468 20.9133C79.4468 20.4971 79.5509 19.9769 79.759 19.5607C79.967 19.1445 80.1751 18.7283 80.4873 18.4162C80.7994 18.104 81.1116 17.896 81.5277 17.6879C81.9439 17.4798 82.3601 17.3757 82.7763 17.3757C83.1925 17.3757 83.5046 17.4798 83.8168 17.5838C84.1289 17.6879 84.337 17.896 84.5451 18.2081C84.7532 18.4162 84.8572 18.7283 84.9613 19.1445C84.9613 19.7688 84.9613 20.185 84.8572 20.6012ZM95.4699 15.6069H92.3485C92.2445 15.6069 92.1405 15.711 92.0364 15.815L89.9555 26.2197C89.9555 26.3237 89.9555 26.3237 90.0595 26.4277C90.1636 26.5318 90.1636 26.5318 90.2676 26.5318H93.389C93.4931 26.5318 93.5971 26.4277 93.7012 26.3237L95.7821 15.9191C95.7821 15.815 95.7821 15.815 95.678 15.711C95.574 15.711 95.4699 15.6069 95.4699 15.6069ZM50.1058 25.5954C50.4179 24.1387 51.0422 21.0173 51.0422 21.0173H54.6838C58.8457 21.0173 61.5509 18.7283 61.5509 15.1908C61.5509 12.0694 59.3659 10.0925 55.7243 10.0925H49.4815C49.3775 10.0925 49.2734 10.1965 49.1694 10.3006L46.048 26.1156C46.048 26.2197 46.048 26.3237 46.152 26.3237C46.152 26.4277 46.2561 26.4277 46.3601 26.4277H49.1694C49.0653 26.5318 49.8977 26.5318 50.1058 25.5954ZM54.7879 17.5838H51.6665C51.6665 17.4798 52.4988 13.6301 52.4988 13.422H55.4121C56.7647 13.422 57.5971 14.0462 57.5971 15.1908C57.4931 16.7514 56.5566 17.5838 54.7879 17.5838ZM118.568 14.3584C114.51 14.3584 111.493 17.2717 111.493 21.3295C111.493 24.763 113.886 26.948 117.528 26.948C121.586 26.948 124.603 24.0347 124.603 19.9769C124.499 16.5434 122.21 14.3584 118.568 14.3584ZM117.736 23.4104C116.175 23.4104 115.239 22.578 115.239 21.1214C115.239 19.2486 116.487 18 118.256 18C119.817 18 120.753 18.8324 120.753 20.289C120.753 22.0578 119.505 23.4104 117.736 23.4104ZM111.909 10.1965C111.909 10.0925 111.805 10.0925 111.701 10.0925H108.684C108.58 10.0925 108.476 10.1965 108.372 10.3006C108.372 10.3006 107.227 16.1272 107.123 16.4393C106.395 15.0867 104.834 14.2543 103.065 14.2543C99.4237 14.2543 96.7185 17.1676 96.7185 21.2254C96.7185 24.5549 98.6954 26.8439 101.713 26.8439C103.169 26.8439 104.418 26.2197 105.354 25.1792C105.25 25.4913 105.25 25.8035 105.146 26.1156C105.146 26.2197 105.146 26.3237 105.25 26.3237C105.25 26.4277 105.354 26.4277 105.458 26.4277H108.476C108.58 26.4277 108.684 26.3237 108.788 26.2197L112.013 10.3006C112.013 10.3006 111.909 10.3006 111.909 10.1965ZM106.187 20.6012C106.083 21.0173 105.979 21.4335 105.771 21.7457C105.562 22.0578 105.354 22.474 105.042 22.6821C104.73 22.9942 104.418 23.2023 104.106 23.3064C103.482 23.6185 102.649 23.6185 102.025 23.3064C101.713 23.2023 101.505 22.9942 101.297 22.7861C101.088 22.578 100.984 22.2659 100.88 21.9538C100.776 21.6416 100.776 21.3295 100.776 20.9133C100.776 20.4971 100.88 19.9769 101.088 19.5607C101.297 19.1445 101.505 18.7283 101.817 18.4162C102.129 18.104 102.441 17.896 102.857 17.6879C103.273 17.4798 103.69 17.3757 104.106 17.3757C104.522 17.3757 104.834 17.4798 105.146 17.5838C105.458 17.6879 105.666 17.896 105.875 18.2081C106.083 18.4162 106.187 18.7283 106.291 19.1445C106.187 19.7688 106.187 20.185 106.187 20.6012ZM134.487 15.2948C132.927 14.5665 131.262 14.2543 129.805 14.3584C127.204 14.5665 125.747 16.1272 125.955 18.4162C126.06 19.7688 126.892 20.8092 128.349 21.6416L130.013 22.474C130.638 22.7861 130.742 22.9942 130.742 23.2023C130.742 23.7225 130.221 23.8266 129.909 23.8266C128.869 23.9306 127.62 23.5145 126.268 22.6821H126.06C125.955 22.6821 125.955 22.7861 125.851 22.7861L124.499 25.0751C124.395 25.1792 124.499 25.3873 124.603 25.3873C126.268 26.5318 128.14 27.052 130.013 26.8439C132.927 26.6358 134.383 25.0751 134.175 22.6821C134.071 21.2254 133.343 20.289 131.782 19.4566L130.325 18.7283C129.493 18.2081 129.389 18.104 129.389 17.896C129.389 17.7919 129.389 17.3757 130.221 17.2717C131.054 17.1676 132.094 17.4798 133.135 18H133.343C133.447 18 133.447 17.896 133.447 17.896L134.487 15.5029C134.695 15.5029 134.591 15.2948 134.487 15.2948ZM150.823 10.6127C150.823 10.5087 150.719 10.4046 150.614 10.4046H146.349C146.245 10.4046 146.14 10.4046 146.14 10.5087C146.14 10.5087 141.875 16.5434 141.562 17.0636C141.458 16.5434 139.377 10.6127 139.377 10.6127C139.377 10.5087 139.273 10.4046 139.065 10.4046H135.32C135.216 10.4046 135.112 10.4046 135.112 10.5087C135.008 10.6127 135.008 10.7168 135.112 10.8208L139.065 20.8092L137.921 26.6358C137.921 26.7399 137.921 26.8439 138.025 26.8439C138.129 26.948 138.129 26.948 138.233 26.948H141.25C141.666 26.948 141.979 26.6358 142.083 26.3237L143.123 20.9133L150.927 10.8208C150.823 10.8208 150.823 10.7168 150.823 10.6127ZM159.875 15.0867C159.875 14.9827 159.771 14.9827 159.666 14.9827H156.753C156.649 14.9827 156.545 15.0867 156.545 15.1908C156.545 15.1908 156.441 15.711 156.337 16.1272C155.713 15.2948 154.672 14.8786 153.632 14.7746C152.695 14.6705 151.759 14.8786 150.927 15.1908C148.013 16.3353 146.14 19.1445 146.14 22.2659C146.14 24.9711 147.909 26.8439 150.614 26.948C152.071 27.052 153.32 26.5318 154.464 25.5954C154.36 25.9075 154.36 26.2197 154.256 26.5318C154.256 26.6358 154.256 26.6358 154.36 26.7399C154.36 26.8439 154.464 26.8439 154.568 26.8439H157.482C157.586 26.8439 157.69 26.7399 157.69 26.6358L159.979 15.2948C159.875 15.2948 159.875 15.1908 159.875 15.0867ZM155.297 20.9133C155.192 21.3295 155.088 21.7457 154.88 22.0578C154.672 22.3699 154.464 22.6821 154.152 22.9942L153.216 23.6185C152.591 23.9306 151.759 23.9306 151.239 23.6185C150.927 23.5145 150.718 23.3064 150.51 23.0983C150.302 22.8902 150.198 22.6821 150.094 22.3699C149.99 22.0578 149.99 21.7457 149.99 21.3295C149.99 20.9133 150.094 20.4971 150.302 20.0809C150.51 19.6647 150.718 19.3526 151.031 19.0405C151.343 18.7283 151.655 18.5202 151.967 18.3121C152.383 18.104 152.695 18.104 153.112 18.104C153.424 18.104 153.84 18.2081 154.048 18.3121C154.36 18.4162 154.568 18.6243 154.776 18.8324C154.984 19.0405 155.088 19.3526 155.192 19.7688C155.401 20.0809 155.401 20.4971 155.297 20.9133ZM68.7301 14.3584C64.6723 14.3584 61.759 17.2717 61.759 21.3295C61.759 24.763 64.152 26.948 67.8977 26.948C69.5624 26.948 71.0191 26.5318 72.4757 25.4913C72.5798 25.3873 72.5798 25.1792 72.4757 25.0751L70.6029 23.2023C70.4988 23.0983 70.3948 23.0983 70.2907 23.2023C69.4584 23.6185 68.7301 23.8266 67.8977 23.8266C66.1289 23.8266 65.1925 22.9942 65.1925 21.6416H73.6202C73.7243 21.6416 73.8283 21.5376 73.9324 21.4335C74.1405 20.6012 74.2445 19.9769 74.2445 19.2486C74.1405 16.2312 72.0595 14.3584 68.7301 14.3584ZM65.6087 19.0405C66.1289 17.6879 67.1694 17.0636 68.626 17.0636C70.1867 17.0636 70.915 17.7919 70.915 19.1445C70.7069 19.0405 65.8168 19.0405 65.6087 19.0405ZM25.0306 0H0.787852C0.371667 0 0.163574 0.208092 0.163574 0.624277V4.0578C0.163574 7.90752 2.86878 9.98844 7.75895 9.98844H25.1347C27.0075 9.98844 28.4642 11.4451 28.4642 13.3179C28.4642 15.1908 27.0075 16.6474 25.1347 16.6474H5.57398C5.26184 16.6474 5.05375 16.8555 4.9497 17.0636L0.475713 35.2717C0.475713 35.4798 0.475713 35.6879 0.579759 35.7919C0.683805 35.896 0.891898 36 1.09999 36H7.23872C9.52774 36 10.6722 34.1272 10.8803 33.0867L12.6491 26.5318H25.0306C32.3139 26.5318 38.3485 20.6012 38.3485 13.2139C38.3485 5.93064 32.4179 0 25.0306 0Z" fill="#ED2F42"/>
</g>
<defs>
<clipPath id="clip0_141_119">
<rect width="160.142" height="36" fill="white"/>
</clipPath>
</defs>
</svg>
