<svg width="100" height="42" viewBox="0 0 100 42" fill="none" xmlns="http://www.w3.org/2000/svg">
<path fill-rule="evenodd" clip-rule="evenodd" d="M77.7011 16.5804C77.5646 17.3211 77.3491 18.1765 77.0599 19.1191C76.7693 20.0618 76.3969 21.0563 75.9577 22.0644C75.4802 23.0807 74.985 24.0315 74.4884 24.8882C73.9973 25.7368 73.5062 26.4666 73.0356 27.0573C72.5759 27.633 72.1489 28.0586 71.7696 28.3233C71.4832 28.5224 71.3235 28.5442 71.269 28.5442C71.2433 28.5442 71.2226 28.5402 71.2007 28.5303C71.1528 28.5087 70.9934 28.4021 70.9238 27.896C70.8583 27.4322 70.894 26.8224 71.0261 26.0844C71.1626 25.3245 71.3768 24.461 71.6673 23.5238C71.9537 22.5866 72.3262 21.5921 72.7723 20.5703C73.2143 19.5567 73.6972 18.6114 74.2101 17.7588C74.7203 16.9075 75.2169 16.1859 75.6875 15.6129C76.1446 15.0536 76.5715 14.6348 76.9562 14.366C77.2441 14.1669 77.4023 14.145 77.4569 14.145C77.4845 14.145 77.5048 14.1491 77.5237 14.159C77.5717 14.1796 77.7311 14.2872 77.802 14.7933C77.866 15.2571 77.8319 15.8574 77.7011 16.5804ZM58.5507 16.5804C58.4142 17.3211 58.1987 18.1765 57.9095 19.1191C57.6176 20.0672 57.2451 21.0604 56.8072 22.0644C56.3284 23.0834 55.8332 24.0343 55.338 24.8882C54.8456 25.7381 54.3558 26.468 53.8852 27.0573C53.4254 27.633 52.9998 28.0586 52.6178 28.3233C52.3314 28.5224 52.1731 28.5442 52.1185 28.5442C52.0928 28.5442 52.0721 28.5402 52.0503 28.5308C52.0023 28.5092 51.843 28.4026 51.7734 27.8965C51.7079 27.434 51.742 26.8256 51.8757 26.0848C52.0107 25.3264 52.2263 24.4656 52.5169 23.5243C52.8033 22.5857 53.1758 21.5926 53.6218 20.5708C54.0652 19.5545 54.5495 18.6091 55.0583 17.7592C55.5712 16.9066 56.0678 16.185 56.5371 15.6134C56.9955 15.0541 57.4238 14.6339 57.8058 14.3665C58.0922 14.1674 58.2519 14.1455 58.3064 14.1455C58.334 14.1455 58.3544 14.1496 58.3732 14.159C58.4212 14.1796 58.582 14.2872 58.6516 14.7933C58.7157 15.2571 58.6815 15.8574 58.5507 16.5804ZM37.8015 16.3894C37.7169 17.1424 37.5532 18.0019 37.3144 18.9459C37.0743 19.8872 36.7469 20.8776 36.339 21.8925C35.9325 22.902 35.5001 23.8515 35.0513 24.7136C34.612 25.5567 34.1686 26.2756 33.7307 26.8513C33.3051 27.4106 32.9054 27.8281 32.5412 28.0914C32.2724 28.2865 32.1223 28.3083 32.0719 28.3083C32.0487 28.3083 32.028 28.3042 32.0064 28.2944C31.9574 28.2727 31.7881 28.162 31.7008 27.6477C31.619 27.1771 31.6121 26.57 31.6776 25.8416C31.7458 25.1022 31.9 24.2523 32.1373 23.3165C32.3747 22.3793 32.7034 21.3875 33.1127 20.3698C33.5246 19.3467 33.9585 18.3986 34.4018 17.5473C34.8384 16.7056 35.2831 15.9785 35.7237 15.3851C36.1466 14.8122 36.5477 14.3893 36.9106 14.126C37.1793 13.9309 37.3294 13.9091 37.3812 13.9091C37.4044 13.9091 37.425 13.9131 37.4439 13.923C37.4958 13.9446 37.6717 14.0594 37.7795 14.5805C37.875 15.0443 37.883 15.6514 37.8015 16.3894ZM79.7583 10.1333C80.761 10.1333 81.6231 10.4402 82.3216 11.0473C82.9955 11.6325 83.477 12.4687 83.7512 13.5314C84.0173 14.5614 84.0719 15.8069 83.9149 17.2352C83.758 18.6458 83.3461 20.2555 82.6872 22.0194C82.0665 23.6864 81.3544 25.1529 80.5741 26.3766C80.1962 26.9714 79.8074 27.5279 79.4131 28.0422C79.3626 28.1077 79.4381 28.1937 79.51 28.1541C79.7392 28.03 79.967 27.8949 80.1921 27.7476C80.705 27.4161 81.1975 27.0587 81.6654 26.6808C82.9709 25.6235 83.919 24.1939 84.3801 22.5869C84.6557 21.6197 84.9612 20.6607 85.2941 19.7153C85.8398 18.1587 86.4223 16.7059 87.0266 15.3963C87.6269 14.0908 88.1261 13.114 88.5108 12.4906C88.9474 11.7812 89.5585 11.3392 90.332 11.1755C91.055 11.0227 91.7467 11.0336 92.3824 11.2054C93.0331 11.3828 93.5651 11.7047 93.9621 12.1658C94.3945 12.6692 94.4887 13.2421 94.2322 13.8233C94.1559 14.0238 93.9553 14.4822 93.6361 15.1874C93.3155 15.8968 92.9554 16.7249 92.5366 17.7235C92.1341 18.6825 91.7208 19.7206 91.3088 20.8065C90.9064 21.8733 90.5912 22.8692 90.373 23.7668C90.1602 24.6399 90.077 25.3656 90.1247 25.9236C90.1711 26.4569 90.3744 26.4569 90.4848 26.4569C90.6403 26.4569 90.9159 26.3833 91.3443 26.0341C91.7562 25.693 92.1914 25.2824 92.6402 24.8077C93.0891 24.3316 93.5201 23.8186 93.9185 23.2839C94.2827 22.7968 94.5951 22.3658 94.8489 22.0015C95.0698 21.6837 95.4218 21.5022 95.8133 21.5022C96.2267 21.5022 96.6277 21.7096 96.8365 22.0302C97.0397 22.3439 97.0343 22.7177 96.8187 23.0533C96.5486 23.4749 96.0766 24.1815 95.3754 25.2169C94.681 26.24 93.8502 27.2945 92.9062 28.3532C91.9459 29.4268 90.8968 30.3803 89.785 31.1866C88.6159 32.0364 87.4345 32.4662 86.2763 32.4662C85.2286 32.4662 84.4469 32.1033 83.9517 31.3857C83.5017 30.7309 83.2725 29.8524 83.2725 28.7747V28.6028C83.2752 28.4746 83.1251 28.4023 83.0256 28.4828C82.8059 28.6587 82.5795 28.8334 82.3489 29.0052C80.9873 30.0188 79.4157 30.8783 77.675 31.5617C76.1212 32.1729 74.4092 32.4825 72.5866 32.4825L72.2156 32.4785L71.8432 32.4661C70.6018 32.4633 69.6809 32.0745 69.1039 31.3065C69.0016 31.1715 68.9074 31.0323 68.8242 30.8891C68.7574 30.7745 68.5841 30.7936 68.546 30.9215C68.3591 31.545 68.1818 32.1466 68.018 32.7223C67.6633 33.9596 67.3605 35.0305 67.0945 35.9963C66.8271 36.9649 66.5952 37.8475 66.4042 38.6237C66.22 39.3713 66.0918 39.977 66.0263 40.4258L66.0222 40.4424C65.8544 41.2923 65.28 41.5911 64.8258 41.6934C64.6239 41.7382 64.4138 41.7616 64.201 41.7616C63.8163 41.7616 63.4098 41.6866 62.9937 41.5406C62.3607 41.3169 61.7918 40.9308 61.3007 40.392C60.7919 39.8327 60.5341 39.1328 60.5341 38.3116C60.5341 38.1452 60.5763 37.7809 60.9024 36.4399C61.1466 35.4509 61.4754 34.2204 61.8833 32.7812C62.1589 31.8058 62.4726 30.7445 62.8205 29.6095C62.8612 29.4731 62.7059 29.3598 62.5886 29.4403C61.3758 30.2657 60.0157 30.9791 58.5315 31.5616C56.9763 32.1728 55.2656 32.4824 53.4431 32.4824C53.1975 32.4824 52.9465 32.4768 52.6982 32.4659C51.4582 32.4632 50.5374 32.0744 49.959 31.3064C49.8567 31.1713 49.7639 31.0335 49.6807 30.889C49.6125 30.7743 49.4406 30.7948 49.4024 30.9214C49.2141 31.5462 49.0368 32.1492 48.8731 32.7221C48.517 33.9635 48.2142 35.0358 47.9509 35.9962C47.6835 36.9647 47.4503 37.8474 47.2593 38.6236C47.0751 39.3725 46.9482 39.9782 46.8814 40.4257L46.8787 40.4423C46.7109 41.2922 46.1352 41.5909 45.6809 41.6932C45.479 41.7381 45.2703 41.7614 45.0575 41.7614C44.6728 41.7614 44.2663 41.6864 43.8488 41.5404C43.2158 41.3168 42.6483 40.9307 42.1572 40.3918C41.6484 39.8325 41.3906 39.1327 41.3906 38.3114C41.3906 38.1437 41.4313 37.7794 41.7589 36.4398C42.0045 35.4412 42.3332 34.2107 42.7384 32.7811C42.9785 31.9312 43.2445 31.0253 43.5433 30.0472C43.5871 29.8999 43.4068 29.788 43.2923 29.8931C42.7834 30.3569 42.2596 30.7893 41.7221 31.1849C40.5694 32.0348 39.3962 32.4659 38.2366 32.4659C37.1889 32.4659 36.4059 32.103 35.912 31.3855C35.7129 31.0961 35.5574 30.7619 35.4442 30.3867C35.3447 30.0525 34.9163 29.9502 34.6735 30.2026C34.3324 30.5572 33.9573 30.8806 33.5548 31.1657C33.031 31.5367 32.4457 31.8478 31.8128 32.0906C31.1607 32.3388 30.4554 32.4657 29.716 32.4657C28.7161 32.4657 27.8389 32.1615 27.1104 31.5599C26.4011 30.9788 25.8758 30.1548 25.5471 29.1085C25.2279 28.0949 25.1105 26.8494 25.1979 25.4047C25.2852 23.9778 25.6098 22.3763 26.1637 20.6424C27.3437 17.0464 28.8825 14.3767 30.7392 12.7028C32.6299 10.9976 34.548 10.1327 36.4401 10.1327C37.2409 10.1327 37.9189 10.2937 38.4523 10.6102C38.9775 10.9239 39.3826 11.3386 39.6568 11.8434C39.8396 12.1831 39.9733 12.5473 40.0552 12.9347C40.0699 13.0029 40.1629 13.0166 40.1971 12.9554C40.2926 12.7835 40.384 12.6294 40.4699 12.4888C40.9065 11.7822 41.5094 11.3402 42.2638 11.1751C42.9691 11.0223 43.6594 11.0319 44.3128 11.204C44.9826 11.3813 45.5242 11.7046 45.9225 12.1657C46.355 12.6691 46.4491 13.2421 46.1913 13.8232C46.1162 14.021 45.9225 14.4684 45.5965 15.1874C45.2786 15.8913 44.9076 16.7439 44.4969 17.7234C44.0904 18.6933 43.6771 19.7314 43.2692 20.8064C42.8654 21.8732 42.5503 22.8704 42.3334 23.7667C42.1206 24.6411 42.0373 25.3669 42.0851 25.9235C42.1315 26.4569 42.3348 26.4569 42.4439 26.4569C42.6009 26.4569 42.8764 26.3832 43.3034 26.034C43.5394 25.8389 43.7849 25.6193 44.0359 25.3778C45.0086 24.4406 45.6607 23.4175 46.0958 22.1447C46.6742 20.4558 47.2827 18.7888 47.9075 17.1818C48.5746 15.4725 49.2253 13.9378 49.8419 12.62C50.1638 11.9379 50.674 11.4782 51.3534 11.2572C51.9905 11.0498 52.6439 11.0062 53.2864 11.1276C53.9276 11.2504 54.4896 11.5055 54.9562 11.8875C55.1635 12.0566 55.3286 12.2394 55.4514 12.4318C55.4839 12.4836 55.5223 12.489 55.5673 12.4467C56.1185 11.9379 56.7269 11.4713 57.3831 11.0553C58.3434 10.4427 59.4307 10.1331 60.6148 10.1331C61.6161 10.1331 62.4796 10.44 63.1767 11.0471C63.852 11.6337 64.3336 12.4686 64.6078 13.5313C64.8738 14.5598 64.9284 15.8067 64.7714 17.235C64.6145 18.6442 64.2012 20.2553 63.5437 22.0192C62.9216 23.6876 62.2095 25.1541 61.4292 26.3764C61.0513 26.9712 60.6625 27.5278 60.2683 28.042C60.2177 28.1075 60.294 28.1935 60.3665 28.1539C60.5943 28.0298 60.8222 27.8947 61.0486 27.7474C61.4156 27.51 61.7716 27.259 62.1154 26.9971C63.4223 26.004 64.3977 24.6452 64.9174 23.0983L65.122 22.4939C65.7359 20.6796 66.3853 18.8925 67.051 17.1818C67.7194 15.4698 68.3702 13.935 68.9868 12.62C69.3074 11.9379 69.8162 11.4795 70.4983 11.2572C71.1354 11.0498 71.7888 11.0062 72.4313 11.1276C73.0725 11.2504 73.6332 11.5055 74.0997 11.8861C74.3071 12.0566 74.4721 12.2394 74.5949 12.4318C74.6278 12.4836 74.6658 12.489 74.7109 12.4467C75.262 11.9379 75.8704 11.4713 76.5266 11.0553C77.4883 10.4427 78.5755 10.1333 79.7583 10.1333ZM17.0141 1.63579C18.452 1.63579 19.8926 1.80222 21.2977 2.12823C22.7123 2.45837 23.996 2.96038 25.1106 3.62065C26.2387 4.2891 27.165 5.12806 27.8635 6.11437C28.5756 7.1184 28.9357 8.29569 28.9357 9.61349C28.9357 11.0322 28.6192 12.3637 27.9944 13.5696C27.3751 14.7633 26.5225 15.8533 25.4625 16.8095C24.4121 17.759 23.1666 18.5966 21.7601 19.2978C20.6006 19.8762 19.3687 20.3701 18.0891 20.767C18.0072 20.7928 17.9786 20.8353 17.9827 20.9171C18.01 21.5446 18.055 22.1653 18.1191 22.7628C18.1914 23.449 18.2869 24.1174 18.4043 24.7518C18.5188 25.3752 18.658 25.9823 18.8149 26.5566C18.9376 27.0013 19.0741 27.4338 19.22 27.8444C19.3128 28.1063 19.411 28.3628 19.5106 28.6029C19.7111 29.0872 19.9322 29.551 20.1668 29.9807C20.3973 30.4036 20.647 30.8047 20.9089 31.173C21.164 31.5318 21.4382 31.8687 21.7233 32.177C22.0016 32.4772 22.2963 32.7527 22.5991 32.9983C22.8938 33.237 23.2048 33.4539 23.5227 33.6394C23.8323 33.8222 24.157 33.9805 24.4885 34.1115C24.8146 34.2397 25.1515 34.3434 25.4912 34.4184C25.8323 34.4934 26.1828 34.5412 26.5375 34.5644C26.8909 34.586 27.2592 34.5819 27.6261 34.5494C27.9999 34.5169 28.3819 34.4566 28.7611 34.368C29.1499 34.2779 29.5455 34.1592 29.9398 34.0133C30.3436 33.8632 30.7515 33.6804 31.1539 33.4744C31.3081 33.3953 31.4636 33.3107 31.6177 33.2234C32.1198 32.937 32.7609 33.0734 33.0979 33.5372C33.4362 34.001 33.3612 34.6422 32.9246 35.0187C32.7105 35.2028 32.4949 35.3829 32.2821 35.5548C31.7651 35.9722 31.2467 36.3597 30.7406 36.7048C30.2604 37.0322 29.772 37.3378 29.2891 37.6093C29.0476 37.7457 28.7939 37.8794 28.5361 38.0076C28.0409 38.2558 27.5402 38.4742 27.045 38.6569C26.5526 38.8384 26.0573 38.9898 25.5744 39.1044C25.0929 39.219 24.6072 39.3022 24.1339 39.3499C23.7955 39.384 23.4572 39.4018 23.1271 39.4018C22.9934 39.4018 22.8597 39.399 22.726 39.3923C22.2676 39.373 21.812 39.32 21.37 39.2341C21.1518 39.1918 20.9307 39.1399 20.7152 39.0799C20.5065 39.0239 20.2923 38.9571 20.0781 38.8794C19.6675 38.7322 19.2596 38.5507 18.8695 38.3393C18.4875 38.132 18.111 37.8932 17.7536 37.6286C17.4644 37.4144 17.1806 37.1784 16.9119 36.9288C16.5885 36.6286 16.2734 36.2944 15.9747 35.9397C15.68 35.5891 15.3976 35.2099 15.1357 34.8129C14.8724 34.4173 14.6241 33.9944 14.3949 33.5579C14.1671 33.1213 13.9502 32.6575 13.7538 32.1801C13.5587 31.7067 13.3772 31.2047 13.2122 30.6849C13.0498 30.1747 12.9012 29.6345 12.7702 29.0779C12.6406 28.5227 12.5273 27.947 12.4332 27.3659C12.3487 26.8515 12.2777 26.3182 12.2218 25.7766C12.2053 25.6129 11.9694 25.5911 11.9217 25.7508C11.717 26.4574 11.5315 27.1423 11.3678 27.7971C11.1618 28.6183 10.9722 29.3659 10.8003 30.037C10.6325 30.6946 10.5138 31.2239 10.4456 31.61C10.3092 32.2948 9.85493 32.7272 9.12645 32.8677C8.5003 32.9905 7.82775 32.9387 7.13475 32.7177C6.44993 32.4981 5.82786 32.1175 5.28355 31.5841C4.71333 31.0247 4.42412 30.3222 4.42412 29.4941C4.42412 28.8202 4.59602 27.7548 4.94797 26.2392C5.29172 24.7591 5.78694 23.0047 6.42265 21.0226C7.0529 19.0568 7.8182 16.8891 8.69537 14.5836C9.4484 12.6028 10.2942 10.6084 11.2109 8.64126C11.5111 7.99737 12.1317 7.55401 12.8479 7.47216C14.4672 7.28665 15.8723 7.333 17.0633 7.60859C17.7808 7.77502 18.1655 8.54305 17.8654 9.20468C17.0974 10.8935 16.3894 12.5783 15.7564 14.218C15.2448 15.5454 14.7537 16.8591 14.2899 18.1373C14.245 18.2642 14.3758 18.3815 14.4986 18.3256C15.1166 18.0459 15.7264 17.7158 16.3225 17.3393C17.2993 16.7213 18.1887 15.9833 18.9677 15.147C19.7425 14.3108 20.3782 13.3681 20.857 12.3436C21.3291 11.3287 21.5691 10.2264 21.5691 9.06415C21.5691 7.57038 21.149 6.46676 20.3209 5.78603C19.4819 5.09712 18.3006 4.74652 16.8082 4.74652C15.2189 4.74652 13.766 5.1176 12.4905 5.85014C11.1809 6.60045 10.0486 7.52263 9.12509 8.59215C8.19471 9.66985 7.46078 10.8212 6.94649 12.0149C6.4363 13.1976 6.17709 14.2344 6.17709 15.0979C6.17709 15.7159 5.84561 16.162 5.24399 16.3543C4.71605 16.5235 4.13355 16.499 3.53603 16.2793C2.96171 16.0692 2.42968 15.6532 1.95358 15.0447C1.47475 14.4336 1.23193 13.6055 1.23193 12.5838C1.23193 11.6916 1.57568 10.6412 2.28235 9.37247C2.9699 8.13516 3.98758 6.93059 5.30401 5.7915C6.61908 4.65513 8.27793 3.66883 10.2396 2.86124C12.2122 2.04818 14.4918 1.63579 17.0141 1.63579ZM95.2731 0.691772C97.4736 0.691772 99.2565 2.45157 99.2565 4.62061C99.2565 6.78966 97.4736 8.54946 95.2731 8.54946C93.0727 8.54946 91.2897 6.78966 91.2897 4.62061C91.2897 2.45157 93.0727 0.691772 95.2731 0.691772Z" fill="#FF441F"/>
</svg>
