<svg width="77" height="76" viewBox="0 0 77 76" fill="none" xmlns="http://www.w3.org/2000/svg">
<g clip-path="url(#clip0_113_13)">
<path d="M38.2968 18.3213C37.2939 18.3213 36.4808 19.1344 36.4808 20.1373V37.1767L26.6525 42.1247C26.0406 42.4331 25.6545 43.0595 25.6538 43.7448C25.6531 44.7476 26.4656 45.561 27.4683 45.5617C27.7518 45.563 28.0316 45.496 28.2838 45.3666L39.1126 39.9185C39.7255 39.6106 40.1124 38.9835 40.1128 38.2976V20.1373C40.1128 19.1344 39.2999 18.3213 38.2968 18.3213ZM38.297 1.97711C18.2379 1.97711 1.97656 18.2384 1.97656 38.2976C1.97656 58.3567 18.2379 74.618 38.297 74.618C58.3464 74.5945 74.594 58.347 74.6175 38.2976C74.6175 18.2384 58.3562 1.97711 38.297 1.97711ZM38.297 70.986C20.2436 70.986 5.60861 56.3509 5.60861 38.2976C5.60861 20.2442 20.2436 5.60916 38.297 5.60916C56.3422 5.62889 70.9657 20.2524 70.9854 38.2976C70.9854 56.3509 56.3504 70.986 38.297 70.986Z" fill="black"/>
<path d="M38.2974 18.9265V37.6054L25.8447 44.5235" stroke="#2D59F5" stroke-width="4.15088" stroke-linecap="round"/>
</g>
<defs>
<clipPath id="clip0_113_13">
<rect width="77" height="76" fill="white"/>
</clipPath>
</defs>
</svg>
