<svg width="252" height="252" viewBox="0 0 252 252" fill="none" xmlns="http://www.w3.org/2000/svg">
<path d="M212.229 29.75H39.7715C26.3195 29.75 15.375 40.6945 15.375 54.1465V152.861C15.375 166.313 26.3195 177.257 39.7715 177.257H212.236C225.688 177.257 236.632 166.313 236.632 152.861V54.1465C236.632 40.6945 225.688 29.75 212.236 29.75H212.229ZM221.875 152.853C221.875 158.171 217.553 162.5 212.229 162.5H39.7715C34.4541 162.5 30.125 158.178 30.125 152.853V54.1465C30.125 48.8291 34.4468 44.5 39.7715 44.5H212.236C217.553 44.5 221.882 48.8218 221.882 54.1465V152.861L221.875 152.853Z" fill="#1043FA"/>
<path d="M166.784 97.246L107.784 60.371C105.505 58.9402 102.643 58.8665 100.298 60.1792C97.9529 61.4772 96.5 63.9479 96.5 66.6324V140.382C96.5 143.067 97.9529 145.53 100.298 146.835C101.412 147.455 102.643 147.757 103.875 147.757C105.232 147.757 106.589 147.381 107.784 146.636L166.784 109.761C168.937 108.412 170.25 106.052 170.25 103.507C170.25 100.963 168.937 98.5956 166.784 97.246ZM111.25 127.07V79.9295L148.958 103.5L111.25 127.07Z" fill="#1043FA"/>
<path d="M229.25 206.75H198.393C195.34 198.188 187.227 192 177.625 192C168.023 192 159.91 198.188 156.857 206.75H22.75C18.679 206.75 15.375 210.054 15.375 214.125C15.375 218.196 18.679 221.5 22.75 221.5H156.857C159.91 230.062 168.023 236.25 177.625 236.25C187.227 236.25 195.34 230.062 198.393 221.5H229.25C233.321 221.5 236.625 218.196 236.625 214.125C236.625 210.054 233.321 206.75 229.25 206.75ZM177.625 221.5C173.561 221.5 170.25 218.189 170.25 214.125C170.25 210.061 173.561 206.75 177.625 206.75C181.689 206.75 185 210.061 185 214.125C185 218.189 181.689 221.5 177.625 221.5Z" fill="#1043FA"/>
</svg>
