<svg width="53" height="53" viewBox="0 0 53 53" fill="none" xmlns="http://www.w3.org/2000/svg">
<path d="M0 38.6505V14.3612C0 13.4226 0.090464 12.4841 0.27139 11.5568C0.452316 10.6296 0.723705 9.73625 1.08556 8.86554C1.44741 7.99483 1.88842 7.16936 2.40858 6.38911C2.92874 5.60887 3.52806 4.88517 4.19522 4.218C4.86239 3.55084 5.58609 2.95152 6.36633 2.43136C7.16919 1.89989 7.99467 1.45888 8.86537 1.09703C9.73608 0.735178 10.6294 0.463789 11.5566 0.282863C12.4839 0.101937 13.4111 0.0114746 14.361 0.0114746H38.6503C39.5889 0.0114746 40.5274 0.101937 41.4547 0.282863C42.3819 0.463789 43.2752 0.735178 44.1459 1.09703C45.0166 1.45888 45.8421 1.89989 46.6224 2.42005C47.4026 2.94021 48.1263 3.53953 48.7935 4.2067C49.4606 4.87386 50.06 5.59756 50.5801 6.37781C51.1003 7.15805 51.5413 7.98352 51.9031 8.85423C52.265 9.72494 52.5364 10.6183 52.7173 11.5455C52.8982 12.4728 52.9887 13.4 52.9887 14.3499V38.6392C52.9887 39.5777 52.8982 40.5163 52.7173 41.4435C52.5364 42.3708 52.265 43.2641 51.9031 44.1348C51.5413 45.0055 51.1003 45.831 50.5801 46.6112C50.06 47.3915 49.4606 48.1152 48.7935 48.7823C48.1263 49.4495 47.4026 50.0488 46.6224 50.569C45.8421 51.0891 45.0166 51.5301 44.1459 51.892C43.2752 52.2538 42.3819 52.5252 41.4547 52.7062C40.5274 52.8871 39.6002 52.9776 38.6503 52.9776H14.361C13.4224 52.9776 12.4839 52.8871 11.5566 52.7062C10.6294 52.5252 9.73608 52.2538 8.86537 51.892C7.99467 51.5301 7.16919 51.0891 6.38895 50.569C5.6087 50.0488 4.885 49.4495 4.21784 48.7823C3.55067 48.1152 2.95135 47.3915 2.43119 46.6112C1.91103 45.831 1.47002 45.0055 1.10817 44.1348C0.74632 43.2641 0.474931 42.3708 0.294005 41.4435C0.101772 40.5276 0 39.589 0 38.6505Z" fill="#FCFCFC"/>
<mask id="mask0_160_316" style="mask-type:luminance" maskUnits="userSpaceOnUse" x="0" y="0" width="53" height="53">
<path d="M53 0H0V53H53V0Z" fill="white"/>
</mask>
<g mask="url(#mask0_160_316)">
<path d="M40.991 18.2509V18.3301C40.991 18.9972 41.5451 19.5513 42.2123 19.5513C42.8908 19.5513 43.4335 18.9972 43.4335 18.3301V18.2509C43.4335 17.9456 44.5191 17.9456 44.5191 18.2509V18.3301C44.5191 19.6079 43.4788 20.6369 42.201 20.6369C40.9232 20.6369 39.8942 19.5965 39.8942 18.3301V18.2509C39.9055 17.9569 40.991 17.9569 40.991 18.2509ZM20.6595 22.3557C21.4737 22.3557 22.0956 22.7514 22.3217 23.4978C21.7677 23.6448 21.2136 23.7126 20.6482 23.7126C19.8001 23.7126 19.4948 23.6335 18.952 23.4865C19.1668 22.8306 19.8905 22.3557 20.6595 22.3557ZM43.5692 15.9441H40.8666C39.1252 15.9441 37.6778 17.2897 37.5534 19.0311L37.3612 21.8242C37.2707 23.1472 38.3224 24.2667 39.6454 24.278H44.7905C46.1248 24.278 47.1651 23.1585 47.0747 21.8242L46.8824 19.0311C46.7581 17.2897 45.3106 15.9441 43.5692 15.9441ZM34.1272 15.8084C32.4762 17.3802 34.0593 20.8065 31.0514 22.2539C30.7235 22.4122 30.4408 21.892 29.9998 21.892C28.7446 21.9034 26.336 23.0115 26.2456 23.5656C26.1664 24.0292 27.1954 24.3911 30.2146 24.4024C32.8494 24.4024 33.6975 20.3994 34.6134 20.3994C35.5293 20.3994 35.0996 24.0292 35.0092 24.4024H35.9703C35.8912 24.0292 35.8233 22.8871 35.8346 21.2814C35.8346 19.6757 36.1287 19.3138 36.3548 18.1039C36.547 17.041 34.9866 16.125 34.1272 15.8084ZM19.7775 17.3915C18.9972 15.8423 17.9795 15.5709 17.4707 15.978C17.0862 16.2833 16.1816 17.5159 16.125 17.5951C15.1412 18.9972 15.1978 19.3365 16.4643 20.1393C17.1767 20.5916 17.7534 20.0149 18.0021 19.834C17.8777 20.569 17.5159 21.7337 16.9731 22.5592C16.6791 22.333 16.4643 22.1634 16.3286 22.039C16.1589 21.8807 15.8989 21.892 15.7293 22.0504C15.6501 22.1295 15.6049 22.2313 15.6162 22.3444C15.6162 22.4574 15.6727 22.5592 15.7406 22.6271C17.0636 23.837 18.7937 24.5155 20.6369 24.5268C22.4914 24.5268 24.2328 23.8483 25.5558 22.6271C25.7254 22.4687 25.7367 22.2087 25.5784 22.0504C25.4088 21.8807 25.1487 21.8807 24.9791 22.039C24.8773 22.1295 24.7755 22.22 24.6625 22.3104L24.0858 21.0213C23.9953 20.7952 23.8935 20.5238 23.7805 20.1846C23.837 20.0489 23.9614 19.9132 24.131 19.7322C24.2554 19.6079 24.3572 19.4835 24.4363 19.3704C24.8208 18.7598 24.6059 18.4092 24.4815 18.1718C24.2102 17.6177 23.7805 17.7986 23.4638 18.1265C23.0794 18.5336 22.7062 18.7032 22.1069 18.8389C21.6093 18.952 21.2136 18.8955 20.8969 18.6919C20.4559 18.4092 19.7775 17.3915 19.7775 17.3915ZM12.3821 15.6614H12.1673C11.2853 15.7179 10.6746 16.1024 10.3354 16.6226C9.93962 16.0233 9.1933 15.6049 8.07382 15.6727L8.05121 15.7066C7.92682 15.9102 7.44058 16.8374 8.22082 17.8438C8.37913 18.0134 8.77491 18.4997 8.6166 19.1103L6.33241 22.7967C6.15148 23.102 6.23064 23.4865 6.51334 23.69C7.10134 24.1084 8.28867 24.6738 10.3467 24.6738C12.3934 24.6738 13.5808 24.1084 14.1688 23.69L14.2479 23.6221C14.4741 23.4073 14.5193 23.0681 14.3497 22.7967L12.0768 19.1103L12.0881 19.1782L12.0655 19.0764C11.9411 18.5223 12.2464 18.0813 12.4274 17.8891L12.4726 17.8438C13.2641 16.8374 12.7779 15.9102 12.6422 15.7066L12.6196 15.6727L12.3821 15.6614ZM23.4865 27.5347H17.335C16.713 27.5347 16.1929 28.0435 16.1929 28.6655V36.4453C16.1929 37.0672 16.7017 37.5874 17.335 37.5874H23.4865C24.1084 37.5874 24.6285 37.0785 24.6172 36.4453C24.6172 35.8233 24.1084 35.3032 23.4865 35.3032H18.4658V33.6862H22.8306C23.4525 33.6862 23.9727 33.1773 23.9727 32.5554C23.9727 31.9334 23.4638 31.4133 22.8306 31.4133H18.4658V29.7962H23.4865C24.1084 29.7962 24.6285 29.2874 24.6172 28.6541C24.6172 28.0435 24.1084 27.5347 23.4865 27.5347ZM13.6486 27.5347H7.01088C6.38895 27.5347 5.86879 28.0435 5.86879 28.6655C5.86879 29.2874 6.37764 29.8076 7.01088 29.8076H9.1933V36.4453C9.1933 37.0672 9.70215 37.5874 10.3241 37.5874C10.946 37.5874 11.4662 37.0785 11.4662 36.4453V29.8076H13.6486C14.2705 29.8076 14.7907 29.2987 14.7907 28.6655C14.7907 28.0435 14.2818 27.5347 13.6486 27.5347ZM45.582 27.5347C44.9601 27.5347 44.4399 28.0435 44.4399 28.6655V33.4261C44.4399 34.9187 43.5918 35.6876 42.2123 35.6876C40.8214 35.6876 39.9846 34.8961 39.9846 33.3582V28.6655C39.9846 28.0435 39.4758 27.5234 38.8425 27.5347C38.2206 27.5347 37.7004 28.0435 37.7118 28.6655V33.4035C37.7118 36.1739 39.4079 37.5874 42.1784 37.5874C44.9488 37.5874 46.7128 36.1852 46.7128 33.3356V28.6655C46.7128 28.0435 46.2153 27.5347 45.582 27.5347ZM27.9757 27.5347H27.2746C26.6527 27.5347 26.1325 28.0435 26.1438 28.6655V36.4566C26.1438 37.0785 26.6527 37.5987 27.2746 37.5987C27.8965 37.5987 28.4167 37.0898 28.4167 36.4566V31.3454L30.3277 34.048C30.7235 34.6021 31.549 34.6021 31.956 34.048L33.8671 31.3454V36.4566C33.8671 37.0785 34.3759 37.5987 35.0092 37.5987C35.6311 37.5987 36.1513 37.0898 36.14 36.4566V28.6655C36.14 28.0435 35.6311 27.5234 35.0092 27.5347H34.3081C34.0367 27.5347 33.7766 27.6591 33.6296 27.8852L31.1532 31.6168L28.6655 27.8852C28.5071 27.6704 28.2471 27.5347 27.9757 27.5347ZM41.2285 0C47.7305 0 53.0113 5.26947 53.0113 11.7828V41.2172C53.0113 47.7192 47.7418 53 41.2285 53H11.7828C5.28078 53 0 47.7305 0 41.2172V11.7828C0 5.28078 5.26947 0 11.7828 0H41.2285Z" fill="#FB7701"/>
</g>
</svg>
