<svg width="219" height="212" viewBox="0 0 219 212" fill="none" xmlns="http://www.w3.org/2000/svg">
<g clip-path="url(#clip0_3829_767)">
<path d="M31.0594 174.77C32.6794 173.17 35.2494 173.12 36.9294 174.62L37.0894 174.77C39.0794 176.76 41.2494 178.69 43.4194 180.5C43.4994 180.57 43.5794 180.63 43.6594 180.7C45.4194 182.29 45.5594 185 43.9794 186.76C42.4094 188.51 39.7294 188.66 37.9694 187.11L37.0494 186.36C34.9294 184.59 32.9894 182.77 31.0494 180.84C29.3794 179.17 29.3794 176.45 31.0494 174.78L31.0594 174.77Z" fill="#1043FA" stroke="#1043FA" stroke-width="2"/>
<path d="M15.3803 160.7C16.9703 163.36 18.7003 165.97 20.5403 168.47L20.5503 168.5C22.0103 170.36 24.7103 170.68 26.5703 169.22C28.3403 167.83 28.7303 165.3 27.4703 163.44L27.4503 163.41L26.8303 162.54C25.5903 160.8 24.4103 159.01 23.3003 157.2L22.7503 156.29C21.5403 154.26 18.9103 153.59 16.8703 154.8V154.81C14.8303 156.02 14.1703 158.65 15.3803 160.69V160.7ZM15.3803 160.7C15.3803 160.7 15.3803 160.7 15.3803 160.71V160.7Z" fill="#1043FA"/>
<path d="M15.3803 160.7C16.9703 163.36 18.7003 165.97 20.5403 168.47L20.5503 168.5C22.0103 170.36 24.7103 170.68 26.5703 169.22C28.3403 167.83 28.7303 165.3 27.4703 163.44L27.4503 163.41L26.8303 162.54C25.5903 160.8 24.4103 159.01 23.3003 157.2L22.7503 156.29C21.5403 154.26 18.9103 153.59 16.8703 154.8M15.3803 160.7V160.69C14.1703 158.65 14.8303 156.02 16.8703 154.81V154.8M15.3803 160.7C15.3803 160.7 15.3803 160.7 15.3803 160.71V160.7ZM16.8703 154.8H16.8803" stroke="#1043FA" stroke-width="2"/>
<path d="M218.519 53.3097C218.269 52.7597 217.929 52.2697 217.519 51.8597L211.679 45.7797C210.319 44.4197 208.339 43.9297 206.509 44.4897L197.219 47.3097L187.559 37.0597L212.809 22.9997C214.029 22.4097 214.959 21.3897 215.429 20.1097C215.909 18.8097 215.859 17.3897 215.279 16.1297C215.029 15.5797 214.689 15.0897 214.249 14.6497L206.479 6.87972C205.109 5.55972 203.129 5.09972 201.339 5.65972L167.609 15.8697L156.769 4.35972C153.299 0.339722 147.719 -1.06028 142.779 0.799722H142.569L142.199 0.949722C138.539 2.45972 135.579 5.41972 134.069 9.09972C133.969 9.35972 133.869 9.61972 133.779 9.87972C131.229 9.42972 128.659 10.9297 127.839 13.4697C126.949 16.2497 128.479 19.2397 131.249 20.1297C132.529 20.5497 133.899 21.0297 135.629 21.6697C136.129 22.3697 136.689 23.0397 137.329 23.6597L148.819 34.5597L146.419 42.4897C129.639 31.3597 109.569 27.0697 89.609 30.4197C68.729 33.9097 50.469 45.3297 38.179 62.5597C12.809 98.1297 21.099 147.71 56.669 173.09C70.249 182.78 86.159 187.84 102.519 187.84C106.909 187.84 111.339 187.47 115.769 186.73C136.649 183.24 154.909 171.82 167.199 154.59C177.139 140.65 182.229 124.23 181.919 107.11C181.609 90.4297 176.199 74.5997 166.259 61.2597L169.989 54.5297L180.239 64.1897L177.479 73.3197C176.859 75.1897 177.339 77.2097 178.739 78.6097C180.969 80.8097 184.579 84.3997 185.159 85.0097L185.339 85.2697L185.719 85.4897C186.919 86.1797 188.309 86.3697 189.649 86.0097C190.989 85.6497 192.109 84.7997 192.799 83.5997L201.149 68.2797L216.059 60.1497C217.289 59.5597 218.219 58.5397 218.689 57.2597C219.169 55.9597 219.119 54.5397 218.529 53.2797L218.519 53.3097ZM189.639 58.6697L172.419 42.4597C171.429 41.4897 170.119 40.9897 168.749 40.9797C167.369 40.9897 166.069 41.5397 165.119 42.5197L164.969 42.6797C164.769 42.8997 164.609 43.0797 150.209 69.0097L149.539 68.3397L159.799 34.5297C160.409 32.5297 159.779 30.3897 158.179 29.0497L144.459 16.1397L144.379 16.0697C143.519 15.3397 143.239 14.1497 143.669 13.1397C144.119 12.1197 144.889 11.2997 145.859 10.7897L146.239 10.6597C147.259 10.2697 148.419 10.5597 149.119 11.3997L162.339 25.3697C163.689 26.8297 165.719 27.3697 167.629 26.7997L201.549 16.5597L202.219 17.2297L176.719 31.2397C175.509 31.8997 174.619 32.9997 174.229 34.3297C173.839 35.6597 173.989 37.0597 174.639 38.2497L174.689 38.3397C174.849 38.6397 174.939 38.8097 191.889 56.8397C193.249 58.2797 195.279 58.8097 197.159 58.2397L199.899 57.4097L197.979 58.4697L195.189 59.8497C194.159 60.3597 193.319 61.2097 192.839 62.2297L191.479 64.9897L190.439 66.8697L191.259 64.1497C191.859 62.1597 191.219 60.0297 189.639 58.6997V58.6697ZM116.459 175.67C99.169 179.15 81.489 175.92 66.489 166.5C50.969 156.75 40.169 141.55 36.079 123.68C35.319 120.34 34.799 116.93 34.549 113.5C37.099 114.76 40.469 117.76 43.989 120.89L44.619 121.45C54.509 130.28 68.069 142.38 87.989 141.69C92.779 141.77 97.459 140.87 101.929 139.02C104.219 138.01 105.949 136.05 106.679 133.65L106.709 133.52C107.319 130.83 106.559 128.04 104.679 126.03C102.239 123.08 97.329 119.98 89.649 116.56C83.509 113.85 81.559 111.54 80.999 110.08C80.629 109.13 80.699 108.16 81.209 107.01C83.019 102.78 89.009 97.5497 95.359 92.0097L97.369 90.2497C103.259 85.4897 108.869 80.2597 114.079 74.6697C124.309 63.0197 126.759 52.3497 121.469 42.1997C129.299 44.3997 136.749 48.0197 143.309 52.8097L138.689 68.0597C138.079 69.9197 138.559 71.9397 139.949 73.3397C148.309 81.6297 148.509 81.7497 148.789 81.9097C151.259 83.3397 154.429 82.4997 155.859 80.0297L160.719 71.2497C163.549 75.6697 165.859 80.3997 167.609 85.3597C168.389 87.5497 169.059 89.7997 169.609 92.0697C156.879 98.8497 155.629 104.01 154.689 111.73C153.969 117.69 153.069 125.1 135.469 139.78C129.399 144.43 124.289 150.09 120.259 156.67C116.999 162.44 115.669 169.12 116.459 175.67ZM106.239 67.9797C101.399 73.1097 96.159 77.9397 90.619 82.3797C82.409 89.3697 74.649 95.9697 71.609 102.82C69.559 107.44 69.589 111.7 71.679 115.48C73.899 119.48 78.369 122.93 85.359 126.02C89.699 127.95 92.409 129.45 94.109 130.57C92.029 131.06 89.909 131.28 87.749 131.23H87.679H87.609C71.939 131.89 60.689 121.84 51.659 113.76L51.559 113.67C45.559 108.33 40.289 103.64 34.679 102.63C36.009 86.4997 42.989 71.3897 54.459 59.8997C67.379 46.9897 84.539 39.8797 102.799 39.8797C104.029 39.8797 105.209 39.9097 106.409 39.9697C115.619 48.7697 115.539 57.4497 106.229 67.9797H106.239ZM126.659 172.83C126.499 168.93 127.419 165.03 129.319 161.68C132.679 156.29 136.939 151.6 142.059 147.69C162.899 130.3 164.119 120.21 165.009 112.83C165.469 109.01 165.759 106.52 171.369 102.92C171.519 104.74 171.589 106.58 171.589 108.4V109.51C171.139 137.98 153.299 163.03 126.669 172.82L126.659 172.83Z" fill="#1043FA"/>
<path d="M49.81 190.57C51.01 188.53 53.63 187.85 55.67 189.03L57.54 190.08C59.42 191.12 61.34 192.15 63.28 193.11C65.41 194.13 66.33 196.68 65.32 198.82C64.31 200.97 61.75 201.89 59.61 200.88C56.81 199.49 54.05 198.03 51.37 196.46C49.33 195.26 48.64 192.63 49.84 190.59L49.81 190.57Z" fill="#1043FA" stroke="#1043FA" stroke-width="2"/>
<path d="M5.19995 101.54L5.34995 101.56H5.90995C8.57995 101.56 10.84 99.5602 11.16 96.9102C11.51 94.0602 11.98 91.2702 12.54 88.7202C13.43 86.0002 11.96 83.0302 9.25995 82.0902C6.59995 81.1602 3.67995 82.4802 2.60995 85.1102L2.51995 85.3402C2.38995 85.7002 2.30995 86.0702 2.25995 86.4502C1.61995 89.3702 1.09995 92.4602 0.719952 95.6202C0.339952 98.4702 2.34995 101.13 5.19995 101.54Z" fill="#1043FA"/>
<path d="M14.5908 135.58L14.2908 134.57C13.4808 131.77 10.5308 130.16 7.7408 130.97L8.0208 131.93L7.6208 131C4.8608 131.84 3.2708 134.79 4.0908 137.56L4.1208 137.65C5.0208 140.66 6.0508 143.63 7.1808 146.51C7.7108 147.83 8.7208 148.86 10.0308 149.42C10.7008 149.71 11.4108 149.85 12.1208 149.85C12.8308 149.85 13.4608 149.72 14.1108 149.46C15.4308 148.93 16.4608 147.92 17.0208 146.61C17.5808 145.3 17.5908 143.86 17.0608 142.54C16.1208 140.17 15.2908 137.83 14.6008 135.58H14.5908Z" fill="#1043FA"/>
<path d="M18.0604 59.64C15.4604 58.33 12.2705 59.38 10.9605 61.99L10.4405 63.04C9.21045 65.55 8.09045 68.09 7.12045 70.6C6.06045 73.3 7.39045 76.36 10.0905 77.44C10.7305 77.69 11.3805 77.81 12.0305 77.81C14.1105 77.81 16.0705 76.58 16.9205 74.55L16.9604 74.45C18.1704 71.38 19.2605 68.95 20.4104 66.75C21.7204 64.15 20.6704 60.96 18.0704 59.65L18.0604 59.64Z" fill="#1043FA"/>
<path d="M6.48985 126.08L6.67985 126.06C9.50985 125.7 11.5299 123.16 11.2699 120.3V120.21V120.19C11.2699 120.17 11.2699 120.15 11.2699 120.13C10.9699 117.66 10.7499 115.19 10.6299 112.79L10.5799 111.74C10.4699 108.83 8.03986 106.52 5.09985 106.65C2.20985 106.76 -0.070145 109.19 0.009855 112.06V112.65C0.059855 115.77 0.429855 118.86 0.769855 121.53C1.12985 124.1 3.27985 126.02 5.90985 126.08H6.49986H6.48985Z" fill="#1043FA"/>
<path d="M98.4989 10.5401C98.3589 9.1301 97.6889 7.8601 96.5889 6.9601C95.5089 6.0701 94.1489 5.6501 92.7589 5.7701H92.6989C89.4989 6.1001 86.3789 6.5501 83.4989 7.1201C80.6289 7.4301 78.5189 10.0101 78.7889 12.8801C78.9189 14.2901 79.5889 15.5701 80.6789 16.4701C81.6389 17.2701 82.8189 17.6901 84.0589 17.6901C84.2289 17.6901 84.3889 17.6901 84.5589 17.6701L85.7189 17.5601L86.8589 17.3801L86.8389 17.2801C89.1189 16.8801 91.4289 16.5601 93.7289 16.3301C96.6389 16.0501 98.7789 13.4501 98.4989 10.5401Z" fill="#1043FA"/>
<path d="M32.759 40.0399C31.699 39.0999 30.329 38.6299 28.919 38.7199C27.499 38.8099 26.209 39.4399 25.259 40.5099C23.219 42.8399 21.249 45.3199 19.399 47.8899C18.569 49.0299 18.239 50.4299 18.459 51.8299C18.679 53.2299 19.439 54.4499 20.579 55.2799C20.919 55.5299 21.289 55.7299 21.669 55.8899L22.559 56.2199L23.659 56.3299H23.679C25.369 56.3299 26.969 55.5099 27.959 54.1399C29.679 51.7699 31.449 49.5399 33.209 47.5399C35.149 45.3499 34.939 41.9899 32.749 40.0499L32.759 40.0399Z" fill="#1043FA"/>
<path d="M123.209 11.9803C123.419 9.11025 121.259 6.56025 118.449 6.32025C115.329 5.85025 112.189 5.52025 109.109 5.34025C106.189 5.16025 103.679 7.39025 103.509 10.3103C103.339 13.2103 105.549 15.7303 108.449 15.9103C111.519 16.1403 114.279 16.4503 116.959 16.8703H117.039H117.629C117.739 16.8703 117.839 16.8703 117.939 16.8703C120.679 16.8703 123.019 14.7303 123.219 11.9603L123.209 11.9803Z" fill="#1043FA"/>
<path d="M44.5497 23.4103C42.0697 25.1103 39.5497 27.0203 37.0397 29.0903C35.9497 29.9903 35.2797 31.2703 35.1497 32.6703C35.0197 34.0803 35.4497 35.4503 36.3497 36.5403C37.3897 37.8003 38.8997 38.4503 40.4197 38.4503C41.6097 38.4503 42.8197 38.0503 43.8097 37.2203C45.8997 35.4603 48.1697 33.7503 50.5897 32.0803C51.7297 31.2403 52.4697 30.0103 52.6797 28.6203C52.8897 27.2303 52.5497 25.8303 51.7097 24.6903C50.0597 22.4503 46.9397 21.8703 44.5397 23.4103H44.5497Z" fill="#1043FA"/>
<path d="M74.7305 15.2507L74.6605 14.9907C74.2905 13.6307 73.4005 12.4907 72.1805 11.7907C70.9505 11.0907 69.5306 10.9107 68.1606 11.2907C67.9406 11.3507 67.7205 11.4307 67.5505 11.5007C65.1405 12.3807 61.9805 13.5907 58.8705 15.1507L58.6505 15.2607C56.1605 16.5807 55.1405 19.6107 56.3505 22.2007L56.5105 22.5107C57.4405 24.1707 59.2005 25.2107 61.1505 25.2207C61.9205 25.2007 62.6505 25.0307 63.3405 24.7007C65.8505 23.5107 68.4605 22.4207 71.0405 21.4707C73.7105 20.7007 75.3405 17.9707 74.7405 15.2507H74.7305Z" fill="#1043FA"/>
<path d="M108.861 200.621H108.831C106.051 200.841 103.221 200.901 100.381 200.811H100.131C97.3108 200.881 95.0508 203.141 94.9708 205.961C94.8908 208.881 97.2008 211.311 100.141 211.391H102.951C105.151 211.391 107.421 211.391 109.561 211.181C112.451 210.981 114.661 208.461 114.471 205.571C114.291 202.661 111.761 200.451 108.851 200.621H108.861Z" fill="#1043FA"/>
<path d="M199.289 127.671L198.759 127.541C195.999 126.991 193.289 128.691 192.589 131.431C191.929 134.051 191.099 136.761 190.109 139.521C189.199 142.221 190.639 145.211 193.319 146.181C193.899 146.391 194.509 146.491 195.109 146.491C195.879 146.491 196.649 146.321 197.359 145.981C198.569 145.411 199.499 144.431 200.009 143.171L200.149 143.031V142.791C201.129 140.011 202.039 137.071 202.809 134.131L202.839 134.021C203.539 131.291 201.969 128.501 199.279 127.661L199.289 127.671Z" fill="#1043FA"/>
<path d="M192.54 85.0304C193.21 87.5704 193.8 90.3504 194.3 93.3204C194.76 95.8104 196.92 97.6304 199.46 97.6604H200.1L200.34 97.6304C203.22 97.1604 205.18 94.4404 204.71 91.5504L204.51 90.4004C204.02 87.6404 203.43 84.9304 202.74 82.2604L202.66 82.0203C201.71 79.3703 198.85 77.9304 196.15 78.7504C193.52 79.5504 191.92 82.2703 192.52 84.9503L192.54 85.0304Z" fill="#1043FA"/>
<path d="M191.439 150.91C191.369 150.87 191.289 150.83 191.209 150.78C188.669 149.45 185.569 150.36 184.149 152.88C182.779 155.38 181.299 157.8 179.749 160.06C178.939 161.22 178.619 162.62 178.859 164.02C179.099 165.41 179.869 166.63 181.029 167.44C181.949 168.09 183.009 168.4 184.059 168.4C185.729 168.4 187.389 167.61 188.429 166.12C190.139 163.58 191.789 160.89 193.319 158.15C194.799 155.64 193.949 152.39 191.439 150.91Z" fill="#1043FA"/>
<path d="M200.839 102.64H200.729C197.869 102.67 195.539 104.99 195.499 107.86V108.39C195.499 111.2 195.369 114.05 195.119 116.85C194.859 119.7 196.959 122.26 199.749 122.57H199.779C199.779 122.57 199.799 122.57 199.809 122.57H199.879H200.009L200.059 122.58H200.399C200.399 122.58 200.419 122.58 200.439 122.58C203.199 122.58 205.509 120.43 205.709 117.7C205.989 114.69 206.129 111.53 206.129 108.33V107.88C206.109 104.99 203.749 102.64 200.859 102.63L200.839 102.64Z" fill="#1043FA"/>
<path d="M85.6691 199.19C83.0291 198.74 80.6991 198.23 78.5491 197.62L77.5791 197.34C74.8491 196.41 71.8491 197.87 70.8891 200.59C69.9191 203.34 71.3691 206.36 74.1291 207.33C74.3091 207.39 74.4891 207.44 74.6291 207.48C77.4091 208.27 80.4791 209.02 83.7591 209.71L83.9591 209.75H84.6791C84.8191 209.75 84.9491 209.76 85.0791 209.76C87.7791 209.76 90.0991 207.68 90.3591 204.95C90.6291 202.09 88.5291 199.51 85.6691 199.19Z" fill="#1043FA"/>
<path d="M131.71 196.221L130.26 196.641L128.92 197.131C126.58 197.851 125.68 198.071 123.52 198.471C120.67 199.111 118.88 201.951 119.52 204.801C120.07 207.261 122.26 208.931 124.68 208.931C125.06 208.931 125.46 208.891 125.85 208.801C128.84 208.121 131.89 207.281 134.89 206.311L135 206.271C136.33 205.781 137.38 204.811 137.97 203.521C138.56 202.241 138.62 200.801 138.13 199.481C137.18 196.901 134.36 195.471 131.72 196.221H131.71Z" fill="#1043FA"/>
<path d="M170.43 171.62L168.11 174.07C166.83 175.34 165.52 176.52 164.39 177.54C162.21 179.48 162.02 182.83 163.97 185.01C165.01 186.17 166.45 186.77 167.91 186.77C169.17 186.77 170.45 186.32 171.47 185.41C173.47 183.55 175.97 181.23 178.16 178.85C180.13 176.7 179.97 173.35 177.82 171.38C175.68 169.43 172.44 169.54 170.44 171.63L170.43 171.62Z" fill="#1043FA"/>
<path d="M160.16 188.45L160.04 188.23C159.74 187.74 159.4 187.26 159.02 186.84C157.93 185.64 156.25 185.16 154.66 185.49L152.59 186.45C150.98 187.48 149.19 188.54 147.11 189.72L145.24 190.76C142.67 192.1 141.66 195.29 142.98 197.86C143.92 199.68 145.77 200.73 147.69 200.73C148.48 200.73 149.27 200.55 150.02 200.18L150.1 200.14C152.81 198.74 155.55 197.17 158.21 195.48C160.63 194.03 161.49 190.95 160.16 188.45Z" fill="#1043FA"/>
<path d="M48.4902 201.49C68.0963 201.49 83.9902 185.596 83.9902 165.99C83.9902 146.384 68.0963 130.49 48.4902 130.49C28.8841 130.49 12.9902 146.384 12.9902 165.99C12.9902 185.596 28.8841 201.49 48.4902 201.49Z" fill="white"/>
<path d="M48.5001 137.83C50.4401 137.83 52.0201 139.41 52.0201 141.35V145.02H52.7101C59.2801 145.02 64.9001 149.62 64.9001 155.6C64.9001 157.54 63.3201 159.12 61.3801 159.12C59.4401 159.12 57.8601 157.54 57.8601 155.6C57.8601 154.78 57.3801 153.91 56.4401 153.22C55.5001 152.53 54.1801 152.07 52.7101 152.07H52.0201V162.52C59.1101 163.1 64.9001 168.21 64.9001 174.7C64.9001 181.19 59.1001 186.29 52.0201 186.88V190.62C52.0201 192.57 50.4401 194.14 48.5001 194.14C46.5601 194.14 44.9801 192.56 44.9801 190.62V186.95H44.2801C37.7001 186.95 32.0801 182.35 32.0801 176.37C32.0801 174.43 33.6601 172.85 35.6001 172.85C37.5401 172.85 39.1201 174.43 39.1201 176.37C39.1201 177.19 39.5901 178.06 40.5401 178.75C41.4801 179.44 42.8101 179.9 44.2801 179.9H44.9701V169.21C42.5801 168.93 40.6001 168.43 38.8701 167.68C36.6901 166.72 34.9801 165.34 33.8201 163.56C32.6601 161.78 32.0801 159.66 32.0801 157.28C32.0801 150.79 37.8801 145.68 44.9701 145.1V141.36C44.9701 139.41 46.5501 137.84 48.4901 137.84L48.5001 137.83ZM52.0201 179.79C53.5501 179.57 54.9101 178.98 55.9301 178.17C57.1801 177.19 57.8601 175.94 57.8601 174.69C57.8601 173.44 57.1801 172.19 55.9301 171.21C54.9101 170.41 53.5501 169.82 52.0201 169.59V179.78V179.79ZM44.9801 152.17C43.4501 152.39 42.0901 152.98 41.0601 153.79C39.8101 154.77 39.1301 156.02 39.1301 157.27C39.1301 158.52 39.3701 159.46 40.2001 160.25C40.9801 160.99 42.3901 161.68 44.9801 162.09V152.18V152.17Z" fill="#1043FA" stroke="#1043FA" stroke-width="2"/>
<path d="M48.5 122.98C24.79 122.98 5.5 142.27 5.5 165.99C5.5 189.71 24.79 208.99 48.5 208.99C72.21 208.99 91.5 189.7 91.5 165.99C91.5 142.28 72.21 122.98 48.5 122.98ZM81.46 165.99C81.46 174.78 78.03 183.05 71.8 189.28C65.57 195.51 57.3 198.94 48.51 198.94C30.34 198.94 15.55 184.16 15.55 165.98C15.55 147.8 30.33 133.01 48.51 133.01C66.69 133.01 81.47 147.8 81.47 165.98L81.46 165.99Z" fill="#1043FA"/>
</g>
<defs>
<clipPath id="clip0_3829_767">
<rect width="219" height="211.39" fill="white"/>
</clipPath>
</defs>
</svg>
