<?xml version="1.0" encoding="utf-8"?>
<!-- Generator: Adobe Illustrator 28.0.0, SVG Export Plug-In . SVG Version: 6.00 Build 0)  -->
<svg version="1.1" id="Capa_1" xmlns="http://www.w3.org/2000/svg" xmlns:xlink="http://www.w3.org/1999/xlink" x="0px" y="0px"
	 viewBox="0 0 112.2 112.2" style="enable-background:new 0 0 112.2 112.2;" xml:space="preserve">
<path d="M63.5,56.1c-1.3,0-2.6,1.2-2.6,2.6c0,1.2,1.3,2.4,2.6,2.4c1.9,0,3.3-1.2,3.3-2.4C66.8,57.3,65.4,56.1,63.5,56.1L63.5,56.1z
	 M55.1,43.8c2,0,3.3-1.3,3.3-3.2c0-2-1.3-3.2-3.3-3.2c-1.9,0-3.7,1.2-3.7,3.2C51.4,42.5,53.2,43.8,55.1,43.8L55.1,43.8z M56.1,0.1
	C25.1,0.1,0,25.2,0,56.1c0,31,25.1,56.1,56.1,56.1c31,0,56.1-25.1,56.1-56.1C112.2,25.2,87.1,0.1,56.1,0.1L56.1,0.1z M45.5,70.3
	c-3.4,0-5.8-0.5-9-1.5l-9.2,4.7l2.6-7.9c-6.5-4.6-10.3-10.3-10.3-17.4c0-12.4,11.7-21.9,25.9-21.9c12.6,0,23.8,7.5,26,18.1
	c-0.9-0.2-1.7-0.3-2.5-0.3c-12.4,0-22,9.3-22,20.5c0,1.9,0.3,3.7,0.7,5.5C47.1,70.3,46.2,70.3,45.5,70.3L45.5,70.3z M83.6,79.3
	l1.8,6.6l-6.9-3.9c-2.6,0.5-5.2,1.4-7.9,1.4c-12.2,0-21.9-8.4-21.9-18.8c0-10.4,9.7-18.8,21.9-18.8c11.6,0,22,8.4,22,18.8
	C92.6,70.3,88.7,75.6,83.6,79.3L83.6,79.3z M37,37.4c-1.9,0-3.9,1.2-3.9,3.2c0,1.9,2,3.2,3.9,3.2c1.8,0,3.3-1.3,3.3-3.2
	C40.3,38.6,38.8,37.4,37,37.4L37,37.4z M77.8,56.1c-1.4,0-2.6,1.2-2.6,2.6c0,1.2,1.2,2.4,2.6,2.4c1.8,0,3.2-1.2,3.2-2.4
	C81,57.3,79.7,56.1,77.8,56.1L77.8,56.1z"/>
</svg>
